<svg id="kity_svg_6" xmlns="http://www.w3.org/2000/svg" xmlns:xlink="http://www.w3.org/1999/xlink" version="1.1" width="2260" height="1023" style="background: rgb(251, 251, 251); visibility: visible;" viewBox="0 0 2260 1023"><defs id="kity_defs_7"><linearGradient id="kity_linearGradient_17" x1="0" y1="0" x2="0" y2="1"><stop id="kity_stop_18" offset="0" stop-color="rgb(255, 255, 255)"></stop><stop id="kity_stop_19" offset="1" stop-color="rgb(204, 204, 204)"></stop></linearGradient><marker id="kity_marker_2" orient="auto" refX="6" refY="0" viewBox="-7 -7 14 14" markerWidth="7" markerHeight="7" markerUnits="userSpaceOnUse"><path id="kity_path_3" fill="rgb(115, 161, 191)" stroke="none" d="M6,0A6,6,0,1,1,-6,0A6,6,0,1,1,6,0"></path></marker></defs><g id="kity_g_8"><g id="minder1" text-rendering="optimize-speed"><g id="minder_connect_group1"><path id="kity_path_31" fill="none" stroke="rgb(191, 115, 115)" stroke-width="1" d="M843.5000128522515,84.50000108033419v30h-761.5V134.5000010803342"></path><path id="kity_path_122" fill="none" stroke="rgb(191, 115, 115)" stroke-width="1" d="M843.5000128522515,84.50000108033419v30h-86.5V134.5000010803342"></path><path id="kity_path_154" fill="none" stroke="rgb(191, 115, 115)" stroke-width="1" d="M843.5000128522515,84.50000108033419v30h777V134.5000010803342"></path><path id="kity_path_162" fill="none" stroke="rgb(191, 115, 115)" stroke-width="1" d="M843.5000128522515,84.50000108033419v30h308V134.5000010803342"></path><path id="kity_path_170" fill="none" stroke="rgb(191, 115, 115)" stroke-width="1" d="M1117.5000128522515,166.5000010803342V212.5000010803342L1137.5000128522515,212.5000010803342"></path><path id="kity_path_269" fill="none" stroke="rgb(191, 115, 115)" stroke-width="1" d="M1593.5000128522515,166.5000010803342V212.5000010803342L1613.5000128522515,212.5000010803342"></path><path id="kity_path_270" fill="none" stroke="rgb(191, 115, 115)" stroke-width="1" d="M40.50001285225153,166.5000010803342V628.5000010803342L60.50001285225153,628.5000010803342"></path><path id="kity_path_271" fill="none" stroke="rgb(191, 115, 115)" stroke-width="1" d="M1593.5000128522515,166.5000010803342V576.5000010803342L1613.5000128522515,576.5000010803342"></path><path id="kity_path_344" fill="none" stroke="rgb(191, 115, 115)" stroke-width="1" d="M80.50001285225153,223.5000010803342V264.5000010803342L100.50001285225153,264.5000010803342"></path><path id="kity_path_345" fill="none" stroke="rgb(191, 115, 115)" stroke-width="1" d="M80.50001285225153,223.5000010803342V316.5000010803342L100.50001285225153,316.5000010803342"></path><path id="kity_path_346" fill="none" stroke="rgb(191, 115, 115)" stroke-width="1" d="M40.50001285225153,166.5000010803342V212.5000010803342L60.50001285225153,212.5000010803342"></path><path id="kity_path_347" fill="none" stroke="rgb(191, 115, 115)" stroke-width="1" d="M80.50001285225153,379.5000010803342V420.5000010803342L100.50001285225153,420.5000010803342"></path><path id="kity_path_348" fill="none" stroke="rgb(191, 115, 115)" stroke-width="1" d="M80.50001285225153,379.5000010803342V524.5000010803342L100.50001285225153,524.5000010803342"></path><path id="kity_path_349" fill="none" stroke="rgb(191, 115, 115)" stroke-width="1" d="M80.50001285225153,379.5000010803342V576.5000010803342L100.50001285225153,576.5000010803342"></path><path id="kity_path_350" fill="none" stroke="rgb(191, 115, 115)" stroke-width="1" d="M40.50001285225153,166.5000010803342V368.5000010803342L60.50001285225153,368.5000010803342"></path><path id="kity_path_351" fill="none" stroke="rgb(191, 115, 115)" stroke-width="1" d="M701.5000128522515,166.5000010803342V212.5000010803342L721.5000128522515,212.5000010803342"></path><path id="kity_path_352" fill="none" stroke="rgb(191, 115, 115)" stroke-width="1" d="M701.5000128522515,166.5000010803342V576.5000010803342L721.5000128522515,576.5000010803342"></path><path id="kity_path_355" fill="none" stroke="rgb(191, 115, 115)" stroke-width="1" d="M701.5000128522515,166.5000010803342V368.5000010803342L721.5000128522515,368.5000010803342"></path><path id="kity_path_363" fill="none" stroke="rgb(191, 115, 115)" stroke-width="1" d="M741.5000128522515,223.5000010803342V264.5000010803342L761.5000128522515,264.5000010803342"></path><path id="kity_path_379" fill="none" stroke="rgb(191, 115, 115)" stroke-width="1" d="M741.5000128522515,223.5000010803342V316.5000010803342L761.5000128522515,316.5000010803342"></path><path id="kity_path_387" fill="none" stroke="rgb(191, 115, 115)" stroke-width="1" d="M741.5000128522515,379.5000010803342V420.5000010803342L761.5000128522515,420.5000010803342"></path><path id="kity_path_403" fill="none" stroke="rgb(191, 115, 115)" stroke-width="1" d="M741.5000128522515,379.5000010803342V472.5000010803342L761.5000128522515,472.5000010803342"></path><path id="kity_path_412" fill="none" stroke="rgb(191, 115, 115)" stroke-width="1" d="M781.5000128522515,483.5000010803342V524.5000010803342L801.5000128522515,524.5000010803342"></path><path id="kity_path_420" fill="none" stroke="rgb(191, 115, 115)" stroke-width="1" d="M741.5000128522515,587.5000010803342V628.5000010803342L761.5000128522515,628.5000010803342"></path><path id="kity_path_428" fill="none" stroke="rgb(191, 115, 115)" stroke-width="1" d="M741.5000128522515,587.5000010803342V680.5000010803342L761.5000128522515,680.5000010803342"></path><path id="kity_path_436" fill="none" stroke="rgb(191, 115, 115)" stroke-width="1" d="M120.50001285225153,431.5000010803342V472.5000010803342L140.50001285225153,472.5000010803342"></path><path id="kity_path_452" fill="none" stroke="rgb(191, 115, 115)" stroke-width="1" d="M1157.5000128522515,223.5000010803342V264.5000010803342L1177.5000128522515,264.5000010803342"></path><path id="kity_path_460" fill="none" stroke="rgb(191, 115, 115)" stroke-width="1" d="M1157.5000128522515,223.5000010803342V316.5000010803342L1177.5000128522515,316.5000010803342"></path><path id="kity_path_468" fill="none" stroke="rgb(191, 115, 115)" stroke-width="1" d="M1157.5000128522515,223.5000010803342V368.5000010803342L1177.5000128522515,368.5000010803342"></path><path id="kity_path_476" fill="none" stroke="rgb(191, 115, 115)" stroke-width="1" d="M1117.5000128522515,166.5000010803342V836.5000010803342L1137.5000128522515,836.5000010803342"></path><path id="kity_path_484" fill="none" stroke="rgb(191, 115, 115)" stroke-width="1" d="M1117.5000128522515,166.5000010803342V472.5000010803342L1137.5000128522515,472.5000010803342"></path><path id="kity_path_492" fill="none" stroke="rgb(191, 115, 115)" stroke-width="1" d="M1157.5000128522515,223.5000010803342V420.5000010803342L1177.5000128522515,420.5000010803342"></path><path id="kity_path_505" fill="none" stroke="rgb(191, 115, 115)" stroke-width="1" d="M1633.5000128522515,223.5000010803342V264.5000010803342L1653.5000128522515,264.5000010803342"></path><path id="kity_path_513" fill="none" stroke="rgb(191, 115, 115)" stroke-width="1" d="M1633.5000128522515,587.5000010803342V836.5000010803342L1653.5000128522515,836.5000010803342"></path><path id="kity_path_529" fill="none" stroke="rgb(191, 115, 115)" stroke-width="1" d="M1633.5000128522515,223.5000010803342V368.5000010803342L1653.5000128522515,368.5000010803342"></path><path id="kity_path_537" fill="none" stroke="rgb(191, 115, 115)" stroke-width="1" d="M1157.5000128522515,483.5000010803342V524.5000010803342L1177.5000128522515,524.5000010803342"></path><path id="kity_path_545" fill="none" stroke="rgb(191, 115, 115)" stroke-width="1" d="M1157.5000128522515,483.5000010803342V680.5000010803342L1177.5000128522515,680.5000010803342"></path><path id="kity_path_569" fill="none" stroke="rgb(191, 115, 115)" stroke-width="1" d="M1197.5000128522515,535.5000010803342V576.5000010803342L1217.5000128522515,576.5000010803342"></path><path id="kity_path_577" fill="none" stroke="rgb(191, 115, 115)" stroke-width="1" d="M1197.5000128522515,535.5000010803342V628.5000010803342L1217.5000128522515,628.5000010803342"></path><path id="kity_path_585" fill="none" stroke="rgb(191, 115, 115)" stroke-width="1" d="M1197.5000128522515,691.5000010803342V732.5000010803342L1217.5000128522515,732.5000010803342"></path><path id="kity_path_593" fill="none" stroke="rgb(191, 115, 115)" stroke-width="1" d="M1197.5000128522515,691.5000010803342V784.5000010803342L1217.5000128522515,784.5000010803342"></path><path id="kity_path_601" fill="none" stroke="rgb(191, 115, 115)" stroke-width="1" d="M1633.5000128522515,223.5000010803342V472.5000010803342L1653.5000128522515,472.5000010803342"></path><path id="kity_path_617" fill="none" stroke="rgb(191, 115, 115)" stroke-width="1" d="M1633.5000128522515,587.5000010803342V628.5000010803342L1653.5000128522515,628.5000010803342"></path><path id="kity_path_625" fill="none" stroke="rgb(191, 115, 115)" stroke-width="1" d="M1673.5000128522515,639.5000010803342V680.5000010803342L1693.5000128522515,680.5000010803342"></path><path id="kity_path_633" fill="none" stroke="rgb(191, 115, 115)" stroke-width="1" d="M1673.5000128522515,639.5000010803342V732.5000010803342L1693.5000128522515,732.5000010803342"></path><path id="kity_path_641" fill="none" stroke="rgb(191, 115, 115)" stroke-width="1" d="M1673.5000128522515,639.5000010803342V784.5000010803342L1693.5000128522515,784.5000010803342"></path><path id="kity_path_657" fill="none" stroke="rgb(191, 115, 115)" stroke-width="1" d="M1673.5000128522515,847.5000010803342V888.5000010803342L1693.5000128522515,888.5000010803342"></path><path id="kity_path_673" fill="none" stroke="rgb(191, 115, 115)" stroke-width="1" d="M1673.5000128522515,847.5000010803342V940.5000010803342L1693.5000128522515,940.5000010803342"></path><path id="kity_path_681" fill="none" stroke="rgb(191, 115, 115)" stroke-width="1" d="M1673.5000128522515,847.5000010803342V992.5000010803342L1693.5000128522515,992.5000010803342"></path><path id="kity_path_689" fill="none" stroke="rgb(191, 115, 115)" stroke-width="1" d="M1673.5000128522515,275.5000010803342V316.5000010803342L1693.5000128522515,316.5000010803342"></path><path id="kity_path_697" fill="none" stroke="rgb(191, 115, 115)" stroke-width="1" d="M1673.5000128522515,379.5000010803342V420.5000010803342L1693.5000128522515,420.5000010803342"></path><path id="kity_path_705" fill="none" stroke="rgb(191, 115, 115)" stroke-width="1" d="M1673.5000128522515,483.5000010803342V524.5000010803342L1693.5000128522515,524.5000010803342"></path><path id="kity_path_713" fill="none" stroke="rgb(191, 115, 115)" stroke-width="1" d="M80.50001285225153,639.5000010803342V732.5000010803342L100.50001285225153,732.5000010803342"></path><path id="kity_path_721" fill="none" stroke="rgb(191, 115, 115)" stroke-width="1" d="M80.50001285225153,639.5000010803342V680.5000010803342L100.50001285225153,680.5000010803342"></path><path id="kity_path_729" fill="none" stroke="rgb(191, 115, 115)" stroke-width="1" d="M80.50001285225153,639.5000010803342V784.5000010803342L100.50001285225153,784.5000010803342"></path><path id="kity_path_761" fill="none" stroke="rgb(191, 115, 115)" stroke-width="1" d="M1157.5000128522515,847.5000010803342V888.5000010803342L1177.5000128522515,888.5000010803342"></path></g><g id="minder_node1"><path id="node_outline1" fill="rgb(191, 115, 115)" stroke="rgb(96, 57, 57)" d="M613.5000128522515,20.500001080334187h459a5,5,0,0,1,5,5v54a5,5,0,0,1,-5,5h-459a5,5,0,0,1,-5,-5v-54a5,5,0,0,1,5,-5z" stroke-width="3"></path><g id="node_text1" fill="white"><text id="kity_text_22" text-rendering="inherit" font-size="16" dy=".8em" y="30.1000010445714" x="632.5000128522515">科技、娱乐与设计</text><text id="kity_text_778" text-rendering="inherit" font-size="16" dy=".8em" y="54.1000010445714" x="632.5000128522515">https://wordlesssoda.github.io/TED_notes/TED.svg</text></g><a id="kity_a_768" xlink:href="https://wordlesssoda.github.io/TED_notes/TED.svg" target="_blank" xlink:title="https://wordlesssoda.github.io/TED_notes/TED.svg" style="cursor: pointer;"><path id="kity_path_770" fill="rgba(255, 255, 255, 0)" stroke="none" d="M1033.5000187978148,41.50000100582838h16a4,4,0,0,1,4,4v14a4,4,0,0,1,-4,4h-16a4,4,0,0,1,-4,-4v-14a4,4,0,0,1,4,-4z"></path><path id="kity_path_769" fill="#666" stroke="none" d="M1048.1140187978149,57.724001005828384h-1.278c-1.668,0,-3.07,-1.07,-3.599,-2.556h4.877c0.707,0,1.278,-0.571,1.278,-1.278V51.334001005828384c0,-0.707,-0.571,-1.278,-1.278,-1.278h-4.877C1043.766018797815,48.57100100582838,1045.1680187978147,47.50000100582838,1046.8360187978149,47.50000100582838h1.278c2.116,0,3.834,1.716,3.834,3.834V53.89000100582838C1051.948018797815,56.008001005828376,1050.2300187978149,57.724001005828384,1048.1140187978149,57.724001005828384zM1036.612018797815,52.61200100582838c0,-0.707,0.573,-1.278,1.278,-1.278h7.668c0.707,0,1.278,0.571,1.278,1.278S1046.265018797815,53.89000100582838,1045.5580187978148,53.89000100582838H1037.890018797815C1037.1850187978148,53.89000100582838,1036.612018797815,53.31900100582838,1036.612018797815,52.61200100582838zM1034.0560187978149,51.334001005828384V53.89000100582838c0,0.707,0.573,1.278,1.278,1.278h4.877c-0.528,1.486,-1.932,2.556,-3.599,2.556H1035.334018797815C1033.2160187978147,57.724001005828384,1031.5000187978148,56.008001005828376,1031.5000187978148,53.89000100582838V51.334001005828384C1031.5000187978148,49.21600100582838,1033.2160187978147,47.50000100582838,1035.334018797815,47.50000100582838h1.278c1.667,0,3.071,1.071,3.599,2.556H1035.334018797815C1034.6290187978148,50.05600100582838,1034.0560187978149,50.62700100582838,1034.0560187978149,51.334001005828384z"></path></a><g id="kity_g_771" display="none"><g id="kity_g_772"><path id="kity_path_773" fill="rgb(255, 244, 179)" stroke="none" d="M771.5000149235129,39.500001065433025h306v24h-306z"></path><text id="kity_text_774" text-rendering="geometricPrecision" font-size="12" dy="5" x="779.5000149235129" fill="rgb(77, 65, 0)" y="51.500001065433025">https://wordlesssoda.github.io/TED_notes/TED.svg</text></g></g><g id="kity_g_775" style="cursor: pointer;" display="none"><path id="kity_path_776" fill="none" stroke="none" d="M774.0000149235129,44.00000108033419h12a2,2,0,0,1,2,2v13a2,2,0,0,1,-2,2h-12a2,2,0,0,1,-2,-2v-13a2,2,0,0,1,2,-2z"></path><path id="kity_path_777" fill="white" stroke="none" d="M783.0000149607658,55.00000098347664H777.0000149607658V54.00000098347664h6L783.0000149607658,55.00000098347664L783.0000149607658,55.00000098347664zM783.0000149607658,53.00000098347664H777.0000149607658V52.00000098347664h6V53.00000098347664zM783.0000149607658,51.00000098347664H777.0000149607658V50.00000098347664h6V51.00000098347664zM782.5000149607658,57.00000098347664H776.0000149607658V48.00000098347664h8v7.5M783.0000149607658,58.00000098347664l2,-2V47.00000098347664H775.0000149607658v11"></path></g></g><g id="kity_g_14" display="none"><path id="kity_path_15" fill="rgba(153, 0, 0, 0.5)" stroke="none" d="M-45.49998714774847,639.5000010803342h177v15h-177z"></path><path id="kity_path_16" fill="none" stroke="rgb(128, 0, 0)" d="M-45.49998714774847,654.5000010803342L131.50001285225153,654.5000010803342" stroke-width="1"></path></g><g id="minder_node2" opacity="1"><g id="node_expander1" style="cursor: pointer;"><path id="kity_path_46" fill="white" stroke="gray" d="M87.50000464171171,127.50000219792128A6,6,0,1,1,75.50000464171171,127.50000219792128A6,6,0,1,1,87.50000464171171,127.50000219792128"></path><path id="kity_path_47" fill="none" stroke="gray" d="M77.00000464171171,127.50000219792128L86.00000464171171,127.50000219792128"></path></g><path id="node_outline2" fill="rgb(246, 238, 238)" stroke="rgb(191, 115, 115)" d="M23.500004403293133,134.50000254064798h116a3,3,0,0,1,3,3v26a3,3,0,0,1,-3,3h-116a3,3,0,0,1,-3,-3v-26a3,3,0,0,1,3,-3z" stroke-width="1"></path><g id="node_text2" fill="black"><text id="kity_text_37" text-rendering="inherit" font-size="14" dy=".8em" y="141.40000250935555" x="65.50000440329313"> 网络文化</text></g><g id="node_priority11"><path id="kity_path_501" fill="#840023" stroke="none" d="M41.00000403821468,154.00000239908695c0,3.866,3.134,7,7,7h6c3.866,0,7,-3.134,7,-7V148.00000239908695H41.00000403821468V154.00000239908695z"></path><path id="kity_path_502" fill="#FF1200" stroke="none" d="M61.00000403821468,151.00000239908695c0,3.866,-3.134,7,-7,7H48.00000403821468c-3.866,0,-7,-3.134,-7,-7V148.00000239908695c0,-3.866,3.134,-7,7,-7h6c3.866,0,7,3.134,7,7V151.00000239908695z" opacity="0.8"></path><text id="kity_text_503" text-rendering="geometricPrecision" x="50.0000040307641" y="150.50000239163637" text-anchor="middle" font-style="italic" font-size="12" fill="white" dy="5">1</text></g></g><g id="minder_node13" opacity="1"><g id="node_expander12" style="cursor: pointer;"><path id="kity_path_127" fill="white" stroke="gray" d="M762.5000146999955,127.50000219792128A6,6,0,1,1,750.5000146999955,127.50000219792128A6,6,0,1,1,762.5000146999955,127.50000219792128"></path><path id="kity_path_128" fill="none" stroke="gray" d="M752.0000146999955,127.50000219792128L761.0000146999955,127.50000219792128"></path></g><path id="node_outline13" fill="rgb(246, 238, 238)" stroke="rgb(191, 115, 115)" d="M684.5000142529607,134.50000254064798h144a3,3,0,0,1,3,3v26a3,3,0,0,1,-3,3h-144a3,3,0,0,1,-3,-3v-26a3,3,0,0,1,3,-3z" stroke-width="1"></path><g id="node_text13" fill="black"><text id="kity_text_124" text-rendering="inherit" font-size="14" dy=".8em" y="141.40000250935555" x="726.5000142529607">信息数据应用</text></g><g id="node_priority10"><path id="kity_path_240" fill="#01467F" stroke="none" d="M702.0000138878822,154.00000239908695c0,3.866,3.134,7,7,7h6c3.866,0,7,-3.134,7,-7V148.00000239908695H702.0000138878822V154.00000239908695z"></path><path id="kity_path_241" fill="#0074FF" stroke="none" d="M722.0000138878822,151.00000239908695c0,3.866,-3.134,7,-7,7H709.0000138878822c-3.866,0,-7,-3.134,-7,-7V148.00000239908695c0,-3.866,3.134,-7,7,-7h6c3.866,0,7,3.134,7,7V151.00000239908695z" opacity="0.8"></path><text id="kity_text_242" text-rendering="geometricPrecision" x="711.0000138804317" y="150.50000239163637" text-anchor="middle" font-style="italic" font-size="12" fill="white" dy="5">2</text></g></g><g id="minder_node17" opacity="1"><g id="node_expander16" style="cursor: pointer;"><path id="kity_path_159" fill="white" stroke="gray" d="M1626.0000275671482,127.50000219792128A6,6,0,1,1,1614.0000275671482,127.50000219792128A6,6,0,1,1,1626.0000275671482,127.50000219792128"></path><path id="kity_path_160" fill="none" stroke="gray" d="M1615.5000275671482,127.50000219792128L1624.5000275671482,127.50000219792128"></path></g><path id="node_outline17" fill="rgb(246, 238, 238)" stroke="rgb(191, 115, 115)" d="M1576.5000275447965,134.50000254064798h87a3,3,0,0,1,3,3v26a3,3,0,0,1,-3,3h-87a3,3,0,0,1,-3,-3v-26a3,3,0,0,1,3,-3z" stroke-width="1"></path><g id="node_text17" fill="black"><text id="kity_text_156" text-rendering="inherit" font-size="14" dy=".8em" y="141.40000250935555" x="1618.5000275447965">设计</text></g><g id="node_priority5"><path id="kity_path_215" fill="#B25000" stroke="none" d="M1594.000027179718,154.00000239908695c0,3.866,3.134,7,7,7h6c3.866,0,7,-3.134,7,-7V148.00000239908695H1594.000027179718V154.00000239908695z"></path><path id="kity_path_216" fill="#FF962E" stroke="none" d="M1614.000027179718,151.00000239908695c0,3.866,-3.134,7,-7,7H1601.000027179718c-3.866,0,-7,-3.134,-7,-7V148.00000239908695c0,-3.866,3.134,-7,7,-7h6c3.866,0,7,3.134,7,7V151.00000239908695z" opacity="0.8"></path><text id="kity_text_217" text-rendering="geometricPrecision" x="1603.0000271722674" y="150.50000239163637" text-anchor="middle" font-style="italic" font-size="12" fill="white" dy="5">4</text></g></g><g id="minder_node18" opacity="1"><g id="node_expander17" style="cursor: pointer;"><path id="kity_path_167" fill="white" stroke="gray" d="M1157.0000205785036,127.50000219792128A6,6,0,1,1,1145.0000205785036,127.50000219792128A6,6,0,1,1,1157.0000205785036,127.50000219792128"></path><path id="kity_path_168" fill="none" stroke="gray" d="M1146.5000205785036,127.50000219792128L1155.5000205785036,127.50000219792128"></path></g><path id="node_outline18" fill="rgb(246, 238, 238)" stroke="rgb(191, 115, 115)" d="M1100.5000204518437,134.50000254064798h101a3,3,0,0,1,3,3v26a3,3,0,0,1,-3,3h-101a3,3,0,0,1,-3,-3v-26a3,3,0,0,1,3,-3z" stroke-width="1"></path><g id="node_text18" fill="black"><text id="kity_text_164" text-rendering="inherit" font-size="14" dy=".8em" y="141.40000250935555" x="1142.5000204518437">互联网</text></g><g id="node_priority4"><path id="kity_path_210" fill="#006300" stroke="none" d="M1118.0000200867653,154.00000239908695c0,3.866,3.134,7,7,7h6c3.866,0,7,-3.134,7,-7V148.00000239908695H1118.0000200867653V154.00000239908695z"></path><path id="kity_path_211" fill="#00AF00" stroke="none" d="M1138.0000200867653,151.00000239908695c0,3.866,-3.134,7,-7,7H1125.0000200867653c-3.866,0,-7,-3.134,-7,-7V148.00000239908695c0,-3.866,3.134,-7,7,-7h6c3.866,0,7,3.134,7,7V151.00000239908695z" opacity="0.8"></path><text id="kity_text_212" text-rendering="geometricPrecision" x="1127.0000200793147" y="150.50000239163637" text-anchor="middle" font-style="italic" font-size="12" fill="white" dy="5">3</text></g></g><g id="minder_node19" opacity="1"><g id="node_expander18" style="cursor: pointer;"><path id="kity_path_175" fill="white" stroke="gray" d="M1137.500020287931,212.50000346451998A6,6,0,1,1,1125.500020287931,212.50000346451998A6,6,0,1,1,1137.500020287931,212.50000346451998"></path><path id="kity_path_176" fill="none" stroke="gray" d="M1127.000020287931,212.50000346451998L1136.000020287931,212.50000346451998"></path></g><path id="node_outline19" fill="#f2dbdb" stroke="none" d="M1142.5000205263495,201.50000346451998h71a5,5,0,0,1,5,5v12a5,5,0,0,1,-5,5h-71a5,5,0,0,1,-5,-5v-12a5,5,0,0,1,5,-5z" stroke-width="3"></path><g id="node_text19" fill="black"><text id="kity_text_172" text-rendering="inherit" font-size="12" dy=".8em" y="204.7000034376979" x="1147.5000205263495">平台与开放</text></g><g id="node_priority3" display="none"><path id="kity_path_205" fill="#840023" stroke="none" d="M1123.000020161271,216.00000332295895c0,3.866,3.134,7,7,7h6c3.866,0,7,-3.134,7,-7V210.00000332295895H1123.000020161271V216.00000332295895z"></path><path id="kity_path_206" fill="#FF1200" stroke="none" d="M1143.000020161271,213.00000332295895c0,3.866,-3.134,7,-7,7H1130.000020161271c-3.866,0,-7,-3.134,-7,-7V210.00000332295895c0,-3.866,3.134,-7,7,-7h6c3.866,0,7,3.134,7,7V213.00000332295895z" opacity="0.8"></path><text id="kity_text_207" text-rendering="geometricPrecision" x="1132.0000201538205" y="212.50000331550837" text-anchor="middle" font-style="italic" font-size="12" fill="white" dy="5">1</text></g></g><g id="minder_node24" opacity="1"><g id="node_expander23" style="cursor: pointer;"><path id="kity_path_267" fill="white" stroke="gray" d="M1613.5000273808837,212.50000346451998A6,6,0,1,1,1601.5000273808837,212.50000346451998A6,6,0,1,1,1613.5000273808837,212.50000346451998"></path><path id="kity_path_268" fill="none" stroke="gray" d="M1603.0000273808837,212.50000346451998L1612.0000273808837,212.50000346451998"></path></g><path id="node_outline24" fill="#f2dbdb" stroke="none" d="M1618.5000276193023,201.50000346451998h71a5,5,0,0,1,5,5v12a5,5,0,0,1,-5,5h-71a5,5,0,0,1,-5,-5v-12a5,5,0,0,1,5,-5z" stroke-width="3"></path><g id="node_text24" fill="black"><text id="kity_text_264" text-rendering="inherit" font-size="12" dy=".8em" y="204.7000034376979" x="1623.5000276193023">幽默与设计</text></g></g><g id="minder_node20" opacity="1"><g id="node_expander19" style="cursor: pointer;"><path id="kity_path_183" fill="white" stroke="gray" d="M60.50000423938036,628.500009663403A6,6,0,1,1,48.50000423938036,628.500009663403A6,6,0,1,1,60.50000423938036,628.500009663403"></path><path id="kity_path_184" fill="none" stroke="gray" d="M50.00000423938036,628.500009663403L59.00000423938036,628.500009663403"></path></g><path id="node_outline20" fill="#f2dbdb" stroke="none" d="M65.50000447779894,617.500009663403h82a5,5,0,0,1,5,5v12a5,5,0,0,1,-5,5h-82a5,5,0,0,1,-5,-5v-12a5,5,0,0,1,5,-5z" stroke-width="3"></path><g id="node_text20" fill="black"><text id="kity_text_180" text-rendering="inherit" font-size="12" dy=".8em" y="620.700009636581" x="70.50000447779894">互联网与情绪</text></g><g id="node_priority2" display="none"><path id="kity_path_200" fill="#840023" stroke="none" d="M46.00000411272049,632.000009521842c0,3.866,3.134,7,7,7h6c3.866,0,7,-3.134,7,-7V626.000009521842H46.00000411272049V632.000009521842z"></path><path id="kity_path_201" fill="#FF1200" stroke="none" d="M66.00000411272049,629.000009521842c0,3.866,-3.134,7,-7,7H53.00000411272049c-3.866,0,-7,-3.134,-7,-7V626.000009521842c0,-3.866,3.134,-7,7,-7h6c3.866,0,7,3.134,7,7V629.000009521842z" opacity="0.8"></path><text id="kity_text_202" text-rendering="geometricPrecision" x="55.00000410526991" y="628.5000095143914" text-anchor="middle" font-style="italic" font-size="12" fill="white" dy="5">1</text></g></g><g id="minder_node21" opacity="1"><g id="node_expander20" style="cursor: pointer;"><path id="kity_path_191" fill="white" stroke="gray" d="M1613.5000273808837,576.5000088885427A6,6,0,1,1,1601.5000273808837,576.5000088885427A6,6,0,1,1,1613.5000273808837,576.5000088885427"></path><path id="kity_path_192" fill="none" stroke="gray" d="M1603.0000273808837,576.5000088885427L1612.0000273808837,576.5000088885427"></path></g><path id="node_outline21" fill="#f2dbdb" stroke="none" d="M1618.5000276193023,565.5000088885427h72a5,5,0,0,1,5,5v12a5,5,0,0,1,-5,5h-72a5,5,0,0,1,-5,-5v-12a5,5,0,0,1,5,-5z" stroke-width="3"></path><g id="node_text21" fill="black"><text id="kity_text_188" text-rendering="inherit" font-size="12" dy=".8em" y="568.7000088617206" x="1623.5000276193023">情感化设计</text></g><g id="node_priority1" display="none"><path id="kity_path_195" fill="#840023" stroke="none" d="M1599.0000272542238,580.0000087469816c0,3.866,3.134,7,7,7h6c3.866,0,7,-3.134,7,-7V574.0000087469816H1599.0000272542238V580.0000087469816z"></path><path id="kity_path_196" fill="#FF1200" stroke="none" d="M1619.0000272542238,577.0000087469816c0,3.866,-3.134,7,-7,7H1606.0000272542238c-3.866,0,-7,-3.134,-7,-7V574.0000087469816c0,-3.866,3.134,-7,7,-7h6c3.866,0,7,3.134,7,7V577.0000087469816z" opacity="0.8"></path><text id="kity_text_197" text-rendering="geometricPrecision" x="1608.0000272467732" y="576.500008739531" text-anchor="middle" font-style="italic" font-size="12" fill="white" dy="5">1</text></g></g><g id="minder_node26"><g id="node_expander25" style="cursor: pointer;" display="none"><path id="kity_path_286" fill="white" stroke="gray" d="M100.50000483542681,264.50000423938036A6,6,0,1,1,88.50000483542681,264.50000423938036A6,6,0,1,1,100.50000483542681,264.50000423938036"></path><path id="kity_path_287" fill="none" stroke="gray" d="M90.00000483542681,264.50000423938036L99.00000483542681,264.50000423938036"></path></g><path id="node_outline26" fill="none" stroke="none" d="M105.50000507384539,253.50000423938036h263a5,5,0,0,1,5,5v12a5,5,0,0,1,-5,5h-263a5,5,0,0,1,-5,-5v-12a5,5,0,0,1,5,-5z" stroke-width="3"></path><g id="node_text26" fill="black"><text id="kity_text_283" text-rendering="inherit" font-size="12" dy=".8em" y="256.70000421255827" x="110.50000507384539">生活模仿艺术，色情影片已成性教育的方式之一</text></g></g><g id="minder_node27"><g id="node_expander26" style="cursor: pointer;" display="none"><path id="kity_path_294" fill="white" stroke="gray" d="M100.50000483542681,316.50000501424074A6,6,0,1,1,88.50000483542681,316.50000501424074A6,6,0,1,1,100.50000483542681,316.50000501424074"></path><path id="kity_path_295" fill="none" stroke="gray" d="M90.00000483542681,316.50000501424074L99.00000483542681,316.50000501424074"></path></g><path id="node_outline27" fill="none" stroke="none" d="M105.50000507384539,305.50000501424074h276a5,5,0,0,1,5,5v12a5,5,0,0,1,-5,5h-276a5,5,0,0,1,-5,-5v-12a5,5,0,0,1,5,-5z" stroke-width="3"></path><g id="node_text27" fill="black"><text id="kity_text_291" text-rendering="inherit" font-size="12" dy=".8em" y="308.70000498741865" x="110.50000507384539">纠正色情影片价值观，促成社会性别转向性别平等 </text></g></g><g id="minder_node23" opacity="1"><g id="node_expander22" style="cursor: pointer;"><path id="kity_path_257" fill="white" stroke="gray" d="M60.50000423938036,212.50000346451998A6,6,0,1,1,48.50000423938036,212.50000346451998A6,6,0,1,1,60.50000423938036,212.50000346451998"></path><path id="kity_path_258" fill="none" stroke="gray" d="M50.00000423938036,212.50000346451998L59.00000423938036,212.50000346451998"></path></g><path id="node_outline23" fill="#f2dbdb" stroke="none" d="M65.50000447779894,201.50000346451998h82a5,5,0,0,1,5,5v12a5,5,0,0,1,-5,5h-82a5,5,0,0,1,-5,-5v-12a5,5,0,0,1,5,-5z" stroke-width="3"></path><g id="node_text23" fill="black"><text id="kity_text_254" text-rendering="inherit" font-size="12" dy=".8em" y="204.7000034376979" x="70.50000447779894">网络与性教育</text></g></g><g id="minder_node32"><g id="node_expander31" style="cursor: pointer;"><path id="kity_path_334" fill="white" stroke="gray" d="M100.50000483542681,420.5000065639615A6,6,0,1,1,88.50000483542681,420.5000065639615A6,6,0,1,1,100.50000483542681,420.5000065639615"></path><path id="kity_path_335" fill="none" stroke="gray" d="M90.00000483542681,420.5000065639615L99.00000483542681,420.5000065639615"></path></g><path id="node_outline32" fill="none" stroke="none" d="M105.50000507384539,409.5000065639615h252a5,5,0,0,1,5,5v12a5,5,0,0,1,-5,5h-252a5,5,0,0,1,-5,-5v-12a5,5,0,0,1,5,-5z" stroke-width="3"></path><g id="node_text32" fill="black"><text id="kity_text_331" text-rendering="inherit" font-size="12" dy=".8em" y="412.7000065371394" x="110.50000507384539">科技公司为了获取利益打响用户注意力争夺战</text></g></g><g id="minder_node33"><g id="node_expander32" style="cursor: pointer;" display="none"><path id="kity_path_342" fill="white" stroke="gray" d="M100.50000483542681,524.5000081136823A6,6,0,1,1,88.50000483542681,524.5000081136823A6,6,0,1,1,100.50000483542681,524.5000081136823"></path><path id="kity_path_343" fill="none" stroke="gray" d="M90.00000483542681,524.5000081136823L99.00000483542681,524.5000081136823"></path></g><path id="node_outline33" fill="none" stroke="none" d="M105.50000507384539,513.5000081136823h179a5,5,0,0,1,5,5v12a5,5,0,0,1,-5,5h-179a5,5,0,0,1,-5,-5v-12a5,5,0,0,1,5,-5z" stroke-width="3"></path><g id="node_text33" fill="black"><text id="kity_text_339" text-rendering="inherit" font-size="12" dy=".8em" y="516.7000080868602" x="110.50000507384539">网络社交的大环境倒逼我们上瘾</text></g></g><g id="minder_node31" opacity="1"><g id="node_expander30" style="cursor: pointer;" display="none"><path id="kity_path_326" fill="white" stroke="gray" d="M100.50000483542681,576.5000088885427A6,6,0,1,1,88.50000483542681,576.5000088885427A6,6,0,1,1,100.50000483542681,576.5000088885427"></path><path id="kity_path_327" fill="none" stroke="gray"></path></g><path id="node_outline31" fill="none" stroke="none" d="M105.50000507384539,565.5000088885427h131a5,5,0,0,1,5,5v12a5,5,0,0,1,-5,5h-131a5,5,0,0,1,-5,-5v-12a5,5,0,0,1,5,-5z" stroke-width="3"></path><g id="node_text31" fill="black"><text id="kity_text_323" text-rendering="inherit" font-size="12" dy=".8em" y="568.7000088617206" x="110.50000507384539">君子役物，小人役于物</text></g></g><g id="minder_node16" opacity="1"><g id="node_expander15" style="cursor: pointer;"><path id="kity_path_151" fill="white" stroke="gray" d="M60.50000423938036,368.5000057891011A6,6,0,1,1,48.50000423938036,368.5000057891011A6,6,0,1,1,60.50000423938036,368.5000057891011"></path><path id="kity_path_152" fill="none" stroke="gray" d="M50.00000423938036,368.5000057891011L59.00000423938036,368.5000057891011"></path></g><path id="node_outline16" fill="#f2dbdb" stroke="none" d="M65.50000447779894,357.5000057891011h59a5,5,0,0,1,5,5v12a5,5,0,0,1,-5,5h-59a5,5,0,0,1,-5,-5v-12a5,5,0,0,1,5,-5z" stroke-width="3"></path><g id="node_text16" fill="black"><text id="kity_text_148" text-rendering="inherit" font-size="12" dy=".8em" y="360.70000576227903" x="70.50000447779894">网络成瘾</text></g><g id="node_priority6" display="none"><path id="kity_path_220" fill="#840023" stroke="none" d="M46.00000411272049,372.0000056475401c0,3.866,3.134,7,7,7h6c3.866,0,7,-3.134,7,-7V366.0000056475401H46.00000411272049V372.0000056475401z"></path><path id="kity_path_221" fill="#FF1200" stroke="none" d="M66.00000411272049,369.0000056475401c0,3.866,-3.134,7,-7,7H53.00000411272049c-3.866,0,-7,-3.134,-7,-7V366.0000056475401c0,-3.866,3.134,-7,7,-7h6c3.866,0,7,3.134,7,7V369.0000056475401z" opacity="0.8"></path><text id="kity_text_222" text-rendering="geometricPrecision" x="55.00000410526991" y="368.5000056400895" text-anchor="middle" font-style="italic" font-size="12" fill="white" dy="5">1</text></g></g><g id="minder_node22"><g id="node_expander21" style="cursor: pointer;"><path id="kity_path_249" fill="white" stroke="gray" d="M721.5000140890479,212.50000346451998A6,6,0,1,1,709.5000140890479,212.50000346451998A6,6,0,1,1,721.5000140890479,212.50000346451998"></path><path id="kity_path_250" fill="none" stroke="gray" d="M711.0000140890479,212.50000346451998L720.0000140890479,212.50000346451998"></path></g><path id="node_outline22" fill="#f2dbdb" stroke="none" d="M726.5000143274665,201.50000346451998h47a5,5,0,0,1,5,5v12a5,5,0,0,1,-5,5h-47a5,5,0,0,1,-5,-5v-12a5,5,0,0,1,5,-5z" stroke-width="3"></path><g id="node_text22" fill="black"><text id="kity_text_246" text-rendering="inherit" font-size="12" dy=".8em" y="204.7000034376979" x="731.5000143274665">数字屑</text></g></g><g id="minder_node14" opacity="1"><g id="node_expander13" style="cursor: pointer;"><path id="kity_path_135" fill="white" stroke="gray" d="M721.5000140890479,576.5000088885427A6,6,0,1,1,709.5000140890479,576.5000088885427A6,6,0,1,1,721.5000140890479,576.5000088885427"></path><path id="kity_path_136" fill="none" stroke="gray" d="M711.0000140890479,576.5000088885427L720.0000140890479,576.5000088885427"></path></g><path id="node_outline14" fill="#f2dbdb" stroke="none" d="M726.5000143274665,565.5000088885427h132a5,5,0,0,1,5,5v12a5,5,0,0,1,-5,5h-132a5,5,0,0,1,-5,-5v-12a5,5,0,0,1,5,-5z" stroke-width="3"></path><g id="node_text14" fill="black"><text id="kity_text_132" text-rendering="inherit" font-size="12" dy=".8em" y="568.7000088617206" x="731.5000143274665">个人信息泡与交互设计</text></g><g id="node_priority9" display="none"><path id="kity_path_235" fill="#840023" stroke="none" d="M707.000013962388,580.0000087469816c0,3.866,3.134,7,7,7h6c3.866,0,7,-3.134,7,-7V574.0000087469816H707.000013962388V580.0000087469816z"></path><path id="kity_path_236" fill="#FF1200" stroke="none" d="M727.000013962388,577.0000087469816c0,3.866,-3.134,7,-7,7H714.000013962388c-3.866,0,-7,-3.134,-7,-7V574.0000087469816c0,-3.866,3.134,-7,7,-7h6c3.866,0,7,3.134,7,7V577.0000087469816z" opacity="0.8"></path><text id="kity_text_237" text-rendering="geometricPrecision" x="716.0000139549375" y="576.500008739531" text-anchor="middle" font-style="italic" font-size="12" fill="white" dy="5">1</text></g></g><g id="minder_node34"><g id="node_expander33" style="cursor: pointer;"><path id="kity_path_360" fill="white" stroke="gray" d="M721.5000140890479,368.5000057891011A6,6,0,1,1,709.5000140890479,368.5000057891011A6,6,0,1,1,721.5000140890479,368.5000057891011"></path><path id="kity_path_361" fill="none" stroke="gray" d="M711.0000140890479,368.5000057891011L720.0000140890479,368.5000057891011"></path></g><path id="node_outline34" fill="#f2dbdb" stroke="none" d="M726.5000143274665,357.5000057891011h108a5,5,0,0,1,5,5v12a5,5,0,0,1,-5,5h-108a5,5,0,0,1,-5,-5v-12a5,5,0,0,1,5,-5z" stroke-width="3"></path><g id="node_text34" fill="black"><text id="kity_text_357" text-rendering="inherit" font-size="12" dy=".8em" y="360.70000576227903" x="731.5000143274665">人工智能与大数据</text></g></g><g id="minder_node35"><g id="node_expander34" style="cursor: pointer;" display="none"><path id="kity_path_368" fill="white" stroke="gray" d="M761.5000146850944,264.50000423938036A6,6,0,1,1,749.5000146850944,264.50000423938036A6,6,0,1,1,761.5000146850944,264.50000423938036"></path><path id="kity_path_369" fill="none" stroke="gray" d="M751.0000146850944,264.50000423938036L760.0000146850944,264.50000423938036"></path></g><path id="node_outline35" fill="none" stroke="none" d="M766.5000149235129,253.50000423938036h156a5,5,0,0,1,5,5v12a5,5,0,0,1,-5,5h-156a5,5,0,0,1,-5,-5v-12a5,5,0,0,1,5,-5z" stroke-width="3"></path><g id="node_text35" fill="black"><text id="kity_text_365" text-rendering="inherit" font-size="12" dy=".8em" y="256.70000421255827" x="771.5000149235129">数字屑是网络中的个人数据</text></g></g><g id="minder_node37"><g id="node_expander36" style="cursor: pointer;" display="none"><path id="kity_path_384" fill="white" stroke="gray" d="M761.5000146850944,316.50000501424074A6,6,0,1,1,749.5000146850944,316.50000501424074A6,6,0,1,1,761.5000146850944,316.50000501424074"></path><path id="kity_path_385" fill="none" stroke="gray" d="M751.0000146850944,316.50000501424074L760.0000146850944,316.50000501424074"></path></g><path id="node_outline37" fill="none" stroke="none" d="M766.5000149235129,305.50000501424074h180a5,5,0,0,1,5,5v12a5,5,0,0,1,-5,5h-180a5,5,0,0,1,-5,-5v-12a5,5,0,0,1,5,-5z" stroke-width="3"></path><g id="node_text37" fill="black"><text id="kity_text_381" text-rendering="inherit" font-size="12" dy=".8em" y="308.70000498741865" x="771.5000149235129">个人还是企业掌握数字屑是关键</text></g></g><g id="minder_node38" opacity="1"><g id="node_expander37" style="cursor: pointer;" display="none"><path id="kity_path_392" fill="white" stroke="gray" d="M761.5000146850944,420.5000065639615A6,6,0,1,1,749.5000146850944,420.5000065639615A6,6,0,1,1,761.5000146850944,420.5000065639615"></path><path id="kity_path_393" fill="none" stroke="gray" d="M751.0000146850944,420.5000065639615L760.0000146850944,420.5000065639615"></path></g><path id="node_outline38" fill="none" stroke="none" d="M766.5000149235129,409.5000065639615h252a5,5,0,0,1,5,5v12a5,5,0,0,1,-5,5h-252a5,5,0,0,1,-5,-5v-12a5,5,0,0,1,5,-5z" stroke-width="3"></path><g id="node_text38" fill="black"><text id="kity_text_389" text-rendering="inherit" font-size="12" dy=".8em" y="412.7000065371394" x="771.5000149235129">人工智能时代，更应坚守人类的价值观和伦理</text></g></g><g id="minder_node40"><g id="node_expander39" style="cursor: pointer;"><path id="kity_path_408" fill="white" stroke="gray" d="M761.5000146850944,472.5000073388219A6,6,0,1,1,749.5000146850944,472.5000073388219A6,6,0,1,1,761.5000146850944,472.5000073388219"></path><path id="kity_path_409" fill="none" stroke="gray" d="M751.0000146850944,472.5000073388219L760.0000146850944,472.5000073388219"></path></g><path id="node_outline40" fill="none" stroke="none" d="M766.5000149235129,461.5000073388219h167a5,5,0,0,1,5,5v12a5,5,0,0,1,-5,5h-167a5,5,0,0,1,-5,-5v-12a5,5,0,0,1,5,-5z" stroke-width="3"></path><g id="node_text40" fill="black"><text id="kity_text_405" text-rendering="inherit" font-size="12" dy=".8em" y="464.7000073119998" x="771.5000149235129">大数据，取之于民，用之于民</text></g></g><g id="minder_node41"><g id="node_expander40" style="cursor: pointer;" display="none"><path id="kity_path_417" fill="white" stroke="gray" d="M801.5000152811408,524.5000081136823A6,6,0,1,1,789.5000152811408,524.5000081136823A6,6,0,1,1,801.5000152811408,524.5000081136823"></path><path id="kity_path_418" fill="none" stroke="gray"></path></g><path id="node_outline41" fill="none" stroke="none" d="M806.5000155195594,513.5000081136823h156a5,5,0,0,1,5,5v12a5,5,0,0,1,-5,5h-156a5,5,0,0,1,-5,-5v-12a5,5,0,0,1,5,-5z" stroke-width="3"></path><g id="node_text41" fill="black"><text id="kity_text_414" text-rendering="inherit" font-size="12" dy=".8em" y="516.7000080868602" x="811.5000155195594">例子：分享我们的医疗数据</text></g></g><g id="minder_node42"><g id="node_expander41" style="cursor: pointer;" display="none"><path id="kity_path_425" fill="white" stroke="gray" d="M761.5000146850944,628.500009663403A6,6,0,1,1,749.5000146850944,628.500009663403A6,6,0,1,1,761.5000146850944,628.500009663403"></path><path id="kity_path_426" fill="none" stroke="gray"></path></g><path id="node_outline42" fill="none" stroke="none" d="M766.5000149235129,617.500009663403h286a5,5,0,0,1,5,5v12a5,5,0,0,1,-5,5h-286a5,5,0,0,1,-5,-5v-12a5,5,0,0,1,5,-5z" stroke-width="3"></path><g id="node_text42" fill="black"><text id="kity_text_422" text-rendering="inherit" font-size="12" dy=".8em" y="620.700009636581" x="771.5000149235129">警惕“过滤气泡（Filter Bubble）”，突破信息限制</text></g></g><g id="minder_node43"><g id="node_expander42" style="cursor: pointer;" display="none"><path id="kity_path_433" fill="white" stroke="gray" d="M761.5000146850944,680.5000104382634A6,6,0,1,1,749.5000146850944,680.5000104382634A6,6,0,1,1,761.5000146850944,680.5000104382634"></path><path id="kity_path_434" fill="none" stroke="gray"></path></g><path id="node_outline43" fill="none" stroke="none" d="M766.5000149235129,669.5000104382634h107a5,5,0,0,1,5,5v12a5,5,0,0,1,-5,5h-107a5,5,0,0,1,-5,-5v-12a5,5,0,0,1,5,-5z" stroke-width="3"></path><g id="node_text43" fill="black"><text id="kity_text_430" text-rendering="inherit" font-size="12" dy=".8em" y="672.7000104114413" x="771.5000149235129">让数据“人性化”</text></g></g><g id="minder_node44"><g id="node_expander43" style="cursor: pointer;" display="none"><path id="kity_path_441" fill="white" stroke="gray" d="M140.50000543147326,472.5000073388219A6,6,0,1,1,128.50000543147326,472.5000073388219A6,6,0,1,1,140.50000543147326,472.5000073388219"></path><path id="kity_path_442" fill="none" stroke="gray"></path></g><path id="node_outline44" fill="none" stroke="none" d="M145.50000566989183,461.5000073388219h491a5,5,0,0,1,5,5v12a5,5,0,0,1,-5,5h-491a5,5,0,0,1,-5,-5v-12a5,5,0,0,1,5,-5z" stroke-width="3"></path><g id="node_text44" fill="black"><text id="kity_text_438" text-rendering="inherit" font-size="12" dy=".8em" y="464.7000073119998" x="150.50000566989183">例子：YouTube、Netflix、Facebook等为了留住用户的注意力设计了自动连播视频的功能</text></g></g><g id="minder_node46"><g id="node_expander45" style="cursor: pointer;" display="none"><path id="kity_path_457" fill="white" stroke="gray" d="M1177.5000208839774,264.50000423938036A6,6,0,1,1,1165.5000208839774,264.50000423938036A6,6,0,1,1,1177.5000208839774,264.50000423938036"></path><path id="kity_path_458" fill="none" stroke="gray"></path></g><path id="node_outline46" fill="none" stroke="none" d="M1182.500021122396,253.50000423938036h166a5,5,0,0,1,5,5v12a5,5,0,0,1,-5,5h-166a5,5,0,0,1,-5,-5v-12a5,5,0,0,1,5,-5z" stroke-width="3"></path><g id="node_text46" fill="black"><text id="kity_text_454" text-rendering="inherit" font-size="12" dy=".8em" y="256.70000421255827" x="1187.500021122396">互联网存在随机的善良的行为</text></g></g><g id="minder_node47"><g id="node_expander46" style="cursor: pointer;" display="none"><path id="kity_path_465" fill="white" stroke="gray" d="M1177.5000208839774,316.50000501424074A6,6,0,1,1,1165.5000208839774,316.50000501424074A6,6,0,1,1,1177.5000208839774,316.50000501424074"></path><path id="kity_path_466" fill="none" stroke="gray"></path></g><path id="node_outline47" fill="none" stroke="none" d="M1182.500021122396,305.50000501424074h179a5,5,0,0,1,5,5v12a5,5,0,0,1,-5,5h-179a5,5,0,0,1,-5,-5v-12a5,5,0,0,1,5,-5z" stroke-width="3"></path><g id="node_text47" fill="black"><text id="kity_text_462" text-rendering="inherit" font-size="12" dy=".8em" y="308.70000498741865" x="1187.500021122396">互联网是互联网企业谋利的工具</text></g></g><g id="minder_node48"><g id="node_expander47" style="cursor: pointer;" display="none"><path id="kity_path_473" fill="white" stroke="gray" d="M1177.5000208839774,368.5000057891011A6,6,0,1,1,1165.5000208839774,368.5000057891011A6,6,0,1,1,1177.5000208839774,368.5000057891011"></path><path id="kity_path_474" fill="none" stroke="gray"></path></g><path id="node_outline48" fill="none" stroke="none" d="M1182.500021122396,357.5000057891011h119a5,5,0,0,1,5,5v12a5,5,0,0,1,-5,5h-119a5,5,0,0,1,-5,-5v-12a5,5,0,0,1,5,-5z" stroke-width="3"></path><g id="node_text48" fill="black"><text id="kity_text_470" text-rendering="inherit" font-size="12" dy=".8em" y="360.70000576227903" x="1187.500021122396">互联网是民权的工具</text></g></g><g id="minder_node49"><g id="node_expander48" style="cursor: pointer;"><path id="kity_path_481" fill="white" stroke="gray" d="M1137.500020287931,836.5000127628446A6,6,0,1,1,1125.500020287931,836.5000127628446A6,6,0,1,1,1137.500020287931,836.5000127628446"></path><path id="kity_path_482" fill="none" stroke="gray" d="M1127.000020287931,836.5000127628446L1136.000020287931,836.5000127628446"></path></g><path id="node_outline49" fill="#f2dbdb" stroke="none" d="M1142.5000205263495,825.5000127628446h84a5,5,0,0,1,5,5v12a5,5,0,0,1,-5,5h-84a5,5,0,0,1,-5,-5v-12a5,5,0,0,1,5,-5z" stroke-width="3"></path><g id="node_text49" fill="black"><text id="kity_text_478" text-rendering="inherit" font-size="12" dy=".8em" y="828.7000127360225" x="1147.5000205263495">超连结与社会</text></g></g><g id="minder_node50"><g id="node_expander49" style="cursor: pointer;"><path id="kity_path_489" fill="white" stroke="gray" d="M1137.500020287931,472.5000073388219A6,6,0,1,1,1125.500020287931,472.5000073388219A6,6,0,1,1,1137.500020287931,472.5000073388219"></path><path id="kity_path_490" fill="none" stroke="gray" d="M1127.000020287931,472.5000073388219L1136.000020287931,472.5000073388219"></path></g><path id="node_outline50" fill="#f2dbdb" stroke="none" d="M1142.5000205263495,461.5000073388219h84a5,5,0,0,1,5,5v12a5,5,0,0,1,-5,5h-84a5,5,0,0,1,-5,-5v-12a5,5,0,0,1,5,-5z" stroke-width="3"></path><g id="node_text50" fill="black"><text id="kity_text_486" text-rendering="inherit" font-size="12" dy=".8em" y="464.7000073119998" x="1147.5000205263495">编程改变世界</text></g></g><g id="minder_node51" opacity="1"><g id="node_expander50" style="cursor: pointer;" display="none"><path id="kity_path_497" fill="white" stroke="gray" d="M1177.5000208839774,420.5000065639615A6,6,0,1,1,1165.5000208839774,420.5000065639615A6,6,0,1,1,1177.5000208839774,420.5000065639615"></path><path id="kity_path_498" fill="none" stroke="gray"></path></g><path id="node_outline51" fill="none" stroke="none" d="M1182.500021122396,409.5000065639615h346a5,5,0,0,1,5,5v12a5,5,0,0,1,-5,5h-346a5,5,0,0,1,-5,-5v-12a5,5,0,0,1,5,-5z" stroke-width="3"></path><g id="node_text51" fill="black"><text id="kity_text_494" text-rendering="inherit" font-size="12" dy=".8em" y="412.7000065371394" x="1187.500021122396">互联网的本质是什么？自由与开放（需要建立在善良的引导下）</text></g></g><g id="minder_node52"><g id="node_expander51" style="cursor: pointer;"><path id="kity_path_510" fill="white" stroke="gray" d="M1653.5000279769301,264.50000423938036A6,6,0,1,1,1641.5000279769301,264.50000423938036A6,6,0,1,1,1653.5000279769301,264.50000423938036"></path><path id="kity_path_511" fill="none" stroke="gray" d="M1643.0000279769301,264.50000423938036L1652.0000279769301,264.50000423938036"></path></g><path id="node_outline52" fill="none" stroke="none" d="M1658.5000282153487,253.50000423938036h94a5,5,0,0,1,5,5v12a5,5,0,0,1,-5,5h-94a5,5,0,0,1,-5,-5v-12a5,5,0,0,1,5,-5z" stroke-width="3"></path><g id="node_text52" fill="black"><text id="kity_text_507" text-rendering="inherit" font-size="12" dy=".8em" y="256.70000421255827" x="1663.5000282153487">以幽默改变规则</text></g></g><g id="minder_node53"><g id="node_expander52" style="cursor: pointer;"><path id="kity_path_518" fill="white" stroke="gray" d="M1653.5000279769301,836.5000127628446A6,6,0,1,1,1641.5000279769301,836.5000127628446A6,6,0,1,1,1653.5000279769301,836.5000127628446"></path><path id="kity_path_519" fill="none" stroke="gray" d="M1643.0000279769301,836.5000127628446L1652.0000279769301,836.5000127628446"></path></g><path id="node_outline53" fill="none" stroke="none" d="M1658.5000282153487,825.5000127628446h126a5,5,0,0,1,5,5v12a5,5,0,0,1,-5,5h-126a5,5,0,0,1,-5,-5v-12a5,5,0,0,1,5,-5z" stroke-width="3"></path><g id="node_text53" fill="black"><text id="kity_text_515" text-rendering="inherit" font-size="12" dy=".8em" y="828.7000127360225" x="1663.5000282153487">情感化设计的3个层面</text></g></g><g id="minder_node55"><g id="node_expander54" style="cursor: pointer;"><path id="kity_path_534" fill="white" stroke="gray" d="M1653.5000279769301,368.5000057891011A6,6,0,1,1,1641.5000279769301,368.5000057891011A6,6,0,1,1,1653.5000279769301,368.5000057891011"></path><path id="kity_path_535" fill="none" stroke="gray" d="M1643.0000279769301,368.5000057891011L1652.0000279769301,368.5000057891011"></path></g><path id="node_outline55" fill="none" stroke="none" d="M1658.5000282153487,357.5000057891011h95a5,5,0,0,1,5,5v12a5,5,0,0,1,-5,5h-95a5,5,0,0,1,-5,-5v-12a5,5,0,0,1,5,-5z" stroke-width="3"></path><g id="node_text55" fill="black"><text id="kity_text_531" text-rendering="inherit" font-size="12" dy=".8em" y="360.70000576227903" x="1663.5000282153487">以幽默传播文化</text></g></g><g id="minder_node56"><g id="node_expander55" style="cursor: pointer;"><path id="kity_path_542" fill="white" stroke="gray" d="M1177.5000208839774,524.5000081136823A6,6,0,1,1,1165.5000208839774,524.5000081136823A6,6,0,1,1,1177.5000208839774,524.5000081136823"></path><path id="kity_path_543" fill="none" stroke="gray" d="M1167.0000208839774,524.5000081136823L1176.0000208839774,524.5000081136823"></path></g><path id="node_outline56" fill="none" stroke="none" d="M1182.500021122396,513.5000081136823h125a5,5,0,0,1,5,5v12a5,5,0,0,1,-5,5h-125a5,5,0,0,1,-5,-5v-12a5,5,0,0,1,5,-5z" stroke-width="3"></path><g id="node_text56" fill="black"><text id="kity_text_539" text-rendering="inherit" font-size="12" dy=".8em" y="516.7000080868602" x="1187.500021122396">代码: 下一个通用语言</text></g></g><g id="minder_node57"><g id="node_expander56" style="cursor: pointer;"><path id="kity_path_550" fill="white" stroke="gray" d="M1177.5000208839774,680.5000104382634A6,6,0,1,1,1165.5000208839774,680.5000104382634A6,6,0,1,1,1177.5000208839774,680.5000104382634"></path><path id="kity_path_551" fill="none" stroke="gray" d="M1167.0000208839774,680.5000104382634L1176.0000208839774,680.5000104382634"></path></g><path id="node_outline57" fill="none" stroke="none" d="M1182.500021122396,669.5000104382634h227a5,5,0,0,1,5,5v12a5,5,0,0,1,-5,5h-227a5,5,0,0,1,-5,-5v-12a5,5,0,0,1,5,-5z" stroke-width="3"></path><g id="node_text57" fill="black"><text id="kity_text_547" text-rendering="inherit" font-size="12" dy=".8em" y="672.7000104114413" x="1187.500021122396">黑客编程一直是健康民主的重要组成部分</text></g></g><g id="minder_node60"><g id="node_expander59" style="cursor: pointer;" display="none"><path id="kity_path_574" fill="white" stroke="gray" d="M1217.5000214800239,576.5000088885427A6,6,0,1,1,1205.5000214800239,576.5000088885427A6,6,0,1,1,1217.5000214800239,576.5000088885427"></path><path id="kity_path_575" fill="none" stroke="gray"></path></g><path id="node_outline60" fill="none" stroke="none" d="M1222.5000217184424,565.5000088885427h143a5,5,0,0,1,5,5v12a5,5,0,0,1,-5,5h-143a5,5,0,0,1,-5,-5v-12a5,5,0,0,1,5,-5z" stroke-width="3"></path><g id="node_text60" fill="black"><text id="kity_text_571" text-rendering="inherit" font-size="12" dy=".8em" y="568.7000088617206" x="1227.5000217184424">让孩子成为下一代创造者</text></g></g><g id="minder_node61"><g id="node_expander60" style="cursor: pointer;" display="none"><path id="kity_path_582" fill="white" stroke="gray" d="M1217.5000214800239,628.500009663403A6,6,0,1,1,1205.5000214800239,628.500009663403A6,6,0,1,1,1217.5000214800239,628.500009663403"></path><path id="kity_path_583" fill="none" stroke="gray"></path></g><path id="node_outline61" fill="none" stroke="none" d="M1222.5000217184424,617.500009663403h132a5,5,0,0,1,5,5v12a5,5,0,0,1,-5,5h-132a5,5,0,0,1,-5,-5v-12a5,5,0,0,1,5,-5z" stroke-width="3"></path><g id="node_text61" fill="black"><text id="kity_text_579" text-rendering="inherit" font-size="12" dy=".8em" y="620.700009636581" x="1227.5000217184424">女孩要勇敢而不必完美</text></g></g><g id="minder_node62"><g id="node_expander61" style="cursor: pointer;" display="none"><path id="kity_path_590" fill="white" stroke="gray" d="M1217.5000214800239,732.5000112131238A6,6,0,1,1,1205.5000214800239,732.5000112131238A6,6,0,1,1,1217.5000214800239,732.5000112131238"></path><path id="kity_path_591" fill="none" stroke="gray"></path></g><path id="node_outline62" fill="none" stroke="none" d="M1222.5000217184424,721.5000112131238h281a5,5,0,0,1,5,5v12a5,5,0,0,1,-5,5h-281a5,5,0,0,1,-5,-5v-12a5,5,0,0,1,5,-5z" stroke-width="3"></path><g id="node_text62" fill="black"><text id="kity_text_587" text-rendering="inherit" font-size="12" dy=".8em" y="724.7000111863017" x="1227.5000217184424">成为公民黑客（Civic Hacking）共同推动社会发展</text></g></g><g id="minder_node63"><g id="node_expander62" style="cursor: pointer;" display="none"><path id="kity_path_598" fill="white" stroke="gray" d="M1217.5000214800239,784.5000119879842A6,6,0,1,1,1205.5000214800239,784.5000119879842A6,6,0,1,1,1217.5000214800239,784.5000119879842"></path><path id="kity_path_599" fill="none" stroke="gray"></path></g><path id="node_outline63" fill="none" stroke="none" d="M1222.5000217184424,773.5000119879842h178a5,5,0,0,1,5,5v12a5,5,0,0,1,-5,5h-178a5,5,0,0,1,-5,-5v-12a5,5,0,0,1,5,-5z" stroke-width="3"></path><g id="node_text63" fill="black"><text id="kity_text_595" text-rendering="inherit" font-size="12" dy=".8em" y="776.7000119611621" x="1227.5000217184424">用编程“编写”一个更好的政府</text></g></g><g id="minder_node64"><g id="node_expander63" style="cursor: pointer;"><path id="kity_path_606" fill="white" stroke="gray" d="M1653.5000279769301,472.5000073388219A6,6,0,1,1,1641.5000279769301,472.5000073388219A6,6,0,1,1,1653.5000279769301,472.5000073388219"></path><path id="kity_path_607" fill="none" stroke="gray" d="M1643.0000279769301,472.5000073388219L1652.0000279769301,472.5000073388219"></path></g><path id="node_outline64" fill="none" stroke="none" d="M1658.5000282153487,461.5000073388219h95a5,5,0,0,1,5,5v12a5,5,0,0,1,-5,5h-95a5,5,0,0,1,-5,-5v-12a5,5,0,0,1,5,-5z" stroke-width="3"></path><g id="node_text64" fill="black"><text id="kity_text_603" text-rendering="inherit" font-size="12" dy=".8em" y="464.7000073119998" x="1663.5000282153487">以幽默消除歧视</text></g></g><g id="minder_node66" opacity="1"><g id="node_expander65" style="cursor: pointer;"><path id="kity_path_622" fill="white" stroke="gray" d="M1653.5000279769301,628.500009663403A6,6,0,1,1,1641.5000279769301,628.500009663403A6,6,0,1,1,1653.5000279769301,628.500009663403"></path><path id="kity_path_623" fill="none" stroke="gray" d="M1643.0000279769301,628.500009663403L1652.0000279769301,628.500009663403"></path></g><path id="node_outline66" fill="none" stroke="none" d="M1658.5000282153487,617.500009663403h127a5,5,0,0,1,5,5v12a5,5,0,0,1,-5,5h-127a5,5,0,0,1,-5,-5v-12a5,5,0,0,1,5,-5z" stroke-width="3"></path><g id="node_text66" fill="black"><text id="kity_text_619" text-rendering="inherit" font-size="12" dy=".8em" y="620.700009636581" x="1663.5000282153487">积极心理学的3个目标</text></g></g><g id="minder_node67"><g id="node_expander66" style="cursor: pointer;" display="none"><path id="kity_path_630" fill="white" stroke="gray" d="M1693.5000285729766,680.5000104382634A6,6,0,1,1,1681.5000285729766,680.5000104382634A6,6,0,1,1,1693.5000285729766,680.5000104382634"></path><path id="kity_path_631" fill="none" stroke="gray"></path></g><path id="node_outline67" fill="none" stroke="none" d="M1698.5000288113952,669.5000104382634h264a5,5,0,0,1,5,5v12a5,5,0,0,1,-5,5h-264a5,5,0,0,1,-5,-5v-12a5,5,0,0,1,5,-5z" stroke-width="3"></path><g id="node_text67" fill="black"><text id="kity_text_627" text-rendering="inherit" font-size="12" dy=".8em" y="672.7000104114413" x="1703.5000288113952">心理学不仅要关注人的弱点，还要关注人的优势</text></g></g><g id="minder_node68"><g id="node_expander67" style="cursor: pointer;" display="none"><path id="kity_path_638" fill="white" stroke="gray" d="M1693.5000285729766,732.5000112131238A6,6,0,1,1,1681.5000285729766,732.5000112131238A6,6,0,1,1,1693.5000285729766,732.5000112131238"></path><path id="kity_path_639" fill="none" stroke="gray"></path></g><path id="node_outline68" fill="none" stroke="none" d="M1698.5000288113952,721.5000112131238h467a5,5,0,0,1,5,5v12a5,5,0,0,1,-5,5h-467a5,5,0,0,1,-5,-5v-12a5,5,0,0,1,5,-5z" stroke-width="3"></path><g id="node_text68" fill="black"><text id="kity_text_635" text-rendering="inherit" font-size="12" dy=".8em" y="724.7000111863017" x="1703.5000288113952">不仅要致力于修复心理损伤，还要致力于给人力量，让其对生活中美好的东西感兴趣。</text></g></g><g id="minder_node69"><g id="node_expander68" style="cursor: pointer;" display="none"><path id="kity_path_646" fill="white" stroke="gray" d="M1693.5000285729766,784.5000119879842A6,6,0,1,1,1681.5000285729766,784.5000119879842A6,6,0,1,1,1693.5000285729766,784.5000119879842"></path><path id="kity_path_647" fill="none" stroke="gray"></path></g><path id="node_outline69" fill="none" stroke="none" d="M1698.5000288113952,773.5000119879842h395a5,5,0,0,1,5,5v12a5,5,0,0,1,-5,5h-395a5,5,0,0,1,-5,-5v-12a5,5,0,0,1,5,-5z" stroke-width="3"></path><g id="node_text69" fill="black"><text id="kity_text_643" text-rendering="inherit" font-size="12" dy=".8em" y="776.7000119611621" x="1703.5000288113952">应该在关注病人的同时，努力让正常人以及“天才”们的生活更加美好。</text></g></g><g id="minder_node71"><g id="node_expander70" style="cursor: pointer;" display="none"><path id="kity_path_662" fill="white" stroke="gray" d="M1693.5000285729766,888.500013537705A6,6,0,1,1,1681.5000285729766,888.500013537705A6,6,0,1,1,1693.5000285729766,888.500013537705"></path><path id="kity_path_663" fill="none" stroke="gray" d="M1683.0000285729766,888.500013537705L1692.0000285729766,888.500013537705"></path></g><path id="node_outline71" fill="none" stroke="none" d="M1698.5000288113952,877.500013537705h59a5,5,0,0,1,5,5v12a5,5,0,0,1,-5,5h-59a5,5,0,0,1,-5,-5v-12a5,5,0,0,1,5,-5z" stroke-width="3"></path><g id="node_text71" fill="black"><text id="kity_text_659" text-rendering="inherit" font-size="12" dy=".8em" y="880.7000135108829" x="1703.5000288113952">本能层面</text></g></g><g id="minder_node73"><g id="node_expander72" style="cursor: pointer;" display="none"><path id="kity_path_678" fill="white" stroke="gray" d="M1693.5000285729766,940.5000143125653A6,6,0,1,1,1681.5000285729766,940.5000143125653A6,6,0,1,1,1693.5000285729766,940.5000143125653"></path><path id="kity_path_679" fill="none" stroke="gray"></path></g><path id="node_outline73" fill="none" stroke="none" d="M1698.5000288113952,929.5000143125653h59a5,5,0,0,1,5,5v12a5,5,0,0,1,-5,5h-59a5,5,0,0,1,-5,-5v-12a5,5,0,0,1,5,-5z" stroke-width="3"></path><g id="node_text73" fill="black"><text id="kity_text_675" text-rendering="inherit" font-size="12" dy=".8em" y="932.7000142857432" x="1703.5000288113952">行为层面</text></g></g><g id="minder_node74"><g id="node_expander73" style="cursor: pointer;" display="none"><path id="kity_path_686" fill="white" stroke="gray" d="M1693.5000285729766,992.5000150874257A6,6,0,1,1,1681.5000285729766,992.5000150874257A6,6,0,1,1,1693.5000285729766,992.5000150874257"></path><path id="kity_path_687" fill="none" stroke="gray"></path></g><path id="node_outline74" fill="none" stroke="none" d="M1698.5000288113952,981.5000150874257h59a5,5,0,0,1,5,5v12a5,5,0,0,1,-5,5h-59a5,5,0,0,1,-5,-5v-12a5,5,0,0,1,5,-5z" stroke-width="3"></path><g id="node_text74" fill="black"><text id="kity_text_683" text-rendering="inherit" font-size="12" dy=".8em" y="984.7000150606036" x="1703.5000288113952">反思层面</text></g></g><g id="minder_node75"><g id="node_expander74" style="cursor: pointer;" display="none"><path id="kity_path_694" fill="white" stroke="gray" d="M1693.5000285729766,316.50000501424074A6,6,0,1,1,1681.5000285729766,316.50000501424074A6,6,0,1,1,1693.5000285729766,316.50000501424074"></path><path id="kity_path_695" fill="none" stroke="gray"></path></g><path id="node_outline75" fill="none" stroke="none" d="M1698.5000288113952,305.50000501424074h496a5,5,0,0,1,5,5v12a5,5,0,0,1,-5,5h-496a5,5,0,0,1,-5,-5v-12a5,5,0,0,1,5,-5z" stroke-width="3"></path><g id="node_text75" fill="black"><text id="kity_text_691" text-rendering="inherit" font-size="12" dy=".8em" y="308.70000498741865" x="1703.5000288113952">例子：Liza Donnelly的幽默漫画引导着读者们思考当今社会女性的规则，尝试推动规则改变</text></g></g><g id="minder_node76"><g id="node_expander75" style="cursor: pointer;" display="none"><path id="kity_path_702" fill="white" stroke="gray" d="M1693.5000285729766,420.5000065639615A6,6,0,1,1,1681.5000285729766,420.5000065639615A6,6,0,1,1,1693.5000285729766,420.5000065639615"></path><path id="kity_path_703" fill="none" stroke="gray"></path></g><path id="node_outline76" fill="none" stroke="none" d="M1698.5000288113952,409.5000065639615h475a5,5,0,0,1,5,5v12a5,5,0,0,1,-5,5h-475a5,5,0,0,1,-5,-5v-12a5,5,0,0,1,5,-5z" stroke-width="3"></path><g id="node_text76" fill="black"><text id="kity_text_699" text-rendering="inherit" font-size="12" dy=".8em" y="412.7000065371394" x="1703.5000288113952">例子：Randall Munroe以幽默的语言文字，让枯燥无味的知识科普变的有趣而利于传播</text></g></g><g id="minder_node77"><g id="node_expander76" style="cursor: pointer;" display="none"><path id="kity_path_710" fill="white" stroke="gray" d="M1693.5000285729766,524.5000081136823A6,6,0,1,1,1681.5000285729766,524.5000081136823A6,6,0,1,1,1693.5000285729766,524.5000081136823"></path><path id="kity_path_711" fill="none" stroke="gray"></path></g><path id="node_outline77" fill="none" stroke="none" d="M1698.5000288113952,513.5000081136823h537a5,5,0,0,1,5,5v12a5,5,0,0,1,-5,5h-537a5,5,0,0,1,-5,-5v-12a5,5,0,0,1,5,-5z" stroke-width="3"></path><g id="node_text77" fill="black"><text id="kity_text_707" text-rendering="inherit" font-size="12" dy=".8em" y="516.7000080868602" x="1703.5000288113952">例子：Ruby Wax以幽默的方式让人们了解精神疾病，同时不断削减着人们对精神疾病的误解与歧视</text></g></g><g id="minder_node78"><g id="node_expander77" style="cursor: pointer;" display="none"><path id="kity_path_718" fill="white" stroke="gray" d="M100.50000483542681,732.5000112131238A6,6,0,1,1,88.50000483542681,732.5000112131238A6,6,0,1,1,100.50000483542681,732.5000112131238"></path><path id="kity_path_719" fill="none" stroke="gray"></path></g><path id="node_outline78" fill="none" stroke="none" d="M105.50000507384539,721.5000112131238h179a5,5,0,0,1,5,5v12a5,5,0,0,1,-5,5h-179a5,5,0,0,1,-5,-5v-12a5,5,0,0,1,5,-5z" stroke-width="3"></path><g id="node_text78" fill="black"><text id="kity_text_715" text-rendering="inherit" font-size="12" dy=".8em" y="724.7000111863017" x="110.50000507384539">情绪驱动行为，要学会控制情绪</text></g></g><g id="minder_node79" opacity="1"><g id="node_expander78" style="cursor: pointer;" display="none"><path id="kity_path_726" fill="white" stroke="gray" d="M100.50000483542681,680.5000104382634A6,6,0,1,1,88.50000483542681,680.5000104382634A6,6,0,1,1,100.50000483542681,680.5000104382634"></path><path id="kity_path_727" fill="none" stroke="gray"></path></g><path id="node_outline79" fill="none" stroke="none" d="M105.50000507384539,669.5000104382634h396a5,5,0,0,1,5,5v12a5,5,0,0,1,-5,5h-396a5,5,0,0,1,-5,-5v-12a5,5,0,0,1,5,-5z" stroke-width="3"></path><g id="node_text79" fill="black"><text id="kity_text_723" text-rendering="inherit" font-size="12" dy=".8em" y="672.7000104114413" x="110.50000507384539">情绪是即时产生的猜测，通过我们的大脑的解读理解而产生对情绪的想法</text></g></g><g id="minder_node80"><g id="node_expander79" style="cursor: pointer;" display="none"><path id="kity_path_734" fill="white" stroke="gray" d="M100.50000483542681,784.5000119879842A6,6,0,1,1,88.50000483542681,784.5000119879842A6,6,0,1,1,100.50000483542681,784.5000119879842"></path><path id="kity_path_735" fill="none" stroke="gray"></path></g><path id="node_outline80" fill="none" stroke="none" d="M105.50000507384539,773.5000119879842h179a5,5,0,0,1,5,5v12a5,5,0,0,1,-5,5h-179a5,5,0,0,1,-5,-5v-12a5,5,0,0,1,5,-5z" stroke-width="3"></path><g id="node_text80" fill="black"><text id="kity_text_731" text-rendering="inherit" font-size="12" dy=".8em" y="776.7000119611621" x="110.50000507384539">让情感融入人工智能真的好吗？</text></g></g><g id="kity_g_12" display="none"><path id="kity_path_13" fill="none" stroke="rgb(112, 66, 66)" d="M-40.49998714774847,657.5000010803342h167a5,5,0,0,1,5,5v12a5,5,0,0,1,-5,5h-167a5,5,0,0,1,-5,-5v-12a5,5,0,0,1,5,-5z" stroke-width="5"></path></g><g id="minder_node84"><g id="node_expander83" style="cursor: pointer;" display="none"><path id="kity_path_766" fill="white" stroke="gray" d="M1177.5000208839774,888.500013537705A6,6,0,1,1,1165.5000208839774,888.500013537705A6,6,0,1,1,1177.5000208839774,888.500013537705"></path><path id="kity_path_767" fill="none" stroke="gray"></path></g><path id="node_outline84" fill="none" stroke="none" d="M1182.500021122396,877.500013537705h96a5,5,0,0,1,5,5v12a5,5,0,0,1,-5,5h-96a5,5,0,0,1,-5,-5v-12a5,5,0,0,1,5,-5z" stroke-width="3"></path><g id="node_text84" fill="black"><text id="kity_text_763" text-rendering="inherit" font-size="12" dy=".8em" y="880.7000135108829" x="1187.500021122396">超链接改变社会</text></g></g></g></g></svg>