<svg id="kity_svg_6" xmlns="http://www.w3.org/2000/svg" xmlns:xlink="http://www.w3.org/1999/xlink" version="1.1" width="2260" height="999" style="background: rgb(251, 251, 251); visibility: visible;" viewBox="0 0 2260 999"><defs id="kity_defs_7"><linearGradient id="kity_linearGradient_17" x1="0" y1="0" x2="0" y2="1"><stop id="kity_stop_18" offset="0" stop-color="rgb(255, 255, 255)"></stop><stop id="kity_stop_19" offset="1" stop-color="rgb(204, 204, 204)"></stop></linearGradient><marker id="kity_marker_2" orient="auto" refX="6" refY="0" viewBox="-7 -7 14 14" markerWidth="7" markerHeight="7" markerUnits="userSpaceOnUse"><path id="kity_path_3" fill="rgb(115, 161, 191)" stroke="none" d="M6,0A6,6,0,1,1,-6,0A6,6,0,1,1,6,0"></path></marker></defs><g id="kity_g_8"><g id="minder1" text-rendering="optimize-speed"><g id="minder_connect_group1"><path id="kity_path_31" fill="none" stroke="rgb(191, 115, 115)" stroke-width="1" d="M843.5000128522515,60.49999841302633v30h-761.5V110.49999841302633"></path><path id="kity_path_122" fill="none" stroke="rgb(191, 115, 115)" stroke-width="1" d="M843.5000128522515,60.49999841302633v30h-86.5V110.49999841302633"></path><path id="kity_path_154" fill="none" stroke="rgb(191, 115, 115)" stroke-width="1" d="M843.5000128522515,60.49999841302633v30h777V110.49999841302633"></path><path id="kity_path_162" fill="none" stroke="rgb(191, 115, 115)" stroke-width="1" d="M843.5000128522515,60.49999841302633v30h308V110.49999841302633"></path><path id="kity_path_170" fill="none" stroke="rgb(191, 115, 115)" stroke-width="1" d="M1117.5000128522515,142.49999841302633V188.49999841302633L1137.5000128522515,188.49999841302633"></path><path id="kity_path_269" fill="none" stroke="rgb(191, 115, 115)" stroke-width="1" d="M1593.5000128522515,142.49999841302633V188.49999841302633L1613.5000128522515,188.49999841302633"></path><path id="kity_path_270" fill="none" stroke="rgb(191, 115, 115)" stroke-width="1" d="M40.50001285225153,142.49999841302633V604.4999984130263L60.50001285225153,604.4999984130263"></path><path id="kity_path_271" fill="none" stroke="rgb(191, 115, 115)" stroke-width="1" d="M1593.5000128522515,142.49999841302633V552.4999984130263L1613.5000128522515,552.4999984130263"></path><path id="kity_path_344" fill="none" stroke="rgb(191, 115, 115)" stroke-width="1" d="M80.50001285225153,199.49999841302633V240.49999841302633L100.50001285225153,240.49999841302633"></path><path id="kity_path_345" fill="none" stroke="rgb(191, 115, 115)" stroke-width="1" d="M80.50001285225153,199.49999841302633V292.49999841302633L100.50001285225153,292.49999841302633"></path><path id="kity_path_346" fill="none" stroke="rgb(191, 115, 115)" stroke-width="1" d="M40.50001285225153,142.49999841302633V188.49999841302633L60.50001285225153,188.49999841302633"></path><path id="kity_path_347" fill="none" stroke="rgb(191, 115, 115)" stroke-width="1" d="M80.50001285225153,355.49999841302633V396.49999841302633L100.50001285225153,396.49999841302633"></path><path id="kity_path_348" fill="none" stroke="rgb(191, 115, 115)" stroke-width="1" d="M80.50001285225153,355.49999841302633V500.49999841302633L100.50001285225153,500.49999841302633"></path><path id="kity_path_349" fill="none" stroke="rgb(191, 115, 115)" stroke-width="1" d="M80.50001285225153,355.49999841302633V552.4999984130263L100.50001285225153,552.4999984130263"></path><path id="kity_path_350" fill="none" stroke="rgb(191, 115, 115)" stroke-width="1" d="M40.50001285225153,142.49999841302633V344.49999841302633L60.50001285225153,344.49999841302633"></path><path id="kity_path_351" fill="none" stroke="rgb(191, 115, 115)" stroke-width="1" d="M701.5000128522515,142.49999841302633V188.49999841302633L721.5000128522515,188.49999841302633"></path><path id="kity_path_352" fill="none" stroke="rgb(191, 115, 115)" stroke-width="1" d="M701.5000128522515,142.49999841302633V552.4999984130263L721.5000128522515,552.4999984130263"></path><path id="kity_path_355" fill="none" stroke="rgb(191, 115, 115)" stroke-width="1" d="M701.5000128522515,142.49999841302633V344.49999841302633L721.5000128522515,344.49999841302633"></path><path id="kity_path_363" fill="none" stroke="rgb(191, 115, 115)" stroke-width="1" d="M741.5000128522515,199.49999841302633V240.49999841302633L761.5000128522515,240.49999841302633"></path><path id="kity_path_379" fill="none" stroke="rgb(191, 115, 115)" stroke-width="1" d="M741.5000128522515,199.49999841302633V292.49999841302633L761.5000128522515,292.49999841302633"></path><path id="kity_path_387" fill="none" stroke="rgb(191, 115, 115)" stroke-width="1" d="M741.5000128522515,355.49999841302633V396.49999841302633L761.5000128522515,396.49999841302633"></path><path id="kity_path_403" fill="none" stroke="rgb(191, 115, 115)" stroke-width="1" d="M741.5000128522515,355.49999841302633V448.49999841302633L761.5000128522515,448.49999841302633"></path><path id="kity_path_412" fill="none" stroke="rgb(191, 115, 115)" stroke-width="1" d="M781.5000128522515,459.49999841302633V500.49999841302633L801.5000128522515,500.49999841302633"></path><path id="kity_path_420" fill="none" stroke="rgb(191, 115, 115)" stroke-width="1" d="M741.5000128522515,563.4999984130263V604.4999984130263L761.5000128522515,604.4999984130263"></path><path id="kity_path_428" fill="none" stroke="rgb(191, 115, 115)" stroke-width="1" d="M741.5000128522515,563.4999984130263V656.4999984130263L761.5000128522515,656.4999984130263"></path><path id="kity_path_436" fill="none" stroke="rgb(191, 115, 115)" stroke-width="1" d="M120.50001285225153,407.49999841302633V448.49999841302633L140.50001285225153,448.49999841302633"></path><path id="kity_path_452" fill="none" stroke="rgb(191, 115, 115)" stroke-width="1" d="M1157.5000128522515,199.49999841302633V240.49999841302633L1177.5000128522515,240.49999841302633"></path><path id="kity_path_460" fill="none" stroke="rgb(191, 115, 115)" stroke-width="1" d="M1157.5000128522515,199.49999841302633V292.49999841302633L1177.5000128522515,292.49999841302633"></path><path id="kity_path_468" fill="none" stroke="rgb(191, 115, 115)" stroke-width="1" d="M1157.5000128522515,199.49999841302633V344.49999841302633L1177.5000128522515,344.49999841302633"></path><path id="kity_path_476" fill="none" stroke="rgb(191, 115, 115)" stroke-width="1" d="M1117.5000128522515,142.49999841302633V812.4999984130263L1137.5000128522515,812.4999984130263"></path><path id="kity_path_484" fill="none" stroke="rgb(191, 115, 115)" stroke-width="1" d="M1117.5000128522515,142.49999841302633V448.49999841302633L1137.5000128522515,448.49999841302633"></path><path id="kity_path_492" fill="none" stroke="rgb(191, 115, 115)" stroke-width="1" d="M1157.5000128522515,199.49999841302633V396.49999841302633L1177.5000128522515,396.49999841302633"></path><path id="kity_path_505" fill="none" stroke="rgb(191, 115, 115)" stroke-width="1" d="M1633.5000128522515,199.49999841302633V240.49999841302633L1653.5000128522515,240.49999841302633"></path><path id="kity_path_513" fill="none" stroke="rgb(191, 115, 115)" stroke-width="1" d="M1633.5000128522515,563.4999984130263V812.4999984130263L1653.5000128522515,812.4999984130263"></path><path id="kity_path_529" fill="none" stroke="rgb(191, 115, 115)" stroke-width="1" d="M1633.5000128522515,199.49999841302633V344.49999841302633L1653.5000128522515,344.49999841302633"></path><path id="kity_path_537" fill="none" stroke="rgb(191, 115, 115)" stroke-width="1" d="M1157.5000128522515,459.49999841302633V500.49999841302633L1177.5000128522515,500.49999841302633"></path><path id="kity_path_545" fill="none" stroke="rgb(191, 115, 115)" stroke-width="1" d="M1157.5000128522515,459.49999841302633V656.4999984130263L1177.5000128522515,656.4999984130263"></path><path id="kity_path_569" fill="none" stroke="rgb(191, 115, 115)" stroke-width="1" d="M1197.5000128522515,511.49999841302633V552.4999984130263L1217.5000128522515,552.4999984130263"></path><path id="kity_path_577" fill="none" stroke="rgb(191, 115, 115)" stroke-width="1" d="M1197.5000128522515,511.49999841302633V604.4999984130263L1217.5000128522515,604.4999984130263"></path><path id="kity_path_585" fill="none" stroke="rgb(191, 115, 115)" stroke-width="1" d="M1197.5000128522515,667.4999984130263V708.4999984130263L1217.5000128522515,708.4999984130263"></path><path id="kity_path_593" fill="none" stroke="rgb(191, 115, 115)" stroke-width="1" d="M1197.5000128522515,667.4999984130263V760.4999984130263L1217.5000128522515,760.4999984130263"></path><path id="kity_path_601" fill="none" stroke="rgb(191, 115, 115)" stroke-width="1" d="M1633.5000128522515,199.49999841302633V448.49999841302633L1653.5000128522515,448.49999841302633"></path><path id="kity_path_617" fill="none" stroke="rgb(191, 115, 115)" stroke-width="1" d="M1633.5000128522515,563.4999984130263V604.4999984130263L1653.5000128522515,604.4999984130263"></path><path id="kity_path_625" fill="none" stroke="rgb(191, 115, 115)" stroke-width="1" d="M1673.5000128522515,615.4999984130263V656.4999984130263L1693.5000128522515,656.4999984130263"></path><path id="kity_path_633" fill="none" stroke="rgb(191, 115, 115)" stroke-width="1" d="M1673.5000128522515,615.4999984130263V708.4999984130263L1693.5000128522515,708.4999984130263"></path><path id="kity_path_641" fill="none" stroke="rgb(191, 115, 115)" stroke-width="1" d="M1673.5000128522515,615.4999984130263V760.4999984130263L1693.5000128522515,760.4999984130263"></path><path id="kity_path_657" fill="none" stroke="rgb(191, 115, 115)" stroke-width="1" d="M1673.5000128522515,823.4999984130263V864.4999984130263L1693.5000128522515,864.4999984130263"></path><path id="kity_path_673" fill="none" stroke="rgb(191, 115, 115)" stroke-width="1" d="M1673.5000128522515,823.4999984130263V916.4999984130263L1693.5000128522515,916.4999984130263"></path><path id="kity_path_681" fill="none" stroke="rgb(191, 115, 115)" stroke-width="1" d="M1673.5000128522515,823.4999984130263V968.4999984130263L1693.5000128522515,968.4999984130263"></path><path id="kity_path_689" fill="none" stroke="rgb(191, 115, 115)" stroke-width="1" d="M1673.5000128522515,251.49999841302633V292.49999841302633L1693.5000128522515,292.49999841302633"></path><path id="kity_path_697" fill="none" stroke="rgb(191, 115, 115)" stroke-width="1" d="M1673.5000128522515,355.49999841302633V396.49999841302633L1693.5000128522515,396.49999841302633"></path><path id="kity_path_705" fill="none" stroke="rgb(191, 115, 115)" stroke-width="1" d="M1673.5000128522515,459.49999841302633V500.49999841302633L1693.5000128522515,500.49999841302633"></path><path id="kity_path_713" fill="none" stroke="rgb(191, 115, 115)" stroke-width="1" d="M80.50001285225153,615.4999984130263V708.4999984130263L100.50001285225153,708.4999984130263"></path><path id="kity_path_721" fill="none" stroke="rgb(191, 115, 115)" stroke-width="1" d="M80.50001285225153,615.4999984130263V656.4999984130263L100.50001285225153,656.4999984130263"></path><path id="kity_path_729" fill="none" stroke="rgb(191, 115, 115)" stroke-width="1" d="M80.50001285225153,615.4999984130263V760.4999984130263L100.50001285225153,760.4999984130263"></path><path id="kity_path_761" fill="none" stroke="rgb(191, 115, 115)" stroke-width="1" d="M1157.5000128522515,823.4999984130263V864.4999984130263L1177.5000128522515,864.4999984130263"></path></g><g id="minder_node1"><path id="node_outline1" fill="rgb(191, 115, 115)" stroke="rgb(191, 115, 115)" d="M759.5000128522515,20.499998413026333h167a5,5,0,0,1,5,5v30a5,5,0,0,1,-5,5h-167a5,5,0,0,1,-5,-5v-30a5,5,0,0,1,5,-5z" stroke-width="3"></path><g id="node_text1" fill="white"><text id="kity_text_22" text-rendering="inherit" font-size="16" dy=".8em" y="30.099998377263546" x="778.5000128522515">科技、娱乐与设计</text></g></g><g id="kity_g_14" display="none"><path id="kity_path_15" fill="rgba(153, 0, 0, 0.5)" stroke="none" d="M100.50001285225153,627.4999984130263h177v15h-177z"></path><path id="kity_path_16" fill="none" stroke="rgb(128, 0, 0)" d="M100.50001285225153,642.4999984130263L277.50001285225153,642.4999984130263" stroke-width="1"></path></g><g id="minder_node2" opacity="1"><g id="node_expander1" style="cursor: pointer;"><path id="kity_path_46" fill="white" stroke="gray" d="M87.50000246614218,103.49999935179949A6,6,0,1,1,75.50000246614218,103.49999935179949A6,6,0,1,1,87.50000246614218,103.49999935179949"></path><path id="kity_path_47" fill="none" stroke="gray" d="M77.00000246614218,103.49999935179949L86.00000246614218,103.49999935179949"></path></g><path id="node_outline2" fill="rgb(246, 238, 238)" stroke="rgb(191, 115, 115)" d="M23.5000022277236,110.4999996945262h116a3,3,0,0,1,3,3v26a3,3,0,0,1,-3,3h-116a3,3,0,0,1,-3,-3v-26a3,3,0,0,1,3,-3z" stroke-width="1"></path><g id="node_text2" fill="black"><text id="kity_text_37" text-rendering="inherit" font-size="14" dy=".8em" y="117.39999966323376" x="65.5000022277236"> 网络文化</text></g><g id="node_priority11"><path id="kity_path_501" fill="#840023" stroke="none" d="M41.00000186264515,129.99999955296516c0,3.866,3.134,7,7,7h6c3.866,0,7,-3.134,7,-7V123.99999955296516H41.00000186264515V129.99999955296516z"></path><path id="kity_path_502" fill="#FF1200" stroke="none" d="M61.00000186264515,126.99999955296516c0,3.866,-3.134,7,-7,7H48.00000186264515c-3.866,0,-7,-3.134,-7,-7V123.99999955296516c0,-3.866,3.134,-7,7,-7h6c3.866,0,7,3.134,7,7V126.99999955296516z" opacity="0.8"></path><text id="kity_text_503" text-rendering="geometricPrecision" x="50.00000185519457" y="126.49999954551458" text-anchor="middle" font-style="italic" font-size="12" fill="white" dy="5">1</text></g></g><g id="minder_node13" opacity="1"><g id="node_expander12" style="cursor: pointer;"><path id="kity_path_127" fill="white" stroke="gray" d="M762.500012524426,103.49999935179949A6,6,0,1,1,750.500012524426,103.49999935179949A6,6,0,1,1,762.500012524426,103.49999935179949"></path><path id="kity_path_128" fill="none" stroke="gray" d="M752.000012524426,103.49999935179949L761.000012524426,103.49999935179949"></path></g><path id="node_outline13" fill="rgb(246, 238, 238)" stroke="rgb(191, 115, 115)" d="M684.5000120773911,110.4999996945262h144a3,3,0,0,1,3,3v26a3,3,0,0,1,-3,3h-144a3,3,0,0,1,-3,-3v-26a3,3,0,0,1,3,-3z" stroke-width="1"></path><g id="node_text13" fill="black"><text id="kity_text_124" text-rendering="inherit" font-size="14" dy=".8em" y="117.39999966323376" x="726.5000120773911">信息数据应用</text></g><g id="node_priority10"><path id="kity_path_240" fill="#01467F" stroke="none" d="M702.0000117123127,129.99999955296516c0,3.866,3.134,7,7,7h6c3.866,0,7,-3.134,7,-7V123.99999955296516H702.0000117123127V129.99999955296516z"></path><path id="kity_path_241" fill="#0074FF" stroke="none" d="M722.0000117123127,126.99999955296516c0,3.866,-3.134,7,-7,7H709.0000117123127c-3.866,0,-7,-3.134,-7,-7V123.99999955296516c0,-3.866,3.134,-7,7,-7h6c3.866,0,7,3.134,7,7V126.99999955296516z" opacity="0.8"></path><text id="kity_text_242" text-rendering="geometricPrecision" x="711.0000117048621" y="126.49999954551458" text-anchor="middle" font-style="italic" font-size="12" fill="white" dy="5">2</text></g></g><g id="minder_node17" opacity="1"><g id="node_expander16" style="cursor: pointer;"><path id="kity_path_159" fill="white" stroke="gray" d="M1626.0000253915787,103.49999935179949A6,6,0,1,1,1614.0000253915787,103.49999935179949A6,6,0,1,1,1626.0000253915787,103.49999935179949"></path><path id="kity_path_160" fill="none" stroke="gray" d="M1615.5000253915787,103.49999935179949L1624.5000253915787,103.49999935179949"></path></g><path id="node_outline17" fill="rgb(246, 238, 238)" stroke="rgb(191, 115, 115)" d="M1576.500025369227,110.4999996945262h87a3,3,0,0,1,3,3v26a3,3,0,0,1,-3,3h-87a3,3,0,0,1,-3,-3v-26a3,3,0,0,1,3,-3z" stroke-width="1"></path><g id="node_text17" fill="black"><text id="kity_text_156" text-rendering="inherit" font-size="14" dy=".8em" y="117.39999966323376" x="1618.500025369227">设计</text></g><g id="node_priority5"><path id="kity_path_215" fill="#B25000" stroke="none" d="M1594.0000250041485,129.99999955296516c0,3.866,3.134,7,7,7h6c3.866,0,7,-3.134,7,-7V123.99999955296516H1594.0000250041485V129.99999955296516z"></path><path id="kity_path_216" fill="#FF962E" stroke="none" d="M1614.0000250041485,126.99999955296516c0,3.866,-3.134,7,-7,7H1601.0000250041485c-3.866,0,-7,-3.134,-7,-7V123.99999955296516c0,-3.866,3.134,-7,7,-7h6c3.866,0,7,3.134,7,7V126.99999955296516z" opacity="0.8"></path><text id="kity_text_217" text-rendering="geometricPrecision" x="1603.000024996698" y="126.49999954551458" text-anchor="middle" font-style="italic" font-size="12" fill="white" dy="5">4</text></g></g><g id="minder_node18" opacity="1"><g id="node_expander17" style="cursor: pointer;"><path id="kity_path_167" fill="white" stroke="gray" d="M1157.000018402934,103.49999935179949A6,6,0,1,1,1145.000018402934,103.49999935179949A6,6,0,1,1,1157.000018402934,103.49999935179949"></path><path id="kity_path_168" fill="none" stroke="gray" d="M1146.500018402934,103.49999935179949L1155.500018402934,103.49999935179949"></path></g><path id="node_outline18" fill="rgb(246, 238, 238)" stroke="rgb(191, 115, 115)" d="M1100.5000182762742,110.4999996945262h101a3,3,0,0,1,3,3v26a3,3,0,0,1,-3,3h-101a3,3,0,0,1,-3,-3v-26a3,3,0,0,1,3,-3z" stroke-width="1"></path><g id="node_text18" fill="black"><text id="kity_text_164" text-rendering="inherit" font-size="14" dy=".8em" y="117.39999966323376" x="1142.5000182762742">互联网</text></g><g id="node_priority4"><path id="kity_path_210" fill="#006300" stroke="none" d="M1118.0000179111958,129.99999955296516c0,3.866,3.134,7,7,7h6c3.866,0,7,-3.134,7,-7V123.99999955296516H1118.0000179111958V129.99999955296516z"></path><path id="kity_path_211" fill="#00AF00" stroke="none" d="M1138.0000179111958,126.99999955296516c0,3.866,-3.134,7,-7,7H1125.0000179111958c-3.866,0,-7,-3.134,-7,-7V123.99999955296516c0,-3.866,3.134,-7,7,-7h6c3.866,0,7,3.134,7,7V126.99999955296516z" opacity="0.8"></path><text id="kity_text_212" text-rendering="geometricPrecision" x="1127.0000179037452" y="126.49999954551458" text-anchor="middle" font-style="italic" font-size="12" fill="white" dy="5">3</text></g></g><g id="minder_node19" opacity="1"><g id="node_expander18" style="cursor: pointer;"><path id="kity_path_175" fill="white" stroke="gray" d="M1137.5000181123614,188.5000006183982A6,6,0,1,1,1125.5000181123614,188.5000006183982A6,6,0,1,1,1137.5000181123614,188.5000006183982"></path><path id="kity_path_176" fill="none" stroke="gray" d="M1127.0000181123614,188.5000006183982L1136.0000181123614,188.5000006183982"></path></g><path id="node_outline19" fill="#f2dbdb" stroke="none" d="M1142.50001835078,177.5000006183982h71a5,5,0,0,1,5,5v12a5,5,0,0,1,-5,5h-71a5,5,0,0,1,-5,-5v-12a5,5,0,0,1,5,-5z" stroke-width="3"></path><g id="node_text19" fill="black"><text id="kity_text_172" text-rendering="inherit" font-size="12" dy=".8em" y="180.7000005915761" x="1147.50001835078">平台与开放</text></g><g id="node_priority3" display="none"><path id="kity_path_205" fill="#840023" stroke="none" d="M1123.0000179857016,192.00000047683716c0,3.866,3.134,7,7,7h6c3.866,0,7,-3.134,7,-7V186.00000047683716H1123.0000179857016V192.00000047683716z"></path><path id="kity_path_206" fill="#FF1200" stroke="none" d="M1143.0000179857016,189.00000047683716c0,3.866,-3.134,7,-7,7H1130.0000179857016c-3.866,0,-7,-3.134,-7,-7V186.00000047683716c0,-3.866,3.134,-7,7,-7h6c3.866,0,7,3.134,7,7V189.00000047683716z" opacity="0.8"></path><text id="kity_text_207" text-rendering="geometricPrecision" x="1132.000017978251" y="188.50000046938658" text-anchor="middle" font-style="italic" font-size="12" fill="white" dy="5">1</text></g></g><g id="minder_node24" opacity="1"><g id="node_expander23" style="cursor: pointer;"><path id="kity_path_267" fill="white" stroke="gray" d="M1613.5000252053142,188.5000006183982A6,6,0,1,1,1601.5000252053142,188.5000006183982A6,6,0,1,1,1613.5000252053142,188.5000006183982"></path><path id="kity_path_268" fill="none" stroke="gray" d="M1603.0000252053142,188.5000006183982L1612.0000252053142,188.5000006183982"></path></g><path id="node_outline24" fill="#f2dbdb" stroke="none" d="M1618.5000254437327,177.5000006183982h71a5,5,0,0,1,5,5v12a5,5,0,0,1,-5,5h-71a5,5,0,0,1,-5,-5v-12a5,5,0,0,1,5,-5z" stroke-width="3"></path><g id="node_text24" fill="black"><text id="kity_text_264" text-rendering="inherit" font-size="12" dy=".8em" y="180.7000005915761" x="1623.5000254437327">幽默与设计</text></g></g><g id="minder_node20" opacity="1"><g id="node_expander19" style="cursor: pointer;"><path id="kity_path_183" fill="white" stroke="gray" d="M60.500002063810825,604.5000068172812A6,6,0,1,1,48.500002063810825,604.5000068172812A6,6,0,1,1,60.500002063810825,604.5000068172812"></path><path id="kity_path_184" fill="none" stroke="gray" d="M50.000002063810825,604.5000068172812L59.000002063810825,604.5000068172812"></path></g><path id="node_outline20" fill="#f2dbdb" stroke="none" d="M65.5000023022294,593.5000068172812h82a5,5,0,0,1,5,5v12a5,5,0,0,1,-5,5h-82a5,5,0,0,1,-5,-5v-12a5,5,0,0,1,5,-5z" stroke-width="3"></path><g id="node_text20" fill="black"><text id="kity_text_180" text-rendering="inherit" font-size="12" dy=".8em" y="596.7000067904592" x="70.5000023022294">互联网与情绪</text></g><g id="node_priority2" display="none"><path id="kity_path_200" fill="#840023" stroke="none" d="M46.000001937150955,608.0000066757202c0,3.866,3.134,7,7,7h6c3.866,0,7,-3.134,7,-7V602.0000066757202H46.000001937150955V608.0000066757202z"></path><path id="kity_path_201" fill="#FF1200" stroke="none" d="M66.00000193715096,605.0000066757202c0,3.866,-3.134,7,-7,7H53.000001937150955c-3.866,0,-7,-3.134,-7,-7V602.0000066757202c0,-3.866,3.134,-7,7,-7h6c3.866,0,7,3.134,7,7V605.0000066757202z" opacity="0.8"></path><text id="kity_text_202" text-rendering="geometricPrecision" x="55.000001929700375" y="604.5000066682696" text-anchor="middle" font-style="italic" font-size="12" fill="white" dy="5">1</text></g></g><g id="minder_node21" opacity="1"><g id="node_expander20" style="cursor: pointer;"><path id="kity_path_191" fill="white" stroke="gray" d="M1613.5000252053142,552.5000060424209A6,6,0,1,1,1601.5000252053142,552.5000060424209A6,6,0,1,1,1613.5000252053142,552.5000060424209"></path><path id="kity_path_192" fill="none" stroke="gray" d="M1603.0000252053142,552.5000060424209L1612.0000252053142,552.5000060424209"></path></g><path id="node_outline21" fill="#f2dbdb" stroke="none" d="M1618.5000254437327,541.5000060424209h72a5,5,0,0,1,5,5v12a5,5,0,0,1,-5,5h-72a5,5,0,0,1,-5,-5v-12a5,5,0,0,1,5,-5z" stroke-width="3"></path><g id="node_text21" fill="black"><text id="kity_text_188" text-rendering="inherit" font-size="12" dy=".8em" y="544.7000060155988" x="1623.5000254437327">情感化设计</text></g><g id="node_priority1" display="none"><path id="kity_path_195" fill="#840023" stroke="none" d="M1599.0000250786543,556.0000059008598c0,3.866,3.134,7,7,7h6c3.866,0,7,-3.134,7,-7V550.0000059008598H1599.0000250786543V556.0000059008598z"></path><path id="kity_path_196" fill="#FF1200" stroke="none" d="M1619.0000250786543,553.0000059008598c0,3.866,-3.134,7,-7,7H1606.0000250786543c-3.866,0,-7,-3.134,-7,-7V550.0000059008598c0,-3.866,3.134,-7,7,-7h6c3.866,0,7,3.134,7,7V553.0000059008598z" opacity="0.8"></path><text id="kity_text_197" text-rendering="geometricPrecision" x="1608.0000250712037" y="552.5000058934093" text-anchor="middle" font-style="italic" font-size="12" fill="white" dy="5">1</text></g></g><g id="minder_node26"><g id="node_expander25" style="cursor: pointer;" display="none"><path id="kity_path_286" fill="white" stroke="gray" d="M100.50000265985727,240.50000139325857A6,6,0,1,1,88.50000265985727,240.50000139325857A6,6,0,1,1,100.50000265985727,240.50000139325857"></path><path id="kity_path_287" fill="none" stroke="gray" d="M90.00000265985727,240.50000139325857L99.00000265985727,240.50000139325857"></path></g><path id="node_outline26" fill="none" stroke="none" d="M105.50000289827585,229.50000139325857h263a5,5,0,0,1,5,5v12a5,5,0,0,1,-5,5h-263a5,5,0,0,1,-5,-5v-12a5,5,0,0,1,5,-5z" stroke-width="3"></path><g id="node_text26" fill="black"><text id="kity_text_283" text-rendering="inherit" font-size="12" dy=".8em" y="232.70000136643648" x="110.50000289827585">生活模仿艺术，色情影片已成性教育的方式之一</text></g></g><g id="minder_node27"><g id="node_expander26" style="cursor: pointer;" display="none"><path id="kity_path_294" fill="white" stroke="gray" d="M100.50000265985727,292.50000216811895A6,6,0,1,1,88.50000265985727,292.50000216811895A6,6,0,1,1,100.50000265985727,292.50000216811895"></path><path id="kity_path_295" fill="none" stroke="gray" d="M90.00000265985727,292.50000216811895L99.00000265985727,292.50000216811895"></path></g><path id="node_outline27" fill="none" stroke="none" d="M105.50000289827585,281.50000216811895h276a5,5,0,0,1,5,5v12a5,5,0,0,1,-5,5h-276a5,5,0,0,1,-5,-5v-12a5,5,0,0,1,5,-5z" stroke-width="3"></path><g id="node_text27" fill="black"><text id="kity_text_291" text-rendering="inherit" font-size="12" dy=".8em" y="284.70000214129686" x="110.50000289827585">纠正色情影片价值观，促成社会性别转向性别平等 </text></g></g><g id="minder_node23" opacity="1"><g id="node_expander22" style="cursor: pointer;"><path id="kity_path_257" fill="white" stroke="gray" d="M60.500002063810825,188.5000006183982A6,6,0,1,1,48.500002063810825,188.5000006183982A6,6,0,1,1,60.500002063810825,188.5000006183982"></path><path id="kity_path_258" fill="none" stroke="gray" d="M50.000002063810825,188.5000006183982L59.000002063810825,188.5000006183982"></path></g><path id="node_outline23" fill="#f2dbdb" stroke="none" d="M65.5000023022294,177.5000006183982h82a5,5,0,0,1,5,5v12a5,5,0,0,1,-5,5h-82a5,5,0,0,1,-5,-5v-12a5,5,0,0,1,5,-5z" stroke-width="3"></path><g id="node_text23" fill="black"><text id="kity_text_254" text-rendering="inherit" font-size="12" dy=".8em" y="180.7000005915761" x="70.5000023022294">网络与性教育</text></g></g><g id="minder_node32"><g id="node_expander31" style="cursor: pointer;"><path id="kity_path_334" fill="white" stroke="gray" d="M100.50000265985727,396.5000037178397A6,6,0,1,1,88.50000265985727,396.5000037178397A6,6,0,1,1,100.50000265985727,396.5000037178397"></path><path id="kity_path_335" fill="none" stroke="gray" d="M90.00000265985727,396.5000037178397L99.00000265985727,396.5000037178397"></path></g><path id="node_outline32" fill="none" stroke="none" d="M105.50000289827585,385.5000037178397h252a5,5,0,0,1,5,5v12a5,5,0,0,1,-5,5h-252a5,5,0,0,1,-5,-5v-12a5,5,0,0,1,5,-5z" stroke-width="3"></path><g id="node_text32" fill="black"><text id="kity_text_331" text-rendering="inherit" font-size="12" dy=".8em" y="388.7000036910176" x="110.50000289827585">科技公司为了获取利益打响用户注意力争夺战</text></g></g><g id="minder_node33"><g id="node_expander32" style="cursor: pointer;" display="none"><path id="kity_path_342" fill="white" stroke="gray" d="M100.50000265985727,500.5000052675605A6,6,0,1,1,88.50000265985727,500.5000052675605A6,6,0,1,1,100.50000265985727,500.5000052675605"></path><path id="kity_path_343" fill="none" stroke="gray" d="M90.00000265985727,500.5000052675605L99.00000265985727,500.5000052675605"></path></g><path id="node_outline33" fill="none" stroke="none" d="M105.50000289827585,489.5000052675605h179a5,5,0,0,1,5,5v12a5,5,0,0,1,-5,5h-179a5,5,0,0,1,-5,-5v-12a5,5,0,0,1,5,-5z" stroke-width="3"></path><g id="node_text33" fill="black"><text id="kity_text_339" text-rendering="inherit" font-size="12" dy=".8em" y="492.7000052407384" x="110.50000289827585">网络社交的大环境倒逼我们上瘾</text></g></g><g id="minder_node31" opacity="1"><g id="node_expander30" style="cursor: pointer;" display="none"><path id="kity_path_326" fill="white" stroke="gray" d="M100.50000265985727,552.5000060424209A6,6,0,1,1,88.50000265985727,552.5000060424209A6,6,0,1,1,100.50000265985727,552.5000060424209"></path><path id="kity_path_327" fill="none" stroke="gray"></path></g><path id="node_outline31" fill="none" stroke="none" d="M105.50000289827585,541.5000060424209h131a5,5,0,0,1,5,5v12a5,5,0,0,1,-5,5h-131a5,5,0,0,1,-5,-5v-12a5,5,0,0,1,5,-5z" stroke-width="3"></path><g id="node_text31" fill="black"><text id="kity_text_323" text-rendering="inherit" font-size="12" dy=".8em" y="544.7000060155988" x="110.50000289827585">君子役物，小人役于物</text></g></g><g id="minder_node16" opacity="1"><g id="node_expander15" style="cursor: pointer;"><path id="kity_path_151" fill="white" stroke="gray" d="M60.500002063810825,344.50000294297934A6,6,0,1,1,48.500002063810825,344.50000294297934A6,6,0,1,1,60.500002063810825,344.50000294297934"></path><path id="kity_path_152" fill="none" stroke="gray" d="M50.000002063810825,344.50000294297934L59.000002063810825,344.50000294297934"></path></g><path id="node_outline16" fill="#f2dbdb" stroke="none" d="M65.5000023022294,333.50000294297934h59a5,5,0,0,1,5,5v12a5,5,0,0,1,-5,5h-59a5,5,0,0,1,-5,-5v-12a5,5,0,0,1,5,-5z" stroke-width="3"></path><g id="node_text16" fill="black"><text id="kity_text_148" text-rendering="inherit" font-size="12" dy=".8em" y="336.70000291615725" x="70.5000023022294">网络成瘾</text></g><g id="node_priority6" display="none"><path id="kity_path_220" fill="#840023" stroke="none" d="M46.000001937150955,348.0000028014183c0,3.866,3.134,7,7,7h6c3.866,0,7,-3.134,7,-7V342.0000028014183H46.000001937150955V348.0000028014183z"></path><path id="kity_path_221" fill="#FF1200" stroke="none" d="M66.00000193715096,345.0000028014183c0,3.866,-3.134,7,-7,7H53.000001937150955c-3.866,0,-7,-3.134,-7,-7V342.0000028014183c0,-3.866,3.134,-7,7,-7h6c3.866,0,7,3.134,7,7V345.0000028014183z" opacity="0.8"></path><text id="kity_text_222" text-rendering="geometricPrecision" x="55.000001929700375" y="344.5000027939677" text-anchor="middle" font-style="italic" font-size="12" fill="white" dy="5">1</text></g></g><g id="minder_node22"><g id="node_expander21" style="cursor: pointer;"><path id="kity_path_249" fill="white" stroke="gray" d="M721.5000119134784,188.5000006183982A6,6,0,1,1,709.5000119134784,188.5000006183982A6,6,0,1,1,721.5000119134784,188.5000006183982"></path><path id="kity_path_250" fill="none" stroke="gray" d="M711.0000119134784,188.5000006183982L720.0000119134784,188.5000006183982"></path></g><path id="node_outline22" fill="#f2dbdb" stroke="none" d="M726.500012151897,177.5000006183982h47a5,5,0,0,1,5,5v12a5,5,0,0,1,-5,5h-47a5,5,0,0,1,-5,-5v-12a5,5,0,0,1,5,-5z" stroke-width="3"></path><g id="node_text22" fill="black"><text id="kity_text_246" text-rendering="inherit" font-size="12" dy=".8em" y="180.7000005915761" x="731.500012151897">数字屑</text></g></g><g id="minder_node14" opacity="1"><g id="node_expander13" style="cursor: pointer;"><path id="kity_path_135" fill="white" stroke="gray" d="M721.5000119134784,552.5000060424209A6,6,0,1,1,709.5000119134784,552.5000060424209A6,6,0,1,1,721.5000119134784,552.5000060424209"></path><path id="kity_path_136" fill="none" stroke="gray" d="M711.0000119134784,552.5000060424209L720.0000119134784,552.5000060424209"></path></g><path id="node_outline14" fill="#f2dbdb" stroke="none" d="M726.500012151897,541.5000060424209h132a5,5,0,0,1,5,5v12a5,5,0,0,1,-5,5h-132a5,5,0,0,1,-5,-5v-12a5,5,0,0,1,5,-5z" stroke-width="3"></path><g id="node_text14" fill="black"><text id="kity_text_132" text-rendering="inherit" font-size="12" dy=".8em" y="544.7000060155988" x="731.500012151897">个人信息泡与交互设计</text></g><g id="node_priority9" display="none"><path id="kity_path_235" fill="#840023" stroke="none" d="M707.0000117868185,556.0000059008598c0,3.866,3.134,7,7,7h6c3.866,0,7,-3.134,7,-7V550.0000059008598H707.0000117868185V556.0000059008598z"></path><path id="kity_path_236" fill="#FF1200" stroke="none" d="M727.0000117868185,553.0000059008598c0,3.866,-3.134,7,-7,7H714.0000117868185c-3.866,0,-7,-3.134,-7,-7V550.0000059008598c0,-3.866,3.134,-7,7,-7h6c3.866,0,7,3.134,7,7V553.0000059008598z" opacity="0.8"></path><text id="kity_text_237" text-rendering="geometricPrecision" x="716.0000117793679" y="552.5000058934093" text-anchor="middle" font-style="italic" font-size="12" fill="white" dy="5">1</text></g></g><g id="minder_node34"><g id="node_expander33" style="cursor: pointer;"><path id="kity_path_360" fill="white" stroke="gray" d="M721.5000119134784,344.50000294297934A6,6,0,1,1,709.5000119134784,344.50000294297934A6,6,0,1,1,721.5000119134784,344.50000294297934"></path><path id="kity_path_361" fill="none" stroke="gray" d="M711.0000119134784,344.50000294297934L720.0000119134784,344.50000294297934"></path></g><path id="node_outline34" fill="#f2dbdb" stroke="none" d="M726.500012151897,333.50000294297934h108a5,5,0,0,1,5,5v12a5,5,0,0,1,-5,5h-108a5,5,0,0,1,-5,-5v-12a5,5,0,0,1,5,-5z" stroke-width="3"></path><g id="node_text34" fill="black"><text id="kity_text_357" text-rendering="inherit" font-size="12" dy=".8em" y="336.70000291615725" x="731.500012151897">人工智能与大数据</text></g></g><g id="minder_node35"><g id="node_expander34" style="cursor: pointer;" display="none"><path id="kity_path_368" fill="white" stroke="gray" d="M761.5000125095248,240.50000139325857A6,6,0,1,1,749.5000125095248,240.50000139325857A6,6,0,1,1,761.5000125095248,240.50000139325857"></path><path id="kity_path_369" fill="none" stroke="gray" d="M751.0000125095248,240.50000139325857L760.0000125095248,240.50000139325857"></path></g><path id="node_outline35" fill="none" stroke="none" d="M766.5000127479434,229.50000139325857h156a5,5,0,0,1,5,5v12a5,5,0,0,1,-5,5h-156a5,5,0,0,1,-5,-5v-12a5,5,0,0,1,5,-5z" stroke-width="3"></path><g id="node_text35" fill="black"><text id="kity_text_365" text-rendering="inherit" font-size="12" dy=".8em" y="232.70000136643648" x="771.5000127479434">数字屑是网络中的个人数据</text></g></g><g id="minder_node37"><g id="node_expander36" style="cursor: pointer;" display="none"><path id="kity_path_384" fill="white" stroke="gray" d="M761.5000125095248,292.50000216811895A6,6,0,1,1,749.5000125095248,292.50000216811895A6,6,0,1,1,761.5000125095248,292.50000216811895"></path><path id="kity_path_385" fill="none" stroke="gray" d="M751.0000125095248,292.50000216811895L760.0000125095248,292.50000216811895"></path></g><path id="node_outline37" fill="none" stroke="none" d="M766.5000127479434,281.50000216811895h180a5,5,0,0,1,5,5v12a5,5,0,0,1,-5,5h-180a5,5,0,0,1,-5,-5v-12a5,5,0,0,1,5,-5z" stroke-width="3"></path><g id="node_text37" fill="black"><text id="kity_text_381" text-rendering="inherit" font-size="12" dy=".8em" y="284.70000214129686" x="771.5000127479434">个人还是企业掌握数字屑是关键</text></g></g><g id="minder_node38" opacity="1"><g id="node_expander37" style="cursor: pointer;" display="none"><path id="kity_path_392" fill="white" stroke="gray" d="M761.5000125095248,396.5000037178397A6,6,0,1,1,749.5000125095248,396.5000037178397A6,6,0,1,1,761.5000125095248,396.5000037178397"></path><path id="kity_path_393" fill="none" stroke="gray" d="M751.0000125095248,396.5000037178397L760.0000125095248,396.5000037178397"></path></g><path id="node_outline38" fill="none" stroke="none" d="M766.5000127479434,385.5000037178397h252a5,5,0,0,1,5,5v12a5,5,0,0,1,-5,5h-252a5,5,0,0,1,-5,-5v-12a5,5,0,0,1,5,-5z" stroke-width="3"></path><g id="node_text38" fill="black"><text id="kity_text_389" text-rendering="inherit" font-size="12" dy=".8em" y="388.7000036910176" x="771.5000127479434">人工智能时代，更应坚守人类的价值观和伦理</text></g></g><g id="minder_node40"><g id="node_expander39" style="cursor: pointer;"><path id="kity_path_408" fill="white" stroke="gray" d="M761.5000125095248,448.5000044927001A6,6,0,1,1,749.5000125095248,448.5000044927001A6,6,0,1,1,761.5000125095248,448.5000044927001"></path><path id="kity_path_409" fill="none" stroke="gray" d="M751.0000125095248,448.5000044927001L760.0000125095248,448.5000044927001"></path></g><path id="node_outline40" fill="none" stroke="none" d="M766.5000127479434,437.5000044927001h167a5,5,0,0,1,5,5v12a5,5,0,0,1,-5,5h-167a5,5,0,0,1,-5,-5v-12a5,5,0,0,1,5,-5z" stroke-width="3"></path><g id="node_text40" fill="black"><text id="kity_text_405" text-rendering="inherit" font-size="12" dy=".8em" y="440.700004465878" x="771.5000127479434">大数据，取之于民，用之于民</text></g></g><g id="minder_node41"><g id="node_expander40" style="cursor: pointer;" display="none"><path id="kity_path_417" fill="white" stroke="gray" d="M801.5000131055713,500.5000052675605A6,6,0,1,1,789.5000131055713,500.5000052675605A6,6,0,1,1,801.5000131055713,500.5000052675605"></path><path id="kity_path_418" fill="none" stroke="gray"></path></g><path id="node_outline41" fill="none" stroke="none" d="M806.5000133439898,489.5000052675605h156a5,5,0,0,1,5,5v12a5,5,0,0,1,-5,5h-156a5,5,0,0,1,-5,-5v-12a5,5,0,0,1,5,-5z" stroke-width="3"></path><g id="node_text41" fill="black"><text id="kity_text_414" text-rendering="inherit" font-size="12" dy=".8em" y="492.7000052407384" x="811.5000133439898">例子：分享我们的医疗数据</text></g></g><g id="minder_node42"><g id="node_expander41" style="cursor: pointer;" display="none"><path id="kity_path_425" fill="white" stroke="gray" d="M761.5000125095248,604.5000068172812A6,6,0,1,1,749.5000125095248,604.5000068172812A6,6,0,1,1,761.5000125095248,604.5000068172812"></path><path id="kity_path_426" fill="none" stroke="gray"></path></g><path id="node_outline42" fill="none" stroke="none" d="M766.5000127479434,593.5000068172812h286a5,5,0,0,1,5,5v12a5,5,0,0,1,-5,5h-286a5,5,0,0,1,-5,-5v-12a5,5,0,0,1,5,-5z" stroke-width="3"></path><g id="node_text42" fill="black"><text id="kity_text_422" text-rendering="inherit" font-size="12" dy=".8em" y="596.7000067904592" x="771.5000127479434">警惕“过滤气泡（Filter Bubble）”，突破信息限制</text></g></g><g id="minder_node43"><g id="node_expander42" style="cursor: pointer;" display="none"><path id="kity_path_433" fill="white" stroke="gray" d="M761.5000125095248,656.5000075921416A6,6,0,1,1,749.5000125095248,656.5000075921416A6,6,0,1,1,761.5000125095248,656.5000075921416"></path><path id="kity_path_434" fill="none" stroke="gray"></path></g><path id="node_outline43" fill="none" stroke="none" d="M766.5000127479434,645.5000075921416h107a5,5,0,0,1,5,5v12a5,5,0,0,1,-5,5h-107a5,5,0,0,1,-5,-5v-12a5,5,0,0,1,5,-5z" stroke-width="3"></path><g id="node_text43" fill="black"><text id="kity_text_430" text-rendering="inherit" font-size="12" dy=".8em" y="648.7000075653195" x="771.5000127479434">让数据“人性化”</text></g></g><g id="minder_node44"><g id="node_expander43" style="cursor: pointer;" display="none"><path id="kity_path_441" fill="white" stroke="gray" d="M140.50000325590372,448.5000044927001A6,6,0,1,1,128.50000325590372,448.5000044927001A6,6,0,1,1,140.50000325590372,448.5000044927001"></path><path id="kity_path_442" fill="none" stroke="gray"></path></g><path id="node_outline44" fill="none" stroke="none" d="M145.5000034943223,437.5000044927001h491a5,5,0,0,1,5,5v12a5,5,0,0,1,-5,5h-491a5,5,0,0,1,-5,-5v-12a5,5,0,0,1,5,-5z" stroke-width="3"></path><g id="node_text44" fill="black"><text id="kity_text_438" text-rendering="inherit" font-size="12" dy=".8em" y="440.700004465878" x="150.5000034943223">例子：YouTube、Netflix、Facebook等为了留住用户的注意力设计了自动连播视频的功能</text></g></g><g id="minder_node46"><g id="node_expander45" style="cursor: pointer;" display="none"><path id="kity_path_457" fill="white" stroke="gray" d="M1177.5000187084079,240.50000139325857A6,6,0,1,1,1165.5000187084079,240.50000139325857A6,6,0,1,1,1177.5000187084079,240.50000139325857"></path><path id="kity_path_458" fill="none" stroke="gray"></path></g><path id="node_outline46" fill="none" stroke="none" d="M1182.5000189468265,229.50000139325857h166a5,5,0,0,1,5,5v12a5,5,0,0,1,-5,5h-166a5,5,0,0,1,-5,-5v-12a5,5,0,0,1,5,-5z" stroke-width="3"></path><g id="node_text46" fill="black"><text id="kity_text_454" text-rendering="inherit" font-size="12" dy=".8em" y="232.70000136643648" x="1187.5000189468265">互联网存在随机的善良的行为</text></g></g><g id="minder_node47"><g id="node_expander46" style="cursor: pointer;" display="none"><path id="kity_path_465" fill="white" stroke="gray" d="M1177.5000187084079,292.50000216811895A6,6,0,1,1,1165.5000187084079,292.50000216811895A6,6,0,1,1,1177.5000187084079,292.50000216811895"></path><path id="kity_path_466" fill="none" stroke="gray"></path></g><path id="node_outline47" fill="none" stroke="none" d="M1182.5000189468265,281.50000216811895h179a5,5,0,0,1,5,5v12a5,5,0,0,1,-5,5h-179a5,5,0,0,1,-5,-5v-12a5,5,0,0,1,5,-5z" stroke-width="3"></path><g id="node_text47" fill="black"><text id="kity_text_462" text-rendering="inherit" font-size="12" dy=".8em" y="284.70000214129686" x="1187.5000189468265">互联网是互联网企业谋利的工具</text></g></g><g id="minder_node48"><g id="node_expander47" style="cursor: pointer;" display="none"><path id="kity_path_473" fill="white" stroke="gray" d="M1177.5000187084079,344.50000294297934A6,6,0,1,1,1165.5000187084079,344.50000294297934A6,6,0,1,1,1177.5000187084079,344.50000294297934"></path><path id="kity_path_474" fill="none" stroke="gray"></path></g><path id="node_outline48" fill="none" stroke="none" d="M1182.5000189468265,333.50000294297934h119a5,5,0,0,1,5,5v12a5,5,0,0,1,-5,5h-119a5,5,0,0,1,-5,-5v-12a5,5,0,0,1,5,-5z" stroke-width="3"></path><g id="node_text48" fill="black"><text id="kity_text_470" text-rendering="inherit" font-size="12" dy=".8em" y="336.70000291615725" x="1187.5000189468265">互联网是民权的工具</text></g></g><g id="minder_node49"><g id="node_expander48" style="cursor: pointer;"><path id="kity_path_481" fill="white" stroke="gray" d="M1137.5000181123614,812.5000099167228A6,6,0,1,1,1125.5000181123614,812.5000099167228A6,6,0,1,1,1137.5000181123614,812.5000099167228"></path><path id="kity_path_482" fill="none" stroke="gray" d="M1127.0000181123614,812.5000099167228L1136.0000181123614,812.5000099167228"></path></g><path id="node_outline49" fill="#f2dbdb" stroke="none" d="M1142.50001835078,801.5000099167228h84a5,5,0,0,1,5,5v12a5,5,0,0,1,-5,5h-84a5,5,0,0,1,-5,-5v-12a5,5,0,0,1,5,-5z" stroke-width="3"></path><g id="node_text49" fill="black"><text id="kity_text_478" text-rendering="inherit" font-size="12" dy=".8em" y="804.7000098899007" x="1147.50001835078">超连结与社会</text></g></g><g id="minder_node50"><g id="node_expander49" style="cursor: pointer;"><path id="kity_path_489" fill="white" stroke="gray" d="M1137.5000181123614,448.5000044927001A6,6,0,1,1,1125.5000181123614,448.5000044927001A6,6,0,1,1,1137.5000181123614,448.5000044927001"></path><path id="kity_path_490" fill="none" stroke="gray" d="M1127.0000181123614,448.5000044927001L1136.0000181123614,448.5000044927001"></path></g><path id="node_outline50" fill="#f2dbdb" stroke="none" d="M1142.50001835078,437.5000044927001h84a5,5,0,0,1,5,5v12a5,5,0,0,1,-5,5h-84a5,5,0,0,1,-5,-5v-12a5,5,0,0,1,5,-5z" stroke-width="3"></path><g id="node_text50" fill="black"><text id="kity_text_486" text-rendering="inherit" font-size="12" dy=".8em" y="440.700004465878" x="1147.50001835078">编程改变世界</text></g></g><g id="minder_node51" opacity="1"><g id="node_expander50" style="cursor: pointer;" display="none"><path id="kity_path_497" fill="white" stroke="gray" d="M1177.5000187084079,396.5000037178397A6,6,0,1,1,1165.5000187084079,396.5000037178397A6,6,0,1,1,1177.5000187084079,396.5000037178397"></path><path id="kity_path_498" fill="none" stroke="gray"></path></g><path id="node_outline51" fill="none" stroke="none" d="M1182.5000189468265,385.5000037178397h346a5,5,0,0,1,5,5v12a5,5,0,0,1,-5,5h-346a5,5,0,0,1,-5,-5v-12a5,5,0,0,1,5,-5z" stroke-width="3"></path><g id="node_text51" fill="black"><text id="kity_text_494" text-rendering="inherit" font-size="12" dy=".8em" y="388.7000036910176" x="1187.5000189468265">互联网的本质是什么？自由与开放（需要建立在善良的引导下）</text></g></g><g id="minder_node52"><g id="node_expander51" style="cursor: pointer;"><path id="kity_path_510" fill="white" stroke="gray" d="M1653.5000258013606,240.50000139325857A6,6,0,1,1,1641.5000258013606,240.50000139325857A6,6,0,1,1,1653.5000258013606,240.50000139325857"></path><path id="kity_path_511" fill="none" stroke="gray" d="M1643.0000258013606,240.50000139325857L1652.0000258013606,240.50000139325857"></path></g><path id="node_outline52" fill="none" stroke="none" d="M1658.5000260397792,229.50000139325857h94a5,5,0,0,1,5,5v12a5,5,0,0,1,-5,5h-94a5,5,0,0,1,-5,-5v-12a5,5,0,0,1,5,-5z" stroke-width="3"></path><g id="node_text52" fill="black"><text id="kity_text_507" text-rendering="inherit" font-size="12" dy=".8em" y="232.70000136643648" x="1663.5000260397792">以幽默改变规则</text></g></g><g id="minder_node53"><g id="node_expander52" style="cursor: pointer;"><path id="kity_path_518" fill="white" stroke="gray" d="M1653.5000258013606,812.5000099167228A6,6,0,1,1,1641.5000258013606,812.5000099167228A6,6,0,1,1,1653.5000258013606,812.5000099167228"></path><path id="kity_path_519" fill="none" stroke="gray" d="M1643.0000258013606,812.5000099167228L1652.0000258013606,812.5000099167228"></path></g><path id="node_outline53" fill="none" stroke="none" d="M1658.5000260397792,801.5000099167228h126a5,5,0,0,1,5,5v12a5,5,0,0,1,-5,5h-126a5,5,0,0,1,-5,-5v-12a5,5,0,0,1,5,-5z" stroke-width="3"></path><g id="node_text53" fill="black"><text id="kity_text_515" text-rendering="inherit" font-size="12" dy=".8em" y="804.7000098899007" x="1663.5000260397792">情感化设计的3个层面</text></g></g><g id="minder_node55"><g id="node_expander54" style="cursor: pointer;"><path id="kity_path_534" fill="white" stroke="gray" d="M1653.5000258013606,344.50000294297934A6,6,0,1,1,1641.5000258013606,344.50000294297934A6,6,0,1,1,1653.5000258013606,344.50000294297934"></path><path id="kity_path_535" fill="none" stroke="gray" d="M1643.0000258013606,344.50000294297934L1652.0000258013606,344.50000294297934"></path></g><path id="node_outline55" fill="none" stroke="none" d="M1658.5000260397792,333.50000294297934h95a5,5,0,0,1,5,5v12a5,5,0,0,1,-5,5h-95a5,5,0,0,1,-5,-5v-12a5,5,0,0,1,5,-5z" stroke-width="3"></path><g id="node_text55" fill="black"><text id="kity_text_531" text-rendering="inherit" font-size="12" dy=".8em" y="336.70000291615725" x="1663.5000260397792">以幽默传播文化</text></g></g><g id="minder_node56"><g id="node_expander55" style="cursor: pointer;"><path id="kity_path_542" fill="white" stroke="gray" d="M1177.5000187084079,500.5000052675605A6,6,0,1,1,1165.5000187084079,500.5000052675605A6,6,0,1,1,1177.5000187084079,500.5000052675605"></path><path id="kity_path_543" fill="none" stroke="gray" d="M1167.0000187084079,500.5000052675605L1176.0000187084079,500.5000052675605"></path></g><path id="node_outline56" fill="none" stroke="none" d="M1182.5000189468265,489.5000052675605h125a5,5,0,0,1,5,5v12a5,5,0,0,1,-5,5h-125a5,5,0,0,1,-5,-5v-12a5,5,0,0,1,5,-5z" stroke-width="3"></path><g id="node_text56" fill="black"><text id="kity_text_539" text-rendering="inherit" font-size="12" dy=".8em" y="492.7000052407384" x="1187.5000189468265">代码: 下一个通用语言</text></g></g><g id="minder_node57"><g id="node_expander56" style="cursor: pointer;"><path id="kity_path_550" fill="white" stroke="gray" d="M1177.5000187084079,656.5000075921416A6,6,0,1,1,1165.5000187084079,656.5000075921416A6,6,0,1,1,1177.5000187084079,656.5000075921416"></path><path id="kity_path_551" fill="none" stroke="gray" d="M1167.0000187084079,656.5000075921416L1176.0000187084079,656.5000075921416"></path></g><path id="node_outline57" fill="none" stroke="none" d="M1182.5000189468265,645.5000075921416h227a5,5,0,0,1,5,5v12a5,5,0,0,1,-5,5h-227a5,5,0,0,1,-5,-5v-12a5,5,0,0,1,5,-5z" stroke-width="3"></path><g id="node_text57" fill="black"><text id="kity_text_547" text-rendering="inherit" font-size="12" dy=".8em" y="648.7000075653195" x="1187.5000189468265">黑客编程一直是健康民主的重要组成部分</text></g></g><g id="minder_node60"><g id="node_expander59" style="cursor: pointer;" display="none"><path id="kity_path_574" fill="white" stroke="gray" d="M1217.5000193044543,552.5000060424209A6,6,0,1,1,1205.5000193044543,552.5000060424209A6,6,0,1,1,1217.5000193044543,552.5000060424209"></path><path id="kity_path_575" fill="none" stroke="gray"></path></g><path id="node_outline60" fill="none" stroke="none" d="M1222.500019542873,541.5000060424209h143a5,5,0,0,1,5,5v12a5,5,0,0,1,-5,5h-143a5,5,0,0,1,-5,-5v-12a5,5,0,0,1,5,-5z" stroke-width="3"></path><g id="node_text60" fill="black"><text id="kity_text_571" text-rendering="inherit" font-size="12" dy=".8em" y="544.7000060155988" x="1227.500019542873">让孩子成为下一代创造者</text></g></g><g id="minder_node61"><g id="node_expander60" style="cursor: pointer;" display="none"><path id="kity_path_582" fill="white" stroke="gray" d="M1217.5000193044543,604.5000068172812A6,6,0,1,1,1205.5000193044543,604.5000068172812A6,6,0,1,1,1217.5000193044543,604.5000068172812"></path><path id="kity_path_583" fill="none" stroke="gray"></path></g><path id="node_outline61" fill="none" stroke="none" d="M1222.500019542873,593.5000068172812h132a5,5,0,0,1,5,5v12a5,5,0,0,1,-5,5h-132a5,5,0,0,1,-5,-5v-12a5,5,0,0,1,5,-5z" stroke-width="3"></path><g id="node_text61" fill="black"><text id="kity_text_579" text-rendering="inherit" font-size="12" dy=".8em" y="596.7000067904592" x="1227.500019542873">女孩要勇敢而不必完美</text></g></g><g id="minder_node62"><g id="node_expander61" style="cursor: pointer;" display="none"><path id="kity_path_590" fill="white" stroke="gray" d="M1217.5000193044543,708.500008367002A6,6,0,1,1,1205.5000193044543,708.500008367002A6,6,0,1,1,1217.5000193044543,708.500008367002"></path><path id="kity_path_591" fill="none" stroke="gray"></path></g><path id="node_outline62" fill="none" stroke="none" d="M1222.500019542873,697.500008367002h281a5,5,0,0,1,5,5v12a5,5,0,0,1,-5,5h-281a5,5,0,0,1,-5,-5v-12a5,5,0,0,1,5,-5z" stroke-width="3"></path><g id="node_text62" fill="black"><text id="kity_text_587" text-rendering="inherit" font-size="12" dy=".8em" y="700.7000083401799" x="1227.500019542873">成为公民黑客（Civic Hacking）共同推动社会发展</text></g></g><g id="minder_node63"><g id="node_expander62" style="cursor: pointer;" display="none"><path id="kity_path_598" fill="white" stroke="gray" d="M1217.5000193044543,760.5000091418624A6,6,0,1,1,1205.5000193044543,760.5000091418624A6,6,0,1,1,1217.5000193044543,760.5000091418624"></path><path id="kity_path_599" fill="none" stroke="gray"></path></g><path id="node_outline63" fill="none" stroke="none" d="M1222.500019542873,749.5000091418624h178a5,5,0,0,1,5,5v12a5,5,0,0,1,-5,5h-178a5,5,0,0,1,-5,-5v-12a5,5,0,0,1,5,-5z" stroke-width="3"></path><g id="node_text63" fill="black"><text id="kity_text_595" text-rendering="inherit" font-size="12" dy=".8em" y="752.7000091150403" x="1227.500019542873">用编程“编写”一个更好的政府</text></g></g><g id="minder_node64"><g id="node_expander63" style="cursor: pointer;"><path id="kity_path_606" fill="white" stroke="gray" d="M1653.5000258013606,448.5000044927001A6,6,0,1,1,1641.5000258013606,448.5000044927001A6,6,0,1,1,1653.5000258013606,448.5000044927001"></path><path id="kity_path_607" fill="none" stroke="gray" d="M1643.0000258013606,448.5000044927001L1652.0000258013606,448.5000044927001"></path></g><path id="node_outline64" fill="none" stroke="none" d="M1658.5000260397792,437.5000044927001h95a5,5,0,0,1,5,5v12a5,5,0,0,1,-5,5h-95a5,5,0,0,1,-5,-5v-12a5,5,0,0,1,5,-5z" stroke-width="3"></path><g id="node_text64" fill="black"><text id="kity_text_603" text-rendering="inherit" font-size="12" dy=".8em" y="440.700004465878" x="1663.5000260397792">以幽默消除歧视</text></g></g><g id="minder_node66" opacity="1"><g id="node_expander65" style="cursor: pointer;"><path id="kity_path_622" fill="white" stroke="gray" d="M1653.5000258013606,604.5000068172812A6,6,0,1,1,1641.5000258013606,604.5000068172812A6,6,0,1,1,1653.5000258013606,604.5000068172812"></path><path id="kity_path_623" fill="none" stroke="gray" d="M1643.0000258013606,604.5000068172812L1652.0000258013606,604.5000068172812"></path></g><path id="node_outline66" fill="none" stroke="none" d="M1658.5000260397792,593.5000068172812h127a5,5,0,0,1,5,5v12a5,5,0,0,1,-5,5h-127a5,5,0,0,1,-5,-5v-12a5,5,0,0,1,5,-5z" stroke-width="3"></path><g id="node_text66" fill="black"><text id="kity_text_619" text-rendering="inherit" font-size="12" dy=".8em" y="596.7000067904592" x="1663.5000260397792">积极心理学的3个目标</text></g></g><g id="minder_node67"><g id="node_expander66" style="cursor: pointer;" display="none"><path id="kity_path_630" fill="white" stroke="gray" d="M1693.500026397407,656.5000075921416A6,6,0,1,1,1681.500026397407,656.5000075921416A6,6,0,1,1,1693.500026397407,656.5000075921416"></path><path id="kity_path_631" fill="none" stroke="gray"></path></g><path id="node_outline67" fill="none" stroke="none" d="M1698.5000266358256,645.5000075921416h264a5,5,0,0,1,5,5v12a5,5,0,0,1,-5,5h-264a5,5,0,0,1,-5,-5v-12a5,5,0,0,1,5,-5z" stroke-width="3"></path><g id="node_text67" fill="black"><text id="kity_text_627" text-rendering="inherit" font-size="12" dy=".8em" y="648.7000075653195" x="1703.5000266358256">心理学不仅要关注人的弱点，还要关注人的优势</text></g></g><g id="minder_node68"><g id="node_expander67" style="cursor: pointer;" display="none"><path id="kity_path_638" fill="white" stroke="gray" d="M1693.500026397407,708.500008367002A6,6,0,1,1,1681.500026397407,708.500008367002A6,6,0,1,1,1693.500026397407,708.500008367002"></path><path id="kity_path_639" fill="none" stroke="gray"></path></g><path id="node_outline68" fill="none" stroke="none" d="M1698.5000266358256,697.500008367002h467a5,5,0,0,1,5,5v12a5,5,0,0,1,-5,5h-467a5,5,0,0,1,-5,-5v-12a5,5,0,0,1,5,-5z" stroke-width="3"></path><g id="node_text68" fill="black"><text id="kity_text_635" text-rendering="inherit" font-size="12" dy=".8em" y="700.7000083401799" x="1703.5000266358256">不仅要致力于修复心理损伤，还要致力于给人力量，让其对生活中美好的东西感兴趣。</text></g></g><g id="minder_node69"><g id="node_expander68" style="cursor: pointer;" display="none"><path id="kity_path_646" fill="white" stroke="gray" d="M1693.500026397407,760.5000091418624A6,6,0,1,1,1681.500026397407,760.5000091418624A6,6,0,1,1,1693.500026397407,760.5000091418624"></path><path id="kity_path_647" fill="none" stroke="gray"></path></g><path id="node_outline69" fill="none" stroke="none" d="M1698.5000266358256,749.5000091418624h395a5,5,0,0,1,5,5v12a5,5,0,0,1,-5,5h-395a5,5,0,0,1,-5,-5v-12a5,5,0,0,1,5,-5z" stroke-width="3"></path><g id="node_text69" fill="black"><text id="kity_text_643" text-rendering="inherit" font-size="12" dy=".8em" y="752.7000091150403" x="1703.5000266358256">应该在关注病人的同时，努力让正常人以及“天才”们的生活更加美好。</text></g></g><g id="minder_node71"><g id="node_expander70" style="cursor: pointer;" display="none"><path id="kity_path_662" fill="white" stroke="gray" d="M1693.500026397407,864.5000106915832A6,6,0,1,1,1681.500026397407,864.5000106915832A6,6,0,1,1,1693.500026397407,864.5000106915832"></path><path id="kity_path_663" fill="none" stroke="gray" d="M1683.000026397407,864.5000106915832L1692.000026397407,864.5000106915832"></path></g><path id="node_outline71" fill="none" stroke="none" d="M1698.5000266358256,853.5000106915832h59a5,5,0,0,1,5,5v12a5,5,0,0,1,-5,5h-59a5,5,0,0,1,-5,-5v-12a5,5,0,0,1,5,-5z" stroke-width="3"></path><g id="node_text71" fill="black"><text id="kity_text_659" text-rendering="inherit" font-size="12" dy=".8em" y="856.7000106647611" x="1703.5000266358256">本能层面</text></g></g><g id="minder_node73"><g id="node_expander72" style="cursor: pointer;" display="none"><path id="kity_path_678" fill="white" stroke="gray" d="M1693.500026397407,916.5000114664435A6,6,0,1,1,1681.500026397407,916.5000114664435A6,6,0,1,1,1693.500026397407,916.5000114664435"></path><path id="kity_path_679" fill="none" stroke="gray"></path></g><path id="node_outline73" fill="none" stroke="none" d="M1698.5000266358256,905.5000114664435h59a5,5,0,0,1,5,5v12a5,5,0,0,1,-5,5h-59a5,5,0,0,1,-5,-5v-12a5,5,0,0,1,5,-5z" stroke-width="3"></path><g id="node_text73" fill="black"><text id="kity_text_675" text-rendering="inherit" font-size="12" dy=".8em" y="908.7000114396214" x="1703.5000266358256">行为层面</text></g></g><g id="minder_node74"><g id="node_expander73" style="cursor: pointer;" display="none"><path id="kity_path_686" fill="white" stroke="gray" d="M1693.500026397407,968.5000122413039A6,6,0,1,1,1681.500026397407,968.5000122413039A6,6,0,1,1,1693.500026397407,968.5000122413039"></path><path id="kity_path_687" fill="none" stroke="gray"></path></g><path id="node_outline74" fill="none" stroke="none" d="M1698.5000266358256,957.5000122413039h59a5,5,0,0,1,5,5v12a5,5,0,0,1,-5,5h-59a5,5,0,0,1,-5,-5v-12a5,5,0,0,1,5,-5z" stroke-width="3"></path><g id="node_text74" fill="black"><text id="kity_text_683" text-rendering="inherit" font-size="12" dy=".8em" y="960.7000122144818" x="1703.5000266358256">反思层面</text></g></g><g id="minder_node75"><g id="node_expander74" style="cursor: pointer;" display="none"><path id="kity_path_694" fill="white" stroke="gray" d="M1693.500026397407,292.50000216811895A6,6,0,1,1,1681.500026397407,292.50000216811895A6,6,0,1,1,1693.500026397407,292.50000216811895"></path><path id="kity_path_695" fill="none" stroke="gray"></path></g><path id="node_outline75" fill="none" stroke="none" d="M1698.5000266358256,281.50000216811895h496a5,5,0,0,1,5,5v12a5,5,0,0,1,-5,5h-496a5,5,0,0,1,-5,-5v-12a5,5,0,0,1,5,-5z" stroke-width="3"></path><g id="node_text75" fill="black"><text id="kity_text_691" text-rendering="inherit" font-size="12" dy=".8em" y="284.70000214129686" x="1703.5000266358256">例子：Liza Donnelly的幽默漫画引导着读者们思考当今社会女性的规则，尝试推动规则改变</text></g></g><g id="minder_node76"><g id="node_expander75" style="cursor: pointer;" display="none"><path id="kity_path_702" fill="white" stroke="gray" d="M1693.500026397407,396.5000037178397A6,6,0,1,1,1681.500026397407,396.5000037178397A6,6,0,1,1,1693.500026397407,396.5000037178397"></path><path id="kity_path_703" fill="none" stroke="gray"></path></g><path id="node_outline76" fill="none" stroke="none" d="M1698.5000266358256,385.5000037178397h475a5,5,0,0,1,5,5v12a5,5,0,0,1,-5,5h-475a5,5,0,0,1,-5,-5v-12a5,5,0,0,1,5,-5z" stroke-width="3"></path><g id="node_text76" fill="black"><text id="kity_text_699" text-rendering="inherit" font-size="12" dy=".8em" y="388.7000036910176" x="1703.5000266358256">例子：Randall Munroe以幽默的语言文字，让枯燥无味的知识科普变的有趣而利于传播</text></g></g><g id="minder_node77"><g id="node_expander76" style="cursor: pointer;" display="none"><path id="kity_path_710" fill="white" stroke="gray" d="M1693.500026397407,500.5000052675605A6,6,0,1,1,1681.500026397407,500.5000052675605A6,6,0,1,1,1693.500026397407,500.5000052675605"></path><path id="kity_path_711" fill="none" stroke="gray"></path></g><path id="node_outline77" fill="none" stroke="none" d="M1698.5000266358256,489.5000052675605h537a5,5,0,0,1,5,5v12a5,5,0,0,1,-5,5h-537a5,5,0,0,1,-5,-5v-12a5,5,0,0,1,5,-5z" stroke-width="3"></path><g id="node_text77" fill="black"><text id="kity_text_707" text-rendering="inherit" font-size="12" dy=".8em" y="492.7000052407384" x="1703.5000266358256">例子：Ruby Wax以幽默的方式让人们了解精神疾病，同时不断削减着人们对精神疾病的误解与歧视</text></g></g><g id="minder_node78"><g id="node_expander77" style="cursor: pointer;" display="none"><path id="kity_path_718" fill="white" stroke="gray" d="M100.50000265985727,708.500008367002A6,6,0,1,1,88.50000265985727,708.500008367002A6,6,0,1,1,100.50000265985727,708.500008367002"></path><path id="kity_path_719" fill="none" stroke="gray"></path></g><path id="node_outline78" fill="none" stroke="none" d="M105.50000289827585,697.500008367002h179a5,5,0,0,1,5,5v12a5,5,0,0,1,-5,5h-179a5,5,0,0,1,-5,-5v-12a5,5,0,0,1,5,-5z" stroke-width="3"></path><g id="node_text78" fill="black"><text id="kity_text_715" text-rendering="inherit" font-size="12" dy=".8em" y="700.7000083401799" x="110.50000289827585">情绪驱动行为，要学会控制情绪</text></g></g><g id="minder_node79" opacity="1"><g id="node_expander78" style="cursor: pointer;" display="none"><path id="kity_path_726" fill="white" stroke="gray" d="M100.50000265985727,656.5000075921416A6,6,0,1,1,88.50000265985727,656.5000075921416A6,6,0,1,1,100.50000265985727,656.5000075921416"></path><path id="kity_path_727" fill="none" stroke="gray"></path></g><path id="node_outline79" fill="none" stroke="none" d="M105.50000289827585,645.5000075921416h396a5,5,0,0,1,5,5v12a5,5,0,0,1,-5,5h-396a5,5,0,0,1,-5,-5v-12a5,5,0,0,1,5,-5z" stroke-width="3"></path><g id="node_text79" fill="black"><text id="kity_text_723" text-rendering="inherit" font-size="12" dy=".8em" y="648.7000075653195" x="110.50000289827585">情绪是即时产生的猜测，通过我们的大脑的解读理解而产生对情绪的想法</text></g></g><g id="minder_node80"><g id="node_expander79" style="cursor: pointer;" display="none"><path id="kity_path_734" fill="white" stroke="gray" d="M100.50000265985727,760.5000091418624A6,6,0,1,1,88.50000265985727,760.5000091418624A6,6,0,1,1,100.50000265985727,760.5000091418624"></path><path id="kity_path_735" fill="none" stroke="gray"></path></g><path id="node_outline80" fill="none" stroke="none" d="M105.50000289827585,749.5000091418624h179a5,5,0,0,1,5,5v12a5,5,0,0,1,-5,5h-179a5,5,0,0,1,-5,-5v-12a5,5,0,0,1,5,-5z" stroke-width="3"></path><g id="node_text80" fill="black"><text id="kity_text_731" text-rendering="inherit" font-size="12" dy=".8em" y="752.7000091150403" x="110.50000289827585">让情感融入人工智能真的好吗？</text></g></g><g id="kity_g_12" display="none"><path id="kity_path_13" fill="none" stroke="rgb(112, 66, 66)" d="M105.50001285225153,645.4999984130263h167a5,5,0,0,1,5,5v12a5,5,0,0,1,-5,5h-167a5,5,0,0,1,-5,-5v-12a5,5,0,0,1,5,-5z" stroke-width="5"></path></g><g id="minder_node84"><g id="node_expander83" style="cursor: pointer;" display="none"><path id="kity_path_766" fill="white" stroke="gray" d="M1177.5000187084079,864.5000106915832A6,6,0,1,1,1165.5000187084079,864.5000106915832A6,6,0,1,1,1177.5000187084079,864.5000106915832"></path><path id="kity_path_767" fill="none" stroke="gray"></path></g><path id="node_outline84" fill="none" stroke="none" d="M1182.5000189468265,853.5000106915832h96a5,5,0,0,1,5,5v12a5,5,0,0,1,-5,5h-96a5,5,0,0,1,-5,-5v-12a5,5,0,0,1,5,-5z" stroke-width="3"></path><g id="node_text84" fill="black"><text id="kity_text_763" text-rendering="inherit" font-size="12" dy=".8em" y="856.7000106647611" x="1187.5000189468265">超链接改变社会</text></g></g></g></g></svg>