<svg id="kity_svg_6" xmlns="http://www.w3.org/2000/svg" xmlns:xlink="http://www.w3.org/1999/xlink" version="1.1" width="2260" height="1023" style="background: rgb(251, 251, 251); visibility: visible;" viewBox="0 0 2260 1023"><defs id="kity_defs_7"><linearGradient id="kity_linearGradient_17" x1="0" y1="0" x2="0" y2="1"><stop id="kity_stop_18" offset="0" stop-color="rgb(255, 255, 255)"></stop><stop id="kity_stop_19" offset="1" stop-color="rgb(204, 204, 204)"></stop></linearGradient><marker id="kity_marker_2" orient="auto" refX="6" refY="0" viewBox="-7 -7 14 14" markerWidth="7" markerHeight="7" markerUnits="userSpaceOnUse"><path id="kity_path_3" fill="rgb(115, 161, 191)" stroke="none" d="M6,0A6,6,0,1,1,-6,0A6,6,0,1,1,6,0"></path></marker></defs><g id="kity_g_8"><g id="minder1" text-rendering="optimize-speed"><g id="minder_connect_group1"><path id="kity_path_31" fill="none" stroke="rgb(191, 115, 115)" stroke-width="1" d="M843.5000128522515,83.50000073760748v30h-761.5V133.50000073760748"></path><path id="kity_path_122" fill="none" stroke="rgb(191, 115, 115)" stroke-width="1" d="M843.5000128522515,83.50000073760748v30h-86.5V133.50000073760748"></path><path id="kity_path_154" fill="none" stroke="rgb(191, 115, 115)" stroke-width="1" d="M843.5000128522515,83.50000073760748v30h777V133.50000073760748"></path><path id="kity_path_162" fill="none" stroke="rgb(191, 115, 115)" stroke-width="1" d="M843.5000128522515,83.50000073760748v30h308V133.50000073760748"></path><path id="kity_path_170" fill="none" stroke="rgb(191, 115, 115)" stroke-width="1" d="M1117.5000128522515,165.50000073760748V211.50000073760748L1137.5000128522515,211.50000073760748"></path><path id="kity_path_269" fill="none" stroke="rgb(191, 115, 115)" stroke-width="1" d="M1593.5000128522515,165.50000073760748V211.50000073760748L1613.5000128522515,211.50000073760748"></path><path id="kity_path_270" fill="none" stroke="rgb(191, 115, 115)" stroke-width="1" d="M40.50001285225153,165.50000073760748V627.5000007376075L60.50001285225153,627.5000007376075"></path><path id="kity_path_271" fill="none" stroke="rgb(191, 115, 115)" stroke-width="1" d="M1593.5000128522515,165.50000073760748V575.5000007376075L1613.5000128522515,575.5000007376075"></path><path id="kity_path_344" fill="none" stroke="rgb(191, 115, 115)" stroke-width="1" d="M80.50001285225153,222.50000073760748V263.5000007376075L100.50001285225153,263.5000007376075"></path><path id="kity_path_345" fill="none" stroke="rgb(191, 115, 115)" stroke-width="1" d="M80.50001285225153,222.50000073760748V315.5000007376075L100.50001285225153,315.5000007376075"></path><path id="kity_path_346" fill="none" stroke="rgb(191, 115, 115)" stroke-width="1" d="M40.50001285225153,165.50000073760748V211.50000073760748L60.50001285225153,211.50000073760748"></path><path id="kity_path_347" fill="none" stroke="rgb(191, 115, 115)" stroke-width="1" d="M80.50001285225153,378.5000007376075V419.5000007376075L100.50001285225153,419.5000007376075"></path><path id="kity_path_348" fill="none" stroke="rgb(191, 115, 115)" stroke-width="1" d="M80.50001285225153,378.5000007376075V523.5000007376075L100.50001285225153,523.5000007376075"></path><path id="kity_path_349" fill="none" stroke="rgb(191, 115, 115)" stroke-width="1" d="M80.50001285225153,378.5000007376075V575.5000007376075L100.50001285225153,575.5000007376075"></path><path id="kity_path_350" fill="none" stroke="rgb(191, 115, 115)" stroke-width="1" d="M40.50001285225153,165.50000073760748V367.5000007376075L60.50001285225153,367.5000007376075"></path><path id="kity_path_351" fill="none" stroke="rgb(191, 115, 115)" stroke-width="1" d="M701.5000128522515,165.50000073760748V211.50000073760748L721.5000128522515,211.50000073760748"></path><path id="kity_path_352" fill="none" stroke="rgb(191, 115, 115)" stroke-width="1" d="M701.5000128522515,165.50000073760748V575.5000007376075L721.5000128522515,575.5000007376075"></path><path id="kity_path_355" fill="none" stroke="rgb(191, 115, 115)" stroke-width="1" d="M701.5000128522515,165.50000073760748V367.5000007376075L721.5000128522515,367.5000007376075"></path><path id="kity_path_363" fill="none" stroke="rgb(191, 115, 115)" stroke-width="1" d="M741.5000128522515,222.50000073760748V263.5000007376075L761.5000128522515,263.5000007376075"></path><path id="kity_path_379" fill="none" stroke="rgb(191, 115, 115)" stroke-width="1" d="M741.5000128522515,222.50000073760748V315.5000007376075L761.5000128522515,315.5000007376075"></path><path id="kity_path_387" fill="none" stroke="rgb(191, 115, 115)" stroke-width="1" d="M741.5000128522515,378.5000007376075V419.5000007376075L761.5000128522515,419.5000007376075"></path><path id="kity_path_403" fill="none" stroke="rgb(191, 115, 115)" stroke-width="1" d="M741.5000128522515,378.5000007376075V471.5000007376075L761.5000128522515,471.5000007376075"></path><path id="kity_path_412" fill="none" stroke="rgb(191, 115, 115)" stroke-width="1" d="M781.5000128522515,482.5000007376075V523.5000007376075L801.5000128522515,523.5000007376075"></path><path id="kity_path_420" fill="none" stroke="rgb(191, 115, 115)" stroke-width="1" d="M741.5000128522515,586.5000007376075V627.5000007376075L761.5000128522515,627.5000007376075"></path><path id="kity_path_428" fill="none" stroke="rgb(191, 115, 115)" stroke-width="1" d="M741.5000128522515,586.5000007376075V679.5000007376075L761.5000128522515,679.5000007376075"></path><path id="kity_path_436" fill="none" stroke="rgb(191, 115, 115)" stroke-width="1" d="M120.50001285225153,430.5000007376075V471.5000007376075L140.50001285225153,471.5000007376075"></path><path id="kity_path_452" fill="none" stroke="rgb(191, 115, 115)" stroke-width="1" d="M1157.5000128522515,222.50000073760748V263.5000007376075L1177.5000128522515,263.5000007376075"></path><path id="kity_path_460" fill="none" stroke="rgb(191, 115, 115)" stroke-width="1" d="M1157.5000128522515,222.50000073760748V315.5000007376075L1177.5000128522515,315.5000007376075"></path><path id="kity_path_468" fill="none" stroke="rgb(191, 115, 115)" stroke-width="1" d="M1157.5000128522515,222.50000073760748V367.5000007376075L1177.5000128522515,367.5000007376075"></path><path id="kity_path_476" fill="none" stroke="rgb(191, 115, 115)" stroke-width="1" d="M1117.5000128522515,165.50000073760748V835.5000007376075L1137.5000128522515,835.5000007376075"></path><path id="kity_path_484" fill="none" stroke="rgb(191, 115, 115)" stroke-width="1" d="M1117.5000128522515,165.50000073760748V471.5000007376075L1137.5000128522515,471.5000007376075"></path><path id="kity_path_492" fill="none" stroke="rgb(191, 115, 115)" stroke-width="1" d="M1157.5000128522515,222.50000073760748V419.5000007376075L1177.5000128522515,419.5000007376075"></path><path id="kity_path_505" fill="none" stroke="rgb(191, 115, 115)" stroke-width="1" d="M1633.5000128522515,222.50000073760748V263.5000007376075L1653.5000128522515,263.5000007376075"></path><path id="kity_path_513" fill="none" stroke="rgb(191, 115, 115)" stroke-width="1" d="M1633.5000128522515,586.5000007376075V835.5000007376075L1653.5000128522515,835.5000007376075"></path><path id="kity_path_529" fill="none" stroke="rgb(191, 115, 115)" stroke-width="1" d="M1633.5000128522515,222.50000073760748V367.5000007376075L1653.5000128522515,367.5000007376075"></path><path id="kity_path_537" fill="none" stroke="rgb(191, 115, 115)" stroke-width="1" d="M1157.5000128522515,482.5000007376075V523.5000007376075L1177.5000128522515,523.5000007376075"></path><path id="kity_path_545" fill="none" stroke="rgb(191, 115, 115)" stroke-width="1" d="M1157.5000128522515,482.5000007376075V679.5000007376075L1177.5000128522515,679.5000007376075"></path><path id="kity_path_569" fill="none" stroke="rgb(191, 115, 115)" stroke-width="1" d="M1197.5000128522515,534.5000007376075V575.5000007376075L1217.5000128522515,575.5000007376075"></path><path id="kity_path_577" fill="none" stroke="rgb(191, 115, 115)" stroke-width="1" d="M1197.5000128522515,534.5000007376075V627.5000007376075L1217.5000128522515,627.5000007376075"></path><path id="kity_path_585" fill="none" stroke="rgb(191, 115, 115)" stroke-width="1" d="M1197.5000128522515,690.5000007376075V731.5000007376075L1217.5000128522515,731.5000007376075"></path><path id="kity_path_593" fill="none" stroke="rgb(191, 115, 115)" stroke-width="1" d="M1197.5000128522515,690.5000007376075V783.5000007376075L1217.5000128522515,783.5000007376075"></path><path id="kity_path_601" fill="none" stroke="rgb(191, 115, 115)" stroke-width="1" d="M1633.5000128522515,222.50000073760748V471.5000007376075L1653.5000128522515,471.5000007376075"></path><path id="kity_path_617" fill="none" stroke="rgb(191, 115, 115)" stroke-width="1" d="M1633.5000128522515,586.5000007376075V627.5000007376075L1653.5000128522515,627.5000007376075"></path><path id="kity_path_625" fill="none" stroke="rgb(191, 115, 115)" stroke-width="1" d="M1673.5000128522515,638.5000007376075V679.5000007376075L1693.5000128522515,679.5000007376075"></path><path id="kity_path_633" fill="none" stroke="rgb(191, 115, 115)" stroke-width="1" d="M1673.5000128522515,638.5000007376075V731.5000007376075L1693.5000128522515,731.5000007376075"></path><path id="kity_path_641" fill="none" stroke="rgb(191, 115, 115)" stroke-width="1" d="M1673.5000128522515,638.5000007376075V783.5000007376075L1693.5000128522515,783.5000007376075"></path><path id="kity_path_657" fill="none" stroke="rgb(191, 115, 115)" stroke-width="1" d="M1673.5000128522515,846.5000007376075V887.5000007376075L1693.5000128522515,887.5000007376075"></path><path id="kity_path_673" fill="none" stroke="rgb(191, 115, 115)" stroke-width="1" d="M1673.5000128522515,846.5000007376075V939.5000007376075L1693.5000128522515,939.5000007376075"></path><path id="kity_path_681" fill="none" stroke="rgb(191, 115, 115)" stroke-width="1" d="M1673.5000128522515,846.5000007376075V991.5000007376075L1693.5000128522515,991.5000007376075"></path><path id="kity_path_689" fill="none" stroke="rgb(191, 115, 115)" stroke-width="1" d="M1673.5000128522515,274.5000007376075V315.5000007376075L1693.5000128522515,315.5000007376075"></path><path id="kity_path_697" fill="none" stroke="rgb(191, 115, 115)" stroke-width="1" d="M1673.5000128522515,378.5000007376075V419.5000007376075L1693.5000128522515,419.5000007376075"></path><path id="kity_path_705" fill="none" stroke="rgb(191, 115, 115)" stroke-width="1" d="M1673.5000128522515,482.5000007376075V523.5000007376075L1693.5000128522515,523.5000007376075"></path><path id="kity_path_713" fill="none" stroke="rgb(191, 115, 115)" stroke-width="1" d="M80.50001285225153,638.5000007376075V731.5000007376075L100.50001285225153,731.5000007376075"></path><path id="kity_path_721" fill="none" stroke="rgb(191, 115, 115)" stroke-width="1" d="M80.50001285225153,638.5000007376075V679.5000007376075L100.50001285225153,679.5000007376075"></path><path id="kity_path_729" fill="none" stroke="rgb(191, 115, 115)" stroke-width="1" d="M80.50001285225153,638.5000007376075V783.5000007376075L100.50001285225153,783.5000007376075"></path><path id="kity_path_761" fill="none" stroke="rgb(191, 115, 115)" stroke-width="1" d="M1157.5000128522515,846.5000007376075V887.5000007376075L1177.5000128522515,887.5000007376075"></path></g><g id="minder_node1"><path id="node_outline1" fill="rgb(191, 115, 115)" stroke="rgb(191, 115, 115)" d="M630.5000128522515,19.50000073760748h425a5,5,0,0,1,5,5v54a5,5,0,0,1,-5,5h-425a5,5,0,0,1,-5,-5v-54a5,5,0,0,1,5,-5z" stroke-width="3"></path><g id="node_text1" fill="white"><text id="kity_text_22" text-rendering="inherit" font-size="16" dy=".8em" y="29.100000701844692" x="649.5000128522515">科技、娱乐与设计</text><text id="kity_text_778" text-rendering="inherit" font-size="16" dy=".8em" y="53.10000070184469" x="649.5000128522515">https://wordlesssoda.github.io/TED_notes/TED.svg</text></g><a id="kity_a_768" xlink:href="https://wordlesssoda.github.io/TED_notes/TED.svg" target="_blank" xlink:title="https://wordlesssoda.github.io/TED_notes/TED.svg" style="cursor: pointer;" display="none"><path id="kity_path_770" fill="rgba(255, 255, 255, 0)" stroke="none" d="M651.5000128522515,45.50000073760748h16a4,4,0,0,1,4,4v14a4,4,0,0,1,-4,4h-16a4,4,0,0,1,-4,-4v-14a4,4,0,0,1,4,-4z"></path><path id="kity_path_769" fill="#666" stroke="none" d="M666.1140128522516,61.72400073760748h-1.278c-1.668,0,-3.07,-1.07,-3.599,-2.556h4.877c0.707,0,1.278,-0.571,1.278,-1.278V55.33400073760748c0,-0.707,-0.571,-1.278,-1.278,-1.278h-4.877C661.7660128522515,52.57100073760748,663.1680128522515,51.50000073760748,664.8360128522515,51.50000073760748h1.278c2.116,0,3.834,1.716,3.834,3.834V57.89000073760748C669.9480128522515,60.008000737607475,668.2300128522515,61.72400073760748,666.1140128522516,61.72400073760748zM654.6120128522515,56.61200073760748c0,-0.707,0.573,-1.278,1.278,-1.278h7.668c0.707,0,1.278,0.571,1.278,1.278S664.2650128522515,57.89000073760748,663.5580128522515,57.89000073760748H655.8900128522515C655.1850128522515,57.89000073760748,654.6120128522515,57.31900073760748,654.6120128522515,56.61200073760748zM652.0560128522516,55.33400073760748V57.89000073760748c0,0.707,0.573,1.278,1.278,1.278h4.877c-0.528,1.486,-1.932,2.556,-3.599,2.556H653.3340128522515C651.2160128522515,61.72400073760748,649.5000128522515,60.008000737607475,649.5000128522515,57.89000073760748V55.33400073760748C649.5000128522515,53.21600073760748,651.2160128522515,51.50000073760748,653.3340128522515,51.50000073760748h1.278c1.667,0,3.071,1.071,3.599,2.556H653.3340128522515C652.6290128522515,54.05600073760748,652.0560128522516,54.62700073760748,652.0560128522516,55.33400073760748z"></path></a><g id="kity_g_771" display="none"><g id="kity_g_772"><path id="kity_path_773" fill="rgb(255, 244, 179)" stroke="none" d="M788.5000149235129,38.50000072270632h306v24h-306z"></path><text id="kity_text_774" text-rendering="geometricPrecision" font-size="12" dy="5" x="796.5000149235129" fill="rgb(77, 65, 0)" y="50.50000072270632">https://wordlesssoda.github.io/TED_notes/TED.svg</text></g></g><g id="kity_g_775" style="cursor: pointer;" display="none"><path id="kity_path_776" fill="none" stroke="none" d="M791.0000149235129,43.00000073760748h12a2,2,0,0,1,2,2v13a2,2,0,0,1,-2,2h-12a2,2,0,0,1,-2,-2v-13a2,2,0,0,1,2,-2z"></path><path id="kity_path_777" fill="white" stroke="none" d="M800.0000149607658,54.00000064074993H794.0000149607658V53.00000064074993h6L800.0000149607658,54.00000064074993L800.0000149607658,54.00000064074993zM800.0000149607658,52.00000064074993H794.0000149607658V51.00000064074993h6V52.00000064074993zM800.0000149607658,50.00000064074993H794.0000149607658V49.00000064074993h6V50.00000064074993zM799.5000149607658,56.00000064074993H793.0000149607658V47.00000064074993h8v7.5M800.0000149607658,57.00000064074993l2,-2V46.00000064074993H792.0000149607658v11"></path></g></g><g id="kity_g_14" display="none"><path id="kity_path_15" fill="rgba(153, 0, 0, 0.5)" stroke="none" d="M-28.49998714774847,638.5000007376075h177v15h-177z"></path><path id="kity_path_16" fill="none" stroke="rgb(128, 0, 0)" d="M-28.49998714774847,653.5000007376075L148.50001285225153,653.5000007376075" stroke-width="1"></path></g><g id="minder_node2" opacity="1"><g id="node_expander1" style="cursor: pointer;"><path id="kity_path_46" fill="white" stroke="gray" d="M87.50000438839197,126.50000185519457A6,6,0,1,1,75.50000438839197,126.50000185519457A6,6,0,1,1,87.50000438839197,126.50000185519457"></path><path id="kity_path_47" fill="none" stroke="gray" d="M77.00000438839197,126.50000185519457L86.00000438839197,126.50000185519457"></path></g><path id="node_outline2" fill="rgb(246, 238, 238)" stroke="rgb(191, 115, 115)" d="M23.500004149973392,133.50000219792128h116a3,3,0,0,1,3,3v26a3,3,0,0,1,-3,3h-116a3,3,0,0,1,-3,-3v-26a3,3,0,0,1,3,-3z" stroke-width="1"></path><g id="node_text2" fill="black"><text id="kity_text_37" text-rendering="inherit" font-size="14" dy=".8em" y="140.40000216662884" x="65.50000414997339"> 网络文化</text></g><g id="node_priority11"><path id="kity_path_501" fill="#840023" stroke="none" d="M41.00000378489494,153.00000205636024c0,3.866,3.134,7,7,7h6c3.866,0,7,-3.134,7,-7V147.00000205636024H41.00000378489494V153.00000205636024z"></path><path id="kity_path_502" fill="#FF1200" stroke="none" d="M61.00000378489494,150.00000205636024c0,3.866,-3.134,7,-7,7H48.00000378489494c-3.866,0,-7,-3.134,-7,-7V147.00000205636024c0,-3.866,3.134,-7,7,-7h6c3.866,0,7,3.134,7,7V150.00000205636024z" opacity="0.8"></path><text id="kity_text_503" text-rendering="geometricPrecision" x="50.00000377744436" y="149.50000204890966" text-anchor="middle" font-style="italic" font-size="12" fill="white" dy="5">1</text></g></g><g id="minder_node13" opacity="1"><g id="node_expander12" style="cursor: pointer;"><path id="kity_path_127" fill="white" stroke="gray" d="M762.5000144466758,126.50000185519457A6,6,0,1,1,750.5000144466758,126.50000185519457A6,6,0,1,1,762.5000144466758,126.50000185519457"></path><path id="kity_path_128" fill="none" stroke="gray" d="M752.0000144466758,126.50000185519457L761.0000144466758,126.50000185519457"></path></g><path id="node_outline13" fill="rgb(246, 238, 238)" stroke="rgb(191, 115, 115)" d="M684.5000139996409,133.50000219792128h144a3,3,0,0,1,3,3v26a3,3,0,0,1,-3,3h-144a3,3,0,0,1,-3,-3v-26a3,3,0,0,1,3,-3z" stroke-width="1"></path><g id="node_text13" fill="black"><text id="kity_text_124" text-rendering="inherit" font-size="14" dy=".8em" y="140.40000216662884" x="726.5000139996409">信息数据应用</text></g><g id="node_priority10"><path id="kity_path_240" fill="#01467F" stroke="none" d="M702.0000136345625,153.00000205636024c0,3.866,3.134,7,7,7h6c3.866,0,7,-3.134,7,-7V147.00000205636024H702.0000136345625V153.00000205636024z"></path><path id="kity_path_241" fill="#0074FF" stroke="none" d="M722.0000136345625,150.00000205636024c0,3.866,-3.134,7,-7,7H709.0000136345625c-3.866,0,-7,-3.134,-7,-7V147.00000205636024c0,-3.866,3.134,-7,7,-7h6c3.866,0,7,3.134,7,7V150.00000205636024z" opacity="0.8"></path><text id="kity_text_242" text-rendering="geometricPrecision" x="711.0000136271119" y="149.50000204890966" text-anchor="middle" font-style="italic" font-size="12" fill="white" dy="5">2</text></g></g><g id="minder_node17" opacity="1"><g id="node_expander16" style="cursor: pointer;"><path id="kity_path_159" fill="white" stroke="gray" d="M1626.0000273138285,126.50000185519457A6,6,0,1,1,1614.0000273138285,126.50000185519457A6,6,0,1,1,1626.0000273138285,126.50000185519457"></path><path id="kity_path_160" fill="none" stroke="gray" d="M1615.5000273138285,126.50000185519457L1624.5000273138285,126.50000185519457"></path></g><path id="node_outline17" fill="rgb(246, 238, 238)" stroke="rgb(191, 115, 115)" d="M1576.5000272914767,133.50000219792128h87a3,3,0,0,1,3,3v26a3,3,0,0,1,-3,3h-87a3,3,0,0,1,-3,-3v-26a3,3,0,0,1,3,-3z" stroke-width="1"></path><g id="node_text17" fill="black"><text id="kity_text_156" text-rendering="inherit" font-size="14" dy=".8em" y="140.40000216662884" x="1618.5000272914767">设计</text></g><g id="node_priority5"><path id="kity_path_215" fill="#B25000" stroke="none" d="M1594.0000269263983,153.00000205636024c0,3.866,3.134,7,7,7h6c3.866,0,7,-3.134,7,-7V147.00000205636024H1594.0000269263983V153.00000205636024z"></path><path id="kity_path_216" fill="#FF962E" stroke="none" d="M1614.0000269263983,150.00000205636024c0,3.866,-3.134,7,-7,7H1601.0000269263983c-3.866,0,-7,-3.134,-7,-7V147.00000205636024c0,-3.866,3.134,-7,7,-7h6c3.866,0,7,3.134,7,7V150.00000205636024z" opacity="0.8"></path><text id="kity_text_217" text-rendering="geometricPrecision" x="1603.0000269189477" y="149.50000204890966" text-anchor="middle" font-style="italic" font-size="12" fill="white" dy="5">4</text></g></g><g id="minder_node18" opacity="1"><g id="node_expander17" style="cursor: pointer;"><path id="kity_path_167" fill="white" stroke="gray" d="M1157.0000203251839,126.50000185519457A6,6,0,1,1,1145.0000203251839,126.50000185519457A6,6,0,1,1,1157.0000203251839,126.50000185519457"></path><path id="kity_path_168" fill="none" stroke="gray" d="M1146.5000203251839,126.50000185519457L1155.5000203251839,126.50000185519457"></path></g><path id="node_outline18" fill="rgb(246, 238, 238)" stroke="rgb(191, 115, 115)" d="M1100.500020198524,133.50000219792128h101a3,3,0,0,1,3,3v26a3,3,0,0,1,-3,3h-101a3,3,0,0,1,-3,-3v-26a3,3,0,0,1,3,-3z" stroke-width="1"></path><g id="node_text18" fill="black"><text id="kity_text_164" text-rendering="inherit" font-size="14" dy=".8em" y="140.40000216662884" x="1142.500020198524">互联网</text></g><g id="node_priority4"><path id="kity_path_210" fill="#006300" stroke="none" d="M1118.0000198334455,153.00000205636024c0,3.866,3.134,7,7,7h6c3.866,0,7,-3.134,7,-7V147.00000205636024H1118.0000198334455V153.00000205636024z"></path><path id="kity_path_211" fill="#00AF00" stroke="none" d="M1138.0000198334455,150.00000205636024c0,3.866,-3.134,7,-7,7H1125.0000198334455c-3.866,0,-7,-3.134,-7,-7V147.00000205636024c0,-3.866,3.134,-7,7,-7h6c3.866,0,7,3.134,7,7V150.00000205636024z" opacity="0.8"></path><text id="kity_text_212" text-rendering="geometricPrecision" x="1127.000019825995" y="149.50000204890966" text-anchor="middle" font-style="italic" font-size="12" fill="white" dy="5">3</text></g></g><g id="minder_node19" opacity="1"><g id="node_expander18" style="cursor: pointer;"><path id="kity_path_175" fill="white" stroke="gray" d="M1137.5000200346112,211.50000312179327A6,6,0,1,1,1125.5000200346112,211.50000312179327A6,6,0,1,1,1137.5000200346112,211.50000312179327"></path><path id="kity_path_176" fill="none" stroke="gray" d="M1127.0000200346112,211.50000312179327L1136.0000200346112,211.50000312179327"></path></g><path id="node_outline19" fill="#f2dbdb" stroke="none" d="M1142.5000202730298,200.50000312179327h71a5,5,0,0,1,5,5v12a5,5,0,0,1,-5,5h-71a5,5,0,0,1,-5,-5v-12a5,5,0,0,1,5,-5z" stroke-width="3"></path><g id="node_text19" fill="black"><text id="kity_text_172" text-rendering="inherit" font-size="12" dy=".8em" y="203.70000309497118" x="1147.5000202730298">平台与开放</text></g><g id="node_priority3" display="none"><path id="kity_path_205" fill="#840023" stroke="none" d="M1123.0000199079514,215.00000298023224c0,3.866,3.134,7,7,7h6c3.866,0,7,-3.134,7,-7V209.00000298023224H1123.0000199079514V215.00000298023224z"></path><path id="kity_path_206" fill="#FF1200" stroke="none" d="M1143.0000199079514,212.00000298023224c0,3.866,-3.134,7,-7,7H1130.0000199079514c-3.866,0,-7,-3.134,-7,-7V209.00000298023224c0,-3.866,3.134,-7,7,-7h6c3.866,0,7,3.134,7,7V212.00000298023224z" opacity="0.8"></path><text id="kity_text_207" text-rendering="geometricPrecision" x="1132.0000199005008" y="211.50000297278166" text-anchor="middle" font-style="italic" font-size="12" fill="white" dy="5">1</text></g></g><g id="minder_node24" opacity="1"><g id="node_expander23" style="cursor: pointer;"><path id="kity_path_267" fill="white" stroke="gray" d="M1613.500027127564,211.50000312179327A6,6,0,1,1,1601.500027127564,211.50000312179327A6,6,0,1,1,1613.500027127564,211.50000312179327"></path><path id="kity_path_268" fill="none" stroke="gray" d="M1603.000027127564,211.50000312179327L1612.000027127564,211.50000312179327"></path></g><path id="node_outline24" fill="#f2dbdb" stroke="none" d="M1618.5000273659825,200.50000312179327h71a5,5,0,0,1,5,5v12a5,5,0,0,1,-5,5h-71a5,5,0,0,1,-5,-5v-12a5,5,0,0,1,5,-5z" stroke-width="3"></path><g id="node_text24" fill="black"><text id="kity_text_264" text-rendering="inherit" font-size="12" dy=".8em" y="203.70000309497118" x="1623.5000273659825">幽默与设计</text></g></g><g id="minder_node20" opacity="1"><g id="node_expander19" style="cursor: pointer;"><path id="kity_path_183" fill="white" stroke="gray" d="M60.50000398606062,627.5000093206763A6,6,0,1,1,48.50000398606062,627.5000093206763A6,6,0,1,1,60.50000398606062,627.5000093206763"></path><path id="kity_path_184" fill="none" stroke="gray" d="M50.00000398606062,627.5000093206763L59.00000398606062,627.5000093206763"></path></g><path id="node_outline20" fill="#f2dbdb" stroke="none" d="M65.5000042244792,616.5000093206763h82a5,5,0,0,1,5,5v12a5,5,0,0,1,-5,5h-82a5,5,0,0,1,-5,-5v-12a5,5,0,0,1,5,-5z" stroke-width="3"></path><g id="node_text20" fill="black"><text id="kity_text_180" text-rendering="inherit" font-size="12" dy=".8em" y="619.7000092938542" x="70.5000042244792">互联网与情绪</text></g><g id="node_priority2" display="none"><path id="kity_path_200" fill="#840023" stroke="none" d="M46.00000385940075,631.0000091791153c0,3.866,3.134,7,7,7h6c3.866,0,7,-3.134,7,-7V625.0000091791153H46.00000385940075V631.0000091791153z"></path><path id="kity_path_201" fill="#FF1200" stroke="none" d="M66.00000385940075,628.0000091791153c0,3.866,-3.134,7,-7,7H53.00000385940075c-3.866,0,-7,-3.134,-7,-7V625.0000091791153c0,-3.866,3.134,-7,7,-7h6c3.866,0,7,3.134,7,7V628.0000091791153z" opacity="0.8"></path><text id="kity_text_202" text-rendering="geometricPrecision" x="55.00000385195017" y="627.5000091716647" text-anchor="middle" font-style="italic" font-size="12" fill="white" dy="5">1</text></g></g><g id="minder_node21" opacity="1"><g id="node_expander20" style="cursor: pointer;"><path id="kity_path_191" fill="white" stroke="gray" d="M1613.500027127564,575.500008545816A6,6,0,1,1,1601.500027127564,575.500008545816A6,6,0,1,1,1613.500027127564,575.500008545816"></path><path id="kity_path_192" fill="none" stroke="gray" d="M1603.000027127564,575.500008545816L1612.000027127564,575.500008545816"></path></g><path id="node_outline21" fill="#f2dbdb" stroke="none" d="M1618.5000273659825,564.500008545816h72a5,5,0,0,1,5,5v12a5,5,0,0,1,-5,5h-72a5,5,0,0,1,-5,-5v-12a5,5,0,0,1,5,-5z" stroke-width="3"></path><g id="node_text21" fill="black"><text id="kity_text_188" text-rendering="inherit" font-size="12" dy=".8em" y="567.7000085189939" x="1623.5000273659825">情感化设计</text></g><g id="node_priority1" display="none"><path id="kity_path_195" fill="#840023" stroke="none" d="M1599.000027000904,579.0000084042549c0,3.866,3.134,7,7,7h6c3.866,0,7,-3.134,7,-7V573.0000084042549H1599.000027000904V579.0000084042549z"></path><path id="kity_path_196" fill="#FF1200" stroke="none" d="M1619.000027000904,576.0000084042549c0,3.866,-3.134,7,-7,7H1606.000027000904c-3.866,0,-7,-3.134,-7,-7V573.0000084042549c0,-3.866,3.134,-7,7,-7h6c3.866,0,7,3.134,7,7V576.0000084042549z" opacity="0.8"></path><text id="kity_text_197" text-rendering="geometricPrecision" x="1608.0000269934535" y="575.5000083968043" text-anchor="middle" font-style="italic" font-size="12" fill="white" dy="5">1</text></g></g><g id="minder_node26"><g id="node_expander25" style="cursor: pointer;" display="none"><path id="kity_path_286" fill="white" stroke="gray" d="M100.50000458210707,263.50000389665365A6,6,0,1,1,88.50000458210707,263.50000389665365A6,6,0,1,1,100.50000458210707,263.50000389665365"></path><path id="kity_path_287" fill="none" stroke="gray" d="M90.00000458210707,263.50000389665365L99.00000458210707,263.50000389665365"></path></g><path id="node_outline26" fill="none" stroke="none" d="M105.50000482052565,252.50000389665365h263a5,5,0,0,1,5,5v12a5,5,0,0,1,-5,5h-263a5,5,0,0,1,-5,-5v-12a5,5,0,0,1,5,-5z" stroke-width="3"></path><g id="node_text26" fill="black"><text id="kity_text_283" text-rendering="inherit" font-size="12" dy=".8em" y="255.70000386983156" x="110.50000482052565">生活模仿艺术，色情影片已成性教育的方式之一</text></g></g><g id="minder_node27"><g id="node_expander26" style="cursor: pointer;" display="none"><path id="kity_path_294" fill="white" stroke="gray" d="M100.50000458210707,315.50000467151403A6,6,0,1,1,88.50000458210707,315.50000467151403A6,6,0,1,1,100.50000458210707,315.50000467151403"></path><path id="kity_path_295" fill="none" stroke="gray" d="M90.00000458210707,315.50000467151403L99.00000458210707,315.50000467151403"></path></g><path id="node_outline27" fill="none" stroke="none" d="M105.50000482052565,304.50000467151403h276a5,5,0,0,1,5,5v12a5,5,0,0,1,-5,5h-276a5,5,0,0,1,-5,-5v-12a5,5,0,0,1,5,-5z" stroke-width="3"></path><g id="node_text27" fill="black"><text id="kity_text_291" text-rendering="inherit" font-size="12" dy=".8em" y="307.70000464469194" x="110.50000482052565">纠正色情影片价值观，促成社会性别转向性别平等 </text></g></g><g id="minder_node23" opacity="1"><g id="node_expander22" style="cursor: pointer;"><path id="kity_path_257" fill="white" stroke="gray" d="M60.50000398606062,211.50000312179327A6,6,0,1,1,48.50000398606062,211.50000312179327A6,6,0,1,1,60.50000398606062,211.50000312179327"></path><path id="kity_path_258" fill="none" stroke="gray" d="M50.00000398606062,211.50000312179327L59.00000398606062,211.50000312179327"></path></g><path id="node_outline23" fill="#f2dbdb" stroke="none" d="M65.5000042244792,200.50000312179327h82a5,5,0,0,1,5,5v12a5,5,0,0,1,-5,5h-82a5,5,0,0,1,-5,-5v-12a5,5,0,0,1,5,-5z" stroke-width="3"></path><g id="node_text23" fill="black"><text id="kity_text_254" text-rendering="inherit" font-size="12" dy=".8em" y="203.70000309497118" x="70.5000042244792">网络与性教育</text></g></g><g id="minder_node32"><g id="node_expander31" style="cursor: pointer;"><path id="kity_path_334" fill="white" stroke="gray" d="M100.50000458210707,419.5000062212348A6,6,0,1,1,88.50000458210707,419.5000062212348A6,6,0,1,1,100.50000458210707,419.5000062212348"></path><path id="kity_path_335" fill="none" stroke="gray" d="M90.00000458210707,419.5000062212348L99.00000458210707,419.5000062212348"></path></g><path id="node_outline32" fill="none" stroke="none" d="M105.50000482052565,408.5000062212348h252a5,5,0,0,1,5,5v12a5,5,0,0,1,-5,5h-252a5,5,0,0,1,-5,-5v-12a5,5,0,0,1,5,-5z" stroke-width="3"></path><g id="node_text32" fill="black"><text id="kity_text_331" text-rendering="inherit" font-size="12" dy=".8em" y="411.7000061944127" x="110.50000482052565">科技公司为了获取利益打响用户注意力争夺战</text></g></g><g id="minder_node33"><g id="node_expander32" style="cursor: pointer;" display="none"><path id="kity_path_342" fill="white" stroke="gray" d="M100.50000458210707,523.5000077709556A6,6,0,1,1,88.50000458210707,523.5000077709556A6,6,0,1,1,100.50000458210707,523.5000077709556"></path><path id="kity_path_343" fill="none" stroke="gray" d="M90.00000458210707,523.5000077709556L99.00000458210707,523.5000077709556"></path></g><path id="node_outline33" fill="none" stroke="none" d="M105.50000482052565,512.5000077709556h179a5,5,0,0,1,5,5v12a5,5,0,0,1,-5,5h-179a5,5,0,0,1,-5,-5v-12a5,5,0,0,1,5,-5z" stroke-width="3"></path><g id="node_text33" fill="black"><text id="kity_text_339" text-rendering="inherit" font-size="12" dy=".8em" y="515.7000077441335" x="110.50000482052565">网络社交的大环境倒逼我们上瘾</text></g></g><g id="minder_node31" opacity="1"><g id="node_expander30" style="cursor: pointer;" display="none"><path id="kity_path_326" fill="white" stroke="gray" d="M100.50000458210707,575.500008545816A6,6,0,1,1,88.50000458210707,575.500008545816A6,6,0,1,1,100.50000458210707,575.500008545816"></path><path id="kity_path_327" fill="none" stroke="gray"></path></g><path id="node_outline31" fill="none" stroke="none" d="M105.50000482052565,564.500008545816h131a5,5,0,0,1,5,5v12a5,5,0,0,1,-5,5h-131a5,5,0,0,1,-5,-5v-12a5,5,0,0,1,5,-5z" stroke-width="3"></path><g id="node_text31" fill="black"><text id="kity_text_323" text-rendering="inherit" font-size="12" dy=".8em" y="567.7000085189939" x="110.50000482052565">君子役物，小人役于物</text></g></g><g id="minder_node16" opacity="1"><g id="node_expander15" style="cursor: pointer;"><path id="kity_path_151" fill="white" stroke="gray" d="M60.50000398606062,367.5000054463744A6,6,0,1,1,48.50000398606062,367.5000054463744A6,6,0,1,1,60.50000398606062,367.5000054463744"></path><path id="kity_path_152" fill="none" stroke="gray" d="M50.00000398606062,367.5000054463744L59.00000398606062,367.5000054463744"></path></g><path id="node_outline16" fill="#f2dbdb" stroke="none" d="M65.5000042244792,356.5000054463744h59a5,5,0,0,1,5,5v12a5,5,0,0,1,-5,5h-59a5,5,0,0,1,-5,-5v-12a5,5,0,0,1,5,-5z" stroke-width="3"></path><g id="node_text16" fill="black"><text id="kity_text_148" text-rendering="inherit" font-size="12" dy=".8em" y="359.7000054195523" x="70.5000042244792">网络成瘾</text></g><g id="node_priority6" display="none"><path id="kity_path_220" fill="#840023" stroke="none" d="M46.00000385940075,371.0000053048134c0,3.866,3.134,7,7,7h6c3.866,0,7,-3.134,7,-7V365.0000053048134H46.00000385940075V371.0000053048134z"></path><path id="kity_path_221" fill="#FF1200" stroke="none" d="M66.00000385940075,368.0000053048134c0,3.866,-3.134,7,-7,7H53.00000385940075c-3.866,0,-7,-3.134,-7,-7V365.0000053048134c0,-3.866,3.134,-7,7,-7h6c3.866,0,7,3.134,7,7V368.0000053048134z" opacity="0.8"></path><text id="kity_text_222" text-rendering="geometricPrecision" x="55.00000385195017" y="367.5000052973628" text-anchor="middle" font-style="italic" font-size="12" fill="white" dy="5">1</text></g></g><g id="minder_node22"><g id="node_expander21" style="cursor: pointer;"><path id="kity_path_249" fill="white" stroke="gray" d="M721.5000138357282,211.50000312179327A6,6,0,1,1,709.5000138357282,211.50000312179327A6,6,0,1,1,721.5000138357282,211.50000312179327"></path><path id="kity_path_250" fill="none" stroke="gray" d="M711.0000138357282,211.50000312179327L720.0000138357282,211.50000312179327"></path></g><path id="node_outline22" fill="#f2dbdb" stroke="none" d="M726.5000140741467,200.50000312179327h47a5,5,0,0,1,5,5v12a5,5,0,0,1,-5,5h-47a5,5,0,0,1,-5,-5v-12a5,5,0,0,1,5,-5z" stroke-width="3"></path><g id="node_text22" fill="black"><text id="kity_text_246" text-rendering="inherit" font-size="12" dy=".8em" y="203.70000309497118" x="731.5000140741467">数字屑</text></g></g><g id="minder_node14" opacity="1"><g id="node_expander13" style="cursor: pointer;"><path id="kity_path_135" fill="white" stroke="gray" d="M721.5000138357282,575.500008545816A6,6,0,1,1,709.5000138357282,575.500008545816A6,6,0,1,1,721.5000138357282,575.500008545816"></path><path id="kity_path_136" fill="none" stroke="gray" d="M711.0000138357282,575.500008545816L720.0000138357282,575.500008545816"></path></g><path id="node_outline14" fill="#f2dbdb" stroke="none" d="M726.5000140741467,564.500008545816h132a5,5,0,0,1,5,5v12a5,5,0,0,1,-5,5h-132a5,5,0,0,1,-5,-5v-12a5,5,0,0,1,5,-5z" stroke-width="3"></path><g id="node_text14" fill="black"><text id="kity_text_132" text-rendering="inherit" font-size="12" dy=".8em" y="567.7000085189939" x="731.5000140741467">个人信息泡与交互设计</text></g><g id="node_priority9" display="none"><path id="kity_path_235" fill="#840023" stroke="none" d="M707.0000137090683,579.0000084042549c0,3.866,3.134,7,7,7h6c3.866,0,7,-3.134,7,-7V573.0000084042549H707.0000137090683V579.0000084042549z"></path><path id="kity_path_236" fill="#FF1200" stroke="none" d="M727.0000137090683,576.0000084042549c0,3.866,-3.134,7,-7,7H714.0000137090683c-3.866,0,-7,-3.134,-7,-7V573.0000084042549c0,-3.866,3.134,-7,7,-7h6c3.866,0,7,3.134,7,7V576.0000084042549z" opacity="0.8"></path><text id="kity_text_237" text-rendering="geometricPrecision" x="716.0000137016177" y="575.5000083968043" text-anchor="middle" font-style="italic" font-size="12" fill="white" dy="5">1</text></g></g><g id="minder_node34"><g id="node_expander33" style="cursor: pointer;"><path id="kity_path_360" fill="white" stroke="gray" d="M721.5000138357282,367.5000054463744A6,6,0,1,1,709.5000138357282,367.5000054463744A6,6,0,1,1,721.5000138357282,367.5000054463744"></path><path id="kity_path_361" fill="none" stroke="gray" d="M711.0000138357282,367.5000054463744L720.0000138357282,367.5000054463744"></path></g><path id="node_outline34" fill="#f2dbdb" stroke="none" d="M726.5000140741467,356.5000054463744h108a5,5,0,0,1,5,5v12a5,5,0,0,1,-5,5h-108a5,5,0,0,1,-5,-5v-12a5,5,0,0,1,5,-5z" stroke-width="3"></path><g id="node_text34" fill="black"><text id="kity_text_357" text-rendering="inherit" font-size="12" dy=".8em" y="359.7000054195523" x="731.5000140741467">人工智能与大数据</text></g></g><g id="minder_node35"><g id="node_expander34" style="cursor: pointer;" display="none"><path id="kity_path_368" fill="white" stroke="gray" d="M761.5000144317746,263.50000389665365A6,6,0,1,1,749.5000144317746,263.50000389665365A6,6,0,1,1,761.5000144317746,263.50000389665365"></path><path id="kity_path_369" fill="none" stroke="gray" d="M751.0000144317746,263.50000389665365L760.0000144317746,263.50000389665365"></path></g><path id="node_outline35" fill="none" stroke="none" d="M766.5000146701932,252.50000389665365h156a5,5,0,0,1,5,5v12a5,5,0,0,1,-5,5h-156a5,5,0,0,1,-5,-5v-12a5,5,0,0,1,5,-5z" stroke-width="3"></path><g id="node_text35" fill="black"><text id="kity_text_365" text-rendering="inherit" font-size="12" dy=".8em" y="255.70000386983156" x="771.5000146701932">数字屑是网络中的个人数据</text></g></g><g id="minder_node37"><g id="node_expander36" style="cursor: pointer;" display="none"><path id="kity_path_384" fill="white" stroke="gray" d="M761.5000144317746,315.50000467151403A6,6,0,1,1,749.5000144317746,315.50000467151403A6,6,0,1,1,761.5000144317746,315.50000467151403"></path><path id="kity_path_385" fill="none" stroke="gray" d="M751.0000144317746,315.50000467151403L760.0000144317746,315.50000467151403"></path></g><path id="node_outline37" fill="none" stroke="none" d="M766.5000146701932,304.50000467151403h180a5,5,0,0,1,5,5v12a5,5,0,0,1,-5,5h-180a5,5,0,0,1,-5,-5v-12a5,5,0,0,1,5,-5z" stroke-width="3"></path><g id="node_text37" fill="black"><text id="kity_text_381" text-rendering="inherit" font-size="12" dy=".8em" y="307.70000464469194" x="771.5000146701932">个人还是企业掌握数字屑是关键</text></g></g><g id="minder_node38" opacity="1"><g id="node_expander37" style="cursor: pointer;" display="none"><path id="kity_path_392" fill="white" stroke="gray" d="M761.5000144317746,419.5000062212348A6,6,0,1,1,749.5000144317746,419.5000062212348A6,6,0,1,1,761.5000144317746,419.5000062212348"></path><path id="kity_path_393" fill="none" stroke="gray" d="M751.0000144317746,419.5000062212348L760.0000144317746,419.5000062212348"></path></g><path id="node_outline38" fill="none" stroke="none" d="M766.5000146701932,408.5000062212348h252a5,5,0,0,1,5,5v12a5,5,0,0,1,-5,5h-252a5,5,0,0,1,-5,-5v-12a5,5,0,0,1,5,-5z" stroke-width="3"></path><g id="node_text38" fill="black"><text id="kity_text_389" text-rendering="inherit" font-size="12" dy=".8em" y="411.7000061944127" x="771.5000146701932">人工智能时代，更应坚守人类的价值观和伦理</text></g></g><g id="minder_node40"><g id="node_expander39" style="cursor: pointer;"><path id="kity_path_408" fill="white" stroke="gray" d="M761.5000144317746,471.5000069960952A6,6,0,1,1,749.5000144317746,471.5000069960952A6,6,0,1,1,761.5000144317746,471.5000069960952"></path><path id="kity_path_409" fill="none" stroke="gray" d="M751.0000144317746,471.5000069960952L760.0000144317746,471.5000069960952"></path></g><path id="node_outline40" fill="none" stroke="none" d="M766.5000146701932,460.5000069960952h167a5,5,0,0,1,5,5v12a5,5,0,0,1,-5,5h-167a5,5,0,0,1,-5,-5v-12a5,5,0,0,1,5,-5z" stroke-width="3"></path><g id="node_text40" fill="black"><text id="kity_text_405" text-rendering="inherit" font-size="12" dy=".8em" y="463.7000069692731" x="771.5000146701932">大数据，取之于民，用之于民</text></g></g><g id="minder_node41"><g id="node_expander40" style="cursor: pointer;" display="none"><path id="kity_path_417" fill="white" stroke="gray" d="M801.5000150278211,523.5000077709556A6,6,0,1,1,789.5000150278211,523.5000077709556A6,6,0,1,1,801.5000150278211,523.5000077709556"></path><path id="kity_path_418" fill="none" stroke="gray"></path></g><path id="node_outline41" fill="none" stroke="none" d="M806.5000152662396,512.5000077709556h156a5,5,0,0,1,5,5v12a5,5,0,0,1,-5,5h-156a5,5,0,0,1,-5,-5v-12a5,5,0,0,1,5,-5z" stroke-width="3"></path><g id="node_text41" fill="black"><text id="kity_text_414" text-rendering="inherit" font-size="12" dy=".8em" y="515.7000077441335" x="811.5000152662396">例子：分享我们的医疗数据</text></g></g><g id="minder_node42"><g id="node_expander41" style="cursor: pointer;" display="none"><path id="kity_path_425" fill="white" stroke="gray" d="M761.5000144317746,627.5000093206763A6,6,0,1,1,749.5000144317746,627.5000093206763A6,6,0,1,1,761.5000144317746,627.5000093206763"></path><path id="kity_path_426" fill="none" stroke="gray"></path></g><path id="node_outline42" fill="none" stroke="none" d="M766.5000146701932,616.5000093206763h286a5,5,0,0,1,5,5v12a5,5,0,0,1,-5,5h-286a5,5,0,0,1,-5,-5v-12a5,5,0,0,1,5,-5z" stroke-width="3"></path><g id="node_text42" fill="black"><text id="kity_text_422" text-rendering="inherit" font-size="12" dy=".8em" y="619.7000092938542" x="771.5000146701932">警惕“过滤气泡（Filter Bubble）”，突破信息限制</text></g></g><g id="minder_node43"><g id="node_expander42" style="cursor: pointer;" display="none"><path id="kity_path_433" fill="white" stroke="gray" d="M761.5000144317746,679.5000100955367A6,6,0,1,1,749.5000144317746,679.5000100955367A6,6,0,1,1,761.5000144317746,679.5000100955367"></path><path id="kity_path_434" fill="none" stroke="gray"></path></g><path id="node_outline43" fill="none" stroke="none" d="M766.5000146701932,668.5000100955367h107a5,5,0,0,1,5,5v12a5,5,0,0,1,-5,5h-107a5,5,0,0,1,-5,-5v-12a5,5,0,0,1,5,-5z" stroke-width="3"></path><g id="node_text43" fill="black"><text id="kity_text_430" text-rendering="inherit" font-size="12" dy=".8em" y="671.7000100687146" x="771.5000146701932">让数据“人性化”</text></g></g><g id="minder_node44"><g id="node_expander43" style="cursor: pointer;" display="none"><path id="kity_path_441" fill="white" stroke="gray" d="M140.50000517815351,471.5000069960952A6,6,0,1,1,128.50000517815351,471.5000069960952A6,6,0,1,1,140.50000517815351,471.5000069960952"></path><path id="kity_path_442" fill="none" stroke="gray"></path></g><path id="node_outline44" fill="none" stroke="none" d="M145.5000054165721,460.5000069960952h491a5,5,0,0,1,5,5v12a5,5,0,0,1,-5,5h-491a5,5,0,0,1,-5,-5v-12a5,5,0,0,1,5,-5z" stroke-width="3"></path><g id="node_text44" fill="black"><text id="kity_text_438" text-rendering="inherit" font-size="12" dy=".8em" y="463.7000069692731" x="150.5000054165721">例子：YouTube、Netflix、Facebook等为了留住用户的注意力设计了自动连播视频的功能</text></g></g><g id="minder_node46"><g id="node_expander45" style="cursor: pointer;" display="none"><path id="kity_path_457" fill="white" stroke="gray" d="M1177.5000206306577,263.50000389665365A6,6,0,1,1,1165.5000206306577,263.50000389665365A6,6,0,1,1,1177.5000206306577,263.50000389665365"></path><path id="kity_path_458" fill="none" stroke="gray"></path></g><path id="node_outline46" fill="none" stroke="none" d="M1182.5000208690763,252.50000389665365h166a5,5,0,0,1,5,5v12a5,5,0,0,1,-5,5h-166a5,5,0,0,1,-5,-5v-12a5,5,0,0,1,5,-5z" stroke-width="3"></path><g id="node_text46" fill="black"><text id="kity_text_454" text-rendering="inherit" font-size="12" dy=".8em" y="255.70000386983156" x="1187.5000208690763">互联网存在随机的善良的行为</text></g></g><g id="minder_node47"><g id="node_expander46" style="cursor: pointer;" display="none"><path id="kity_path_465" fill="white" stroke="gray" d="M1177.5000206306577,315.50000467151403A6,6,0,1,1,1165.5000206306577,315.50000467151403A6,6,0,1,1,1177.5000206306577,315.50000467151403"></path><path id="kity_path_466" fill="none" stroke="gray"></path></g><path id="node_outline47" fill="none" stroke="none" d="M1182.5000208690763,304.50000467151403h179a5,5,0,0,1,5,5v12a5,5,0,0,1,-5,5h-179a5,5,0,0,1,-5,-5v-12a5,5,0,0,1,5,-5z" stroke-width="3"></path><g id="node_text47" fill="black"><text id="kity_text_462" text-rendering="inherit" font-size="12" dy=".8em" y="307.70000464469194" x="1187.5000208690763">互联网是互联网企业谋利的工具</text></g></g><g id="minder_node48"><g id="node_expander47" style="cursor: pointer;" display="none"><path id="kity_path_473" fill="white" stroke="gray" d="M1177.5000206306577,367.5000054463744A6,6,0,1,1,1165.5000206306577,367.5000054463744A6,6,0,1,1,1177.5000206306577,367.5000054463744"></path><path id="kity_path_474" fill="none" stroke="gray"></path></g><path id="node_outline48" fill="none" stroke="none" d="M1182.5000208690763,356.5000054463744h119a5,5,0,0,1,5,5v12a5,5,0,0,1,-5,5h-119a5,5,0,0,1,-5,-5v-12a5,5,0,0,1,5,-5z" stroke-width="3"></path><g id="node_text48" fill="black"><text id="kity_text_470" text-rendering="inherit" font-size="12" dy=".8em" y="359.7000054195523" x="1187.5000208690763">互联网是民权的工具</text></g></g><g id="minder_node49"><g id="node_expander48" style="cursor: pointer;"><path id="kity_path_481" fill="white" stroke="gray" d="M1137.5000200346112,835.5000124201179A6,6,0,1,1,1125.5000200346112,835.5000124201179A6,6,0,1,1,1137.5000200346112,835.5000124201179"></path><path id="kity_path_482" fill="none" stroke="gray" d="M1127.0000200346112,835.5000124201179L1136.0000200346112,835.5000124201179"></path></g><path id="node_outline49" fill="#f2dbdb" stroke="none" d="M1142.5000202730298,824.5000124201179h84a5,5,0,0,1,5,5v12a5,5,0,0,1,-5,5h-84a5,5,0,0,1,-5,-5v-12a5,5,0,0,1,5,-5z" stroke-width="3"></path><g id="node_text49" fill="black"><text id="kity_text_478" text-rendering="inherit" font-size="12" dy=".8em" y="827.7000123932958" x="1147.5000202730298">超连结与社会</text></g></g><g id="minder_node50"><g id="node_expander49" style="cursor: pointer;"><path id="kity_path_489" fill="white" stroke="gray" d="M1137.5000200346112,471.5000069960952A6,6,0,1,1,1125.5000200346112,471.5000069960952A6,6,0,1,1,1137.5000200346112,471.5000069960952"></path><path id="kity_path_490" fill="none" stroke="gray" d="M1127.0000200346112,471.5000069960952L1136.0000200346112,471.5000069960952"></path></g><path id="node_outline50" fill="#f2dbdb" stroke="none" d="M1142.5000202730298,460.5000069960952h84a5,5,0,0,1,5,5v12a5,5,0,0,1,-5,5h-84a5,5,0,0,1,-5,-5v-12a5,5,0,0,1,5,-5z" stroke-width="3"></path><g id="node_text50" fill="black"><text id="kity_text_486" text-rendering="inherit" font-size="12" dy=".8em" y="463.7000069692731" x="1147.5000202730298">编程改变世界</text></g></g><g id="minder_node51" opacity="1"><g id="node_expander50" style="cursor: pointer;" display="none"><path id="kity_path_497" fill="white" stroke="gray" d="M1177.5000206306577,419.5000062212348A6,6,0,1,1,1165.5000206306577,419.5000062212348A6,6,0,1,1,1177.5000206306577,419.5000062212348"></path><path id="kity_path_498" fill="none" stroke="gray"></path></g><path id="node_outline51" fill="none" stroke="none" d="M1182.5000208690763,408.5000062212348h346a5,5,0,0,1,5,5v12a5,5,0,0,1,-5,5h-346a5,5,0,0,1,-5,-5v-12a5,5,0,0,1,5,-5z" stroke-width="3"></path><g id="node_text51" fill="black"><text id="kity_text_494" text-rendering="inherit" font-size="12" dy=".8em" y="411.7000061944127" x="1187.5000208690763">互联网的本质是什么？自由与开放（需要建立在善良的引导下）</text></g></g><g id="minder_node52"><g id="node_expander51" style="cursor: pointer;"><path id="kity_path_510" fill="white" stroke="gray" d="M1653.5000277236104,263.50000389665365A6,6,0,1,1,1641.5000277236104,263.50000389665365A6,6,0,1,1,1653.5000277236104,263.50000389665365"></path><path id="kity_path_511" fill="none" stroke="gray" d="M1643.0000277236104,263.50000389665365L1652.0000277236104,263.50000389665365"></path></g><path id="node_outline52" fill="none" stroke="none" d="M1658.500027962029,252.50000389665365h94a5,5,0,0,1,5,5v12a5,5,0,0,1,-5,5h-94a5,5,0,0,1,-5,-5v-12a5,5,0,0,1,5,-5z" stroke-width="3"></path><g id="node_text52" fill="black"><text id="kity_text_507" text-rendering="inherit" font-size="12" dy=".8em" y="255.70000386983156" x="1663.500027962029">以幽默改变规则</text></g></g><g id="minder_node53"><g id="node_expander52" style="cursor: pointer;"><path id="kity_path_518" fill="white" stroke="gray" d="M1653.5000277236104,835.5000124201179A6,6,0,1,1,1641.5000277236104,835.5000124201179A6,6,0,1,1,1653.5000277236104,835.5000124201179"></path><path id="kity_path_519" fill="none" stroke="gray" d="M1643.0000277236104,835.5000124201179L1652.0000277236104,835.5000124201179"></path></g><path id="node_outline53" fill="none" stroke="none" d="M1658.500027962029,824.5000124201179h126a5,5,0,0,1,5,5v12a5,5,0,0,1,-5,5h-126a5,5,0,0,1,-5,-5v-12a5,5,0,0,1,5,-5z" stroke-width="3"></path><g id="node_text53" fill="black"><text id="kity_text_515" text-rendering="inherit" font-size="12" dy=".8em" y="827.7000123932958" x="1663.500027962029">情感化设计的3个层面</text></g></g><g id="minder_node55"><g id="node_expander54" style="cursor: pointer;"><path id="kity_path_534" fill="white" stroke="gray" d="M1653.5000277236104,367.5000054463744A6,6,0,1,1,1641.5000277236104,367.5000054463744A6,6,0,1,1,1653.5000277236104,367.5000054463744"></path><path id="kity_path_535" fill="none" stroke="gray" d="M1643.0000277236104,367.5000054463744L1652.0000277236104,367.5000054463744"></path></g><path id="node_outline55" fill="none" stroke="none" d="M1658.500027962029,356.5000054463744h95a5,5,0,0,1,5,5v12a5,5,0,0,1,-5,5h-95a5,5,0,0,1,-5,-5v-12a5,5,0,0,1,5,-5z" stroke-width="3"></path><g id="node_text55" fill="black"><text id="kity_text_531" text-rendering="inherit" font-size="12" dy=".8em" y="359.7000054195523" x="1663.500027962029">以幽默传播文化</text></g></g><g id="minder_node56"><g id="node_expander55" style="cursor: pointer;"><path id="kity_path_542" fill="white" stroke="gray" d="M1177.5000206306577,523.5000077709556A6,6,0,1,1,1165.5000206306577,523.5000077709556A6,6,0,1,1,1177.5000206306577,523.5000077709556"></path><path id="kity_path_543" fill="none" stroke="gray" d="M1167.0000206306577,523.5000077709556L1176.0000206306577,523.5000077709556"></path></g><path id="node_outline56" fill="none" stroke="none" d="M1182.5000208690763,512.5000077709556h125a5,5,0,0,1,5,5v12a5,5,0,0,1,-5,5h-125a5,5,0,0,1,-5,-5v-12a5,5,0,0,1,5,-5z" stroke-width="3"></path><g id="node_text56" fill="black"><text id="kity_text_539" text-rendering="inherit" font-size="12" dy=".8em" y="515.7000077441335" x="1187.5000208690763">代码: 下一个通用语言</text></g></g><g id="minder_node57"><g id="node_expander56" style="cursor: pointer;"><path id="kity_path_550" fill="white" stroke="gray" d="M1177.5000206306577,679.5000100955367A6,6,0,1,1,1165.5000206306577,679.5000100955367A6,6,0,1,1,1177.5000206306577,679.5000100955367"></path><path id="kity_path_551" fill="none" stroke="gray" d="M1167.0000206306577,679.5000100955367L1176.0000206306577,679.5000100955367"></path></g><path id="node_outline57" fill="none" stroke="none" d="M1182.5000208690763,668.5000100955367h227a5,5,0,0,1,5,5v12a5,5,0,0,1,-5,5h-227a5,5,0,0,1,-5,-5v-12a5,5,0,0,1,5,-5z" stroke-width="3"></path><g id="node_text57" fill="black"><text id="kity_text_547" text-rendering="inherit" font-size="12" dy=".8em" y="671.7000100687146" x="1187.5000208690763">黑客编程一直是健康民主的重要组成部分</text></g></g><g id="minder_node60"><g id="node_expander59" style="cursor: pointer;" display="none"><path id="kity_path_574" fill="white" stroke="gray" d="M1217.5000212267041,575.500008545816A6,6,0,1,1,1205.5000212267041,575.500008545816A6,6,0,1,1,1217.5000212267041,575.500008545816"></path><path id="kity_path_575" fill="none" stroke="gray"></path></g><path id="node_outline60" fill="none" stroke="none" d="M1222.5000214651227,564.500008545816h143a5,5,0,0,1,5,5v12a5,5,0,0,1,-5,5h-143a5,5,0,0,1,-5,-5v-12a5,5,0,0,1,5,-5z" stroke-width="3"></path><g id="node_text60" fill="black"><text id="kity_text_571" text-rendering="inherit" font-size="12" dy=".8em" y="567.7000085189939" x="1227.5000214651227">让孩子成为下一代创造者</text></g></g><g id="minder_node61"><g id="node_expander60" style="cursor: pointer;" display="none"><path id="kity_path_582" fill="white" stroke="gray" d="M1217.5000212267041,627.5000093206763A6,6,0,1,1,1205.5000212267041,627.5000093206763A6,6,0,1,1,1217.5000212267041,627.5000093206763"></path><path id="kity_path_583" fill="none" stroke="gray"></path></g><path id="node_outline61" fill="none" stroke="none" d="M1222.5000214651227,616.5000093206763h132a5,5,0,0,1,5,5v12a5,5,0,0,1,-5,5h-132a5,5,0,0,1,-5,-5v-12a5,5,0,0,1,5,-5z" stroke-width="3"></path><g id="node_text61" fill="black"><text id="kity_text_579" text-rendering="inherit" font-size="12" dy=".8em" y="619.7000092938542" x="1227.5000214651227">女孩要勇敢而不必完美</text></g></g><g id="minder_node62"><g id="node_expander61" style="cursor: pointer;" display="none"><path id="kity_path_590" fill="white" stroke="gray" d="M1217.5000212267041,731.5000108703971A6,6,0,1,1,1205.5000212267041,731.5000108703971A6,6,0,1,1,1217.5000212267041,731.5000108703971"></path><path id="kity_path_591" fill="none" stroke="gray"></path></g><path id="node_outline62" fill="none" stroke="none" d="M1222.5000214651227,720.5000108703971h281a5,5,0,0,1,5,5v12a5,5,0,0,1,-5,5h-281a5,5,0,0,1,-5,-5v-12a5,5,0,0,1,5,-5z" stroke-width="3"></path><g id="node_text62" fill="black"><text id="kity_text_587" text-rendering="inherit" font-size="12" dy=".8em" y="723.700010843575" x="1227.5000214651227">成为公民黑客（Civic Hacking）共同推动社会发展</text></g></g><g id="minder_node63"><g id="node_expander62" style="cursor: pointer;" display="none"><path id="kity_path_598" fill="white" stroke="gray" d="M1217.5000212267041,783.5000116452575A6,6,0,1,1,1205.5000212267041,783.5000116452575A6,6,0,1,1,1217.5000212267041,783.5000116452575"></path><path id="kity_path_599" fill="none" stroke="gray"></path></g><path id="node_outline63" fill="none" stroke="none" d="M1222.5000214651227,772.5000116452575h178a5,5,0,0,1,5,5v12a5,5,0,0,1,-5,5h-178a5,5,0,0,1,-5,-5v-12a5,5,0,0,1,5,-5z" stroke-width="3"></path><g id="node_text63" fill="black"><text id="kity_text_595" text-rendering="inherit" font-size="12" dy=".8em" y="775.7000116184354" x="1227.5000214651227">用编程“编写”一个更好的政府</text></g></g><g id="minder_node64"><g id="node_expander63" style="cursor: pointer;"><path id="kity_path_606" fill="white" stroke="gray" d="M1653.5000277236104,471.5000069960952A6,6,0,1,1,1641.5000277236104,471.5000069960952A6,6,0,1,1,1653.5000277236104,471.5000069960952"></path><path id="kity_path_607" fill="none" stroke="gray" d="M1643.0000277236104,471.5000069960952L1652.0000277236104,471.5000069960952"></path></g><path id="node_outline64" fill="none" stroke="none" d="M1658.500027962029,460.5000069960952h95a5,5,0,0,1,5,5v12a5,5,0,0,1,-5,5h-95a5,5,0,0,1,-5,-5v-12a5,5,0,0,1,5,-5z" stroke-width="3"></path><g id="node_text64" fill="black"><text id="kity_text_603" text-rendering="inherit" font-size="12" dy=".8em" y="463.7000069692731" x="1663.500027962029">以幽默消除歧视</text></g></g><g id="minder_node66" opacity="1"><g id="node_expander65" style="cursor: pointer;"><path id="kity_path_622" fill="white" stroke="gray" d="M1653.5000277236104,627.5000093206763A6,6,0,1,1,1641.5000277236104,627.5000093206763A6,6,0,1,1,1653.5000277236104,627.5000093206763"></path><path id="kity_path_623" fill="none" stroke="gray" d="M1643.0000277236104,627.5000093206763L1652.0000277236104,627.5000093206763"></path></g><path id="node_outline66" fill="none" stroke="none" d="M1658.500027962029,616.5000093206763h127a5,5,0,0,1,5,5v12a5,5,0,0,1,-5,5h-127a5,5,0,0,1,-5,-5v-12a5,5,0,0,1,5,-5z" stroke-width="3"></path><g id="node_text66" fill="black"><text id="kity_text_619" text-rendering="inherit" font-size="12" dy=".8em" y="619.7000092938542" x="1663.500027962029">积极心理学的3个目标</text></g></g><g id="minder_node67"><g id="node_expander66" style="cursor: pointer;" display="none"><path id="kity_path_630" fill="white" stroke="gray" d="M1693.5000283196568,679.5000100955367A6,6,0,1,1,1681.5000283196568,679.5000100955367A6,6,0,1,1,1693.5000283196568,679.5000100955367"></path><path id="kity_path_631" fill="none" stroke="gray"></path></g><path id="node_outline67" fill="none" stroke="none" d="M1698.5000285580754,668.5000100955367h264a5,5,0,0,1,5,5v12a5,5,0,0,1,-5,5h-264a5,5,0,0,1,-5,-5v-12a5,5,0,0,1,5,-5z" stroke-width="3"></path><g id="node_text67" fill="black"><text id="kity_text_627" text-rendering="inherit" font-size="12" dy=".8em" y="671.7000100687146" x="1703.5000285580754">心理学不仅要关注人的弱点，还要关注人的优势</text></g></g><g id="minder_node68"><g id="node_expander67" style="cursor: pointer;" display="none"><path id="kity_path_638" fill="white" stroke="gray" d="M1693.5000283196568,731.5000108703971A6,6,0,1,1,1681.5000283196568,731.5000108703971A6,6,0,1,1,1693.5000283196568,731.5000108703971"></path><path id="kity_path_639" fill="none" stroke="gray"></path></g><path id="node_outline68" fill="none" stroke="none" d="M1698.5000285580754,720.5000108703971h467a5,5,0,0,1,5,5v12a5,5,0,0,1,-5,5h-467a5,5,0,0,1,-5,-5v-12a5,5,0,0,1,5,-5z" stroke-width="3"></path><g id="node_text68" fill="black"><text id="kity_text_635" text-rendering="inherit" font-size="12" dy=".8em" y="723.700010843575" x="1703.5000285580754">不仅要致力于修复心理损伤，还要致力于给人力量，让其对生活中美好的东西感兴趣。</text></g></g><g id="minder_node69"><g id="node_expander68" style="cursor: pointer;" display="none"><path id="kity_path_646" fill="white" stroke="gray" d="M1693.5000283196568,783.5000116452575A6,6,0,1,1,1681.5000283196568,783.5000116452575A6,6,0,1,1,1693.5000283196568,783.5000116452575"></path><path id="kity_path_647" fill="none" stroke="gray"></path></g><path id="node_outline69" fill="none" stroke="none" d="M1698.5000285580754,772.5000116452575h395a5,5,0,0,1,5,5v12a5,5,0,0,1,-5,5h-395a5,5,0,0,1,-5,-5v-12a5,5,0,0,1,5,-5z" stroke-width="3"></path><g id="node_text69" fill="black"><text id="kity_text_643" text-rendering="inherit" font-size="12" dy=".8em" y="775.7000116184354" x="1703.5000285580754">应该在关注病人的同时，努力让正常人以及“天才”们的生活更加美好。</text></g></g><g id="minder_node71"><g id="node_expander70" style="cursor: pointer;" display="none"><path id="kity_path_662" fill="white" stroke="gray" d="M1693.5000283196568,887.5000131949782A6,6,0,1,1,1681.5000283196568,887.5000131949782A6,6,0,1,1,1693.5000283196568,887.5000131949782"></path><path id="kity_path_663" fill="none" stroke="gray" d="M1683.0000283196568,887.5000131949782L1692.0000283196568,887.5000131949782"></path></g><path id="node_outline71" fill="none" stroke="none" d="M1698.5000285580754,876.5000131949782h59a5,5,0,0,1,5,5v12a5,5,0,0,1,-5,5h-59a5,5,0,0,1,-5,-5v-12a5,5,0,0,1,5,-5z" stroke-width="3"></path><g id="node_text71" fill="black"><text id="kity_text_659" text-rendering="inherit" font-size="12" dy=".8em" y="879.7000131681561" x="1703.5000285580754">本能层面</text></g></g><g id="minder_node73"><g id="node_expander72" style="cursor: pointer;" display="none"><path id="kity_path_678" fill="white" stroke="gray" d="M1693.5000283196568,939.5000139698386A6,6,0,1,1,1681.5000283196568,939.5000139698386A6,6,0,1,1,1693.5000283196568,939.5000139698386"></path><path id="kity_path_679" fill="none" stroke="gray"></path></g><path id="node_outline73" fill="none" stroke="none" d="M1698.5000285580754,928.5000139698386h59a5,5,0,0,1,5,5v12a5,5,0,0,1,-5,5h-59a5,5,0,0,1,-5,-5v-12a5,5,0,0,1,5,-5z" stroke-width="3"></path><g id="node_text73" fill="black"><text id="kity_text_675" text-rendering="inherit" font-size="12" dy=".8em" y="931.7000139430165" x="1703.5000285580754">行为层面</text></g></g><g id="minder_node74"><g id="node_expander73" style="cursor: pointer;" display="none"><path id="kity_path_686" fill="white" stroke="gray" d="M1693.5000283196568,991.500014744699A6,6,0,1,1,1681.5000283196568,991.500014744699A6,6,0,1,1,1693.5000283196568,991.500014744699"></path><path id="kity_path_687" fill="none" stroke="gray"></path></g><path id="node_outline74" fill="none" stroke="none" d="M1698.5000285580754,980.500014744699h59a5,5,0,0,1,5,5v12a5,5,0,0,1,-5,5h-59a5,5,0,0,1,-5,-5v-12a5,5,0,0,1,5,-5z" stroke-width="3"></path><g id="node_text74" fill="black"><text id="kity_text_683" text-rendering="inherit" font-size="12" dy=".8em" y="983.7000147178769" x="1703.5000285580754">反思层面</text></g></g><g id="minder_node75"><g id="node_expander74" style="cursor: pointer;" display="none"><path id="kity_path_694" fill="white" stroke="gray" d="M1693.5000283196568,315.50000467151403A6,6,0,1,1,1681.5000283196568,315.50000467151403A6,6,0,1,1,1693.5000283196568,315.50000467151403"></path><path id="kity_path_695" fill="none" stroke="gray"></path></g><path id="node_outline75" fill="none" stroke="none" d="M1698.5000285580754,304.50000467151403h496a5,5,0,0,1,5,5v12a5,5,0,0,1,-5,5h-496a5,5,0,0,1,-5,-5v-12a5,5,0,0,1,5,-5z" stroke-width="3"></path><g id="node_text75" fill="black"><text id="kity_text_691" text-rendering="inherit" font-size="12" dy=".8em" y="307.70000464469194" x="1703.5000285580754">例子：Liza Donnelly的幽默漫画引导着读者们思考当今社会女性的规则，尝试推动规则改变</text></g></g><g id="minder_node76"><g id="node_expander75" style="cursor: pointer;" display="none"><path id="kity_path_702" fill="white" stroke="gray" d="M1693.5000283196568,419.5000062212348A6,6,0,1,1,1681.5000283196568,419.5000062212348A6,6,0,1,1,1693.5000283196568,419.5000062212348"></path><path id="kity_path_703" fill="none" stroke="gray"></path></g><path id="node_outline76" fill="none" stroke="none" d="M1698.5000285580754,408.5000062212348h475a5,5,0,0,1,5,5v12a5,5,0,0,1,-5,5h-475a5,5,0,0,1,-5,-5v-12a5,5,0,0,1,5,-5z" stroke-width="3"></path><g id="node_text76" fill="black"><text id="kity_text_699" text-rendering="inherit" font-size="12" dy=".8em" y="411.7000061944127" x="1703.5000285580754">例子：Randall Munroe以幽默的语言文字，让枯燥无味的知识科普变的有趣而利于传播</text></g></g><g id="minder_node77"><g id="node_expander76" style="cursor: pointer;" display="none"><path id="kity_path_710" fill="white" stroke="gray" d="M1693.5000283196568,523.5000077709556A6,6,0,1,1,1681.5000283196568,523.5000077709556A6,6,0,1,1,1693.5000283196568,523.5000077709556"></path><path id="kity_path_711" fill="none" stroke="gray"></path></g><path id="node_outline77" fill="none" stroke="none" d="M1698.5000285580754,512.5000077709556h537a5,5,0,0,1,5,5v12a5,5,0,0,1,-5,5h-537a5,5,0,0,1,-5,-5v-12a5,5,0,0,1,5,-5z" stroke-width="3"></path><g id="node_text77" fill="black"><text id="kity_text_707" text-rendering="inherit" font-size="12" dy=".8em" y="515.7000077441335" x="1703.5000285580754">例子：Ruby Wax以幽默的方式让人们了解精神疾病，同时不断削减着人们对精神疾病的误解与歧视</text></g></g><g id="minder_node78"><g id="node_expander77" style="cursor: pointer;" display="none"><path id="kity_path_718" fill="white" stroke="gray" d="M100.50000458210707,731.5000108703971A6,6,0,1,1,88.50000458210707,731.5000108703971A6,6,0,1,1,100.50000458210707,731.5000108703971"></path><path id="kity_path_719" fill="none" stroke="gray"></path></g><path id="node_outline78" fill="none" stroke="none" d="M105.50000482052565,720.5000108703971h179a5,5,0,0,1,5,5v12a5,5,0,0,1,-5,5h-179a5,5,0,0,1,-5,-5v-12a5,5,0,0,1,5,-5z" stroke-width="3"></path><g id="node_text78" fill="black"><text id="kity_text_715" text-rendering="inherit" font-size="12" dy=".8em" y="723.700010843575" x="110.50000482052565">情绪驱动行为，要学会控制情绪</text></g></g><g id="minder_node79" opacity="1"><g id="node_expander78" style="cursor: pointer;" display="none"><path id="kity_path_726" fill="white" stroke="gray" d="M100.50000458210707,679.5000100955367A6,6,0,1,1,88.50000458210707,679.5000100955367A6,6,0,1,1,100.50000458210707,679.5000100955367"></path><path id="kity_path_727" fill="none" stroke="gray"></path></g><path id="node_outline79" fill="none" stroke="none" d="M105.50000482052565,668.5000100955367h396a5,5,0,0,1,5,5v12a5,5,0,0,1,-5,5h-396a5,5,0,0,1,-5,-5v-12a5,5,0,0,1,5,-5z" stroke-width="3"></path><g id="node_text79" fill="black"><text id="kity_text_723" text-rendering="inherit" font-size="12" dy=".8em" y="671.7000100687146" x="110.50000482052565">情绪是即时产生的猜测，通过我们的大脑的解读理解而产生对情绪的想法</text></g></g><g id="minder_node80"><g id="node_expander79" style="cursor: pointer;" display="none"><path id="kity_path_734" fill="white" stroke="gray" d="M100.50000458210707,783.5000116452575A6,6,0,1,1,88.50000458210707,783.5000116452575A6,6,0,1,1,100.50000458210707,783.5000116452575"></path><path id="kity_path_735" fill="none" stroke="gray"></path></g><path id="node_outline80" fill="none" stroke="none" d="M105.50000482052565,772.5000116452575h179a5,5,0,0,1,5,5v12a5,5,0,0,1,-5,5h-179a5,5,0,0,1,-5,-5v-12a5,5,0,0,1,5,-5z" stroke-width="3"></path><g id="node_text80" fill="black"><text id="kity_text_731" text-rendering="inherit" font-size="12" dy=".8em" y="775.7000116184354" x="110.50000482052565">让情感融入人工智能真的好吗？</text></g></g><g id="kity_g_12" display="none"><path id="kity_path_13" fill="none" stroke="rgb(112, 66, 66)" d="M-23.49998714774847,656.5000007376075h167a5,5,0,0,1,5,5v12a5,5,0,0,1,-5,5h-167a5,5,0,0,1,-5,-5v-12a5,5,0,0,1,5,-5z" stroke-width="5"></path></g><g id="minder_node84"><g id="node_expander83" style="cursor: pointer;" display="none"><path id="kity_path_766" fill="white" stroke="gray" d="M1177.5000206306577,887.5000131949782A6,6,0,1,1,1165.5000206306577,887.5000131949782A6,6,0,1,1,1177.5000206306577,887.5000131949782"></path><path id="kity_path_767" fill="none" stroke="gray"></path></g><path id="node_outline84" fill="none" stroke="none" d="M1182.5000208690763,876.5000131949782h96a5,5,0,0,1,5,5v12a5,5,0,0,1,-5,5h-96a5,5,0,0,1,-5,-5v-12a5,5,0,0,1,5,-5z" stroke-width="3"></path><g id="node_text84" fill="black"><text id="kity_text_763" text-rendering="inherit" font-size="12" dy=".8em" y="879.7000131681561" x="1187.5000208690763">超链接改变社会</text></g></g></g></g></svg>