<svg id="kity_svg_6" xmlns="http://www.w3.org/2000/svg" xmlns:xlink="http://www.w3.org/1999/xlink" version="1.1" width="2836" height="1085" style="background: rgb(251, 251, 251); visibility: visible;" viewBox="0 0 2836 1085"><defs id="kity_defs_7"><linearGradient id="kity_linearGradient_17" x1="0" y1="0" x2="0" y2="1"><stop id="kity_stop_18" offset="0" stop-color="rgb(255, 255, 255)"></stop><stop id="kity_stop_19" offset="1" stop-color="rgb(204, 204, 204)"></stop></linearGradient><marker id="kity_marker_2" orient="auto" refX="6" refY="0" viewBox="-7 -7 14 14" markerWidth="7" markerHeight="7" markerUnits="userSpaceOnUse"><path id="kity_path_3" fill="rgb(115, 161, 191)" stroke="none" d="M6,0A6,6,0,1,1,-6,0A6,6,0,1,1,6,0"></path></marker></defs><g id="kity_g_8"><g id="minder1" text-rendering="geometricPrecision"><g id="minder_connect_group1"><path id="kity_path_31" fill="none" stroke="rgb(191, 115, 115)" stroke-width="1" d="M1131.4999975636601,84.49999939650297v30h-1049.5V134.49999939650297"></path><path id="kity_path_33" fill="none" stroke="rgb(191, 115, 115)" stroke-width="1" d="M40.499997563660145,166.49999939650297V212.49999939650297L60.499997563660145,212.49999939650297"></path><path id="kity_path_35" fill="none" stroke="rgb(191, 115, 115)" stroke-width="1" d="M80.49999756366014,223.49999939650297V264.499999396503L100.49999756366014,264.499999396503"></path><path id="kity_path_37" fill="none" stroke="rgb(191, 115, 115)" stroke-width="1" d="M80.49999756366014,223.49999939650297V316.499999396503L100.49999756366014,316.499999396503"></path><path id="kity_path_39" fill="none" stroke="rgb(191, 115, 115)" stroke-width="1" d="M40.499997563660145,166.49999939650297V368.499999396503L60.499997563660145,368.499999396503"></path><path id="kity_path_41" fill="none" stroke="rgb(191, 115, 115)" stroke-width="1" d="M80.49999756366014,379.499999396503V420.499999396503L100.49999756366014,420.499999396503"></path><path id="kity_path_43" fill="none" stroke="rgb(191, 115, 115)" stroke-width="1" d="M120.49999756366014,431.499999396503V472.499999396503L140.49999756366014,472.499999396503"></path><path id="kity_path_45" fill="none" stroke="rgb(191, 115, 115)" stroke-width="1" d="M80.49999756366014,379.499999396503V524.499999396503L100.49999756366014,524.499999396503"></path><path id="kity_path_47" fill="none" stroke="rgb(191, 115, 115)" stroke-width="1" d="M80.49999756366014,379.499999396503V576.499999396503L100.49999756366014,576.499999396503"></path><path id="kity_path_49" fill="none" stroke="rgb(191, 115, 115)" stroke-width="1" d="M40.499997563660145,166.49999939650297V628.499999396503L60.499997563660145,628.499999396503"></path><path id="kity_path_51" fill="none" stroke="rgb(191, 115, 115)" stroke-width="1" d="M80.49999756366014,639.499999396503V680.499999396503L100.49999756366014,680.499999396503"></path><path id="kity_path_53" fill="none" stroke="rgb(191, 115, 115)" stroke-width="1" d="M80.49999756366014,639.499999396503V732.499999396503L100.49999756366014,732.499999396503"></path><path id="kity_path_55" fill="none" stroke="rgb(191, 115, 115)" stroke-width="1" d="M80.49999756366014,639.499999396503V784.499999396503L100.49999756366014,784.499999396503"></path><path id="kity_path_57" fill="none" stroke="rgb(191, 115, 115)" stroke-width="1" d="M1131.4999975636601,84.49999939650297v30h-367.5V134.49999939650297"></path><path id="kity_path_59" fill="none" stroke="rgb(191, 115, 115)" stroke-width="1" d="M701.4999975636601,166.49999939650297V212.49999939650297L721.4999975636601,212.49999939650297"></path><path id="kity_path_61" fill="none" stroke="rgb(191, 115, 115)" stroke-width="1" d="M741.4999975636601,223.49999939650297V264.499999396503L761.4999975636601,264.499999396503"></path><path id="kity_path_63" fill="none" stroke="rgb(191, 115, 115)" stroke-width="1" d="M741.4999975636601,223.49999939650297V316.499999396503L761.4999975636601,316.499999396503"></path><path id="kity_path_65" fill="none" stroke="rgb(191, 115, 115)" stroke-width="1" d="M701.4999975636601,166.49999939650297V368.499999396503L721.4999975636601,368.499999396503"></path><path id="kity_path_67" fill="none" stroke="rgb(191, 115, 115)" stroke-width="1" d="M741.4999975636601,379.499999396503V420.499999396503L761.4999975636601,420.499999396503"></path><path id="kity_path_69" fill="none" stroke="rgb(191, 115, 115)" stroke-width="1" d="M741.4999975636601,379.499999396503V472.499999396503L761.4999975636601,472.499999396503"></path><path id="kity_path_71" fill="none" stroke="rgb(191, 115, 115)" stroke-width="1" d="M781.4999975636601,483.499999396503V524.499999396503L801.4999975636601,524.499999396503"></path><path id="kity_path_73" fill="none" stroke="rgb(191, 115, 115)" stroke-width="1" d="M701.4999975636601,166.49999939650297V576.499999396503L721.4999975636601,576.499999396503"></path><path id="kity_path_75" fill="none" stroke="rgb(191, 115, 115)" stroke-width="1" d="M741.4999975636601,587.499999396503V628.499999396503L761.4999975636601,628.499999396503"></path><path id="kity_path_77" fill="none" stroke="rgb(191, 115, 115)" stroke-width="1" d="M741.4999975636601,587.499999396503V680.499999396503L761.4999975636601,680.499999396503"></path><path id="kity_path_79" fill="none" stroke="rgb(191, 115, 115)" stroke-width="1" d="M701.4999975636601,166.49999939650297V732.499999396503L721.4999975636601,732.499999396503"></path><path id="kity_path_81" fill="none" stroke="rgb(191, 115, 115)" stroke-width="1" d="M741.4999975636601,743.499999396503V784.499999396503L761.4999975636601,784.499999396503"></path><path id="kity_path_83" fill="none" stroke="rgb(191, 115, 115)" stroke-width="1" d="M741.4999975636601,743.499999396503V888.499999396503L761.4999975636601,888.499999396503"></path><path id="kity_path_85" fill="none" stroke="rgb(191, 115, 115)" stroke-width="1" d="M1131.4999975636601,84.49999939650297v30h617.5V134.49999939650297"></path><path id="kity_path_87" fill="none" stroke="rgb(191, 115, 115)" stroke-width="1" d="M1693.4999975636601,166.49999939650297V212.49999939650297L1713.4999975636601,212.49999939650297"></path><path id="kity_path_89" fill="none" stroke="rgb(191, 115, 115)" stroke-width="1" d="M1733.4999975636601,223.49999939650297V264.499999396503L1753.4999975636601,264.499999396503"></path><path id="kity_path_91" fill="none" stroke="rgb(191, 115, 115)" stroke-width="1" d="M1733.4999975636601,223.49999939650297V316.499999396503L1753.4999975636601,316.499999396503"></path><path id="kity_path_93" fill="none" stroke="rgb(191, 115, 115)" stroke-width="1" d="M1733.4999975636601,223.49999939650297V368.499999396503L1753.4999975636601,368.499999396503"></path><path id="kity_path_95" fill="none" stroke="rgb(191, 115, 115)" stroke-width="1" d="M1733.4999975636601,223.49999939650297V420.499999396503L1753.4999975636601,420.499999396503"></path><path id="kity_path_97" fill="none" stroke="rgb(191, 115, 115)" stroke-width="1" d="M1693.4999975636601,166.49999939650297V472.499999396503L1713.4999975636601,472.499999396503"></path><path id="kity_path_99" fill="none" stroke="rgb(191, 115, 115)" stroke-width="1" d="M1733.4999975636601,483.499999396503V524.499999396503L1753.4999975636601,524.499999396503"></path><path id="kity_path_101" fill="none" stroke="rgb(191, 115, 115)" stroke-width="1" d="M1773.4999975636601,535.499999396503V576.499999396503L1793.4999975636601,576.499999396503"></path><path id="kity_path_103" fill="none" stroke="rgb(191, 115, 115)" stroke-width="1" d="M1773.4999975636601,535.499999396503V628.499999396503L1793.4999975636601,628.499999396503"></path><path id="kity_path_105" fill="none" stroke="rgb(191, 115, 115)" stroke-width="1" d="M1733.4999975636601,483.499999396503V680.499999396503L1753.4999975636601,680.499999396503"></path><path id="kity_path_107" fill="none" stroke="rgb(191, 115, 115)" stroke-width="1" d="M1773.4999975636601,691.499999396503V732.499999396503L1793.4999975636601,732.499999396503"></path><path id="kity_path_109" fill="none" stroke="rgb(191, 115, 115)" stroke-width="1" d="M1773.4999975636601,691.499999396503V784.499999396503L1793.4999975636601,784.499999396503"></path><path id="kity_path_111" fill="none" stroke="rgb(191, 115, 115)" stroke-width="1" d="M1693.4999975636601,166.49999939650297V836.499999396503L1713.4999975636601,836.499999396503"></path><path id="kity_path_113" fill="none" stroke="rgb(191, 115, 115)" stroke-width="1" d="M1733.4999975636601,847.499999396503V888.499999396503L1753.4999975636601,888.499999396503"></path><path id="kity_path_115" fill="none" stroke="rgb(191, 115, 115)" stroke-width="1" d="M1131.4999975636601,84.49999939650297v30h1065V134.49999939650297"></path><path id="kity_path_117" fill="none" stroke="rgb(191, 115, 115)" stroke-width="1" d="M2169.49999756366,166.49999939650297V212.49999939650297L2189.49999756366,212.49999939650297"></path><path id="kity_path_119" fill="none" stroke="rgb(191, 115, 115)" stroke-width="1" d="M2209.49999756366,223.49999939650297V264.499999396503L2229.49999756366,264.499999396503"></path><path id="kity_path_121" fill="none" stroke="rgb(191, 115, 115)" stroke-width="1" d="M2249.49999756366,275.499999396503V316.499999396503L2269.49999756366,316.499999396503"></path><path id="kity_path_123" fill="none" stroke="rgb(191, 115, 115)" stroke-width="1" d="M2209.49999756366,223.49999939650297V368.499999396503L2229.49999756366,368.499999396503"></path><path id="kity_path_125" fill="none" stroke="rgb(191, 115, 115)" stroke-width="1" d="M2249.49999756366,379.499999396503V420.499999396503L2269.49999756366,420.499999396503"></path><path id="kity_path_127" fill="none" stroke="rgb(191, 115, 115)" stroke-width="1" d="M2209.49999756366,223.49999939650297V472.499999396503L2229.49999756366,472.499999396503"></path><path id="kity_path_129" fill="none" stroke="rgb(191, 115, 115)" stroke-width="1" d="M2249.49999756366,483.499999396503V524.499999396503L2269.49999756366,524.499999396503"></path><path id="kity_path_131" fill="none" stroke="rgb(191, 115, 115)" stroke-width="1" d="M2169.49999756366,166.49999939650297V576.499999396503L2189.49999756366,576.499999396503"></path><path id="kity_path_133" fill="none" stroke="rgb(191, 115, 115)" stroke-width="1" d="M2209.49999756366,587.499999396503V628.499999396503L2229.49999756366,628.499999396503"></path><path id="kity_path_135" fill="none" stroke="rgb(191, 115, 115)" stroke-width="1" d="M2249.49999756366,639.499999396503V680.499999396503L2269.49999756366,680.499999396503"></path><path id="kity_path_137" fill="none" stroke="rgb(191, 115, 115)" stroke-width="1" d="M2249.49999756366,639.499999396503V732.499999396503L2269.49999756366,732.499999396503"></path><path id="kity_path_139" fill="none" stroke="rgb(191, 115, 115)" stroke-width="1" d="M2249.49999756366,639.499999396503V784.499999396503L2269.49999756366,784.499999396503"></path><path id="kity_path_141" fill="none" stroke="rgb(191, 115, 115)" stroke-width="1" d="M2209.49999756366,587.499999396503V836.499999396503L2229.49999756366,836.499999396503"></path><path id="kity_path_143" fill="none" stroke="rgb(191, 115, 115)" stroke-width="1" d="M2249.49999756366,847.499999396503V888.499999396503L2269.49999756366,888.499999396503"></path><path id="kity_path_145" fill="none" stroke="rgb(191, 115, 115)" stroke-width="1" d="M2249.49999756366,847.499999396503V940.499999396503L2269.49999756366,940.499999396503"></path><path id="kity_path_147" fill="none" stroke="rgb(191, 115, 115)" stroke-width="1" d="M2249.49999756366,847.499999396503V992.499999396503L2269.49999756366,992.499999396503"></path><path id="kity_path_527" fill="none" stroke="rgb(191, 115, 115)" stroke-width="1" d="M741.4999975636601,743.499999396503V1002.499999396503L761.4999975636601,1002.499999396503"></path><path id="kity_path_535" fill="none" stroke="rgb(191, 115, 115)" stroke-width="1" d="M781.4999975636601,795.499999396503V836.499999396503L801.4999975636601,836.499999396503"></path><path id="kity_path_543" fill="none" stroke="rgb(191, 115, 115)" stroke-width="1" d="M781.4999975636601,899.499999396503V945.499999396503L801.4999975636601,945.499999396503"></path><path id="kity_path_551" fill="none" stroke="rgb(191, 115, 115)" stroke-width="1" d="M781.4999975636601,1013.499999396503V1054.499999396503L801.4999975636601,1054.499999396503"></path></g><g id="minder_node1"><path id="node_outline1" fill="rgb(191, 115, 115)" stroke="rgb(191, 115, 115)" d="M901.4999975636601,20.49999939650297h459a5,5,0,0,1,5,5v54a5,5,0,0,1,-5,5h-459a5,5,0,0,1,-5,-5v-54a5,5,0,0,1,5,-5z" stroke-width="3"></path><g id="node_text1" fill="white"><text id="kity_text_22" text-rendering="inherit" font-size="16" dy=".8em" y="30.099999360740185" x="920.4999975636601">科技、娱乐与设计</text><text id="kity_text_266" text-rendering="inherit" font-size="16" dy=".8em" y="54.099999360740185" x="920.4999975636601">https://wordlesssoda.github.io/TED_notes/TED.svg</text></g><a id="kity_a_287" xlink:href="https://wordlesssoda.github.io/TED_notes/TED.svg" target="_blank" xlink:title="https://wordlesssoda.github.io/TED_notes/TED.svg" style="cursor: pointer;"><path id="kity_path_289" fill="rgba(255, 255, 255, 0)" stroke="none" d="M1321.5000035092235,41.499999321997166h16a4,4,0,0,1,4,4v14a4,4,0,0,1,-4,4h-16a4,4,0,0,1,-4,-4v-14a4,4,0,0,1,4,-4z"></path><path id="kity_path_288" fill="#666" stroke="none" d="M1336.1140035092235,57.72399932199717h-1.278c-1.668,0,-3.07,-1.07,-3.599,-2.556h4.877c0.707,0,1.278,-0.571,1.278,-1.278V51.33399932199717c0,-0.707,-0.571,-1.278,-1.278,-1.278h-4.877C1331.7660035092235,48.570999321997164,1333.1680035092234,47.499999321997166,1334.8360035092235,47.499999321997166h1.278c2.116,0,3.834,1.716,3.834,3.834V53.889999321997166C1339.9480035092236,56.00799932199716,1338.2300035092235,57.72399932199717,1336.1140035092235,57.72399932199717zM1324.6120035092235,52.61199932199717c0,-0.707,0.573,-1.278,1.278,-1.278h7.668c0.707,0,1.278,0.571,1.278,1.278S1334.2650035092236,53.889999321997166,1333.5580035092235,53.889999321997166H1325.8900035092236C1325.1850035092234,53.889999321997166,1324.6120035092235,53.31899932199717,1324.6120035092235,52.61199932199717zM1322.0560035092235,51.33399932199717V53.889999321997166c0,0.707,0.573,1.278,1.278,1.278h4.877c-0.528,1.486,-1.932,2.556,-3.599,2.556H1323.3340035092235C1321.2160035092234,57.72399932199717,1319.5000035092235,56.00799932199716,1319.5000035092235,53.889999321997166V51.33399932199717C1319.5000035092235,49.21599932199717,1321.2160035092234,47.499999321997166,1323.3340035092235,47.499999321997166h1.278c1.667,0,3.071,1.071,3.599,2.556H1323.3340035092235C1322.6290035092234,50.05599932199716,1322.0560035092235,50.62699932199717,1322.0560035092235,51.33399932199717z"></path></a></g><g id="kity_g_12"><path id="kity_path_13" fill="none" stroke="none" d="M920.4999975636601,52.49999939650297h0v0h0z"></path></g><g id="kity_g_14"><path id="kity_path_15" fill="none" stroke="none" d="M920.4999975636601,52.49999939650297h0v0h0z"></path><path id="kity_path_16" fill="none" stroke="none"></path></g><g id="minder_node2"><g id="node_expander13" style="cursor: pointer;"><path id="kity_path_386" fill="white" stroke="gray" d="M87.4999850615859,127.50000051409006A6,6,0,1,1,75.4999850615859,127.50000051409006A6,6,0,1,1,87.4999850615859,127.50000051409006"></path><path id="kity_path_387" fill="none" stroke="gray" d="M76.9999850615859,127.50000051409006L85.9999850615859,127.50000051409006"></path></g><path id="node_outline14" fill="rgb(246, 238, 238)" stroke="rgb(191, 115, 115)" d="M23.499984823167324,134.50000085681677h116a3,3,0,0,1,3,3v26a3,3,0,0,1,-3,3h-116a3,3,0,0,1,-3,-3v-26a3,3,0,0,1,3,-3z" stroke-width="1"></path><g id="node_text14" fill="black"><text id="kity_text_173" text-rendering="inherit" font-size="14" dy=".8em" y="141.40000082552433" x="65.49998482316732"> 网络文化</text></g><g id="node_priority1"><path id="kity_path_269" fill="#840023" stroke="none" d="M40.999984458088875,154.00000071525574c0,3.866,3.134,7,7,7h6c3.866,0,7,-3.134,7,-7V148.00000071525574H40.999984458088875V154.00000071525574z"></path><path id="kity_path_270" fill="#FF1200" stroke="none" d="M60.999984458088875,151.00000071525574c0,3.866,-3.134,7,-7,7H47.999984458088875c-3.866,0,-7,-3.134,-7,-7V148.00000071525574c0,-3.866,3.134,-7,7,-7h6c3.866,0,7,3.134,7,7V151.00000071525574z" opacity="0.8"></path><text id="kity_text_271" text-rendering="geometricPrecision" x="49.999984450638294" y="150.50000070780516" text-anchor="middle" font-style="italic" font-size="12" fill="white" dy="5">1</text></g></g><g id="minder_node3"><g id="node_expander3" style="cursor: pointer;"><path id="kity_path_356" fill="white" stroke="gray" d="M60.49998465925455,212.50000178068876A6,6,0,1,1,48.49998465925455,212.50000178068876A6,6,0,1,1,60.49998465925455,212.50000178068876"></path><path id="kity_path_357" fill="none" stroke="gray" d="M49.99998465925455,212.50000178068876L58.99998465925455,212.50000178068876"></path></g><path id="node_outline4" fill="#f2dbdb" stroke="none" d="M65.49998489767313,201.50000178068876h82a5,5,0,0,1,5,5v12a5,5,0,0,1,-5,5h-82a5,5,0,0,1,-5,-5v-12a5,5,0,0,1,5,-5z" stroke-width="3"></path><g id="node_text4" fill="black"><text id="kity_text_153" text-rendering="inherit" font-size="12" dy=".8em" y="204.70000175386667" x="70.49998489767313">网络与性教育</text></g></g><g id="minder_node4"><g id="node_expander1" style="cursor: pointer;" display="none"><path id="kity_path_350" fill="white" stroke="gray" d="M100.499985255301,264.50000255554914A6,6,0,1,1,88.499985255301,264.50000255554914A6,6,0,1,1,100.499985255301,264.50000255554914"></path><path id="kity_path_351" fill="none" stroke="gray"></path></g><path id="node_outline2" fill="none" stroke="none" d="M105.49998549371958,253.50000255554914h263a5,5,0,0,1,5,5v12a5,5,0,0,1,-5,5h-263a5,5,0,0,1,-5,-5v-12a5,5,0,0,1,5,-5z" stroke-width="3"></path><g id="node_text2" fill="black"><text id="kity_text_149" text-rendering="inherit" font-size="12" dy=".8em" y="256.70000252872705" x="110.49998549371958">生活模仿艺术，色情影片已成性教育的方式之一</text></g></g><g id="minder_node5"><g id="node_expander2" style="cursor: pointer;" display="none"><path id="kity_path_353" fill="white" stroke="gray" d="M100.499985255301,316.5000033304095A6,6,0,1,1,88.499985255301,316.5000033304095A6,6,0,1,1,100.499985255301,316.5000033304095"></path><path id="kity_path_354" fill="none" stroke="gray"></path></g><path id="node_outline3" fill="none" stroke="none" d="M105.49998549371958,305.5000033304095h276a5,5,0,0,1,5,5v12a5,5,0,0,1,-5,5h-276a5,5,0,0,1,-5,-5v-12a5,5,0,0,1,5,-5z" stroke-width="3"></path><g id="node_text3" fill="black"><text id="kity_text_151" text-rendering="inherit" font-size="12" dy=".8em" y="308.70000330358744" x="110.49998549371958">纠正色情影片价值观，促成社会性别转向性别平等 </text></g></g><g id="minder_node6"><g id="node_expander8" style="cursor: pointer;"><path id="kity_path_371" fill="white" stroke="gray" d="M60.49998465925455,368.5000041052699A6,6,0,1,1,48.49998465925455,368.5000041052699A6,6,0,1,1,60.49998465925455,368.5000041052699"></path><path id="kity_path_372" fill="none" stroke="gray" d="M49.99998465925455,368.5000041052699L58.99998465925455,368.5000041052699"></path></g><path id="node_outline9" fill="#f2dbdb" stroke="none" d="M65.49998489767313,357.5000041052699h59a5,5,0,0,1,5,5v12a5,5,0,0,1,-5,5h-59a5,5,0,0,1,-5,-5v-12a5,5,0,0,1,5,-5z" stroke-width="3"></path><g id="node_text9" fill="black"><text id="kity_text_163" text-rendering="inherit" font-size="12" dy=".8em" y="360.7000040784478" x="70.49998489767313">网络成瘾</text></g></g><g id="minder_node7"><g id="node_expander5" style="cursor: pointer;"><path id="kity_path_362" fill="white" stroke="gray" d="M100.499985255301,420.5000048801303A6,6,0,1,1,88.499985255301,420.5000048801303A6,6,0,1,1,100.499985255301,420.5000048801303"></path><path id="kity_path_363" fill="none" stroke="gray" d="M89.999985255301,420.5000048801303L98.999985255301,420.5000048801303"></path></g><path id="node_outline6" fill="none" stroke="none" d="M105.49998549371958,409.5000048801303h252a5,5,0,0,1,5,5v12a5,5,0,0,1,-5,5h-252a5,5,0,0,1,-5,-5v-12a5,5,0,0,1,5,-5z" stroke-width="3"></path><g id="node_text6" fill="black"><text id="kity_text_157" text-rendering="inherit" font-size="12" dy=".8em" y="412.7000048533082" x="110.49998549371958">科技公司为了获取利益打响用户注意力争夺战</text></g></g><g id="minder_node8"><g id="node_expander4" style="cursor: pointer;" display="none"><path id="kity_path_359" fill="white" stroke="gray" d="M140.49998585134745,472.5000056549907A6,6,0,1,1,128.49998585134745,472.5000056549907A6,6,0,1,1,140.49998585134745,472.5000056549907"></path><path id="kity_path_360" fill="none" stroke="gray"></path></g><path id="node_outline5" fill="none" stroke="none" d="M145.49998608976603,461.5000056549907h491a5,5,0,0,1,5,5v12a5,5,0,0,1,-5,5h-491a5,5,0,0,1,-5,-5v-12a5,5,0,0,1,5,-5z" stroke-width="3"></path><g id="node_text5" fill="black"><text id="kity_text_155" text-rendering="inherit" font-size="12" dy=".8em" y="464.7000056281686" x="150.49998608976603">例子：YouTube、Netflix、Facebook等为了留住用户的注意力设计了自动连播视频的功能</text></g></g><g id="minder_node9"><g id="node_expander6" style="cursor: pointer;" display="none"><path id="kity_path_365" fill="white" stroke="gray" d="M100.499985255301,524.500006429851A6,6,0,1,1,88.499985255301,524.500006429851A6,6,0,1,1,100.499985255301,524.500006429851"></path><path id="kity_path_366" fill="none" stroke="gray"></path></g><path id="node_outline7" fill="none" stroke="none" d="M105.49998549371958,513.500006429851h179a5,5,0,0,1,5,5v12a5,5,0,0,1,-5,5h-179a5,5,0,0,1,-5,-5v-12a5,5,0,0,1,5,-5z" stroke-width="3"></path><g id="node_text7" fill="black"><text id="kity_text_159" text-rendering="inherit" font-size="12" dy=".8em" y="516.700006403029" x="110.49998549371958">网络社交的大环境倒逼我们上瘾</text></g></g><g id="minder_node10"><g id="node_expander7" style="cursor: pointer;" display="none"><path id="kity_path_368" fill="white" stroke="gray" d="M100.499985255301,576.5000072047114A6,6,0,1,1,88.499985255301,576.5000072047114A6,6,0,1,1,100.499985255301,576.5000072047114"></path><path id="kity_path_369" fill="none" stroke="gray"></path></g><path id="node_outline8" fill="none" stroke="none" d="M105.49998549371958,565.5000072047114h131a5,5,0,0,1,5,5v12a5,5,0,0,1,-5,5h-131a5,5,0,0,1,-5,-5v-12a5,5,0,0,1,5,-5z" stroke-width="3"></path><g id="node_text8" fill="black"><text id="kity_text_161" text-rendering="inherit" font-size="12" dy=".8em" y="568.7000071778893" x="110.49998549371958">君子役物，小人役于物</text></g></g><g id="minder_node11"><g id="node_expander12" style="cursor: pointer;"><path id="kity_path_383" fill="white" stroke="gray" d="M60.49998465925455,628.5000079795718A6,6,0,1,1,48.49998465925455,628.5000079795718A6,6,0,1,1,60.49998465925455,628.5000079795718"></path><path id="kity_path_384" fill="none" stroke="gray" d="M49.99998465925455,628.5000079795718L58.99998465925455,628.5000079795718"></path></g><path id="node_outline13" fill="#f2dbdb" stroke="none" d="M65.49998489767313,617.5000079795718h82a5,5,0,0,1,5,5v12a5,5,0,0,1,-5,5h-82a5,5,0,0,1,-5,-5v-12a5,5,0,0,1,5,-5z" stroke-width="3"></path><g id="node_text13" fill="black"><text id="kity_text_171" text-rendering="inherit" font-size="12" dy=".8em" y="620.7000079527497" x="70.49998489767313">互联网与情绪</text></g></g><g id="minder_node12"><g id="node_expander9" style="cursor: pointer;" display="none"><path id="kity_path_374" fill="white" stroke="gray" d="M100.499985255301,680.5000087544322A6,6,0,1,1,88.499985255301,680.5000087544322A6,6,0,1,1,100.499985255301,680.5000087544322"></path><path id="kity_path_375" fill="none" stroke="gray"></path></g><path id="node_outline10" fill="none" stroke="none" d="M105.49998549371958,669.5000087544322h396a5,5,0,0,1,5,5v12a5,5,0,0,1,-5,5h-396a5,5,0,0,1,-5,-5v-12a5,5,0,0,1,5,-5z" stroke-width="3"></path><g id="node_text10" fill="black"><text id="kity_text_165" text-rendering="inherit" font-size="12" dy=".8em" y="672.7000087276101" x="110.49998549371958">情绪是即时产生的猜测，通过我们的大脑的解读理解而产生对情绪的想法</text></g></g><g id="minder_node13"><g id="node_expander10" style="cursor: pointer;" display="none"><path id="kity_path_377" fill="white" stroke="gray" d="M100.499985255301,732.5000095292926A6,6,0,1,1,88.499985255301,732.5000095292926A6,6,0,1,1,100.499985255301,732.5000095292926"></path><path id="kity_path_378" fill="none" stroke="gray"></path></g><path id="node_outline11" fill="none" stroke="none" d="M105.49998549371958,721.5000095292926h179a5,5,0,0,1,5,5v12a5,5,0,0,1,-5,5h-179a5,5,0,0,1,-5,-5v-12a5,5,0,0,1,5,-5z" stroke-width="3"></path><g id="node_text11" fill="black"><text id="kity_text_167" text-rendering="inherit" font-size="12" dy=".8em" y="724.7000095024705" x="110.49998549371958">情绪驱动行为，要学会控制情绪</text></g></g><g id="minder_node14"><g id="node_expander11" style="cursor: pointer;" display="none"><path id="kity_path_380" fill="white" stroke="gray" d="M100.499985255301,784.500010304153A6,6,0,1,1,88.499985255301,784.500010304153A6,6,0,1,1,100.499985255301,784.500010304153"></path><path id="kity_path_381" fill="none" stroke="gray"></path></g><path id="node_outline12" fill="none" stroke="none" d="M105.49998549371958,773.500010304153h179a5,5,0,0,1,5,5v12a5,5,0,0,1,-5,5h-179a5,5,0,0,1,-5,-5v-12a5,5,0,0,1,5,-5z" stroke-width="3"></path><g id="node_text12" fill="black"><text id="kity_text_169" text-rendering="inherit" font-size="12" dy=".8em" y="776.7000102773309" x="110.49998549371958">让情感融入人工智能真的好吗？</text></g></g><g id="minder_node15"><g id="node_expander27" style="cursor: pointer;"><path id="kity_path_428" fill="white" stroke="gray" d="M769.4999952241778,127.50000051409006A6,6,0,1,1,757.4999952241778,127.50000051409006A6,6,0,1,1,769.4999952241778,127.50000051409006"></path><path id="kity_path_429" fill="none" stroke="gray" d="M758.9999952241778,127.50000051409006L767.9999952241778,127.50000051409006"></path></g><path id="node_outline28" fill="rgb(246, 238, 238)" stroke="rgb(191, 115, 115)" d="M684.4999946728349,134.50000085681677h158a3,3,0,0,1,3,3v26a3,3,0,0,1,-3,3h-158a3,3,0,0,1,-3,-3v-26a3,3,0,0,1,3,-3z" stroke-width="1"></path><g id="node_text28" fill="black"><text id="kity_text_201" text-rendering="inherit" font-size="14" dy=".8em" y="141.40000082552433" x="726.4999946728349">信息与数据应用 </text></g><g id="node_priority2"><path id="kity_path_274" fill="#01467F" stroke="none" d="M701.9999943077564,154.00000071525574c0,3.866,3.134,7,7,7h6c3.866,0,7,-3.134,7,-7V148.00000071525574H701.9999943077564V154.00000071525574z"></path><path id="kity_path_275" fill="#0074FF" stroke="none" d="M721.9999943077564,151.00000071525574c0,3.866,-3.134,7,-7,7H708.9999943077564c-3.866,0,-7,-3.134,-7,-7V148.00000071525574c0,-3.866,3.134,-7,7,-7h6c3.866,0,7,3.134,7,7V151.00000071525574z" opacity="0.8"></path><text id="kity_text_276" text-rendering="geometricPrecision" x="710.9999943003058" y="150.50000070780516" text-anchor="middle" font-style="italic" font-size="12" fill="white" dy="5">2</text></g></g><g id="minder_node16"><g id="node_expander16" style="cursor: pointer;"><path id="kity_path_395" fill="white" stroke="gray" d="M721.4999945089221,212.50000178068876A6,6,0,1,1,709.4999945089221,212.50000178068876A6,6,0,1,1,721.4999945089221,212.50000178068876"></path><path id="kity_path_396" fill="none" stroke="gray" d="M710.9999945089221,212.50000178068876L719.9999945089221,212.50000178068876"></path></g><path id="node_outline17" fill="#f2dbdb" stroke="none" d="M726.4999947473407,201.50000178068876h47a5,5,0,0,1,5,5v12a5,5,0,0,1,-5,5h-47a5,5,0,0,1,-5,-5v-12a5,5,0,0,1,5,-5z" stroke-width="3"></path><g id="node_text17" fill="black"><text id="kity_text_179" text-rendering="inherit" font-size="12" dy=".8em" y="204.70000175386667" x="731.4999947473407">数字屑</text></g></g><g id="minder_node17"><g id="node_expander14" style="cursor: pointer;" display="none"><path id="kity_path_389" fill="white" stroke="gray" d="M761.4999951049685,264.50000255554914A6,6,0,1,1,749.4999951049685,264.50000255554914A6,6,0,1,1,761.4999951049685,264.50000255554914"></path><path id="kity_path_390" fill="none" stroke="gray"></path></g><path id="node_outline15" fill="none" stroke="none" d="M766.4999953433871,253.50000255554914h156a5,5,0,0,1,5,5v12a5,5,0,0,1,-5,5h-156a5,5,0,0,1,-5,-5v-12a5,5,0,0,1,5,-5z" stroke-width="3"></path><g id="node_text15" fill="black"><text id="kity_text_175" text-rendering="inherit" font-size="12" dy=".8em" y="256.70000252872705" x="771.4999953433871">数字屑是网络中的个人数据</text></g></g><g id="minder_node18"><g id="node_expander15" style="cursor: pointer;" display="none"><path id="kity_path_392" fill="white" stroke="gray" d="M761.4999951049685,316.5000033304095A6,6,0,1,1,749.4999951049685,316.5000033304095A6,6,0,1,1,761.4999951049685,316.5000033304095"></path><path id="kity_path_393" fill="none" stroke="gray"></path></g><path id="node_outline16" fill="none" stroke="none" d="M766.4999953433871,305.5000033304095h180a5,5,0,0,1,5,5v12a5,5,0,0,1,-5,5h-180a5,5,0,0,1,-5,-5v-12a5,5,0,0,1,5,-5z" stroke-width="3"></path><g id="node_text16" fill="black"><text id="kity_text_177" text-rendering="inherit" font-size="12" dy=".8em" y="308.70000330358744" x="771.4999953433871">个人还是企业掌握数字屑是关键</text></g></g><g id="minder_node19"><g id="node_expander20" style="cursor: pointer;"><path id="kity_path_407" fill="white" stroke="gray" d="M721.4999945089221,368.5000041052699A6,6,0,1,1,709.4999945089221,368.5000041052699A6,6,0,1,1,721.4999945089221,368.5000041052699"></path><path id="kity_path_408" fill="none" stroke="gray" d="M710.9999945089221,368.5000041052699L719.9999945089221,368.5000041052699"></path></g><path id="node_outline21" fill="#f2dbdb" stroke="none" d="M726.4999947473407,357.5000041052699h108a5,5,0,0,1,5,5v12a5,5,0,0,1,-5,5h-108a5,5,0,0,1,-5,-5v-12a5,5,0,0,1,5,-5z" stroke-width="3"></path><g id="node_text21" fill="black"><text id="kity_text_187" text-rendering="inherit" font-size="12" dy=".8em" y="360.7000040784478" x="731.4999947473407">人工智能与大数据</text></g></g><g id="minder_node20"><g id="node_expander17" style="cursor: pointer;" display="none"><path id="kity_path_398" fill="white" stroke="gray" d="M761.4999951049685,420.5000048801303A6,6,0,1,1,749.4999951049685,420.5000048801303A6,6,0,1,1,761.4999951049685,420.5000048801303"></path><path id="kity_path_399" fill="none" stroke="gray"></path></g><path id="node_outline18" fill="none" stroke="none" d="M766.4999953433871,409.5000048801303h252a5,5,0,0,1,5,5v12a5,5,0,0,1,-5,5h-252a5,5,0,0,1,-5,-5v-12a5,5,0,0,1,5,-5z" stroke-width="3"></path><g id="node_text18" fill="black"><text id="kity_text_181" text-rendering="inherit" font-size="12" dy=".8em" y="412.7000048533082" x="771.4999953433871">人工智能时代，更应坚守人类的价值观和伦理</text></g></g><g id="minder_node21"><g id="node_expander19" style="cursor: pointer;"><path id="kity_path_404" fill="white" stroke="gray" d="M761.4999951049685,472.5000056549907A6,6,0,1,1,749.4999951049685,472.5000056549907A6,6,0,1,1,761.4999951049685,472.5000056549907"></path><path id="kity_path_405" fill="none" stroke="gray" d="M750.9999951049685,472.5000056549907L759.9999951049685,472.5000056549907"></path></g><path id="node_outline20" fill="none" stroke="none" d="M766.4999953433871,461.5000056549907h167a5,5,0,0,1,5,5v12a5,5,0,0,1,-5,5h-167a5,5,0,0,1,-5,-5v-12a5,5,0,0,1,5,-5z" stroke-width="3"></path><g id="node_text20" fill="black"><text id="kity_text_185" text-rendering="inherit" font-size="12" dy=".8em" y="464.7000056281686" x="771.4999953433871">大数据，取之于民，用之于民</text></g></g><g id="minder_node22"><g id="node_expander18" style="cursor: pointer;" display="none"><path id="kity_path_401" fill="white" stroke="gray" d="M801.499995701015,524.500006429851A6,6,0,1,1,789.499995701015,524.500006429851A6,6,0,1,1,801.499995701015,524.500006429851"></path><path id="kity_path_402" fill="none" stroke="gray"></path></g><path id="node_outline19" fill="none" stroke="none" d="M806.4999959394336,513.500006429851h156a5,5,0,0,1,5,5v12a5,5,0,0,1,-5,5h-156a5,5,0,0,1,-5,-5v-12a5,5,0,0,1,5,-5z" stroke-width="3"></path><g id="node_text19" fill="black"><text id="kity_text_183" text-rendering="inherit" font-size="12" dy=".8em" y="516.700006403029" x="811.4999959394336">例子：分享我们的医疗数据</text></g></g><g id="minder_node23"><g id="node_expander23" style="cursor: pointer;"><path id="kity_path_416" fill="white" stroke="gray" d="M721.4999945089221,576.5000072047114A6,6,0,1,1,709.4999945089221,576.5000072047114A6,6,0,1,1,721.4999945089221,576.5000072047114"></path><path id="kity_path_417" fill="none" stroke="gray" d="M710.9999945089221,576.5000072047114L719.9999945089221,576.5000072047114"></path></g><path id="node_outline24" fill="#f2dbdb" stroke="none" d="M726.4999947473407,565.5000072047114h132a5,5,0,0,1,5,5v12a5,5,0,0,1,-5,5h-132a5,5,0,0,1,-5,-5v-12a5,5,0,0,1,5,-5z" stroke-width="3"></path><g id="node_text24" fill="black"><text id="kity_text_193" text-rendering="inherit" font-size="12" dy=".8em" y="568.7000071778893" x="731.4999947473407">个人信息泡与交互设计</text></g></g><g id="minder_node24"><g id="node_expander21" style="cursor: pointer;" display="none"><path id="kity_path_410" fill="white" stroke="gray" d="M761.4999951049685,628.5000079795718A6,6,0,1,1,749.4999951049685,628.5000079795718A6,6,0,1,1,761.4999951049685,628.5000079795718"></path><path id="kity_path_411" fill="none" stroke="gray"></path></g><path id="node_outline22" fill="none" stroke="none" d="M766.4999953433871,617.5000079795718h286a5,5,0,0,1,5,5v12a5,5,0,0,1,-5,5h-286a5,5,0,0,1,-5,-5v-12a5,5,0,0,1,5,-5z" stroke-width="3"></path><g id="node_text22" fill="black"><text id="kity_text_189" text-rendering="inherit" font-size="12" dy=".8em" y="620.7000079527497" x="771.4999953433871">警惕“过滤气泡（Filter Bubble）”，突破信息限制</text></g></g><g id="minder_node25"><g id="node_expander22" style="cursor: pointer;" display="none"><path id="kity_path_413" fill="white" stroke="gray" d="M761.4999951049685,680.5000087544322A6,6,0,1,1,749.4999951049685,680.5000087544322A6,6,0,1,1,761.4999951049685,680.5000087544322"></path><path id="kity_path_414" fill="none" stroke="gray"></path></g><path id="node_outline23" fill="none" stroke="none" d="M766.4999953433871,669.5000087544322h107a5,5,0,0,1,5,5v12a5,5,0,0,1,-5,5h-107a5,5,0,0,1,-5,-5v-12a5,5,0,0,1,5,-5z" stroke-width="3"></path><g id="node_text23" fill="black"><text id="kity_text_191" text-rendering="inherit" font-size="12" dy=".8em" y="672.7000087276101" x="771.4999953433871">让数据“人性化”</text></g></g><g id="minder_node26"><g id="node_expander26" style="cursor: pointer;"><path id="kity_path_425" fill="white" stroke="gray" d="M721.4999945089221,732.5000095292926A6,6,0,1,1,709.4999945089221,732.5000095292926A6,6,0,1,1,721.4999945089221,732.5000095292926"></path><path id="kity_path_426" fill="none" stroke="gray" d="M710.9999945089221,732.5000095292926L719.9999945089221,732.5000095292926"></path></g><path id="node_outline27" fill="#f2dbdb" stroke="none" d="M726.4999947473407,721.5000095292926h132a5,5,0,0,1,5,5v12a5,5,0,0,1,-5,5h-132a5,5,0,0,1,-5,-5v-12a5,5,0,0,1,5,-5z" stroke-width="3"></path><g id="node_text27" fill="black"><text id="kity_text_199" text-rendering="inherit" font-size="12" dy=".8em" y="724.7000095024705" x="731.4999947473407">全球发展与信息可视化</text></g></g><g id="minder_node27"><g id="node_expander24" style="cursor: pointer;"><path id="kity_path_419" fill="white" stroke="gray" d="M761.4999951049685,784.500010304153A6,6,0,1,1,749.4999951049685,784.500010304153A6,6,0,1,1,761.4999951049685,784.500010304153"></path><path id="kity_path_420" fill="none" stroke="gray" d="M750.9999951049685,784.500010304153L759.9999951049685,784.500010304153"></path></g><path id="node_outline25" fill="none" stroke="none" d="M766.4999953433871,773.500010304153h156a5,5,0,0,1,5,5v12a5,5,0,0,1,-5,5h-156a5,5,0,0,1,-5,-5v-12a5,5,0,0,1,5,-5z" stroke-width="3"></path><g id="node_text25" fill="black"><text id="kity_text_195" text-rendering="inherit" font-size="12" dy=".8em" y="776.7000102773309" x="771.4999953433871">通过信息可视化看全球发展</text></g></g><g id="minder_node28"><g id="node_expander25" style="cursor: pointer;"><path id="kity_path_422" fill="white" stroke="gray" d="M761.4999951049685,888.5000118538737A6,6,0,1,1,749.4999951049685,888.5000118538737A6,6,0,1,1,761.4999951049685,888.5000118538737"></path><path id="kity_path_423" fill="none" stroke="gray" d="M750.9999951049685,888.5000118538737L759.9999951049685,888.5000118538737"></path></g><path id="node_outline26" fill="none" stroke="none" d="M766.4999953433871,877.5000118538737h167a5,5,0,0,1,5,5v12a5,5,0,0,1,-5,5h-167a5,5,0,0,1,-5,-5v-12a5,5,0,0,1,5,-5z" stroke-width="3"></path><g id="node_text26" fill="black"><text id="kity_text_197" text-rendering="inherit" font-size="12" dy=".8em" y="880.7000118270516" x="771.4999953433871">收入如何影响人们的生活方式</text></g></g><g id="minder_node29"><g id="node_expander42" style="cursor: pointer;"><path id="kity_path_473" fill="white" stroke="gray" d="M1754.5000099018216,127.50000051409006A6,6,0,1,1,1742.5000099018216,127.50000051409006A6,6,0,1,1,1754.5000099018216,127.50000051409006"></path><path id="kity_path_474" fill="none" stroke="gray" d="M1744.0000099018216,127.50000051409006L1753.0000099018216,127.50000051409006"></path></g><path id="node_outline43" fill="rgb(246, 238, 238)" stroke="rgb(191, 115, 115)" d="M1676.5000094547868,134.50000085681677h144a3,3,0,0,1,3,3v26a3,3,0,0,1,-3,3h-144a3,3,0,0,1,-3,-3v-26a3,3,0,0,1,3,-3z" stroke-width="1"></path><g id="node_text43" fill="black"><text id="kity_text_231" text-rendering="inherit" font-size="14" dy=".8em" y="141.40000082552433" x="1718.5000094547868">互联网与编程</text></g><g id="node_priority3"><path id="kity_path_279" fill="#006300" stroke="none" d="M1694.0000090897083,154.00000071525574c0,3.866,3.134,7,7,7h6c3.866,0,7,-3.134,7,-7V148.00000071525574H1694.0000090897083V154.00000071525574z"></path><path id="kity_path_280" fill="#00AF00" stroke="none" d="M1714.0000090897083,151.00000071525574c0,3.866,-3.134,7,-7,7H1701.0000090897083c-3.866,0,-7,-3.134,-7,-7V148.00000071525574c0,-3.866,3.134,-7,7,-7h6c3.866,0,7,3.134,7,7V151.00000071525574z" opacity="0.8"></path><text id="kity_text_281" text-rendering="geometricPrecision" x="1703.0000090822577" y="150.50000070780516" text-anchor="middle" font-style="italic" font-size="12" fill="white" dy="5">3</text></g></g><g id="minder_node30"><g id="node_expander32" style="cursor: pointer;"><path id="kity_path_443" fill="white" stroke="gray" d="M1713.500009290874,212.50000178068876A6,6,0,1,1,1701.500009290874,212.50000178068876A6,6,0,1,1,1713.500009290874,212.50000178068876"></path><path id="kity_path_444" fill="none" stroke="gray" d="M1703.000009290874,212.50000178068876L1712.000009290874,212.50000178068876"></path></g><path id="node_outline33" fill="#f2dbdb" stroke="none" d="M1718.5000095292926,201.50000178068876h71a5,5,0,0,1,5,5v12a5,5,0,0,1,-5,5h-71a5,5,0,0,1,-5,-5v-12a5,5,0,0,1,5,-5z" stroke-width="3"></path><g id="node_text33" fill="black"><text id="kity_text_211" text-rendering="inherit" font-size="12" dy=".8em" y="204.70000175386667" x="1723.5000095292926">平台与开放</text></g></g><g id="minder_node31"><g id="node_expander28" style="cursor: pointer;" display="none"><path id="kity_path_431" fill="white" stroke="gray" d="M1753.5000098869205,264.50000255554914A6,6,0,1,1,1741.5000098869205,264.50000255554914A6,6,0,1,1,1753.5000098869205,264.50000255554914"></path><path id="kity_path_432" fill="none" stroke="gray"></path></g><path id="node_outline29" fill="none" stroke="none" d="M1758.500010125339,253.50000255554914h166a5,5,0,0,1,5,5v12a5,5,0,0,1,-5,5h-166a5,5,0,0,1,-5,-5v-12a5,5,0,0,1,5,-5z" stroke-width="3"></path><g id="node_text29" fill="black"><text id="kity_text_203" text-rendering="inherit" font-size="12" dy=".8em" y="256.70000252872705" x="1763.500010125339">互联网存在随机的善良的行为</text></g></g><g id="minder_node32"><g id="node_expander29" style="cursor: pointer;" display="none"><path id="kity_path_434" fill="white" stroke="gray" d="M1753.5000098869205,316.5000033304095A6,6,0,1,1,1741.5000098869205,316.5000033304095A6,6,0,1,1,1753.5000098869205,316.5000033304095"></path><path id="kity_path_435" fill="none" stroke="gray"></path></g><path id="node_outline30" fill="none" stroke="none" d="M1758.500010125339,305.5000033304095h179a5,5,0,0,1,5,5v12a5,5,0,0,1,-5,5h-179a5,5,0,0,1,-5,-5v-12a5,5,0,0,1,5,-5z" stroke-width="3"></path><g id="node_text30" fill="black"><text id="kity_text_205" text-rendering="inherit" font-size="12" dy=".8em" y="308.70000330358744" x="1763.500010125339">互联网是互联网企业谋利的工具</text></g></g><g id="minder_node33"><g id="node_expander30" style="cursor: pointer;" display="none"><path id="kity_path_437" fill="white" stroke="gray" d="M1753.5000098869205,368.5000041052699A6,6,0,1,1,1741.5000098869205,368.5000041052699A6,6,0,1,1,1753.5000098869205,368.5000041052699"></path><path id="kity_path_438" fill="none" stroke="gray"></path></g><path id="node_outline31" fill="none" stroke="none" d="M1758.500010125339,357.5000041052699h119a5,5,0,0,1,5,5v12a5,5,0,0,1,-5,5h-119a5,5,0,0,1,-5,-5v-12a5,5,0,0,1,5,-5z" stroke-width="3"></path><g id="node_text31" fill="black"><text id="kity_text_207" text-rendering="inherit" font-size="12" dy=".8em" y="360.7000040784478" x="1763.500010125339">互联网是民权的工具</text></g></g><g id="minder_node34"><g id="node_expander31" style="cursor: pointer;" display="none"><path id="kity_path_440" fill="white" stroke="gray" d="M1753.5000098869205,420.5000048801303A6,6,0,1,1,1741.5000098869205,420.5000048801303A6,6,0,1,1,1753.5000098869205,420.5000048801303"></path><path id="kity_path_441" fill="none" stroke="gray"></path></g><path id="node_outline32" fill="none" stroke="none" d="M1758.500010125339,409.5000048801303h346a5,5,0,0,1,5,5v12a5,5,0,0,1,-5,5h-346a5,5,0,0,1,-5,-5v-12a5,5,0,0,1,5,-5z" stroke-width="3"></path><g id="node_text32" fill="black"><text id="kity_text_209" text-rendering="inherit" font-size="12" dy=".8em" y="412.7000048533082" x="1763.500010125339">互联网的本质是什么？自由与开放（需要建立在善良的引导下）</text></g></g><g id="minder_node35"><g id="node_expander39" style="cursor: pointer;"><path id="kity_path_464" fill="white" stroke="gray" d="M1713.500009290874,472.5000056549907A6,6,0,1,1,1701.500009290874,472.5000056549907A6,6,0,1,1,1713.500009290874,472.5000056549907"></path><path id="kity_path_465" fill="none" stroke="gray" d="M1703.000009290874,472.5000056549907L1712.000009290874,472.5000056549907"></path></g><path id="node_outline40" fill="#f2dbdb" stroke="none" d="M1718.5000095292926,461.5000056549907h84a5,5,0,0,1,5,5v12a5,5,0,0,1,-5,5h-84a5,5,0,0,1,-5,-5v-12a5,5,0,0,1,5,-5z" stroke-width="3"></path><g id="node_text40" fill="black"><text id="kity_text_225" text-rendering="inherit" font-size="12" dy=".8em" y="464.7000056281686" x="1723.5000095292926">编程改变世界</text></g></g><g id="minder_node36"><g id="node_expander35" style="cursor: pointer;"><path id="kity_path_452" fill="white" stroke="gray" d="M1753.5000098869205,524.500006429851A6,6,0,1,1,1741.5000098869205,524.500006429851A6,6,0,1,1,1753.5000098869205,524.500006429851"></path><path id="kity_path_453" fill="none" stroke="gray" d="M1743.0000098869205,524.500006429851L1752.0000098869205,524.500006429851"></path></g><path id="node_outline36" fill="none" stroke="none" d="M1758.500010125339,513.500006429851h125a5,5,0,0,1,5,5v12a5,5,0,0,1,-5,5h-125a5,5,0,0,1,-5,-5v-12a5,5,0,0,1,5,-5z" stroke-width="3"></path><g id="node_text36" fill="black"><text id="kity_text_217" text-rendering="inherit" font-size="12" dy=".8em" y="516.700006403029" x="1763.500010125339">代码: 下一个通用语言</text></g></g><g id="minder_node37"><g id="node_expander33" style="cursor: pointer;" display="none"><path id="kity_path_446" fill="white" stroke="gray" d="M1793.500010482967,576.5000072047114A6,6,0,1,1,1781.500010482967,576.5000072047114A6,6,0,1,1,1793.500010482967,576.5000072047114"></path><path id="kity_path_447" fill="none" stroke="gray"></path></g><path id="node_outline34" fill="none" stroke="none" d="M1798.5000107213855,565.5000072047114h143a5,5,0,0,1,5,5v12a5,5,0,0,1,-5,5h-143a5,5,0,0,1,-5,-5v-12a5,5,0,0,1,5,-5z" stroke-width="3"></path><g id="node_text34" fill="black"><text id="kity_text_213" text-rendering="inherit" font-size="12" dy=".8em" y="568.7000071778893" x="1803.5000107213855">让孩子成为下一代创造者</text></g></g><g id="minder_node38"><g id="node_expander34" style="cursor: pointer;" display="none"><path id="kity_path_449" fill="white" stroke="gray" d="M1793.500010482967,628.5000079795718A6,6,0,1,1,1781.500010482967,628.5000079795718A6,6,0,1,1,1793.500010482967,628.5000079795718"></path><path id="kity_path_450" fill="none" stroke="gray"></path></g><path id="node_outline35" fill="none" stroke="none" d="M1798.5000107213855,617.5000079795718h132a5,5,0,0,1,5,5v12a5,5,0,0,1,-5,5h-132a5,5,0,0,1,-5,-5v-12a5,5,0,0,1,5,-5z" stroke-width="3"></path><g id="node_text35" fill="black"><text id="kity_text_215" text-rendering="inherit" font-size="12" dy=".8em" y="620.7000079527497" x="1803.5000107213855">女孩要勇敢而不必完美</text></g></g><g id="minder_node39"><g id="node_expander38" style="cursor: pointer;"><path id="kity_path_461" fill="white" stroke="gray" d="M1753.5000098869205,680.5000087544322A6,6,0,1,1,1741.5000098869205,680.5000087544322A6,6,0,1,1,1753.5000098869205,680.5000087544322"></path><path id="kity_path_462" fill="none" stroke="gray" d="M1743.0000098869205,680.5000087544322L1752.0000098869205,680.5000087544322"></path></g><path id="node_outline39" fill="none" stroke="none" d="M1758.500010125339,669.5000087544322h227a5,5,0,0,1,5,5v12a5,5,0,0,1,-5,5h-227a5,5,0,0,1,-5,-5v-12a5,5,0,0,1,5,-5z" stroke-width="3"></path><g id="node_text39" fill="black"><text id="kity_text_223" text-rendering="inherit" font-size="12" dy=".8em" y="672.7000087276101" x="1763.500010125339">黑客编程一直是健康民主的重要组成部分</text></g></g><g id="minder_node40"><g id="node_expander36" style="cursor: pointer;" display="none"><path id="kity_path_455" fill="white" stroke="gray" d="M1793.500010482967,732.5000095292926A6,6,0,1,1,1781.500010482967,732.5000095292926A6,6,0,1,1,1793.500010482967,732.5000095292926"></path><path id="kity_path_456" fill="none" stroke="gray"></path></g><path id="node_outline37" fill="none" stroke="none" d="M1798.5000107213855,721.5000095292926h281a5,5,0,0,1,5,5v12a5,5,0,0,1,-5,5h-281a5,5,0,0,1,-5,-5v-12a5,5,0,0,1,5,-5z" stroke-width="3"></path><g id="node_text37" fill="black"><text id="kity_text_219" text-rendering="inherit" font-size="12" dy=".8em" y="724.7000095024705" x="1803.5000107213855">成为公民黑客（Civic Hacking）共同推动社会发展</text></g></g><g id="minder_node41"><g id="node_expander37" style="cursor: pointer;" display="none"><path id="kity_path_458" fill="white" stroke="gray" d="M1793.500010482967,784.500010304153A6,6,0,1,1,1781.500010482967,784.500010304153A6,6,0,1,1,1793.500010482967,784.500010304153"></path><path id="kity_path_459" fill="none" stroke="gray"></path></g><path id="node_outline38" fill="none" stroke="none" d="M1798.5000107213855,773.500010304153h178a5,5,0,0,1,5,5v12a5,5,0,0,1,-5,5h-178a5,5,0,0,1,-5,-5v-12a5,5,0,0,1,5,-5z" stroke-width="3"></path><g id="node_text38" fill="black"><text id="kity_text_221" text-rendering="inherit" font-size="12" dy=".8em" y="776.7000102773309" x="1803.5000107213855">用编程“编写”一个更好的政府</text></g></g><g id="minder_node42"><g id="node_expander41" style="cursor: pointer;"><path id="kity_path_470" fill="white" stroke="gray" d="M1713.500009290874,836.5000110790133A6,6,0,1,1,1701.500009290874,836.5000110790133A6,6,0,1,1,1713.500009290874,836.5000110790133"></path><path id="kity_path_471" fill="none" stroke="gray" d="M1703.000009290874,836.5000110790133L1712.000009290874,836.5000110790133"></path></g><path id="node_outline42" fill="#f2dbdb" stroke="none" d="M1718.5000095292926,825.5000110790133h84a5,5,0,0,1,5,5v12a5,5,0,0,1,-5,5h-84a5,5,0,0,1,-5,-5v-12a5,5,0,0,1,5,-5z" stroke-width="3"></path><g id="node_text42" fill="black"><text id="kity_text_229" text-rendering="inherit" font-size="12" dy=".8em" y="828.7000110521913" x="1723.5000095292926">超连结与社会</text></g></g><g id="minder_node43"><g id="node_expander40" style="cursor: pointer;" display="none"><path id="kity_path_467" fill="white" stroke="gray" d="M1753.5000098869205,888.5000118538737A6,6,0,1,1,1741.5000098869205,888.5000118538737A6,6,0,1,1,1753.5000098869205,888.5000118538737"></path><path id="kity_path_468" fill="none" stroke="gray"></path></g><path id="node_outline41" fill="none" stroke="none" d="M1758.500010125339,877.5000118538737h96a5,5,0,0,1,5,5v12a5,5,0,0,1,-5,5h-96a5,5,0,0,1,-5,-5v-12a5,5,0,0,1,5,-5z" stroke-width="3"></path><g id="node_text41" fill="black"><text id="kity_text_227" text-rendering="inherit" font-size="12" dy=".8em" y="880.7000118270516" x="1763.500010125339">超链接改变社会</text></g></g><g id="minder_node44"><g id="node_expander59" style="cursor: pointer;"><path id="kity_path_524" fill="white" stroke="gray" d="M2202.0000165700912,127.50000051409006A6,6,0,1,1,2190.0000165700912,127.50000051409006A6,6,0,1,1,2202.0000165700912,127.50000051409006"></path><path id="kity_path_525" fill="none" stroke="gray" d="M2191.5000165700912,127.50000051409006L2200.5000165700912,127.50000051409006"></path></g><path id="node_outline60" fill="rgb(246, 238, 238)" stroke="rgb(191, 115, 115)" d="M2152.5000165477395,134.50000085681677h87a3,3,0,0,1,3,3v26a3,3,0,0,1,-3,3h-87a3,3,0,0,1,-3,-3v-26a3,3,0,0,1,3,-3z" stroke-width="1"></path><g id="node_text60" fill="black"><text id="kity_text_265" text-rendering="inherit" font-size="14" dy=".8em" y="141.40000082552433" x="2194.5000165477395">设计</text></g><g id="node_priority4"><path id="kity_path_284" fill="#B25000" stroke="none" d="M2170.000016182661,154.00000071525574c0,3.866,3.134,7,7,7h6c3.866,0,7,-3.134,7,-7V148.00000071525574H2170.000016182661V154.00000071525574z"></path><path id="kity_path_285" fill="#FF962E" stroke="none" d="M2190.000016182661,151.00000071525574c0,3.866,-3.134,7,-7,7H2177.000016182661c-3.866,0,-7,-3.134,-7,-7V148.00000071525574c0,-3.866,3.134,-7,7,-7h6c3.866,0,7,3.134,7,7V151.00000071525574z" opacity="0.8"></path><text id="kity_text_286" text-rendering="geometricPrecision" x="2179.0000161752105" y="150.50000070780516" text-anchor="middle" font-style="italic" font-size="12" fill="white" dy="5">4</text></g></g><g id="minder_node45"><g id="node_expander49" style="cursor: pointer;"><path id="kity_path_494" fill="white" stroke="gray" d="M2189.5000163838267,212.50000178068876A6,6,0,1,1,2177.5000163838267,212.50000178068876A6,6,0,1,1,2189.5000163838267,212.50000178068876"></path><path id="kity_path_495" fill="none" stroke="gray" d="M2179.0000163838267,212.50000178068876L2188.0000163838267,212.50000178068876"></path></g><path id="node_outline50" fill="#f2dbdb" stroke="none" d="M2194.5000166222453,201.50000178068876h71a5,5,0,0,1,5,5v12a5,5,0,0,1,-5,5h-71a5,5,0,0,1,-5,-5v-12a5,5,0,0,1,5,-5z" stroke-width="3"></path><g id="node_text50" fill="black"><text id="kity_text_245" text-rendering="inherit" font-size="12" dy=".8em" y="204.70000175386667" x="2199.5000166222453">幽默与设计</text></g></g><g id="minder_node46"><g id="node_expander44" style="cursor: pointer;"><path id="kity_path_479" fill="white" stroke="gray" d="M2229.500016979873,264.50000255554914A6,6,0,1,1,2217.500016979873,264.50000255554914A6,6,0,1,1,2229.500016979873,264.50000255554914"></path><path id="kity_path_480" fill="none" stroke="gray" d="M2219.000016979873,264.50000255554914L2228.000016979873,264.50000255554914"></path></g><path id="node_outline45" fill="none" stroke="none" d="M2234.5000172182918,253.50000255554914h94a5,5,0,0,1,5,5v12a5,5,0,0,1,-5,5h-94a5,5,0,0,1,-5,-5v-12a5,5,0,0,1,5,-5z" stroke-width="3"></path><g id="node_text45" fill="black"><text id="kity_text_235" text-rendering="inherit" font-size="12" dy=".8em" y="256.70000252872705" x="2239.5000172182918">以幽默改变规则</text></g></g><g id="minder_node47"><g id="node_expander43" style="cursor: pointer;" display="none"><path id="kity_path_476" fill="white" stroke="gray" d="M2269.5000175759196,316.5000033304095A6,6,0,1,1,2257.5000175759196,316.5000033304095A6,6,0,1,1,2269.5000175759196,316.5000033304095"></path><path id="kity_path_477" fill="none" stroke="gray"></path></g><path id="node_outline44" fill="none" stroke="none" d="M2274.500017814338,305.5000033304095h496a5,5,0,0,1,5,5v12a5,5,0,0,1,-5,5h-496a5,5,0,0,1,-5,-5v-12a5,5,0,0,1,5,-5z" stroke-width="3"></path><g id="node_text44" fill="black"><text id="kity_text_233" text-rendering="inherit" font-size="12" dy=".8em" y="308.70000330358744" x="2279.500017814338">例子：Liza Donnelly的幽默漫画引导着读者们思考当今社会女性的规则，尝试推动规则改变</text></g></g><g id="minder_node48"><g id="node_expander46" style="cursor: pointer;"><path id="kity_path_485" fill="white" stroke="gray" d="M2229.500016979873,368.5000041052699A6,6,0,1,1,2217.500016979873,368.5000041052699A6,6,0,1,1,2229.500016979873,368.5000041052699"></path><path id="kity_path_486" fill="none" stroke="gray" d="M2219.000016979873,368.5000041052699L2228.000016979873,368.5000041052699"></path></g><path id="node_outline47" fill="none" stroke="none" d="M2234.5000172182918,357.5000041052699h95a5,5,0,0,1,5,5v12a5,5,0,0,1,-5,5h-95a5,5,0,0,1,-5,-5v-12a5,5,0,0,1,5,-5z" stroke-width="3"></path><g id="node_text47" fill="black"><text id="kity_text_239" text-rendering="inherit" font-size="12" dy=".8em" y="360.7000040784478" x="2239.5000172182918">以幽默传播文化</text></g></g><g id="minder_node49"><g id="node_expander45" style="cursor: pointer;" display="none"><path id="kity_path_482" fill="white" stroke="gray" d="M2269.5000175759196,420.5000048801303A6,6,0,1,1,2257.5000175759196,420.5000048801303A6,6,0,1,1,2269.5000175759196,420.5000048801303"></path><path id="kity_path_483" fill="none" stroke="gray"></path></g><path id="node_outline46" fill="none" stroke="none" d="M2274.500017814338,409.5000048801303h475a5,5,0,0,1,5,5v12a5,5,0,0,1,-5,5h-475a5,5,0,0,1,-5,-5v-12a5,5,0,0,1,5,-5z" stroke-width="3"></path><g id="node_text46" fill="black"><text id="kity_text_237" text-rendering="inherit" font-size="12" dy=".8em" y="412.7000048533082" x="2279.500017814338">例子：Randall Munroe以幽默的语言文字，让枯燥无味的知识科普变的有趣而利于传播</text></g></g><g id="minder_node50"><g id="node_expander48" style="cursor: pointer;"><path id="kity_path_491" fill="white" stroke="gray" d="M2229.500016979873,472.5000056549907A6,6,0,1,1,2217.500016979873,472.5000056549907A6,6,0,1,1,2229.500016979873,472.5000056549907"></path><path id="kity_path_492" fill="none" stroke="gray" d="M2219.000016979873,472.5000056549907L2228.000016979873,472.5000056549907"></path></g><path id="node_outline49" fill="none" stroke="none" d="M2234.5000172182918,461.5000056549907h95a5,5,0,0,1,5,5v12a5,5,0,0,1,-5,5h-95a5,5,0,0,1,-5,-5v-12a5,5,0,0,1,5,-5z" stroke-width="3"></path><g id="node_text49" fill="black"><text id="kity_text_243" text-rendering="inherit" font-size="12" dy=".8em" y="464.7000056281686" x="2239.5000172182918">以幽默消除歧视</text></g></g><g id="minder_node51"><g id="node_expander47" style="cursor: pointer;" display="none"><path id="kity_path_488" fill="white" stroke="gray" d="M2269.5000175759196,524.500006429851A6,6,0,1,1,2257.5000175759196,524.500006429851A6,6,0,1,1,2269.5000175759196,524.500006429851"></path><path id="kity_path_489" fill="none" stroke="gray"></path></g><path id="node_outline48" fill="none" stroke="none" d="M2274.500017814338,513.500006429851h537a5,5,0,0,1,5,5v12a5,5,0,0,1,-5,5h-537a5,5,0,0,1,-5,-5v-12a5,5,0,0,1,5,-5z" stroke-width="3"></path><g id="node_text48" fill="black"><text id="kity_text_241" text-rendering="inherit" font-size="12" dy=".8em" y="516.700006403029" x="2279.500017814338">例子：Ruby Wax以幽默的方式让人们了解精神疾病，同时不断削减着人们对精神疾病的误解与歧视</text></g></g><g id="minder_node52"><g id="node_expander58" style="cursor: pointer;"><path id="kity_path_521" fill="white" stroke="gray" d="M2189.5000163838267,576.5000072047114A6,6,0,1,1,2177.5000163838267,576.5000072047114A6,6,0,1,1,2189.5000163838267,576.5000072047114"></path><path id="kity_path_522" fill="none" stroke="gray" d="M2179.0000163838267,576.5000072047114L2188.0000163838267,576.5000072047114"></path></g><path id="node_outline59" fill="#f2dbdb" stroke="none" d="M2194.5000166222453,565.5000072047114h72a5,5,0,0,1,5,5v12a5,5,0,0,1,-5,5h-72a5,5,0,0,1,-5,-5v-12a5,5,0,0,1,5,-5z" stroke-width="3"></path><g id="node_text59" fill="black"><text id="kity_text_263" text-rendering="inherit" font-size="12" dy=".8em" y="568.7000071778893" x="2199.5000166222453">情感化设计</text></g></g><g id="minder_node53"><g id="node_expander53" style="cursor: pointer;"><path id="kity_path_506" fill="white" stroke="gray" d="M2229.500016979873,628.5000079795718A6,6,0,1,1,2217.500016979873,628.5000079795718A6,6,0,1,1,2229.500016979873,628.5000079795718"></path><path id="kity_path_507" fill="none" stroke="gray" d="M2219.000016979873,628.5000079795718L2228.000016979873,628.5000079795718"></path></g><path id="node_outline54" fill="none" stroke="none" d="M2234.5000172182918,617.5000079795718h127a5,5,0,0,1,5,5v12a5,5,0,0,1,-5,5h-127a5,5,0,0,1,-5,-5v-12a5,5,0,0,1,5,-5z" stroke-width="3"></path><g id="node_text54" fill="black"><text id="kity_text_253" text-rendering="inherit" font-size="12" dy=".8em" y="620.7000079527497" x="2239.5000172182918">积极心理学的3个目标</text></g></g><g id="minder_node54"><g id="node_expander50" style="cursor: pointer;" display="none"><path id="kity_path_497" fill="white" stroke="gray" d="M2269.5000175759196,680.5000087544322A6,6,0,1,1,2257.5000175759196,680.5000087544322A6,6,0,1,1,2269.5000175759196,680.5000087544322"></path><path id="kity_path_498" fill="none" stroke="gray"></path></g><path id="node_outline51" fill="none" stroke="none" d="M2274.500017814338,669.5000087544322h264a5,5,0,0,1,5,5v12a5,5,0,0,1,-5,5h-264a5,5,0,0,1,-5,-5v-12a5,5,0,0,1,5,-5z" stroke-width="3"></path><g id="node_text51" fill="black"><text id="kity_text_247" text-rendering="inherit" font-size="12" dy=".8em" y="672.7000087276101" x="2279.500017814338">心理学不仅要关注人的弱点，还要关注人的优势</text></g></g><g id="minder_node55"><g id="node_expander51" style="cursor: pointer;" display="none"><path id="kity_path_500" fill="white" stroke="gray" d="M2269.5000175759196,732.5000095292926A6,6,0,1,1,2257.5000175759196,732.5000095292926A6,6,0,1,1,2269.5000175759196,732.5000095292926"></path><path id="kity_path_501" fill="none" stroke="gray"></path></g><path id="node_outline52" fill="none" stroke="none" d="M2274.500017814338,721.5000095292926h467a5,5,0,0,1,5,5v12a5,5,0,0,1,-5,5h-467a5,5,0,0,1,-5,-5v-12a5,5,0,0,1,5,-5z" stroke-width="3"></path><g id="node_text52" fill="black"><text id="kity_text_249" text-rendering="inherit" font-size="12" dy=".8em" y="724.7000095024705" x="2279.500017814338">不仅要致力于修复心理损伤，还要致力于给人力量，让其对生活中美好的东西感兴趣。</text></g></g><g id="minder_node56"><g id="node_expander52" style="cursor: pointer;" display="none"><path id="kity_path_503" fill="white" stroke="gray" d="M2269.5000175759196,784.500010304153A6,6,0,1,1,2257.5000175759196,784.500010304153A6,6,0,1,1,2269.5000175759196,784.500010304153"></path><path id="kity_path_504" fill="none" stroke="gray"></path></g><path id="node_outline53" fill="none" stroke="none" d="M2274.500017814338,773.500010304153h395a5,5,0,0,1,5,5v12a5,5,0,0,1,-5,5h-395a5,5,0,0,1,-5,-5v-12a5,5,0,0,1,5,-5z" stroke-width="3"></path><g id="node_text53" fill="black"><text id="kity_text_251" text-rendering="inherit" font-size="12" dy=".8em" y="776.7000102773309" x="2279.500017814338">应该在关注病人的同时，努力让正常人以及“天才”们的生活更加美好。</text></g></g><g id="minder_node57"><g id="node_expander57" style="cursor: pointer;"><path id="kity_path_518" fill="white" stroke="gray" d="M2229.500016979873,836.5000110790133A6,6,0,1,1,2217.500016979873,836.5000110790133A6,6,0,1,1,2229.500016979873,836.5000110790133"></path><path id="kity_path_519" fill="none" stroke="gray" d="M2219.000016979873,836.5000110790133L2228.000016979873,836.5000110790133"></path></g><path id="node_outline58" fill="none" stroke="none" d="M2234.5000172182918,825.5000110790133h126a5,5,0,0,1,5,5v12a5,5,0,0,1,-5,5h-126a5,5,0,0,1,-5,-5v-12a5,5,0,0,1,5,-5z" stroke-width="3"></path><g id="node_text58" fill="black"><text id="kity_text_261" text-rendering="inherit" font-size="12" dy=".8em" y="828.7000110521913" x="2239.5000172182918">情感化设计的3个层面</text></g></g><g id="minder_node58"><g id="node_expander54" style="cursor: pointer;" display="none"><path id="kity_path_509" fill="white" stroke="gray" d="M2269.5000175759196,888.5000118538737A6,6,0,1,1,2257.5000175759196,888.5000118538737A6,6,0,1,1,2269.5000175759196,888.5000118538737"></path><path id="kity_path_510" fill="none" stroke="gray"></path></g><path id="node_outline55" fill="none" stroke="none" d="M2274.500017814338,877.5000118538737h59a5,5,0,0,1,5,5v12a5,5,0,0,1,-5,5h-59a5,5,0,0,1,-5,-5v-12a5,5,0,0,1,5,-5z" stroke-width="3"></path><g id="node_text55" fill="black"><text id="kity_text_255" text-rendering="inherit" font-size="12" dy=".8em" y="880.7000118270516" x="2279.500017814338">本能层面</text></g></g><g id="minder_node59"><g id="node_expander55" style="cursor: pointer;" display="none"><path id="kity_path_512" fill="white" stroke="gray" d="M2269.5000175759196,940.5000126287341A6,6,0,1,1,2257.5000175759196,940.5000126287341A6,6,0,1,1,2269.5000175759196,940.5000126287341"></path><path id="kity_path_513" fill="none" stroke="gray"></path></g><path id="node_outline56" fill="none" stroke="none" d="M2274.500017814338,929.5000126287341h59a5,5,0,0,1,5,5v12a5,5,0,0,1,-5,5h-59a5,5,0,0,1,-5,-5v-12a5,5,0,0,1,5,-5z" stroke-width="3"></path><g id="node_text56" fill="black"><text id="kity_text_257" text-rendering="inherit" font-size="12" dy=".8em" y="932.700012601912" x="2279.500017814338">行为层面</text></g></g><g id="minder_node60"><g id="node_expander56" style="cursor: pointer;" display="none"><path id="kity_path_515" fill="white" stroke="gray" d="M2269.5000175759196,992.5000134035945A6,6,0,1,1,2257.5000175759196,992.5000134035945A6,6,0,1,1,2269.5000175759196,992.5000134035945"></path><path id="kity_path_516" fill="none" stroke="gray"></path></g><path id="node_outline57" fill="none" stroke="none" d="M2274.500017814338,981.5000134035945h59a5,5,0,0,1,5,5v12a5,5,0,0,1,-5,5h-59a5,5,0,0,1,-5,-5v-12a5,5,0,0,1,5,-5z" stroke-width="3"></path><g id="node_text57" fill="black"><text id="kity_text_259" text-rendering="inherit" font-size="12" dy=".8em" y="984.7000133767724" x="2279.500017814338">反思层面</text></g></g><g id="minder_node61"><g id="node_expander60" style="cursor: pointer;"><path id="kity_path_532" fill="white" stroke="gray" d="M761.4999951049685,1002.5000135526061A6,6,0,1,1,749.4999951049685,1002.5000135526061A6,6,0,1,1,761.4999951049685,1002.5000135526061"></path><path id="kity_path_533" fill="none" stroke="gray" d="M750.9999951049685,1002.5000135526061L759.9999951049685,1002.5000135526061"></path></g><path id="node_outline61" fill="none" stroke="none" d="M766.4999953433871,991.5000135526061h167a5,5,0,0,1,5,5v12a5,5,0,0,1,-5,5h-167a5,5,0,0,1,-5,-5v-12a5,5,0,0,1,5,-5z" stroke-width="3"></path><g id="node_text61" fill="black"><text id="kity_text_529" text-rendering="inherit" font-size="12" dy=".8em" y="994.700013525784" x="771.4999953433871">开放性数据如何改变国际援助</text></g></g><g id="minder_node62"><g id="node_expander61" style="cursor: pointer;" display="none"><path id="kity_path_540" fill="white" stroke="gray" d="M801.499995701015,836.5000110790133A6,6,0,1,1,789.499995701015,836.5000110790133A6,6,0,1,1,801.499995701015,836.5000110790133"></path><path id="kity_path_541" fill="none" stroke="gray"></path></g><path id="node_outline62" fill="none" stroke="none" d="M806.4999959394336,825.5000110790133h350a5,5,0,0,1,5,5v12a5,5,0,0,1,-5,5h-350a5,5,0,0,1,-5,-5v-12a5,5,0,0,1,5,-5z" stroke-width="3"></path><g id="node_text62" fill="black"><text id="kity_text_537" text-rendering="inherit" font-size="12" dy=".8em" y="828.7000110521913" x="811.4999959394336">例子：汉斯·罗斯林运用信息可视化让人看到了全球发展的故事。</text></g></g><g id="minder_node63"><g id="node_expander62" style="cursor: pointer;" display="none"><path id="kity_path_548" fill="white" stroke="gray" d="M801.499995701015,945.5000127032399A6,6,0,1,1,789.499995701015,945.5000127032399A6,6,0,1,1,801.499995701015,945.5000127032399"></path><path id="kity_path_549" fill="none" stroke="gray"></path></g><path id="node_outline63" fill="none" stroke="none" d="M806.4999959394336,929.5000127032399h534a5,5,0,0,1,5,5v22a5,5,0,0,1,-5,5h-534a5,5,0,0,1,-5,-5v-22a5,5,0,0,1,5,-5z" stroke-width="3"></path><g id="node_text63" fill="black"><text id="kity_text_545" text-rendering="inherit" font-size="12" dy=".8em" y="937.7000126764178" x="811.4999959394336">例子：安娜·罗丝玲·洛恩收集收集各个国家地区人民的生活状况照片，构建DOLLAR STREET。</text></g><a id="kity_a_558" xlink:href="https://www.gapminder.org/dollar-street/matrix" target="_blank" xlink:title="DOLLAR STREET(https://www.gapminder.org/dollar-street/matrix)" style="cursor: pointer;"><path id="kity_path_560" fill="rgba(255, 255, 255, 0)" stroke="none" d="M1315.5000034198165,934.5000126287341h16a4,4,0,0,1,4,4v14a4,4,0,0,1,-4,4h-16a4,4,0,0,1,-4,-4v-14a4,4,0,0,1,4,-4z"></path><path id="kity_path_559" fill="#666" stroke="none" d="M1330.1140034198165,950.7240126287342h-1.278c-1.668,0,-3.07,-1.07,-3.599,-2.556h4.877c0.707,0,1.278,-0.571,1.278,-1.278V944.3340126287341c0,-0.707,-0.571,-1.278,-1.278,-1.278h-4.877C1325.7660034198166,941.5710126287341,1327.1680034198164,940.5000126287341,1328.8360034198165,940.5000126287341h1.278c2.116,0,3.834,1.716,3.834,3.834V946.8900126287341C1333.9480034198166,949.0080126287341,1332.2300034198165,950.7240126287342,1330.1140034198165,950.7240126287342zM1318.6120034198166,945.6120126287341c0,-0.707,0.573,-1.278,1.278,-1.278h7.668c0.707,0,1.278,0.571,1.278,1.278S1328.2650034198166,946.8900126287341,1327.5580034198165,946.8900126287341H1319.8900034198166C1319.1850034198164,946.8900126287341,1318.6120034198166,946.3190126287341,1318.6120034198166,945.6120126287341zM1316.0560034198165,944.3340126287341V946.8900126287341c0,0.707,0.573,1.278,1.278,1.278h4.877c-0.528,1.486,-1.932,2.556,-3.599,2.556H1317.3340034198166C1315.2160034198164,950.7240126287342,1313.5000034198165,949.0080126287341,1313.5000034198165,946.8900126287341V944.3340126287341C1313.5000034198165,942.2160126287341,1315.2160034198164,940.5000126287341,1317.3340034198166,940.5000126287341h1.278c1.667,0,3.071,1.071,3.599,2.556H1317.3340034198166C1316.6290034198164,943.0560126287342,1316.0560034198165,943.6270126287341,1316.0560034198165,944.3340126287341z"></path></a></g><g id="minder_node64"><g id="node_expander63" style="cursor: pointer;" display="none"><path id="kity_path_556" fill="white" stroke="gray" d="M801.499995701015,1054.5000143274665A6,6,0,1,1,789.499995701015,1054.5000143274665A6,6,0,1,1,801.499995701015,1054.5000143274665"></path><path id="kity_path_557" fill="none" stroke="gray"></path></g><path id="node_outline64" fill="none" stroke="none" d="M806.4999959394336,1043.5000143274665h822a5,5,0,0,1,5,5v12a5,5,0,0,1,-5,5h-822a5,5,0,0,1,-5,-5v-12a5,5,0,0,1,5,-5z" stroke-width="3"></path><g id="node_text64" fill="black"><text id="kity_text_553" text-rendering="inherit" font-size="12" dy=".8em" y="1046.7000143006444" x="811.4999959394336">例子：Sanjay Pradhan 谈论开放的知识渠道(OPEN Konwledge)、开放的援助(OPEN Aid)、开放透明的政府(OPEN Governance)是如何改变国际援助的</text></g></g></g></g></svg>