<svg id="kity_svg_6" xmlns="http://www.w3.org/2000/svg" xmlns:xlink="http://www.w3.org/1999/xlink" version="1.1" width="2836" height="1335" style="background: rgb(251, 251, 251); visibility: visible;" viewBox="0 0 2836 1335"><defs id="kity_defs_7"><linearGradient id="kity_linearGradient_17" x1="0" y1="0" x2="0" y2="1"><stop id="kity_stop_18" offset="0" stop-color="rgb(255, 255, 255)"></stop><stop id="kity_stop_19" offset="1" stop-color="rgb(204, 204, 204)"></stop></linearGradient><marker id="kity_marker_2" orient="auto" refX="6" refY="0" viewBox="-7 -7 14 14" markerWidth="7" markerHeight="7" markerUnits="userSpaceOnUse"><path id="kity_path_3" fill="rgb(115, 161, 191)" stroke="none" d="M6,0A6,6,0,1,1,-6,0A6,6,0,1,1,6,0"></path></marker></defs><g id="kity_g_8"><g id="minder1" text-rendering="optimize-speed"><g id="minder_connect_group1"><path id="kity_path_31" fill="none" stroke="rgb(191, 115, 115)" stroke-width="1" d="M1145.49999319762,84.4999894425273v30h-1063.5V134.4999894425273"></path><path id="kity_path_33" fill="none" stroke="rgb(191, 115, 115)" stroke-width="1" d="M40.499993197619915,166.4999894425273V212.4999894425273L60.499993197619915,212.4999894425273"></path><path id="kity_path_35" fill="none" stroke="rgb(191, 115, 115)" stroke-width="1" d="M80.49999319761992,223.4999894425273V264.4999894425273L100.49999319761992,264.4999894425273"></path><path id="kity_path_37" fill="none" stroke="rgb(191, 115, 115)" stroke-width="1" d="M80.49999319761992,223.4999894425273V316.4999894425273L100.49999319761992,316.4999894425273"></path><path id="kity_path_39" fill="none" stroke="rgb(191, 115, 115)" stroke-width="1" d="M40.499993197619915,166.4999894425273V368.4999894425273L60.499993197619915,368.4999894425273"></path><path id="kity_path_41" fill="none" stroke="rgb(191, 115, 115)" stroke-width="1" d="M80.49999319761992,379.4999894425273V420.4999894425273L100.49999319761992,420.4999894425273"></path><path id="kity_path_43" fill="none" stroke="rgb(191, 115, 115)" stroke-width="1" d="M120.49999319761992,431.4999894425273V472.4999894425273L140.49999319761992,472.4999894425273"></path><path id="kity_path_45" fill="none" stroke="rgb(191, 115, 115)" stroke-width="1" d="M80.49999319761992,379.4999894425273V524.4999894425273L100.49999319761992,524.4999894425273"></path><path id="kity_path_47" fill="none" stroke="rgb(191, 115, 115)" stroke-width="1" d="M80.49999319761992,379.4999894425273V576.4999894425273L100.49999319761992,576.4999894425273"></path><path id="kity_path_49" fill="none" stroke="rgb(191, 115, 115)" stroke-width="1" d="M40.499993197619915,166.4999894425273V628.4999894425273L60.499993197619915,628.4999894425273"></path><path id="kity_path_51" fill="none" stroke="rgb(191, 115, 115)" stroke-width="1" d="M80.49999319761992,639.4999894425273V680.4999894425273L100.49999319761992,680.4999894425273"></path><path id="kity_path_53" fill="none" stroke="rgb(191, 115, 115)" stroke-width="1" d="M80.49999319761992,639.4999894425273V732.4999894425273L100.49999319761992,732.4999894425273"></path><path id="kity_path_55" fill="none" stroke="rgb(191, 115, 115)" stroke-width="1" d="M80.49999319761992,639.4999894425273V784.4999894425273L100.49999319761992,784.4999894425273"></path><path id="kity_path_57" fill="none" stroke="rgb(191, 115, 115)" stroke-width="1" d="M1145.49999319762,84.4999894425273v30h-381.5V134.4999894425273"></path><path id="kity_path_59" fill="none" stroke="rgb(191, 115, 115)" stroke-width="1" d="M701.4999931976199,166.4999894425273V212.4999894425273L721.4999931976199,212.4999894425273"></path><path id="kity_path_61" fill="none" stroke="rgb(191, 115, 115)" stroke-width="1" d="M741.4999931976199,223.4999894425273V264.4999894425273L761.4999931976199,264.4999894425273"></path><path id="kity_path_63" fill="none" stroke="rgb(191, 115, 115)" stroke-width="1" d="M741.4999931976199,223.4999894425273V316.4999894425273L761.4999931976199,316.4999894425273"></path><path id="kity_path_65" fill="none" stroke="rgb(191, 115, 115)" stroke-width="1" d="M701.4999931976199,166.4999894425273V368.4999894425273L721.4999931976199,368.4999894425273"></path><path id="kity_path_67" fill="none" stroke="rgb(191, 115, 115)" stroke-width="1" d="M741.4999931976199,379.4999894425273V420.4999894425273L761.4999931976199,420.4999894425273"></path><path id="kity_path_69" fill="none" stroke="rgb(191, 115, 115)" stroke-width="1" d="M741.4999931976199,379.4999894425273V472.4999894425273L761.4999931976199,472.4999894425273"></path><path id="kity_path_71" fill="none" stroke="rgb(191, 115, 115)" stroke-width="1" d="M781.4999931976199,483.4999894425273V524.4999894425273L801.4999931976199,524.4999894425273"></path><path id="kity_path_73" fill="none" stroke="rgb(191, 115, 115)" stroke-width="1" d="M701.4999931976199,166.4999894425273V576.4999894425273L721.4999931976199,576.4999894425273"></path><path id="kity_path_75" fill="none" stroke="rgb(191, 115, 115)" stroke-width="1" d="M741.4999931976199,587.4999894425273V628.4999894425273L761.4999931976199,628.4999894425273"></path><path id="kity_path_77" fill="none" stroke="rgb(191, 115, 115)" stroke-width="1" d="M741.4999931976199,587.4999894425273V680.4999894425273L761.4999931976199,680.4999894425273"></path><path id="kity_path_79" fill="none" stroke="rgb(191, 115, 115)" stroke-width="1" d="M701.4999931976199,166.4999894425273V732.4999894425273L721.4999931976199,732.4999894425273"></path><path id="kity_path_81" fill="none" stroke="rgb(191, 115, 115)" stroke-width="1" d="M741.4999931976199,743.4999894425273V784.4999894425273L761.4999931976199,784.4999894425273"></path><path id="kity_path_83" fill="none" stroke="rgb(191, 115, 115)" stroke-width="1" d="M781.4999931976199,795.4999894425273V836.4999894425273L801.4999931976199,836.4999894425273"></path><path id="kity_path_85" fill="none" stroke="rgb(191, 115, 115)" stroke-width="1" d="M741.4999931976199,743.4999894425273V888.4999894425273L761.4999931976199,888.4999894425273"></path><path id="kity_path_87" fill="none" stroke="rgb(191, 115, 115)" stroke-width="1" d="M781.4999931976199,899.4999894425273V945.4999894425273L801.4999931976199,945.4999894425273"></path><path id="kity_path_89" fill="none" stroke="rgb(191, 115, 115)" stroke-width="1" d="M741.4999931976199,743.4999894425273V1002.4999894425273L761.4999931976199,1002.4999894425273"></path><path id="kity_path_91" fill="none" stroke="rgb(191, 115, 115)" stroke-width="1" d="M781.4999931976199,1013.4999894425273V1054.4999894425273L801.4999931976199,1054.4999894425273"></path><path id="kity_path_93" fill="none" stroke="rgb(191, 115, 115)" stroke-width="1" d="M1145.49999319762,84.4999894425273v30h603.5V134.4999894425273"></path><path id="kity_path_95" fill="none" stroke="rgb(191, 115, 115)" stroke-width="1" d="M1693.49999319762,166.4999894425273V212.4999894425273L1713.49999319762,212.4999894425273"></path><path id="kity_path_97" fill="none" stroke="rgb(191, 115, 115)" stroke-width="1" d="M1733.49999319762,223.4999894425273V264.4999894425273L1753.49999319762,264.4999894425273"></path><path id="kity_path_99" fill="none" stroke="rgb(191, 115, 115)" stroke-width="1" d="M1733.49999319762,223.4999894425273V316.4999894425273L1753.49999319762,316.4999894425273"></path><path id="kity_path_101" fill="none" stroke="rgb(191, 115, 115)" stroke-width="1" d="M1733.49999319762,223.4999894425273V368.4999894425273L1753.49999319762,368.4999894425273"></path><path id="kity_path_103" fill="none" stroke="rgb(191, 115, 115)" stroke-width="1" d="M1733.49999319762,223.4999894425273V420.4999894425273L1753.49999319762,420.4999894425273"></path><path id="kity_path_105" fill="none" stroke="rgb(191, 115, 115)" stroke-width="1" d="M1693.49999319762,166.4999894425273V472.4999894425273L1713.49999319762,472.4999894425273"></path><path id="kity_path_107" fill="none" stroke="rgb(191, 115, 115)" stroke-width="1" d="M1733.49999319762,483.4999894425273V524.4999894425273L1753.49999319762,524.4999894425273"></path><path id="kity_path_109" fill="none" stroke="rgb(191, 115, 115)" stroke-width="1" d="M1773.49999319762,535.4999894425273V576.4999894425273L1793.49999319762,576.4999894425273"></path><path id="kity_path_111" fill="none" stroke="rgb(191, 115, 115)" stroke-width="1" d="M1773.49999319762,535.4999894425273V628.4999894425273L1793.49999319762,628.4999894425273"></path><path id="kity_path_113" fill="none" stroke="rgb(191, 115, 115)" stroke-width="1" d="M1733.49999319762,483.4999894425273V680.4999894425273L1753.49999319762,680.4999894425273"></path><path id="kity_path_115" fill="none" stroke="rgb(191, 115, 115)" stroke-width="1" d="M1773.49999319762,691.4999894425273V732.4999894425273L1793.49999319762,732.4999894425273"></path><path id="kity_path_117" fill="none" stroke="rgb(191, 115, 115)" stroke-width="1" d="M1773.49999319762,691.4999894425273V784.4999894425273L1793.49999319762,784.4999894425273"></path><path id="kity_path_119" fill="none" stroke="rgb(191, 115, 115)" stroke-width="1" d="M1693.49999319762,166.4999894425273V836.4999894425273L1713.49999319762,836.4999894425273"></path><path id="kity_path_121" fill="none" stroke="rgb(191, 115, 115)" stroke-width="1" d="M1733.49999319762,847.4999894425273V888.4999894425273L1753.49999319762,888.4999894425273"></path><path id="kity_path_123" fill="none" stroke="rgb(191, 115, 115)" stroke-width="1" d="M1145.49999319762,84.4999894425273v30h1065V134.4999894425273"></path><path id="kity_path_125" fill="none" stroke="rgb(191, 115, 115)" stroke-width="1" d="M2169.49999319762,166.4999894425273V212.4999894425273L2189.49999319762,212.4999894425273"></path><path id="kity_path_127" fill="none" stroke="rgb(191, 115, 115)" stroke-width="1" d="M2209.49999319762,223.4999894425273V264.4999894425273L2229.49999319762,264.4999894425273"></path><path id="kity_path_129" fill="none" stroke="rgb(191, 115, 115)" stroke-width="1" d="M2249.49999319762,275.4999894425273V316.4999894425273L2269.49999319762,316.4999894425273"></path><path id="kity_path_131" fill="none" stroke="rgb(191, 115, 115)" stroke-width="1" d="M2209.49999319762,223.4999894425273V368.4999894425273L2229.49999319762,368.4999894425273"></path><path id="kity_path_133" fill="none" stroke="rgb(191, 115, 115)" stroke-width="1" d="M2249.49999319762,379.4999894425273V420.4999894425273L2269.49999319762,420.4999894425273"></path><path id="kity_path_135" fill="none" stroke="rgb(191, 115, 115)" stroke-width="1" d="M2209.49999319762,223.4999894425273V472.4999894425273L2229.49999319762,472.4999894425273"></path><path id="kity_path_137" fill="none" stroke="rgb(191, 115, 115)" stroke-width="1" d="M2249.49999319762,483.4999894425273V524.4999894425273L2269.49999319762,524.4999894425273"></path><path id="kity_path_139" fill="none" stroke="rgb(191, 115, 115)" stroke-width="1" d="M2169.49999319762,166.4999894425273V576.4999894425273L2189.49999319762,576.4999894425273"></path><path id="kity_path_141" fill="none" stroke="rgb(191, 115, 115)" stroke-width="1" d="M2209.49999319762,587.4999894425273V628.4999894425273L2229.49999319762,628.4999894425273"></path><path id="kity_path_143" fill="none" stroke="rgb(191, 115, 115)" stroke-width="1" d="M2249.49999319762,639.4999894425273V680.4999894425273L2269.49999319762,680.4999894425273"></path><path id="kity_path_145" fill="none" stroke="rgb(191, 115, 115)" stroke-width="1" d="M2249.49999319762,639.4999894425273V732.4999894425273L2269.49999319762,732.4999894425273"></path><path id="kity_path_147" fill="none" stroke="rgb(191, 115, 115)" stroke-width="1" d="M2249.49999319762,639.4999894425273V784.4999894425273L2269.49999319762,784.4999894425273"></path><path id="kity_path_149" fill="none" stroke="rgb(191, 115, 115)" stroke-width="1" d="M2209.49999319762,587.4999894425273V836.4999894425273L2229.49999319762,836.4999894425273"></path><path id="kity_path_151" fill="none" stroke="rgb(191, 115, 115)" stroke-width="1" d="M2249.49999319762,847.4999894425273V888.4999894425273L2269.49999319762,888.4999894425273"></path><path id="kity_path_153" fill="none" stroke="rgb(191, 115, 115)" stroke-width="1" d="M2249.49999319762,847.4999894425273V940.4999894425273L2269.49999319762,940.4999894425273"></path><path id="kity_path_155" fill="none" stroke="rgb(191, 115, 115)" stroke-width="1" d="M2249.49999319762,847.4999894425273V992.4999894425273L2269.49999319762,992.4999894425273"></path><path id="kity_path_157" fill="none" stroke="rgb(191, 115, 115)" stroke-width="1" d="M2169.49999319762,166.4999894425273V1044.4999894425273L2189.49999319762,1044.4999894425273"></path><path id="kity_path_159" fill="none" stroke="rgb(191, 115, 115)" stroke-width="1" d="M2209.49999319762,1055.4999894425273V1096.4999894425273L2229.49999319762,1096.4999894425273"></path><path id="kity_path_161" fill="none" stroke="rgb(191, 115, 115)" stroke-width="1" d="M2209.49999319762,1055.4999894425273V1148.4999894425273L2229.49999319762,1148.4999894425273"></path><path id="kity_path_586" fill="none" stroke="rgb(191, 115, 115)" stroke-width="1" d="M2249.49999319762,1159.4999894425273V1200.4999894425273L2269.49999319762,1200.4999894425273"></path><path id="kity_path_602" fill="none" stroke="rgb(191, 115, 115)" stroke-width="1" d="M2249.49999319762,1159.4999894425273V1252.4999894425273L2269.49999319762,1252.4999894425273"></path><path id="kity_path_610" fill="none" stroke="rgb(191, 115, 115)" stroke-width="1" d="M2249.49999319762,1159.4999894425273V1304.4999894425273L2269.49999319762,1304.4999894425273"></path></g><g id="minder_node1"><path id="node_outline1" fill="rgb(191, 115, 115)" stroke="rgb(191, 115, 115)" d="M915.4999931976199,20.499989442527294h459a5,5,0,0,1,5,5v54a5,5,0,0,1,-5,5h-459a5,5,0,0,1,-5,-5v-54a5,5,0,0,1,5,-5z" stroke-width="3"></path><g id="node_text1" fill="white"><text id="kity_text_22" text-rendering="inherit" font-size="16" dy=".8em" y="30.099989406764507" x="934.4999931976199">科技、娱乐与设计</text><text id="kity_text_294" text-rendering="inherit" font-size="16" dy=".8em" y="54.09998940676451" x="934.4999931976199">https://wordlesssoda.github.io/TED_notes/TED.svg</text></g><a id="kity_a_318" xlink:href="https://wordlesssoda.github.io/TED_notes/TED.svg" target="_blank" xlink:title="https://wordlesssoda.github.io/TED_notes/TED.svg" style="cursor: pointer;"><path id="kity_path_320" fill="rgba(255, 255, 255, 0)" stroke="none" d="M1335.4999991431832,41.49998936802149h16a4,4,0,0,1,4,4v14a4,4,0,0,1,-4,4h-16a4,4,0,0,1,-4,-4v-14a4,4,0,0,1,4,-4z"></path><path id="kity_path_319" fill="#666" stroke="none" d="M1350.1139991431833,57.72398936802149h-1.278c-1.668,0,-3.07,-1.07,-3.599,-2.556h4.877c0.707,0,1.278,-0.571,1.278,-1.278V51.33398936802149c0,-0.707,-0.571,-1.278,-1.278,-1.278h-4.877C1345.7659991431833,48.570989368021486,1347.1679991431831,47.49998936802149,1348.8359991431832,47.49998936802149h1.278c2.116,0,3.834,1.716,3.834,3.834V53.88998936802149C1353.9479991431833,56.007989368021484,1352.2299991431832,57.72398936802149,1350.1139991431833,57.72398936802149zM1338.6119991431833,52.61198936802149c0,-0.707,0.573,-1.278,1.278,-1.278h7.668c0.707,0,1.278,0.571,1.278,1.278S1348.2649991431833,53.88998936802149,1347.5579991431832,53.88998936802149H1339.8899991431833C1339.1849991431832,53.88998936802149,1338.6119991431833,53.31898936802149,1338.6119991431833,52.61198936802149zM1336.0559991431833,51.33398936802149V53.88998936802149c0,0.707,0.573,1.278,1.278,1.278h4.877c-0.528,1.486,-1.932,2.556,-3.599,2.556H1337.3339991431833C1335.2159991431831,57.72398936802149,1333.4999991431832,56.007989368021484,1333.4999991431832,53.88998936802149V51.33398936802149C1333.4999991431832,49.21598936802149,1335.2159991431831,47.49998936802149,1337.3339991431833,47.49998936802149h1.278c1.667,0,3.071,1.071,3.599,2.556H1337.3339991431833C1336.6289991431831,50.055989368021486,1336.0559991431833,50.62698936802149,1336.0559991431833,51.33398936802149z"></path></a></g><g id="kity_g_12"><path id="kity_path_13" fill="none" stroke="none" d="M934.4999931976199,52.499989442527294h0v0h0z"></path></g><g id="kity_g_14"><path id="kity_path_15" fill="none" stroke="none" d="M934.4999931976199,52.499989442527294h0v0h0z"></path><path id="kity_path_16" fill="none" stroke="none"></path></g><g id="minder_node2"><g id="node_expander13" style="cursor: pointer;"><path id="kity_path_424" fill="white" stroke="gray" d="M87.49998048692942,127.49999056011438A6,6,0,1,1,75.49998048692942,127.49999056011438A6,6,0,1,1,87.49998048692942,127.49999056011438"></path><path id="kity_path_425" fill="none" stroke="gray" d="M76.99998048692942,127.49999056011438L85.99998048692942,127.49999056011438"></path></g><path id="node_outline14" fill="rgb(246, 238, 238)" stroke="rgb(191, 115, 115)" d="M23.499980248510838,134.4999909028411h116a3,3,0,0,1,3,3v26a3,3,0,0,1,-3,3h-116a3,3,0,0,1,-3,-3v-26a3,3,0,0,1,3,-3z" stroke-width="1"></path><g id="node_text14" fill="black"><text id="kity_text_187" text-rendering="inherit" font-size="14" dy=".8em" y="141.39999087154865" x="65.49998024851084"> 网络文化</text></g><g id="node_priority1"><path id="kity_path_297" fill="#840023" stroke="none" d="M40.99997988343239,153.99999076128006c0,3.866,3.134,7,7,7h6c3.866,0,7,-3.134,7,-7V147.99999076128006H40.99997988343239V153.99999076128006z"></path><path id="kity_path_298" fill="#FF1200" stroke="none" d="M60.99997988343239,150.99999076128006c0,3.866,-3.134,7,-7,7H47.99997988343239c-3.866,0,-7,-3.134,-7,-7V147.99999076128006c0,-3.866,3.134,-7,7,-7h6c3.866,0,7,3.134,7,7V150.99999076128006z" opacity="0.8"></path><text id="kity_text_299" text-rendering="geometricPrecision" x="49.99997987598181" y="150.49999075382948" text-anchor="middle" font-style="italic" font-size="12" fill="white" dy="5">1</text></g></g><g id="minder_node3"><g id="node_expander3" style="cursor: pointer;"><path id="kity_path_394" fill="white" stroke="gray" d="M60.499980084598064,212.49999182671309A6,6,0,1,1,48.499980084598064,212.49999182671309A6,6,0,1,1,60.499980084598064,212.49999182671309"></path><path id="kity_path_395" fill="none" stroke="gray" d="M49.999980084598064,212.49999182671309L58.999980084598064,212.49999182671309"></path></g><path id="node_outline4" fill="#f2dbdb" stroke="none" d="M65.49998032301664,201.49999182671309h82a5,5,0,0,1,5,5v12a5,5,0,0,1,-5,5h-82a5,5,0,0,1,-5,-5v-12a5,5,0,0,1,5,-5z"></path><g id="node_text4" fill="black"><text id="kity_text_167" text-rendering="inherit" font-size="12" dy=".8em" y="204.699991799891" x="70.49998032301664">网络与性教育</text></g></g><g id="minder_node4"><g id="node_expander1" style="cursor: pointer;" display="none"><path id="kity_path_388" fill="white" stroke="gray" d="M100.49998068064451,264.49999260157347A6,6,0,1,1,88.49998068064451,264.49999260157347A6,6,0,1,1,100.49998068064451,264.49999260157347"></path><path id="kity_path_389" fill="none" stroke="gray"></path></g><path id="node_outline2" fill="none" stroke="none" d="M105.49998091906309,253.49999260157347h263a5,5,0,0,1,5,5v12a5,5,0,0,1,-5,5h-263a5,5,0,0,1,-5,-5v-12a5,5,0,0,1,5,-5z"></path><g id="node_text2" fill="black"><text id="kity_text_163" text-rendering="inherit" font-size="12" dy=".8em" y="256.6999925747514" x="110.49998091906309">生活模仿艺术，色情影片已成性教育的方式之一</text></g></g><g id="minder_node5"><g id="node_expander2" style="cursor: pointer;" display="none"><path id="kity_path_391" fill="white" stroke="gray" d="M100.49998068064451,316.49999337643385A6,6,0,1,1,88.49998068064451,316.49999337643385A6,6,0,1,1,100.49998068064451,316.49999337643385"></path><path id="kity_path_392" fill="none" stroke="gray"></path></g><path id="node_outline3" fill="none" stroke="none" d="M105.49998091906309,305.49999337643385h276a5,5,0,0,1,5,5v12a5,5,0,0,1,-5,5h-276a5,5,0,0,1,-5,-5v-12a5,5,0,0,1,5,-5z"></path><g id="node_text3" fill="black"><text id="kity_text_165" text-rendering="inherit" font-size="12" dy=".8em" y="308.69999334961176" x="110.49998091906309">纠正色情影片价值观，促成社会性别转向性别平等 </text></g></g><g id="minder_node6"><g id="node_expander8" style="cursor: pointer;"><path id="kity_path_409" fill="white" stroke="gray" d="M60.499980084598064,368.49999415129423A6,6,0,1,1,48.499980084598064,368.49999415129423A6,6,0,1,1,60.499980084598064,368.49999415129423"></path><path id="kity_path_410" fill="none" stroke="gray" d="M49.999980084598064,368.49999415129423L58.999980084598064,368.49999415129423"></path></g><path id="node_outline9" fill="#f2dbdb" stroke="none" d="M65.49998032301664,357.49999415129423h59a5,5,0,0,1,5,5v12a5,5,0,0,1,-5,5h-59a5,5,0,0,1,-5,-5v-12a5,5,0,0,1,5,-5z"></path><g id="node_text9" fill="black"><text id="kity_text_177" text-rendering="inherit" font-size="12" dy=".8em" y="360.69999412447214" x="70.49998032301664">网络成瘾</text></g></g><g id="minder_node7"><g id="node_expander5" style="cursor: pointer;"><path id="kity_path_400" fill="white" stroke="gray" d="M100.49998068064451,420.4999949261546A6,6,0,1,1,88.49998068064451,420.4999949261546A6,6,0,1,1,100.49998068064451,420.4999949261546"></path><path id="kity_path_401" fill="none" stroke="gray" d="M89.99998068064451,420.4999949261546L98.99998068064451,420.4999949261546"></path></g><path id="node_outline6" fill="none" stroke="none" d="M105.49998091906309,409.4999949261546h252a5,5,0,0,1,5,5v12a5,5,0,0,1,-5,5h-252a5,5,0,0,1,-5,-5v-12a5,5,0,0,1,5,-5z"></path><g id="node_text6" fill="black"><text id="kity_text_171" text-rendering="inherit" font-size="12" dy=".8em" y="412.6999948993325" x="110.49998091906309">科技公司为了获取利益打响用户注意力争夺战</text></g></g><g id="minder_node8"><g id="node_expander4" style="cursor: pointer;" display="none"><path id="kity_path_397" fill="white" stroke="gray" d="M140.49998127669096,472.499995701015A6,6,0,1,1,128.49998127669096,472.499995701015A6,6,0,1,1,140.49998127669096,472.499995701015"></path><path id="kity_path_398" fill="none" stroke="gray"></path></g><path id="node_outline5" fill="none" stroke="none" d="M145.49998151510954,461.499995701015h491a5,5,0,0,1,5,5v12a5,5,0,0,1,-5,5h-491a5,5,0,0,1,-5,-5v-12a5,5,0,0,1,5,-5z"></path><g id="node_text5" fill="black"><text id="kity_text_169" text-rendering="inherit" font-size="12" dy=".8em" y="464.6999956741929" x="150.49998151510954">例子：YouTube、Netflix、Facebook等为了留住用户的注意力设计了自动连播视频的功能</text></g></g><g id="minder_node9"><g id="node_expander6" style="cursor: pointer;" display="none"><path id="kity_path_403" fill="white" stroke="gray" d="M100.49998068064451,524.4999964758754A6,6,0,1,1,88.49998068064451,524.4999964758754A6,6,0,1,1,100.49998068064451,524.4999964758754"></path><path id="kity_path_404" fill="none" stroke="gray"></path></g><path id="node_outline7" fill="none" stroke="none" d="M105.49998091906309,513.4999964758754h179a5,5,0,0,1,5,5v12a5,5,0,0,1,-5,5h-179a5,5,0,0,1,-5,-5v-12a5,5,0,0,1,5,-5z"></path><g id="node_text7" fill="black"><text id="kity_text_173" text-rendering="inherit" font-size="12" dy=".8em" y="516.6999964490533" x="110.49998091906309">网络社交的大环境倒逼我们上瘾</text></g></g><g id="minder_node10"><g id="node_expander7" style="cursor: pointer;" display="none"><path id="kity_path_406" fill="white" stroke="gray" d="M100.49998068064451,576.4999972507358A6,6,0,1,1,88.49998068064451,576.4999972507358A6,6,0,1,1,100.49998068064451,576.4999972507358"></path><path id="kity_path_407" fill="none" stroke="gray"></path></g><path id="node_outline8" fill="none" stroke="none" d="M105.49998091906309,565.4999972507358h131a5,5,0,0,1,5,5v12a5,5,0,0,1,-5,5h-131a5,5,0,0,1,-5,-5v-12a5,5,0,0,1,5,-5z"></path><g id="node_text8" fill="black"><text id="kity_text_175" text-rendering="inherit" font-size="12" dy=".8em" y="568.6999972239137" x="110.49998091906309">君子役物，小人役于物</text></g></g><g id="minder_node11"><g id="node_expander12" style="cursor: pointer;"><path id="kity_path_421" fill="white" stroke="gray" d="M60.499980084598064,628.4999980255961A6,6,0,1,1,48.499980084598064,628.4999980255961A6,6,0,1,1,60.499980084598064,628.4999980255961"></path><path id="kity_path_422" fill="none" stroke="gray" d="M49.999980084598064,628.4999980255961L58.999980084598064,628.4999980255961"></path></g><path id="node_outline13" fill="#f2dbdb" stroke="none" d="M65.49998032301664,617.4999980255961h82a5,5,0,0,1,5,5v12a5,5,0,0,1,-5,5h-82a5,5,0,0,1,-5,-5v-12a5,5,0,0,1,5,-5z"></path><g id="node_text13" fill="black"><text id="kity_text_185" text-rendering="inherit" font-size="12" dy=".8em" y="620.699997998774" x="70.49998032301664">互联网与情绪</text></g></g><g id="minder_node12"><g id="node_expander9" style="cursor: pointer;" display="none"><path id="kity_path_412" fill="white" stroke="gray" d="M100.49998068064451,680.4999988004565A6,6,0,1,1,88.49998068064451,680.4999988004565A6,6,0,1,1,100.49998068064451,680.4999988004565"></path><path id="kity_path_413" fill="none" stroke="gray"></path></g><path id="node_outline10" fill="none" stroke="none" d="M105.49998091906309,669.4999988004565h396a5,5,0,0,1,5,5v12a5,5,0,0,1,-5,5h-396a5,5,0,0,1,-5,-5v-12a5,5,0,0,1,5,-5z"></path><g id="node_text10" fill="black"><text id="kity_text_179" text-rendering="inherit" font-size="12" dy=".8em" y="672.6999987736344" x="110.49998091906309">情绪是即时产生的猜测，通过我们的大脑的解读理解而产生对情绪的想法</text></g></g><g id="minder_node13"><g id="node_expander10" style="cursor: pointer;" display="none"><path id="kity_path_415" fill="white" stroke="gray" d="M100.49998068064451,732.4999995753169A6,6,0,1,1,88.49998068064451,732.4999995753169A6,6,0,1,1,100.49998068064451,732.4999995753169"></path><path id="kity_path_416" fill="none" stroke="gray"></path></g><path id="node_outline11" fill="none" stroke="none" d="M105.49998091906309,721.4999995753169h179a5,5,0,0,1,5,5v12a5,5,0,0,1,-5,5h-179a5,5,0,0,1,-5,-5v-12a5,5,0,0,1,5,-5z"></path><g id="node_text11" fill="black"><text id="kity_text_181" text-rendering="inherit" font-size="12" dy=".8em" y="724.6999995484948" x="110.49998091906309">情绪驱动行为，要学会控制情绪</text></g></g><g id="minder_node14"><g id="node_expander11" style="cursor: pointer;" display="none"><path id="kity_path_418" fill="white" stroke="gray" d="M100.49998068064451,784.5000003501773A6,6,0,1,1,88.49998068064451,784.5000003501773A6,6,0,1,1,100.49998068064451,784.5000003501773"></path><path id="kity_path_419" fill="none" stroke="gray"></path></g><path id="node_outline12" fill="none" stroke="none" d="M105.49998091906309,773.5000003501773h179a5,5,0,0,1,5,5v12a5,5,0,0,1,-5,5h-179a5,5,0,0,1,-5,-5v-12a5,5,0,0,1,5,-5z"></path><g id="node_text12" fill="black"><text id="kity_text_183" text-rendering="inherit" font-size="12" dy=".8em" y="776.7000003233552" x="110.49998091906309">让情感融入人工智能真的好吗？</text></g></g><g id="minder_node15"><g id="node_expander31" style="cursor: pointer;"><path id="kity_path_478" fill="white" stroke="gray" d="M769.4999906495214,127.49999056011438A6,6,0,1,1,757.4999906495214,127.49999056011438A6,6,0,1,1,769.4999906495214,127.49999056011438"></path><path id="kity_path_479" fill="none" stroke="gray" d="M758.9999906495214,127.49999056011438L767.9999906495214,127.49999056011438"></path></g><path id="node_outline32" fill="rgb(246, 238, 238)" stroke="rgb(191, 115, 115)" d="M684.4999900981784,134.4999909028411h158a3,3,0,0,1,3,3v26a3,3,0,0,1,-3,3h-158a3,3,0,0,1,-3,-3v-26a3,3,0,0,1,3,-3z" stroke-width="1"></path><g id="node_text32" fill="black"><text id="kity_text_223" text-rendering="inherit" font-size="14" dy=".8em" y="141.39999087154865" x="726.4999900981784">信息与数据应用 </text></g><g id="node_priority2"><path id="kity_path_302" fill="#01467F" stroke="none" d="M701.9999897330999,153.99999076128006c0,3.866,3.134,7,7,7h6c3.866,0,7,-3.134,7,-7V147.99999076128006H701.9999897330999V153.99999076128006z"></path><path id="kity_path_303" fill="#0074FF" stroke="none" d="M721.9999897330999,150.99999076128006c0,3.866,-3.134,7,-7,7H708.9999897330999c-3.866,0,-7,-3.134,-7,-7V147.99999076128006c0,-3.866,3.134,-7,7,-7h6c3.866,0,7,3.134,7,7V150.99999076128006z" opacity="0.8"></path><text id="kity_text_304" text-rendering="geometricPrecision" x="710.9999897256494" y="150.49999075382948" text-anchor="middle" font-style="italic" font-size="12" fill="white" dy="5">2</text></g></g><g id="minder_node16"><g id="node_expander16" style="cursor: pointer;"><path id="kity_path_433" fill="white" stroke="gray" d="M721.4999899342656,212.49999182671309A6,6,0,1,1,709.4999899342656,212.49999182671309A6,6,0,1,1,721.4999899342656,212.49999182671309"></path><path id="kity_path_434" fill="none" stroke="gray" d="M710.9999899342656,212.49999182671309L719.9999899342656,212.49999182671309"></path></g><path id="node_outline17" fill="#f2dbdb" stroke="none" d="M726.4999901726842,201.49999182671309h47a5,5,0,0,1,5,5v12a5,5,0,0,1,-5,5h-47a5,5,0,0,1,-5,-5v-12a5,5,0,0,1,5,-5z"></path><g id="node_text17" fill="black"><text id="kity_text_193" text-rendering="inherit" font-size="12" dy=".8em" y="204.699991799891" x="731.4999901726842">数字屑</text></g></g><g id="minder_node17"><g id="node_expander14" style="cursor: pointer;" display="none"><path id="kity_path_427" fill="white" stroke="gray" d="M761.4999905303121,264.49999260157347A6,6,0,1,1,749.4999905303121,264.49999260157347A6,6,0,1,1,761.4999905303121,264.49999260157347"></path><path id="kity_path_428" fill="none" stroke="gray"></path></g><path id="node_outline15" fill="none" stroke="none" d="M766.4999907687306,253.49999260157347h156a5,5,0,0,1,5,5v12a5,5,0,0,1,-5,5h-156a5,5,0,0,1,-5,-5v-12a5,5,0,0,1,5,-5z"></path><g id="node_text15" fill="black"><text id="kity_text_189" text-rendering="inherit" font-size="12" dy=".8em" y="256.6999925747514" x="771.4999907687306">数字屑是网络中的个人数据</text></g></g><g id="minder_node18"><g id="node_expander15" style="cursor: pointer;" display="none"><path id="kity_path_430" fill="white" stroke="gray" d="M761.4999905303121,316.49999337643385A6,6,0,1,1,749.4999905303121,316.49999337643385A6,6,0,1,1,761.4999905303121,316.49999337643385"></path><path id="kity_path_431" fill="none" stroke="gray"></path></g><path id="node_outline16" fill="none" stroke="none" d="M766.4999907687306,305.49999337643385h180a5,5,0,0,1,5,5v12a5,5,0,0,1,-5,5h-180a5,5,0,0,1,-5,-5v-12a5,5,0,0,1,5,-5z"></path><g id="node_text16" fill="black"><text id="kity_text_191" text-rendering="inherit" font-size="12" dy=".8em" y="308.69999334961176" x="771.4999907687306">个人还是企业掌握数字屑是关键</text></g></g><g id="minder_node19"><g id="node_expander20" style="cursor: pointer;"><path id="kity_path_445" fill="white" stroke="gray" d="M721.4999899342656,368.49999415129423A6,6,0,1,1,709.4999899342656,368.49999415129423A6,6,0,1,1,721.4999899342656,368.49999415129423"></path><path id="kity_path_446" fill="none" stroke="gray" d="M710.9999899342656,368.49999415129423L719.9999899342656,368.49999415129423"></path></g><path id="node_outline21" fill="#f2dbdb" stroke="none" d="M726.4999901726842,357.49999415129423h108a5,5,0,0,1,5,5v12a5,5,0,0,1,-5,5h-108a5,5,0,0,1,-5,-5v-12a5,5,0,0,1,5,-5z"></path><g id="node_text21" fill="black"><text id="kity_text_201" text-rendering="inherit" font-size="12" dy=".8em" y="360.69999412447214" x="731.4999901726842">人工智能与大数据</text></g></g><g id="minder_node20"><g id="node_expander17" style="cursor: pointer;" display="none"><path id="kity_path_436" fill="white" stroke="gray" d="M761.4999905303121,420.4999949261546A6,6,0,1,1,749.4999905303121,420.4999949261546A6,6,0,1,1,761.4999905303121,420.4999949261546"></path><path id="kity_path_437" fill="none" stroke="gray"></path></g><path id="node_outline18" fill="none" stroke="none" d="M766.4999907687306,409.4999949261546h252a5,5,0,0,1,5,5v12a5,5,0,0,1,-5,5h-252a5,5,0,0,1,-5,-5v-12a5,5,0,0,1,5,-5z"></path><g id="node_text18" fill="black"><text id="kity_text_195" text-rendering="inherit" font-size="12" dy=".8em" y="412.6999948993325" x="771.4999907687306">人工智能时代，更应坚守人类的价值观和伦理</text></g></g><g id="minder_node21"><g id="node_expander19" style="cursor: pointer;"><path id="kity_path_442" fill="white" stroke="gray" d="M761.4999905303121,472.499995701015A6,6,0,1,1,749.4999905303121,472.499995701015A6,6,0,1,1,761.4999905303121,472.499995701015"></path><path id="kity_path_443" fill="none" stroke="gray" d="M750.9999905303121,472.499995701015L759.9999905303121,472.499995701015"></path></g><path id="node_outline20" fill="none" stroke="none" d="M766.4999907687306,461.499995701015h167a5,5,0,0,1,5,5v12a5,5,0,0,1,-5,5h-167a5,5,0,0,1,-5,-5v-12a5,5,0,0,1,5,-5z"></path><g id="node_text20" fill="black"><text id="kity_text_199" text-rendering="inherit" font-size="12" dy=".8em" y="464.6999956741929" x="771.4999907687306">大数据，取之于民，用之于民</text></g></g><g id="minder_node22"><g id="node_expander18" style="cursor: pointer;" display="none"><path id="kity_path_439" fill="white" stroke="gray" d="M801.4999911263585,524.4999964758754A6,6,0,1,1,789.4999911263585,524.4999964758754A6,6,0,1,1,801.4999911263585,524.4999964758754"></path><path id="kity_path_440" fill="none" stroke="gray"></path></g><path id="node_outline19" fill="none" stroke="none" d="M806.4999913647771,513.4999964758754h156a5,5,0,0,1,5,5v12a5,5,0,0,1,-5,5h-156a5,5,0,0,1,-5,-5v-12a5,5,0,0,1,5,-5z"></path><g id="node_text19" fill="black"><text id="kity_text_197" text-rendering="inherit" font-size="12" dy=".8em" y="516.6999964490533" x="811.4999913647771">例子：分享我们的医疗数据</text></g></g><g id="minder_node23"><g id="node_expander23" style="cursor: pointer;"><path id="kity_path_454" fill="white" stroke="gray" d="M721.4999899342656,576.4999972507358A6,6,0,1,1,709.4999899342656,576.4999972507358A6,6,0,1,1,721.4999899342656,576.4999972507358"></path><path id="kity_path_455" fill="none" stroke="gray" d="M710.9999899342656,576.4999972507358L719.9999899342656,576.4999972507358"></path></g><path id="node_outline24" fill="#f2dbdb" stroke="none" d="M726.4999901726842,565.4999972507358h132a5,5,0,0,1,5,5v12a5,5,0,0,1,-5,5h-132a5,5,0,0,1,-5,-5v-12a5,5,0,0,1,5,-5z"></path><g id="node_text24" fill="black"><text id="kity_text_207" text-rendering="inherit" font-size="12" dy=".8em" y="568.6999972239137" x="731.4999901726842">个人信息泡与交互设计</text></g></g><g id="minder_node24"><g id="node_expander21" style="cursor: pointer;" display="none"><path id="kity_path_448" fill="white" stroke="gray" d="M761.4999905303121,628.4999980255961A6,6,0,1,1,749.4999905303121,628.4999980255961A6,6,0,1,1,761.4999905303121,628.4999980255961"></path><path id="kity_path_449" fill="none" stroke="gray"></path></g><path id="node_outline22" fill="none" stroke="none" d="M766.4999907687306,617.4999980255961h286a5,5,0,0,1,5,5v12a5,5,0,0,1,-5,5h-286a5,5,0,0,1,-5,-5v-12a5,5,0,0,1,5,-5z"></path><g id="node_text22" fill="black"><text id="kity_text_203" text-rendering="inherit" font-size="12" dy=".8em" y="620.699997998774" x="771.4999907687306">警惕“过滤气泡（Filter Bubble）”，突破信息限制</text></g></g><g id="minder_node25"><g id="node_expander22" style="cursor: pointer;" display="none"><path id="kity_path_451" fill="white" stroke="gray" d="M761.4999905303121,680.4999988004565A6,6,0,1,1,749.4999905303121,680.4999988004565A6,6,0,1,1,761.4999905303121,680.4999988004565"></path><path id="kity_path_452" fill="none" stroke="gray"></path></g><path id="node_outline23" fill="none" stroke="none" d="M766.4999907687306,669.4999988004565h107a5,5,0,0,1,5,5v12a5,5,0,0,1,-5,5h-107a5,5,0,0,1,-5,-5v-12a5,5,0,0,1,5,-5z"></path><g id="node_text23" fill="black"><text id="kity_text_205" text-rendering="inherit" font-size="12" dy=".8em" y="672.6999987736344" x="771.4999907687306">让数据“人性化”</text></g></g><g id="minder_node26"><g id="node_expander30" style="cursor: pointer;"><path id="kity_path_475" fill="white" stroke="gray" d="M721.4999899342656,732.4999995753169A6,6,0,1,1,709.4999899342656,732.4999995753169A6,6,0,1,1,721.4999899342656,732.4999995753169"></path><path id="kity_path_476" fill="none" stroke="gray" d="M710.9999899342656,732.4999995753169L719.9999899342656,732.4999995753169"></path></g><path id="node_outline31" fill="#f2dbdb" stroke="none" d="M726.4999901726842,721.4999995753169h132a5,5,0,0,1,5,5v12a5,5,0,0,1,-5,5h-132a5,5,0,0,1,-5,-5v-12a5,5,0,0,1,5,-5z"></path><g id="node_text31" fill="black"><text id="kity_text_221" text-rendering="inherit" font-size="12" dy=".8em" y="724.6999995484948" x="731.4999901726842">全球发展与信息可视化</text></g></g><g id="minder_node27"><g id="node_expander25" style="cursor: pointer;"><path id="kity_path_460" fill="white" stroke="gray" d="M761.4999905303121,784.5000003501773A6,6,0,1,1,749.4999905303121,784.5000003501773A6,6,0,1,1,761.4999905303121,784.5000003501773"></path><path id="kity_path_461" fill="none" stroke="gray" d="M750.9999905303121,784.5000003501773L759.9999905303121,784.5000003501773"></path></g><path id="node_outline26" fill="none" stroke="none" d="M766.4999907687306,773.5000003501773h156a5,5,0,0,1,5,5v12a5,5,0,0,1,-5,5h-156a5,5,0,0,1,-5,-5v-12a5,5,0,0,1,5,-5z"></path><g id="node_text26" fill="black"><text id="kity_text_211" text-rendering="inherit" font-size="12" dy=".8em" y="776.7000003233552" x="771.4999907687306">通过信息可视化看全球发展</text></g></g><g id="minder_node28"><g id="node_expander24" style="cursor: pointer;" display="none"><path id="kity_path_457" fill="white" stroke="gray" d="M801.4999911263585,836.5000011250377A6,6,0,1,1,789.4999911263585,836.5000011250377A6,6,0,1,1,801.4999911263585,836.5000011250377"></path><path id="kity_path_458" fill="none" stroke="gray"></path></g><path id="node_outline25" fill="none" stroke="none" d="M806.4999913647771,825.5000011250377h350a5,5,0,0,1,5,5v12a5,5,0,0,1,-5,5h-350a5,5,0,0,1,-5,-5v-12a5,5,0,0,1,5,-5z"></path><g id="node_text25" fill="black"><text id="kity_text_209" text-rendering="inherit" font-size="12" dy=".8em" y="828.7000010982156" x="811.4999913647771">例子：汉斯·罗斯林运用信息可视化让人看到了全球发展的故事。</text></g></g><g id="minder_node29"><g id="node_expander27" style="cursor: pointer;"><path id="kity_path_466" fill="white" stroke="gray" d="M761.4999905303121,888.500001899898A6,6,0,1,1,749.4999905303121,888.500001899898A6,6,0,1,1,761.4999905303121,888.500001899898"></path><path id="kity_path_467" fill="none" stroke="gray" d="M750.9999905303121,888.500001899898L759.9999905303121,888.500001899898"></path></g><path id="node_outline28" fill="none" stroke="none" d="M766.4999907687306,877.500001899898h167a5,5,0,0,1,5,5v12a5,5,0,0,1,-5,5h-167a5,5,0,0,1,-5,-5v-12a5,5,0,0,1,5,-5z"></path><g id="node_text28" fill="black"><text id="kity_text_215" text-rendering="inherit" font-size="12" dy=".8em" y="880.700001873076" x="771.4999907687306">收入如何影响人们的生活方式</text></g></g><g id="minder_node30"><g id="node_expander26" style="cursor: pointer;" display="none"><path id="kity_path_463" fill="white" stroke="gray" d="M801.4999911263585,945.5000027492642A6,6,0,1,1,789.4999911263585,945.5000027492642A6,6,0,1,1,801.4999911263585,945.5000027492642"></path><path id="kity_path_464" fill="none" stroke="gray"></path></g><path id="node_outline27" fill="none" stroke="none" d="M806.4999913647771,929.5000027492642h534a5,5,0,0,1,5,5v22a5,5,0,0,1,-5,5h-534a5,5,0,0,1,-5,-5v-22a5,5,0,0,1,5,-5z"></path><g id="node_text27" fill="black"><text id="kity_text_213" text-rendering="inherit" font-size="12" dy=".8em" y="937.7000027224422" x="811.4999913647771">例子：安娜·罗丝玲·洛恩收集收集各个国家地区人民的生活状况照片，构建DOLLAR STREET。</text></g><a id="kity_a_315" xlink:href="https://www.gapminder.org/dollar-street/matrix" target="_blank" xlink:title="DOLLAR STREET(https://www.gapminder.org/dollar-street/matrix)" style="cursor: pointer;"><path id="kity_path_317" fill="rgba(255, 255, 255, 0)" stroke="none" d="M1315.49999884516,934.5000026747584h16a4,4,0,0,1,4,4v14a4,4,0,0,1,-4,4h-16a4,4,0,0,1,-4,-4v-14a4,4,0,0,1,4,-4z"></path><path id="kity_path_316" fill="#666" stroke="none" d="M1330.11399884516,950.7240026747585h-1.278c-1.668,0,-3.07,-1.07,-3.599,-2.556h4.877c0.707,0,1.278,-0.571,1.278,-1.278V944.3340026747584c0,-0.707,-0.571,-1.278,-1.278,-1.278h-4.877C1325.76599884516,941.5710026747585,1327.16799884516,940.5000026747584,1328.83599884516,940.5000026747584h1.278c2.116,0,3.834,1.716,3.834,3.834V946.8900026747584C1333.94799884516,949.0080026747585,1332.22999884516,950.7240026747585,1330.11399884516,950.7240026747585zM1318.61199884516,945.6120026747584c0,-0.707,0.573,-1.278,1.278,-1.278h7.668c0.707,0,1.278,0.571,1.278,1.278S1328.26499884516,946.8900026747584,1327.55799884516,946.8900026747584H1319.88999884516C1319.18499884516,946.8900026747584,1318.61199884516,946.3190026747584,1318.61199884516,945.6120026747584zM1316.05599884516,944.3340026747584V946.8900026747584c0,0.707,0.573,1.278,1.278,1.278h4.877c-0.528,1.486,-1.932,2.556,-3.599,2.556H1317.33399884516C1315.21599884516,950.7240026747585,1313.49999884516,949.0080026747585,1313.49999884516,946.8900026747584V944.3340026747584C1313.49999884516,942.2160026747584,1315.21599884516,940.5000026747584,1317.33399884516,940.5000026747584h1.278c1.667,0,3.071,1.071,3.599,2.556H1317.33399884516C1316.62899884516,943.0560026747585,1316.05599884516,943.6270026747584,1316.05599884516,944.3340026747584z"></path></a></g><g id="minder_node31"><g id="node_expander29" style="cursor: pointer;"><path id="kity_path_472" fill="white" stroke="gray" d="M761.4999905303121,1002.5000035986304A6,6,0,1,1,749.4999905303121,1002.5000035986304A6,6,0,1,1,761.4999905303121,1002.5000035986304"></path><path id="kity_path_473" fill="none" stroke="gray" d="M750.9999905303121,1002.5000035986304L759.9999905303121,1002.5000035986304"></path></g><path id="node_outline30" fill="none" stroke="none" d="M766.4999907687306,991.5000035986304h167a5,5,0,0,1,5,5v12a5,5,0,0,1,-5,5h-167a5,5,0,0,1,-5,-5v-12a5,5,0,0,1,5,-5z"></path><g id="node_text30" fill="black"><text id="kity_text_219" text-rendering="inherit" font-size="12" dy=".8em" y="994.7000035718083" x="771.4999907687306">开放性数据如何改变国际援助</text></g></g><g id="minder_node32"><g id="node_expander28" style="cursor: pointer;" display="none"><path id="kity_path_469" fill="white" stroke="gray" d="M801.4999911263585,1054.5000043734908A6,6,0,1,1,789.4999911263585,1054.5000043734908A6,6,0,1,1,801.4999911263585,1054.5000043734908"></path><path id="kity_path_470" fill="none" stroke="gray"></path></g><path id="node_outline29" fill="none" stroke="none" d="M806.4999913647771,1043.5000043734908h822a5,5,0,0,1,5,5v12a5,5,0,0,1,-5,5h-822a5,5,0,0,1,-5,-5v-12a5,5,0,0,1,5,-5z"></path><g id="node_text29" fill="black"><text id="kity_text_217" text-rendering="inherit" font-size="12" dy=".8em" y="1046.7000043466687" x="811.4999913647771">例子：Sanjay Pradhan 谈论开放的知识渠道(OPEN Konwledge)、开放的援助(OPEN Aid)、开放透明的政府(OPEN Governance)是如何改变国际援助的</text></g></g><g id="minder_node33"><g id="node_expander46" style="cursor: pointer;"><path id="kity_path_523" fill="white" stroke="gray" d="M1754.5000053271651,127.49999056011438A6,6,0,1,1,1742.5000053271651,127.49999056011438A6,6,0,1,1,1754.5000053271651,127.49999056011438"></path><path id="kity_path_524" fill="none" stroke="gray" d="M1744.0000053271651,127.49999056011438L1753.0000053271651,127.49999056011438"></path></g><path id="node_outline47" fill="rgb(246, 238, 238)" stroke="rgb(191, 115, 115)" d="M1676.5000048801303,134.4999909028411h144a3,3,0,0,1,3,3v26a3,3,0,0,1,-3,3h-144a3,3,0,0,1,-3,-3v-26a3,3,0,0,1,3,-3z" stroke-width="1"></path><g id="node_text47" fill="black"><text id="kity_text_253" text-rendering="inherit" font-size="14" dy=".8em" y="141.39999087154865" x="1718.5000048801303">互联网与编程</text></g><g id="node_priority3"><path id="kity_path_307" fill="#006300" stroke="none" d="M1694.0000045150518,153.99999076128006c0,3.866,3.134,7,7,7h6c3.866,0,7,-3.134,7,-7V147.99999076128006H1694.0000045150518V153.99999076128006z"></path><path id="kity_path_308" fill="#00AF00" stroke="none" d="M1714.0000045150518,150.99999076128006c0,3.866,-3.134,7,-7,7H1701.0000045150518c-3.866,0,-7,-3.134,-7,-7V147.99999076128006c0,-3.866,3.134,-7,7,-7h6c3.866,0,7,3.134,7,7V150.99999076128006z" opacity="0.8"></path><text id="kity_text_309" text-rendering="geometricPrecision" x="1703.0000045076013" y="150.49999075382948" text-anchor="middle" font-style="italic" font-size="12" fill="white" dy="5">3</text></g></g><g id="minder_node34"><g id="node_expander36" style="cursor: pointer;"><path id="kity_path_493" fill="white" stroke="gray" d="M1713.5000047162175,212.49999182671309A6,6,0,1,1,1701.5000047162175,212.49999182671309A6,6,0,1,1,1713.5000047162175,212.49999182671309"></path><path id="kity_path_494" fill="none" stroke="gray" d="M1703.0000047162175,212.49999182671309L1712.0000047162175,212.49999182671309"></path></g><path id="node_outline37" fill="#f2dbdb" stroke="none" d="M1718.500004954636,201.49999182671309h71a5,5,0,0,1,5,5v12a5,5,0,0,1,-5,5h-71a5,5,0,0,1,-5,-5v-12a5,5,0,0,1,5,-5z"></path><g id="node_text37" fill="black"><text id="kity_text_233" text-rendering="inherit" font-size="12" dy=".8em" y="204.699991799891" x="1723.500004954636">平台与开放</text></g></g><g id="minder_node35"><g id="node_expander32" style="cursor: pointer;" display="none"><path id="kity_path_481" fill="white" stroke="gray" d="M1753.500005312264,264.49999260157347A6,6,0,1,1,1741.500005312264,264.49999260157347A6,6,0,1,1,1753.500005312264,264.49999260157347"></path><path id="kity_path_482" fill="none" stroke="gray"></path></g><path id="node_outline33" fill="none" stroke="none" d="M1758.5000055506825,253.49999260157347h166a5,5,0,0,1,5,5v12a5,5,0,0,1,-5,5h-166a5,5,0,0,1,-5,-5v-12a5,5,0,0,1,5,-5z"></path><g id="node_text33" fill="black"><text id="kity_text_225" text-rendering="inherit" font-size="12" dy=".8em" y="256.6999925747514" x="1763.5000055506825">互联网存在随机的善良的行为</text></g></g><g id="minder_node36"><g id="node_expander33" style="cursor: pointer;" display="none"><path id="kity_path_484" fill="white" stroke="gray" d="M1753.500005312264,316.49999337643385A6,6,0,1,1,1741.500005312264,316.49999337643385A6,6,0,1,1,1753.500005312264,316.49999337643385"></path><path id="kity_path_485" fill="none" stroke="gray"></path></g><path id="node_outline34" fill="none" stroke="none" d="M1758.5000055506825,305.49999337643385h179a5,5,0,0,1,5,5v12a5,5,0,0,1,-5,5h-179a5,5,0,0,1,-5,-5v-12a5,5,0,0,1,5,-5z"></path><g id="node_text34" fill="black"><text id="kity_text_227" text-rendering="inherit" font-size="12" dy=".8em" y="308.69999334961176" x="1763.5000055506825">互联网是互联网企业谋利的工具</text></g></g><g id="minder_node37"><g id="node_expander34" style="cursor: pointer;" display="none"><path id="kity_path_487" fill="white" stroke="gray" d="M1753.500005312264,368.49999415129423A6,6,0,1,1,1741.500005312264,368.49999415129423A6,6,0,1,1,1753.500005312264,368.49999415129423"></path><path id="kity_path_488" fill="none" stroke="gray"></path></g><path id="node_outline35" fill="none" stroke="none" d="M1758.5000055506825,357.49999415129423h119a5,5,0,0,1,5,5v12a5,5,0,0,1,-5,5h-119a5,5,0,0,1,-5,-5v-12a5,5,0,0,1,5,-5z"></path><g id="node_text35" fill="black"><text id="kity_text_229" text-rendering="inherit" font-size="12" dy=".8em" y="360.69999412447214" x="1763.5000055506825">互联网是民权的工具</text></g></g><g id="minder_node38"><g id="node_expander35" style="cursor: pointer;" display="none"><path id="kity_path_490" fill="white" stroke="gray" d="M1753.500005312264,420.4999949261546A6,6,0,1,1,1741.500005312264,420.4999949261546A6,6,0,1,1,1753.500005312264,420.4999949261546"></path><path id="kity_path_491" fill="none" stroke="gray"></path></g><path id="node_outline36" fill="none" stroke="none" d="M1758.5000055506825,409.4999949261546h346a5,5,0,0,1,5,5v12a5,5,0,0,1,-5,5h-346a5,5,0,0,1,-5,-5v-12a5,5,0,0,1,5,-5z"></path><g id="node_text36" fill="black"><text id="kity_text_231" text-rendering="inherit" font-size="12" dy=".8em" y="412.6999948993325" x="1763.5000055506825">互联网的本质是什么？自由与开放（需要建立在善良的引导下）</text></g></g><g id="minder_node39"><g id="node_expander43" style="cursor: pointer;"><path id="kity_path_514" fill="white" stroke="gray" d="M1713.5000047162175,472.499995701015A6,6,0,1,1,1701.5000047162175,472.499995701015A6,6,0,1,1,1713.5000047162175,472.499995701015"></path><path id="kity_path_515" fill="none" stroke="gray" d="M1703.0000047162175,472.499995701015L1712.0000047162175,472.499995701015"></path></g><path id="node_outline44" fill="#f2dbdb" stroke="none" d="M1718.500004954636,461.499995701015h84a5,5,0,0,1,5,5v12a5,5,0,0,1,-5,5h-84a5,5,0,0,1,-5,-5v-12a5,5,0,0,1,5,-5z"></path><g id="node_text44" fill="black"><text id="kity_text_247" text-rendering="inherit" font-size="12" dy=".8em" y="464.6999956741929" x="1723.500004954636">编程改变世界</text></g></g><g id="minder_node40"><g id="node_expander39" style="cursor: pointer;"><path id="kity_path_502" fill="white" stroke="gray" d="M1753.500005312264,524.4999964758754A6,6,0,1,1,1741.500005312264,524.4999964758754A6,6,0,1,1,1753.500005312264,524.4999964758754"></path><path id="kity_path_503" fill="none" stroke="gray" d="M1743.000005312264,524.4999964758754L1752.000005312264,524.4999964758754"></path></g><path id="node_outline40" fill="none" stroke="none" d="M1758.5000055506825,513.4999964758754h125a5,5,0,0,1,5,5v12a5,5,0,0,1,-5,5h-125a5,5,0,0,1,-5,-5v-12a5,5,0,0,1,5,-5z"></path><g id="node_text40" fill="black"><text id="kity_text_239" text-rendering="inherit" font-size="12" dy=".8em" y="516.6999964490533" x="1763.5000055506825">代码: 下一个通用语言</text></g></g><g id="minder_node41"><g id="node_expander37" style="cursor: pointer;" display="none"><path id="kity_path_496" fill="white" stroke="gray" d="M1793.5000059083104,576.4999972507358A6,6,0,1,1,1781.5000059083104,576.4999972507358A6,6,0,1,1,1793.5000059083104,576.4999972507358"></path><path id="kity_path_497" fill="none" stroke="gray"></path></g><path id="node_outline38" fill="none" stroke="none" d="M1798.500006146729,565.4999972507358h143a5,5,0,0,1,5,5v12a5,5,0,0,1,-5,5h-143a5,5,0,0,1,-5,-5v-12a5,5,0,0,1,5,-5z"></path><g id="node_text38" fill="black"><text id="kity_text_235" text-rendering="inherit" font-size="12" dy=".8em" y="568.6999972239137" x="1803.500006146729">让孩子成为下一代创造者</text></g></g><g id="minder_node42"><g id="node_expander38" style="cursor: pointer;" display="none"><path id="kity_path_499" fill="white" stroke="gray" d="M1793.5000059083104,628.4999980255961A6,6,0,1,1,1781.5000059083104,628.4999980255961A6,6,0,1,1,1793.5000059083104,628.4999980255961"></path><path id="kity_path_500" fill="none" stroke="gray"></path></g><path id="node_outline39" fill="none" stroke="none" d="M1798.500006146729,617.4999980255961h132a5,5,0,0,1,5,5v12a5,5,0,0,1,-5,5h-132a5,5,0,0,1,-5,-5v-12a5,5,0,0,1,5,-5z"></path><g id="node_text39" fill="black"><text id="kity_text_237" text-rendering="inherit" font-size="12" dy=".8em" y="620.699997998774" x="1803.500006146729">女孩要勇敢而不必完美</text></g></g><g id="minder_node43"><g id="node_expander42" style="cursor: pointer;"><path id="kity_path_511" fill="white" stroke="gray" d="M1753.500005312264,680.4999988004565A6,6,0,1,1,1741.500005312264,680.4999988004565A6,6,0,1,1,1753.500005312264,680.4999988004565"></path><path id="kity_path_512" fill="none" stroke="gray" d="M1743.000005312264,680.4999988004565L1752.000005312264,680.4999988004565"></path></g><path id="node_outline43" fill="none" stroke="none" d="M1758.5000055506825,669.4999988004565h227a5,5,0,0,1,5,5v12a5,5,0,0,1,-5,5h-227a5,5,0,0,1,-5,-5v-12a5,5,0,0,1,5,-5z"></path><g id="node_text43" fill="black"><text id="kity_text_245" text-rendering="inherit" font-size="12" dy=".8em" y="672.6999987736344" x="1763.5000055506825">黑客编程一直是健康民主的重要组成部分</text></g></g><g id="minder_node44"><g id="node_expander40" style="cursor: pointer;" display="none"><path id="kity_path_505" fill="white" stroke="gray" d="M1793.5000059083104,732.4999995753169A6,6,0,1,1,1781.5000059083104,732.4999995753169A6,6,0,1,1,1793.5000059083104,732.4999995753169"></path><path id="kity_path_506" fill="none" stroke="gray"></path></g><path id="node_outline41" fill="none" stroke="none" d="M1798.500006146729,721.4999995753169h281a5,5,0,0,1,5,5v12a5,5,0,0,1,-5,5h-281a5,5,0,0,1,-5,-5v-12a5,5,0,0,1,5,-5z"></path><g id="node_text41" fill="black"><text id="kity_text_241" text-rendering="inherit" font-size="12" dy=".8em" y="724.6999995484948" x="1803.500006146729">成为公民黑客（Civic Hacking）共同推动社会发展</text></g></g><g id="minder_node45"><g id="node_expander41" style="cursor: pointer;" display="none"><path id="kity_path_508" fill="white" stroke="gray" d="M1793.5000059083104,784.5000003501773A6,6,0,1,1,1781.5000059083104,784.5000003501773A6,6,0,1,1,1793.5000059083104,784.5000003501773"></path><path id="kity_path_509" fill="none" stroke="gray"></path></g><path id="node_outline42" fill="none" stroke="none" d="M1798.500006146729,773.5000003501773h178a5,5,0,0,1,5,5v12a5,5,0,0,1,-5,5h-178a5,5,0,0,1,-5,-5v-12a5,5,0,0,1,5,-5z"></path><g id="node_text42" fill="black"><text id="kity_text_243" text-rendering="inherit" font-size="12" dy=".8em" y="776.7000003233552" x="1803.500006146729">用编程“编写”一个更好的政府</text></g></g><g id="minder_node46"><g id="node_expander45" style="cursor: pointer;"><path id="kity_path_520" fill="white" stroke="gray" d="M1713.5000047162175,836.5000011250377A6,6,0,1,1,1701.5000047162175,836.5000011250377A6,6,0,1,1,1713.5000047162175,836.5000011250377"></path><path id="kity_path_521" fill="none" stroke="gray" d="M1703.0000047162175,836.5000011250377L1712.0000047162175,836.5000011250377"></path></g><path id="node_outline46" fill="#f2dbdb" stroke="none" d="M1718.500004954636,825.5000011250377h84a5,5,0,0,1,5,5v12a5,5,0,0,1,-5,5h-84a5,5,0,0,1,-5,-5v-12a5,5,0,0,1,5,-5z"></path><g id="node_text46" fill="black"><text id="kity_text_251" text-rendering="inherit" font-size="12" dy=".8em" y="828.7000010982156" x="1723.500004954636">超连结与社会</text></g></g><g id="minder_node47"><g id="node_expander44" style="cursor: pointer;" display="none"><path id="kity_path_517" fill="white" stroke="gray" d="M1753.500005312264,888.500001899898A6,6,0,1,1,1741.500005312264,888.500001899898A6,6,0,1,1,1753.500005312264,888.500001899898"></path><path id="kity_path_518" fill="none" stroke="gray"></path></g><path id="node_outline45" fill="none" stroke="none" d="M1758.5000055506825,877.500001899898h96a5,5,0,0,1,5,5v12a5,5,0,0,1,-5,5h-96a5,5,0,0,1,-5,-5v-12a5,5,0,0,1,5,-5z"></path><g id="node_text45" fill="black"><text id="kity_text_249" text-rendering="inherit" font-size="12" dy=".8em" y="880.700001873076" x="1763.5000055506825">超链接改变社会</text></g></g><g id="minder_node48"><g id="node_expander66" style="cursor: pointer;"><path id="kity_path_583" fill="white" stroke="gray" d="M2216.000012204051,127.49999056011438A6,6,0,1,1,2204.000012204051,127.49999056011438A6,6,0,1,1,2216.000012204051,127.49999056011438"></path><path id="kity_path_584" fill="none" stroke="gray" d="M2205.500012204051,127.49999056011438L2214.500012204051,127.49999056011438"></path></g><path id="node_outline67" fill="rgb(246, 238, 238)" stroke="rgb(191, 115, 115)" d="M2152.500011973083,134.4999909028411h115a3,3,0,0,1,3,3v26a3,3,0,0,1,-3,3h-115a3,3,0,0,1,-3,-3v-26a3,3,0,0,1,3,-3z" stroke-width="1"></path><g id="node_text67" fill="black"><text id="kity_text_293" text-rendering="inherit" font-size="14" dy=".8em" y="141.39999087154865" x="2194.500011973083">设计思维</text></g><g id="node_priority4"><path id="kity_path_312" fill="#B25000" stroke="none" d="M2170.0000116080046,153.99999076128006c0,3.866,3.134,7,7,7h6c3.866,0,7,-3.134,7,-7V147.99999076128006H2170.0000116080046V153.99999076128006z"></path><path id="kity_path_313" fill="#FF962E" stroke="none" d="M2190.0000116080046,150.99999076128006c0,3.866,-3.134,7,-7,7H2177.0000116080046c-3.866,0,-7,-3.134,-7,-7V147.99999076128006c0,-3.866,3.134,-7,7,-7h6c3.866,0,7,3.134,7,7V150.99999076128006z" opacity="0.8"></path><text id="kity_text_314" text-rendering="geometricPrecision" x="2179.000011600554" y="150.49999075382948" text-anchor="middle" font-style="italic" font-size="12" fill="white" dy="5">4</text></g></g><g id="minder_node49"><g id="node_expander53" style="cursor: pointer;"><path id="kity_path_544" fill="white" stroke="gray" d="M2189.5000118091702,212.49999182671309A6,6,0,1,1,2177.5000118091702,212.49999182671309A6,6,0,1,1,2189.5000118091702,212.49999182671309"></path><path id="kity_path_545" fill="none" stroke="gray" d="M2179.0000118091702,212.49999182671309L2188.0000118091702,212.49999182671309"></path></g><path id="node_outline54" fill="#f2dbdb" stroke="none" d="M2194.500012047589,201.49999182671309h71a5,5,0,0,1,5,5v12a5,5,0,0,1,-5,5h-71a5,5,0,0,1,-5,-5v-12a5,5,0,0,1,5,-5z"></path><g id="node_text54" fill="black"><text id="kity_text_267" text-rendering="inherit" font-size="12" dy=".8em" y="204.699991799891" x="2199.500012047589">幽默与设计</text></g></g><g id="minder_node50"><g id="node_expander48" style="cursor: pointer;"><path id="kity_path_529" fill="white" stroke="gray" d="M2229.5000124052167,264.49999260157347A6,6,0,1,1,2217.5000124052167,264.49999260157347A6,6,0,1,1,2229.5000124052167,264.49999260157347"></path><path id="kity_path_530" fill="none" stroke="gray" d="M2219.0000124052167,264.49999260157347L2228.0000124052167,264.49999260157347"></path></g><path id="node_outline49" fill="none" stroke="none" d="M2234.5000126436353,253.49999260157347h94a5,5,0,0,1,5,5v12a5,5,0,0,1,-5,5h-94a5,5,0,0,1,-5,-5v-12a5,5,0,0,1,5,-5z"></path><g id="node_text49" fill="black"><text id="kity_text_257" text-rendering="inherit" font-size="12" dy=".8em" y="256.6999925747514" x="2239.5000126436353">以幽默改变规则</text></g></g><g id="minder_node51"><g id="node_expander47" style="cursor: pointer;" display="none"><path id="kity_path_526" fill="white" stroke="gray" d="M2269.500013001263,316.49999337643385A6,6,0,1,1,2257.500013001263,316.49999337643385A6,6,0,1,1,2269.500013001263,316.49999337643385"></path><path id="kity_path_527" fill="none" stroke="gray"></path></g><path id="node_outline48" fill="none" stroke="none" d="M2274.5000132396817,305.49999337643385h496a5,5,0,0,1,5,5v12a5,5,0,0,1,-5,5h-496a5,5,0,0,1,-5,-5v-12a5,5,0,0,1,5,-5z"></path><g id="node_text48" fill="black"><text id="kity_text_255" text-rendering="inherit" font-size="12" dy=".8em" y="308.69999334961176" x="2279.5000132396817">例子：Liza Donnelly的幽默漫画引导着读者们思考当今社会女性的规则，尝试推动规则改变</text></g></g><g id="minder_node52"><g id="node_expander50" style="cursor: pointer;"><path id="kity_path_535" fill="white" stroke="gray" d="M2229.5000124052167,368.49999415129423A6,6,0,1,1,2217.5000124052167,368.49999415129423A6,6,0,1,1,2229.5000124052167,368.49999415129423"></path><path id="kity_path_536" fill="none" stroke="gray" d="M2219.0000124052167,368.49999415129423L2228.0000124052167,368.49999415129423"></path></g><path id="node_outline51" fill="none" stroke="none" d="M2234.5000126436353,357.49999415129423h95a5,5,0,0,1,5,5v12a5,5,0,0,1,-5,5h-95a5,5,0,0,1,-5,-5v-12a5,5,0,0,1,5,-5z"></path><g id="node_text51" fill="black"><text id="kity_text_261" text-rendering="inherit" font-size="12" dy=".8em" y="360.69999412447214" x="2239.5000126436353">以幽默传播文化</text></g></g><g id="minder_node53"><g id="node_expander49" style="cursor: pointer;" display="none"><path id="kity_path_532" fill="white" stroke="gray" d="M2269.500013001263,420.4999949261546A6,6,0,1,1,2257.500013001263,420.4999949261546A6,6,0,1,1,2269.500013001263,420.4999949261546"></path><path id="kity_path_533" fill="none" stroke="gray"></path></g><path id="node_outline50" fill="none" stroke="none" d="M2274.5000132396817,409.4999949261546h475a5,5,0,0,1,5,5v12a5,5,0,0,1,-5,5h-475a5,5,0,0,1,-5,-5v-12a5,5,0,0,1,5,-5z"></path><g id="node_text50" fill="black"><text id="kity_text_259" text-rendering="inherit" font-size="12" dy=".8em" y="412.6999948993325" x="2279.5000132396817">例子：Randall Munroe以幽默的语言文字，让枯燥无味的知识科普变的有趣而利于传播</text></g></g><g id="minder_node54"><g id="node_expander52" style="cursor: pointer;"><path id="kity_path_541" fill="white" stroke="gray" d="M2229.5000124052167,472.499995701015A6,6,0,1,1,2217.5000124052167,472.499995701015A6,6,0,1,1,2229.5000124052167,472.499995701015"></path><path id="kity_path_542" fill="none" stroke="gray" d="M2219.0000124052167,472.499995701015L2228.0000124052167,472.499995701015"></path></g><path id="node_outline53" fill="none" stroke="none" d="M2234.5000126436353,461.499995701015h95a5,5,0,0,1,5,5v12a5,5,0,0,1,-5,5h-95a5,5,0,0,1,-5,-5v-12a5,5,0,0,1,5,-5z"></path><g id="node_text53" fill="black"><text id="kity_text_265" text-rendering="inherit" font-size="12" dy=".8em" y="464.6999956741929" x="2239.5000126436353">以幽默消除歧视</text></g></g><g id="minder_node55"><g id="node_expander51" style="cursor: pointer;" display="none"><path id="kity_path_538" fill="white" stroke="gray" d="M2269.500013001263,524.4999964758754A6,6,0,1,1,2257.500013001263,524.4999964758754A6,6,0,1,1,2269.500013001263,524.4999964758754"></path><path id="kity_path_539" fill="none" stroke="gray"></path></g><path id="node_outline52" fill="none" stroke="none" d="M2274.5000132396817,513.4999964758754h537a5,5,0,0,1,5,5v12a5,5,0,0,1,-5,5h-537a5,5,0,0,1,-5,-5v-12a5,5,0,0,1,5,-5z"></path><g id="node_text52" fill="black"><text id="kity_text_263" text-rendering="inherit" font-size="12" dy=".8em" y="516.6999964490533" x="2279.5000132396817">例子：Ruby Wax以幽默的方式让人们了解精神疾病，同时不断削减着人们对精神疾病的误解与歧视</text></g></g><g id="minder_node56"><g id="node_expander62" style="cursor: pointer;"><path id="kity_path_571" fill="white" stroke="gray" d="M2189.5000118091702,576.4999972507358A6,6,0,1,1,2177.5000118091702,576.4999972507358A6,6,0,1,1,2189.5000118091702,576.4999972507358"></path><path id="kity_path_572" fill="none" stroke="gray" d="M2179.0000118091702,576.4999972507358L2188.0000118091702,576.4999972507358"></path></g><path id="node_outline63" fill="#f2dbdb" stroke="none" d="M2194.500012047589,565.4999972507358h72a5,5,0,0,1,5,5v12a5,5,0,0,1,-5,5h-72a5,5,0,0,1,-5,-5v-12a5,5,0,0,1,5,-5z"></path><g id="node_text63" fill="black"><text id="kity_text_285" text-rendering="inherit" font-size="12" dy=".8em" y="568.6999972239137" x="2199.500012047589">情感化设计</text></g></g><g id="minder_node57"><g id="node_expander57" style="cursor: pointer;"><path id="kity_path_556" fill="white" stroke="gray" d="M2229.5000124052167,628.4999980255961A6,6,0,1,1,2217.5000124052167,628.4999980255961A6,6,0,1,1,2229.5000124052167,628.4999980255961"></path><path id="kity_path_557" fill="none" stroke="gray" d="M2219.0000124052167,628.4999980255961L2228.0000124052167,628.4999980255961"></path></g><path id="node_outline58" fill="none" stroke="none" d="M2234.5000126436353,617.4999980255961h127a5,5,0,0,1,5,5v12a5,5,0,0,1,-5,5h-127a5,5,0,0,1,-5,-5v-12a5,5,0,0,1,5,-5z"></path><g id="node_text58" fill="black"><text id="kity_text_275" text-rendering="inherit" font-size="12" dy=".8em" y="620.699997998774" x="2239.5000126436353">积极心理学的3个目标</text></g></g><g id="minder_node58"><g id="node_expander54" style="cursor: pointer;" display="none"><path id="kity_path_547" fill="white" stroke="gray" d="M2269.500013001263,680.4999988004565A6,6,0,1,1,2257.500013001263,680.4999988004565A6,6,0,1,1,2269.500013001263,680.4999988004565"></path><path id="kity_path_548" fill="none" stroke="gray"></path></g><path id="node_outline55" fill="none" stroke="none" d="M2274.5000132396817,669.4999988004565h264a5,5,0,0,1,5,5v12a5,5,0,0,1,-5,5h-264a5,5,0,0,1,-5,-5v-12a5,5,0,0,1,5,-5z"></path><g id="node_text55" fill="black"><text id="kity_text_269" text-rendering="inherit" font-size="12" dy=".8em" y="672.6999987736344" x="2279.5000132396817">心理学不仅要关注人的弱点，还要关注人的优势</text></g></g><g id="minder_node59"><g id="node_expander55" style="cursor: pointer;" display="none"><path id="kity_path_550" fill="white" stroke="gray" d="M2269.500013001263,732.4999995753169A6,6,0,1,1,2257.500013001263,732.4999995753169A6,6,0,1,1,2269.500013001263,732.4999995753169"></path><path id="kity_path_551" fill="none" stroke="gray"></path></g><path id="node_outline56" fill="none" stroke="none" d="M2274.5000132396817,721.4999995753169h467a5,5,0,0,1,5,5v12a5,5,0,0,1,-5,5h-467a5,5,0,0,1,-5,-5v-12a5,5,0,0,1,5,-5z"></path><g id="node_text56" fill="black"><text id="kity_text_271" text-rendering="inherit" font-size="12" dy=".8em" y="724.6999995484948" x="2279.5000132396817">不仅要致力于修复心理损伤，还要致力于给人力量，让其对生活中美好的东西感兴趣。</text></g></g><g id="minder_node60"><g id="node_expander56" style="cursor: pointer;" display="none"><path id="kity_path_553" fill="white" stroke="gray" d="M2269.500013001263,784.5000003501773A6,6,0,1,1,2257.500013001263,784.5000003501773A6,6,0,1,1,2269.500013001263,784.5000003501773"></path><path id="kity_path_554" fill="none" stroke="gray"></path></g><path id="node_outline57" fill="none" stroke="none" d="M2274.5000132396817,773.5000003501773h395a5,5,0,0,1,5,5v12a5,5,0,0,1,-5,5h-395a5,5,0,0,1,-5,-5v-12a5,5,0,0,1,5,-5z"></path><g id="node_text57" fill="black"><text id="kity_text_273" text-rendering="inherit" font-size="12" dy=".8em" y="776.7000003233552" x="2279.5000132396817">应该在关注病人的同时，努力让正常人以及“天才”们的生活更加美好。</text></g></g><g id="minder_node61"><g id="node_expander61" style="cursor: pointer;"><path id="kity_path_568" fill="white" stroke="gray" d="M2229.5000124052167,836.5000011250377A6,6,0,1,1,2217.5000124052167,836.5000011250377A6,6,0,1,1,2229.5000124052167,836.5000011250377"></path><path id="kity_path_569" fill="none" stroke="gray" d="M2219.0000124052167,836.5000011250377L2228.0000124052167,836.5000011250377"></path></g><path id="node_outline62" fill="none" stroke="none" d="M2234.5000126436353,825.5000011250377h126a5,5,0,0,1,5,5v12a5,5,0,0,1,-5,5h-126a5,5,0,0,1,-5,-5v-12a5,5,0,0,1,5,-5z"></path><g id="node_text62" fill="black"><text id="kity_text_283" text-rendering="inherit" font-size="12" dy=".8em" y="828.7000010982156" x="2239.5000126436353">情感化设计的3个层面</text></g></g><g id="minder_node62"><g id="node_expander58" style="cursor: pointer;" display="none"><path id="kity_path_559" fill="white" stroke="gray" d="M2269.500013001263,888.500001899898A6,6,0,1,1,2257.500013001263,888.500001899898A6,6,0,1,1,2269.500013001263,888.500001899898"></path><path id="kity_path_560" fill="none" stroke="gray"></path></g><path id="node_outline59" fill="none" stroke="none" d="M2274.5000132396817,877.500001899898h59a5,5,0,0,1,5,5v12a5,5,0,0,1,-5,5h-59a5,5,0,0,1,-5,-5v-12a5,5,0,0,1,5,-5z"></path><g id="node_text59" fill="black"><text id="kity_text_277" text-rendering="inherit" font-size="12" dy=".8em" y="880.700001873076" x="2279.5000132396817">本能层面</text></g></g><g id="minder_node63"><g id="node_expander59" style="cursor: pointer;" display="none"><path id="kity_path_562" fill="white" stroke="gray" d="M2269.500013001263,940.5000026747584A6,6,0,1,1,2257.500013001263,940.5000026747584A6,6,0,1,1,2269.500013001263,940.5000026747584"></path><path id="kity_path_563" fill="none" stroke="gray"></path></g><path id="node_outline60" fill="none" stroke="none" d="M2274.5000132396817,929.5000026747584h59a5,5,0,0,1,5,5v12a5,5,0,0,1,-5,5h-59a5,5,0,0,1,-5,-5v-12a5,5,0,0,1,5,-5z"></path><g id="node_text60" fill="black"><text id="kity_text_279" text-rendering="inherit" font-size="12" dy=".8em" y="932.7000026479363" x="2279.5000132396817">行为层面</text></g></g><g id="minder_node64"><g id="node_expander60" style="cursor: pointer;" display="none"><path id="kity_path_565" fill="white" stroke="gray" d="M2269.500013001263,992.5000034496188A6,6,0,1,1,2257.500013001263,992.5000034496188A6,6,0,1,1,2269.500013001263,992.5000034496188"></path><path id="kity_path_566" fill="none" stroke="gray"></path></g><path id="node_outline61" fill="none" stroke="none" d="M2274.5000132396817,981.5000034496188h59a5,5,0,0,1,5,5v12a5,5,0,0,1,-5,5h-59a5,5,0,0,1,-5,-5v-12a5,5,0,0,1,5,-5z"></path><g id="node_text61" fill="black"><text id="kity_text_281" text-rendering="inherit" font-size="12" dy=".8em" y="984.7000034227967" x="2279.5000132396817">反思层面</text></g></g><g id="minder_node65"><g id="node_expander65" style="cursor: pointer;"><path id="kity_path_580" fill="white" stroke="gray" d="M2189.5000118091702,1044.5000042244792A6,6,0,1,1,2177.5000118091702,1044.5000042244792A6,6,0,1,1,2189.5000118091702,1044.5000042244792"></path><path id="kity_path_581" fill="none" stroke="gray" d="M2179.0000118091702,1044.5000042244792L2188.0000118091702,1044.5000042244792"></path></g><path id="node_outline66" fill="#f2dbdb" stroke="none" d="M2194.500012047589,1033.5000042244792h108a5,5,0,0,1,5,5v12a5,5,0,0,1,-5,5h-108a5,5,0,0,1,-5,-5v-12a5,5,0,0,1,5,-5z"></path><g id="node_text66" fill="black"><text id="kity_text_291" text-rendering="inherit" font-size="12" dy=".8em" y="1036.700004197657" x="2199.500012047589">环境与可持续设计</text></g></g><g id="minder_node66"><g id="node_expander63" style="cursor: pointer;" display="none"><path id="kity_path_574" fill="white" stroke="gray" d="M2229.5000124052167,1096.5000049993396A6,6,0,1,1,2217.5000124052167,1096.5000049993396A6,6,0,1,1,2229.5000124052167,1096.5000049993396"></path><path id="kity_path_575" fill="none" stroke="gray"></path></g><path id="node_outline64" fill="none" stroke="none" d="M2234.5000126436353,1085.5000049993396h287a5,5,0,0,1,5,5v12a5,5,0,0,1,-5,5h-287a5,5,0,0,1,-5,-5v-12a5,5,0,0,1,5,-5z" stroke-width="3"></path><g id="node_text64" fill="black"><text id="kity_text_287" text-rendering="inherit" font-size="12" dy=".8em" y="1088.7000049725175" x="2239.5000126436353">地球已满，环境正在逐渐恶化，人类应该何去何从？</text></g></g><g id="minder_node67"><g id="node_expander64" style="cursor: pointer;"><path id="kity_path_577" fill="white" stroke="gray" d="M2229.5000124052167,1148.5000057742A6,6,0,1,1,2217.5000124052167,1148.5000057742A6,6,0,1,1,2229.5000124052167,1148.5000057742"></path><path id="kity_path_578" fill="none" stroke="gray" d="M2219.0000124052167,1148.5000057742L2228.0000124052167,1148.5000057742"></path></g><path id="node_outline65" fill="none" stroke="none" d="M2234.5000126436353,1137.5000057742h132a5,5,0,0,1,5,5v12a5,5,0,0,1,-5,5h-132a5,5,0,0,1,-5,-5v-12a5,5,0,0,1,5,-5z" stroke-width="3"></path><g id="node_text65" fill="black"><text id="kity_text_289" text-rendering="inherit" font-size="12" dy=".8em" y="1140.7000057473779" x="2239.5000126436353">共建可持续发展的未来</text></g></g><g id="minder_node68"><g id="node_expander67" style="cursor: pointer;" display="none"><path id="kity_path_591" fill="white" stroke="gray" d="M2269.500013001263,1200.5000065490603A6,6,0,1,1,2257.500013001263,1200.5000065490603A6,6,0,1,1,2269.500013001263,1200.5000065490603"></path><path id="kity_path_592" fill="none" stroke="gray" d="M2259.000013001263,1200.5000065490603L2268.000013001263,1200.5000065490603"></path></g><path id="node_outline68" fill="none" stroke="none" d="M2274.5000132396817,1189.5000065490603h131a5,5,0,0,1,5,5v12a5,5,0,0,1,-5,5h-131a5,5,0,0,1,-5,-5v-12a5,5,0,0,1,5,-5z" stroke-width="3"></path><g id="node_text68" fill="black"><text id="kity_text_588" text-rendering="inherit" font-size="12" dy=".8em" y="1192.7000065222383" x="2279.5000132396817">商业可实现可持续发展</text></g></g><g id="minder_node70"><g id="node_expander69" style="cursor: pointer;" display="none"><path id="kity_path_607" fill="white" stroke="gray" d="M2269.500013001263,1252.5000073239207A6,6,0,1,1,2257.500013001263,1252.5000073239207A6,6,0,1,1,2269.500013001263,1252.5000073239207"></path><path id="kity_path_608" fill="none" stroke="gray"></path></g><path id="node_outline70" fill="none" stroke="none" d="M2274.5000132396817,1241.5000073239207h143a5,5,0,0,1,5,5v12a5,5,0,0,1,-5,5h-143a5,5,0,0,1,-5,-5v-12a5,5,0,0,1,5,-5z" stroke-width="3"></path><g id="node_text70" fill="black"><text id="kity_text_604" text-rendering="inherit" font-size="12" dy=".8em" y="1244.7000072970986" x="2279.5000132396817">时尚服装业的可持续设计</text></g></g><g id="minder_node71"><g id="node_expander70" style="cursor: pointer;" display="none"><path id="kity_path_615" fill="white" stroke="gray" d="M2269.500013001263,1304.500008098781A6,6,0,1,1,2257.500013001263,1304.500008098781A6,6,0,1,1,2269.500013001263,1304.500008098781"></path><path id="kity_path_616" fill="none" stroke="gray" d="M2259.000013001263,1304.500008098781L2268.000013001263,1304.500008098781"></path></g><path id="node_outline71" fill="none" stroke="none" d="M2274.5000132396817,1293.500008098781h198a5,5,0,0,1,5,5v12a5,5,0,0,1,-5,5h-198a5,5,0,0,1,-5,-5v-12a5,5,0,0,1,5,-5z" stroke-width="3"></path><g id="node_text71" fill="black"><text id="kity_text_612" text-rendering="inherit" font-size="12" dy=".8em" y="1296.700008071959" x="2279.5000132396817">5项变革策略建立可持续发展的世界</text></g></g></g></g></svg>