<svg id="kity_svg_6" xmlns="http://www.w3.org/2000/svg" xmlns:xlink="http://www.w3.org/1999/xlink" version="1.1" width="2972" height="1699" style="background: rgb(251, 251, 251); visibility: visible;" viewBox="0 0 2972 1699"><defs id="kity_defs_7"><linearGradient id="kity_linearGradient_17" x1="0" y1="0" x2="0" y2="1"><stop id="kity_stop_18" offset="0" stop-color="rgb(255, 255, 255)"></stop><stop id="kity_stop_19" offset="1" stop-color="rgb(204, 204, 204)"></stop></linearGradient><marker id="kity_marker_2" orient="auto" refX="6" refY="0" viewBox="-7 -7 14 14" markerWidth="7" markerHeight="7" markerUnits="userSpaceOnUse"><path id="kity_path_3" fill="rgb(115, 161, 191)" stroke="none" d="M6,0A6,6,0,1,1,-6,0A6,6,0,1,1,6,0"></path></marker></defs><g id="kity_g_8"><g id="minder1" text-rendering="optimize-speed"><g id="minder_connect_group1"><path id="kity_path_31" fill="none" stroke="rgb(115, 161, 191)" stroke-width="1" d="M1144.5000094398856,84.49998953193426v30h-1077V134.49998953193426"></path><path id="kity_path_33" fill="none" stroke="rgb(115, 161, 191)" stroke-width="1" d="M39.500009439885616,166.49998953193426V212.49998953193426L59.500009439885616,212.49998953193426"></path><path id="kity_path_35" fill="none" stroke="rgb(115, 161, 191)" stroke-width="1" d="M79.50000943988562,223.49998953193426V264.49998953193426L99.50000943988562,264.49998953193426"></path><path id="kity_path_37" fill="none" stroke="rgb(115, 161, 191)" stroke-width="1" d="M79.50000943988562,223.49998953193426V316.49998953193426L99.50000943988562,316.49998953193426"></path><path id="kity_path_39" fill="none" stroke="rgb(115, 161, 191)" stroke-width="1" d="M79.50000943988562,223.49998953193426V368.49998953193426L99.50000943988562,368.49998953193426"></path><path id="kity_path_41" fill="none" stroke="rgb(115, 161, 191)" stroke-width="1" d="M39.500009439885616,166.49998953193426V420.49998953193426L59.500009439885616,420.49998953193426"></path><path id="kity_path_43" fill="none" stroke="rgb(115, 161, 191)" stroke-width="1" d="M79.50000943988562,431.49998953193426V472.49998953193426L99.50000943988562,472.49998953193426"></path><path id="kity_path_45" fill="none" stroke="rgb(115, 161, 191)" stroke-width="1" d="M119.50000943988562,483.49998953193426V524.4999895319343L139.50000943988562,524.4999895319343"></path><path id="kity_path_47" fill="none" stroke="rgb(115, 161, 191)" stroke-width="1" d="M79.50000943988562,431.49998953193426V576.4999895319343L99.50000943988562,576.4999895319343"></path><path id="kity_path_49" fill="none" stroke="rgb(115, 161, 191)" stroke-width="1" d="M79.50000943988562,431.49998953193426V628.4999895319343L99.50000943988562,628.4999895319343"></path><path id="kity_path_51" fill="none" stroke="rgb(115, 161, 191)" stroke-width="1" d="M79.50000943988562,431.49998953193426V680.4999895319343L99.50000943988562,680.4999895319343"></path><path id="kity_path_53" fill="none" stroke="rgb(115, 161, 191)" stroke-width="1" d="M39.500009439885616,166.49998953193426V732.4999895319343L59.500009439885616,732.4999895319343"></path><path id="kity_path_55" fill="none" stroke="rgb(115, 161, 191)" stroke-width="1" d="M79.50000943988562,743.4999895319343V784.4999895319343L99.50000943988562,784.4999895319343"></path><path id="kity_path_57" fill="none" stroke="rgb(115, 161, 191)" stroke-width="1" d="M79.50000943988562,743.4999895319343V836.4999895319343L99.50000943988562,836.4999895319343"></path><path id="kity_path_59" fill="none" stroke="rgb(115, 161, 191)" stroke-width="1" d="M79.50000943988562,743.4999895319343V888.4999895319343L99.50000943988562,888.4999895319343"></path><path id="kity_path_61" fill="none" stroke="rgb(115, 161, 191)" stroke-width="1" d="M39.500009439885616,166.49998953193426V940.4999895319343L59.500009439885616,940.4999895319343"></path><path id="kity_path_63" fill="none" stroke="rgb(115, 161, 191)" stroke-width="1" d="M79.50000943988562,951.4999895319343V992.4999895319343L99.50000943988562,992.4999895319343"></path><path id="kity_path_65" fill="none" stroke="rgb(115, 161, 191)" stroke-width="1" d="M1144.5000094398856,84.49998953193426v30h-395.5V134.49998953193426"></path><path id="kity_path_67" fill="none" stroke="rgb(115, 161, 191)" stroke-width="1" d="M700.5000094398856,166.49998953193426V420.49998953193426L720.5000094398856,420.49998953193426"></path><path id="kity_path_69" fill="none" stroke="rgb(115, 161, 191)" stroke-width="1" d="M740.5000094398856,431.49998953193426V472.49998953193426L760.5000094398856,472.49998953193426"></path><path id="kity_path_71" fill="none" stroke="rgb(115, 161, 191)" stroke-width="1" d="M740.5000094398856,431.49998953193426V524.4999895319343L760.5000094398856,524.4999895319343"></path><path id="kity_path_73" fill="none" stroke="rgb(115, 161, 191)" stroke-width="1" d="M740.5000094398856,431.49998953193426V576.4999895319343L760.5000094398856,576.4999895319343"></path><path id="kity_path_75" fill="none" stroke="rgb(115, 161, 191)" stroke-width="1" d="M700.5000094398856,166.49998953193426V628.4999895319343L720.5000094398856,628.4999895319343"></path><path id="kity_path_77" fill="none" stroke="rgb(115, 161, 191)" stroke-width="1" d="M740.5000094398856,639.4999895319343V680.4999895319343L760.5000094398856,680.4999895319343"></path><path id="kity_path_89" fill="none" stroke="rgb(115, 161, 191)" stroke-width="1" d="M700.5000094398856,166.49998953193426V836.4999895319343L720.5000094398856,836.4999895319343"></path><path id="kity_path_91" fill="none" stroke="rgb(115, 161, 191)" stroke-width="1" d="M740.5000094398856,847.4999895319343V888.4999895319343L760.5000094398856,888.4999895319343"></path><path id="kity_path_93" fill="none" stroke="rgb(115, 161, 191)" stroke-width="1" d="M700.5000094398856,166.49998953193426V732.4999895319343L720.5000094398856,732.4999895319343"></path><path id="kity_path_97" fill="none" stroke="rgb(115, 161, 191)" stroke-width="1" d="M700.5000094398856,166.49998953193426V940.4999895319343L720.5000094398856,940.4999895319343"></path><path id="kity_path_99" fill="none" stroke="rgb(115, 161, 191)" stroke-width="1" d="M740.5000094398856,951.4999895319343V992.4999895319343L760.5000094398856,992.4999895319343"></path><path id="kity_path_101" fill="none" stroke="rgb(115, 161, 191)" stroke-width="1" d="M700.5000094398856,166.49998953193426V1044.4999895319343L720.5000094398856,1044.4999895319343"></path><path id="kity_path_103" fill="none" stroke="rgb(115, 161, 191)" stroke-width="1" d="M740.5000094398856,1055.4999895319343V1096.4999895319343L760.5000094398856,1096.4999895319343"></path><path id="kity_path_105" fill="none" stroke="rgb(115, 161, 191)" stroke-width="1" d="M780.5000094398856,1107.4999895319343V1148.4999895319343L800.5000094398856,1148.4999895319343"></path><path id="kity_path_107" fill="none" stroke="rgb(115, 161, 191)" stroke-width="1" d="M740.5000094398856,1055.4999895319343V1200.4999895319343L760.5000094398856,1200.4999895319343"></path><path id="kity_path_109" fill="none" stroke="rgb(115, 161, 191)" stroke-width="1" d="M780.5000094398856,1211.4999895319343V1257.4999895319343L800.5000094398856,1257.4999895319343"></path><path id="kity_path_111" fill="none" stroke="rgb(115, 161, 191)" stroke-width="1" d="M740.5000094398856,1055.4999895319343V1314.4999895319343L760.5000094398856,1314.4999895319343"></path><path id="kity_path_113" fill="none" stroke="rgb(115, 161, 191)" stroke-width="1" d="M780.5000094398856,1325.4999895319343V1366.4999895319343L800.5000094398856,1366.4999895319343"></path><path id="kity_path_115" fill="none" stroke="rgb(115, 161, 191)" stroke-width="1" d="M1144.5000094398856,84.49998953193426v30h596.5V134.49998953193426"></path><path id="kity_path_117" fill="none" stroke="rgb(115, 161, 191)" stroke-width="1" d="M1692.5000094398856,166.49998953193426V212.49998953193426L1712.5000094398856,212.49998953193426"></path><path id="kity_path_119" fill="none" stroke="rgb(115, 161, 191)" stroke-width="1" d="M1732.5000094398856,223.49998953193426V264.49998953193426L1752.5000094398856,264.49998953193426"></path><path id="kity_path_121" fill="none" stroke="rgb(115, 161, 191)" stroke-width="1" d="M1732.5000094398856,223.49998953193426V316.49998953193426L1752.5000094398856,316.49998953193426"></path><path id="kity_path_123" fill="none" stroke="rgb(115, 161, 191)" stroke-width="1" d="M1732.5000094398856,223.49998953193426V368.49998953193426L1752.5000094398856,368.49998953193426"></path><path id="kity_path_125" fill="none" stroke="rgb(115, 161, 191)" stroke-width="1" d="M1732.5000094398856,223.49998953193426V420.49998953193426L1752.5000094398856,420.49998953193426"></path><path id="kity_path_127" fill="none" stroke="rgb(115, 161, 191)" stroke-width="1" d="M1692.5000094398856,166.49998953193426V472.49998953193426L1712.5000094398856,472.49998953193426"></path><path id="kity_path_129" fill="none" stroke="rgb(115, 161, 191)" stroke-width="1" d="M1732.5000094398856,483.49998953193426V524.4999895319343L1752.5000094398856,524.4999895319343"></path><path id="kity_path_131" fill="none" stroke="rgb(115, 161, 191)" stroke-width="1" d="M1772.5000094398856,535.4999895319343V576.4999895319343L1792.5000094398856,576.4999895319343"></path><path id="kity_path_133" fill="none" stroke="rgb(115, 161, 191)" stroke-width="1" d="M1772.5000094398856,535.4999895319343V628.4999895319343L1792.5000094398856,628.4999895319343"></path><path id="kity_path_135" fill="none" stroke="rgb(115, 161, 191)" stroke-width="1" d="M1732.5000094398856,483.49998953193426V680.4999895319343L1752.5000094398856,680.4999895319343"></path><path id="kity_path_137" fill="none" stroke="rgb(115, 161, 191)" stroke-width="1" d="M1772.5000094398856,691.4999895319343V732.4999895319343L1792.5000094398856,732.4999895319343"></path><path id="kity_path_139" fill="none" stroke="rgb(115, 161, 191)" stroke-width="1" d="M1772.5000094398856,691.4999895319343V784.4999895319343L1792.5000094398856,784.4999895319343"></path><path id="kity_path_141" fill="none" stroke="rgb(115, 161, 191)" stroke-width="1" d="M1692.5000094398856,166.49998953193426V836.4999895319343L1712.5000094398856,836.4999895319343"></path><path id="kity_path_143" fill="none" stroke="rgb(115, 161, 191)" stroke-width="1" d="M1732.5000094398856,847.4999895319343V888.4999895319343L1752.5000094398856,888.4999895319343"></path><path id="kity_path_145" fill="none" stroke="rgb(115, 161, 191)" stroke-width="1" d="M1144.5000094398856,84.49998953193426v30h1065V134.49998953193426"></path><path id="kity_path_147" fill="none" stroke="rgb(115, 161, 191)" stroke-width="1" d="M2168.5000094398856,166.49998953193426V212.49998953193426L2188.5000094398856,212.49998953193426"></path><path id="kity_path_149" fill="none" stroke="rgb(115, 161, 191)" stroke-width="1" d="M2208.5000094398856,223.49998953193426V264.49998953193426L2228.5000094398856,264.49998953193426"></path><path id="kity_path_151" fill="none" stroke="rgb(115, 161, 191)" stroke-width="1" d="M2248.5000094398856,275.49998953193426V316.49998953193426L2268.5000094398856,316.49998953193426"></path><path id="kity_path_153" fill="none" stroke="rgb(115, 161, 191)" stroke-width="1" d="M2208.5000094398856,223.49998953193426V368.49998953193426L2228.5000094398856,368.49998953193426"></path><path id="kity_path_155" fill="none" stroke="rgb(115, 161, 191)" stroke-width="1" d="M2248.5000094398856,379.49998953193426V420.49998953193426L2268.5000094398856,420.49998953193426"></path><path id="kity_path_157" fill="none" stroke="rgb(115, 161, 191)" stroke-width="1" d="M2208.5000094398856,223.49998953193426V472.49998953193426L2228.5000094398856,472.49998953193426"></path><path id="kity_path_159" fill="none" stroke="rgb(115, 161, 191)" stroke-width="1" d="M2248.5000094398856,483.49998953193426V524.4999895319343L2268.5000094398856,524.4999895319343"></path><path id="kity_path_161" fill="none" stroke="rgb(115, 161, 191)" stroke-width="1" d="M2168.5000094398856,166.49998953193426V576.4999895319343L2188.5000094398856,576.4999895319343"></path><path id="kity_path_163" fill="none" stroke="rgb(115, 161, 191)" stroke-width="1" d="M2208.5000094398856,587.4999895319343V628.4999895319343L2228.5000094398856,628.4999895319343"></path><path id="kity_path_165" fill="none" stroke="rgb(115, 161, 191)" stroke-width="1" d="M2248.5000094398856,639.4999895319343V680.4999895319343L2268.5000094398856,680.4999895319343"></path><path id="kity_path_167" fill="none" stroke="rgb(115, 161, 191)" stroke-width="1" d="M2248.5000094398856,639.4999895319343V732.4999895319343L2268.5000094398856,732.4999895319343"></path><path id="kity_path_169" fill="none" stroke="rgb(115, 161, 191)" stroke-width="1" d="M2248.5000094398856,639.4999895319343V784.4999895319343L2268.5000094398856,784.4999895319343"></path><path id="kity_path_171" fill="none" stroke="rgb(115, 161, 191)" stroke-width="1" d="M2208.5000094398856,587.4999895319343V836.4999895319343L2228.5000094398856,836.4999895319343"></path><path id="kity_path_173" fill="none" stroke="rgb(115, 161, 191)" stroke-width="1" d="M2248.5000094398856,847.4999895319343V888.4999895319343L2268.5000094398856,888.4999895319343"></path><path id="kity_path_175" fill="none" stroke="rgb(115, 161, 191)" stroke-width="1" d="M2248.5000094398856,847.4999895319343V940.4999895319343L2268.5000094398856,940.4999895319343"></path><path id="kity_path_177" fill="none" stroke="rgb(115, 161, 191)" stroke-width="1" d="M2248.5000094398856,847.4999895319343V992.4999895319343L2268.5000094398856,992.4999895319343"></path><path id="kity_path_179" fill="none" stroke="rgb(115, 161, 191)" stroke-width="1" d="M2168.5000094398856,166.49998953193426V1044.4999895319343L2188.5000094398856,1044.4999895319343"></path><path id="kity_path_181" fill="none" stroke="rgb(115, 161, 191)" stroke-width="1" d="M2208.5000094398856,1055.4999895319343V1096.4999895319343L2228.5000094398856,1096.4999895319343"></path><path id="kity_path_183" fill="none" stroke="rgb(115, 161, 191)" stroke-width="1" d="M2208.5000094398856,1055.4999895319343V1148.4999895319343L2228.5000094398856,1148.4999895319343"></path><path id="kity_path_185" fill="none" stroke="rgb(115, 161, 191)" stroke-width="1" d="M2248.5000094398856,1159.4999895319343V1200.4999895319343L2268.5000094398856,1200.4999895319343"></path><path id="kity_path_187" fill="none" stroke="rgb(115, 161, 191)" stroke-width="1" d="M2248.5000094398856,1159.4999895319343V1252.4999895319343L2268.5000094398856,1252.4999895319343"></path><path id="kity_path_189" fill="none" stroke="rgb(115, 161, 191)" stroke-width="1" d="M2248.5000094398856,1159.4999895319343V1304.4999895319343L2268.5000094398856,1304.4999895319343"></path><path id="kity_path_191" fill="none" stroke="rgb(115, 161, 191)" stroke-width="1" d="M2168.5000094398856,166.49998953193426V1356.4999895319343L2188.5000094398856,1356.4999895319343"></path><path id="kity_path_193" fill="none" stroke="rgb(115, 161, 191)" stroke-width="1" d="M2208.5000094398856,1367.4999895319343V1408.4999895319343L2228.5000094398856,1408.4999895319343"></path><path id="kity_path_195" fill="none" stroke="rgb(115, 161, 191)" stroke-width="1" d="M2248.5000094398856,1419.4999895319343V1460.4999895319343L2268.5000094398856,1460.4999895319343"></path><path id="kity_path_197" fill="none" stroke="rgb(115, 161, 191)" stroke-width="1" d="M2208.5000094398856,1367.4999895319343V1512.4999895319343L2228.5000094398856,1512.4999895319343"></path><path id="kity_path_199" fill="none" stroke="rgb(115, 161, 191)" stroke-width="1" d="M2248.5000094398856,1523.4999895319343V1564.4999895319343L2268.5000094398856,1564.4999895319343"></path><path id="kity_path_201" fill="none" stroke="rgb(115, 161, 191)" stroke-width="1" d="M2248.5000094398856,1523.4999895319343V1616.4999895319343L2268.5000094398856,1616.4999895319343"></path><path id="kity_path_203" fill="none" stroke="rgb(115, 161, 191)" stroke-width="1" d="M2208.5000094398856,1367.4999895319343V1668.4999895319343L2228.5000094398856,1668.4999895319343"></path><path id="kity_path_753" fill="none" stroke="rgb(115, 161, 191)" stroke-width="1" d="M700.5000094398856,166.49998953193426V212.49998953193426L720.5000094398856,212.49998953193426"></path><path id="kity_path_754" fill="none" stroke="rgb(115, 161, 191)" stroke-width="1" d="M700.5000094398856,166.49998953193426V264.49998953193426L720.5000094398856,264.49998953193426"></path><path id="kity_path_756" fill="none" stroke="rgb(115, 161, 191)" stroke-width="1" d="M700.5000094398856,166.49998953193426V316.49998953193426L720.5000094398856,316.49998953193426"></path><path id="kity_path_758" fill="none" stroke="rgb(115, 161, 191)" stroke-width="1" d="M740.5000094398856,327.49998953193426V368.49998953193426L760.5000094398856,368.49998953193426"></path><path id="kity_path_759" fill="none" stroke="rgb(115, 161, 191)" stroke-width="1" d="M740.5000094398856,743.4999895319343V784.4999895319343L760.5000094398856,784.4999895319343"></path></g><g id="minder_node1"><path id="node_outline1" fill="#548dd4" stroke="rgb(115, 161, 191)" d="M914.5000094398856,20.49998953193426h459a5,5,0,0,1,5,5v54a5,5,0,0,1,-5,5h-459a5,5,0,0,1,-5,-5v-54a5,5,0,0,1,5,-5z" stroke-width="3"></path><g id="node_text1" fill="white"><text id="kity_text_22" text-rendering="inherit" font-size="16" dy=".8em" y="30.099989496171474" font-family="微软雅黑,Microsoft YaHei" x="933.5000094398856">科技、娱乐与设计</text><text id="kity_text_378" text-rendering="inherit" font-family="微软雅黑,Microsoft YaHei" font-size="16" dy=".8em" y="54.099989496171474" x="933.5000094398856">https://wordlesssoda.github.io/TED_notes/TED.svg</text></g><a id="kity_a_402" xlink:href="https://wordlesssoda.github.io/TED_notes/TED.svg" target="_blank" xlink:title="https://wordlesssoda.github.io/TED_notes/TED.svg" style="cursor: pointer;"><path id="kity_path_404" fill="rgba(255, 255, 255, 0)" stroke="none" d="M1334.500015385449,41.499989457428455h16a4,4,0,0,1,4,4v14a4,4,0,0,1,-4,4h-16a4,4,0,0,1,-4,-4v-14a4,4,0,0,1,4,-4z"></path><path id="kity_path_403" fill="#666" stroke="none" d="M1349.114015385449,57.72398945742846h-1.278c-1.668,0,-3.07,-1.07,-3.599,-2.556h4.877c0.707,0,1.278,-0.571,1.278,-1.278V51.33398945742846c0,-0.707,-0.571,-1.278,-1.278,-1.278h-4.877C1344.766015385449,48.57098945742845,1346.1680153854488,47.499989457428455,1347.836015385449,47.499989457428455h1.278c2.116,0,3.834,1.716,3.834,3.834V53.889989457428456C1352.948015385449,56.00798945742845,1351.230015385449,57.72398945742846,1349.114015385449,57.72398945742846zM1337.612015385449,52.61198945742846c0,-0.707,0.573,-1.278,1.278,-1.278h7.668c0.707,0,1.278,0.571,1.278,1.278S1347.265015385449,53.889989457428456,1346.558015385449,53.889989457428456H1338.890015385449C1338.1850153854489,53.889989457428456,1337.612015385449,53.31898945742846,1337.612015385449,52.61198945742846zM1335.056015385449,51.33398945742846V53.889989457428456c0,0.707,0.573,1.278,1.278,1.278h4.877c-0.528,1.486,-1.932,2.556,-3.599,2.556H1336.334015385449C1334.2160153854488,57.72398945742846,1332.500015385449,56.00798945742845,1332.500015385449,53.889989457428456V51.33398945742846C1332.500015385449,49.215989457428456,1334.2160153854488,47.499989457428455,1336.334015385449,47.499989457428455h1.278c1.667,0,3.071,1.071,3.599,2.556H1336.334015385449C1335.6290153854488,50.05598945742845,1335.056015385449,50.62698945742846,1335.056015385449,51.33398945742846z"></path></a></g><g id="kity_g_14" display="none"><path id="kity_path_15" fill="rgba(0, 92, 153, 0.5)" stroke="none" d="M720.5000094398856,703.4999895319343h70v15h-70z"></path><path id="kity_path_16" fill="none" stroke="rgb(0, 76, 128)" d="M720.5000094398856,718.4999895319343L790.5000094398856,718.4999895319343" stroke-width="1"></path></g><g id="minder_node2"><g id="node_expander17" style="cursor: pointer;"><path id="kity_path_541" fill="white" stroke="gray" d="M72.99999652802944,127.49999064952135A6,6,0,1,1,60.99999652802944,127.49999064952135A6,6,0,1,1,72.99999652802944,127.49999064952135"></path><path id="kity_path_542" fill="none" stroke="gray" d="M62.49999652802944,127.49999064952135L71.49999652802944,127.49999064952135"></path></g><path id="node_outline18" fill="#548dd4" stroke="rgb(115, 161, 191)" d="M22.49999649077654,134.49999099224806h89a3,3,0,0,1,3,3v26a3,3,0,0,1,-3,3h-89a3,3,0,0,1,-3,-3v-26a3,3,0,0,1,3,-3z" stroke-width="1"></path><g id="node_text18" fill="white"><text id="kity_text_237" text-rendering="inherit" font-family="微软雅黑,Microsoft YaHei" font-size="14" dy=".8em" y="141.39999096095562" x="64.49999649077654">人体</text></g><g id="node_priority1"><path id="kity_path_381" fill="#840023" stroke="none" d="M39.99999612569809,153.99999085068703c0,3.866,3.134,7,7,7h6c3.866,0,7,-3.134,7,-7V147.99999085068703H39.99999612569809V153.99999085068703z"></path><path id="kity_path_382" fill="#FF1200" stroke="none" d="M59.99999612569809,150.99999085068703c0,3.866,-3.134,7,-7,7H46.99999612569809c-3.866,0,-7,-3.134,-7,-7V147.99999085068703c0,-3.866,3.134,-7,7,-7h6c3.866,0,7,3.134,7,7V150.99999085068703z" opacity="0.8"></path><text id="kity_text_383" text-rendering="geometricPrecision" x="48.99999611824751" y="150.49999084323645" text-anchor="middle" font-style="italic" font-size="12" fill="white" dy="5">1</text></g></g><g id="minder_node3"><g id="node_expander4" style="cursor: pointer;"><path id="kity_path_502" fill="white" stroke="gray" d="M59.499996326863766,212.49999191612005A6,6,0,1,1,47.499996326863766,212.49999191612005A6,6,0,1,1,59.499996326863766,212.49999191612005"></path><path id="kity_path_503" fill="none" stroke="gray" d="M48.999996326863766,212.49999191612005L57.999996326863766,212.49999191612005"></path></g><path id="node_outline5" fill="#548dd4" stroke="none" d="M64.49999656528234,201.49999191612005h36a5,5,0,0,1,5,5v12a5,5,0,0,1,-5,5h-36a5,5,0,0,1,-5,-5v-12a5,5,0,0,1,5,-5z" stroke-width="3"></path><g id="node_text5" fill="white"><text id="kity_text_211" text-rendering="inherit" font-family="微软雅黑,Microsoft YaHei" font-size="12" dy=".8em" y="204.69999188929796" x="69.49999656528234">性欲</text></g></g><g id="minder_node4"><g id="node_expander1" style="cursor: pointer;" display="none"><path id="kity_path_493" fill="white" stroke="gray" d="M99.49999692291021,264.49999269098043A6,6,0,1,1,87.49999692291021,264.49999269098043A6,6,0,1,1,99.49999692291021,264.49999269098043"></path><path id="kity_path_494" fill="none" stroke="gray"></path></g><path id="node_outline2" fill="none" stroke="none" d="M104.49999716132879,253.49999269098043h263a5,5,0,0,1,5,5v12a5,5,0,0,1,-5,5h-263a5,5,0,0,1,-5,-5v-12a5,5,0,0,1,5,-5z"></path><g id="node_text2" fill="black"><text id="kity_text_205" text-rendering="inherit" font-family="微软雅黑,Microsoft YaHei" font-size="12" dy=".8em" y="256.69999266415834" x="109.49999716132879">生活模仿艺术，色情影片已成性启蒙的形式之一</text></g></g><g id="minder_node5"><g id="node_expander2" style="cursor: pointer;" display="none"><path id="kity_path_496" fill="white" stroke="gray" d="M99.49999692291021,316.4999934658408A6,6,0,1,1,87.49999692291021,316.4999934658408A6,6,0,1,1,99.49999692291021,316.4999934658408"></path><path id="kity_path_497" fill="none" stroke="gray"></path></g><path id="node_outline3" fill="none" stroke="none" d="M104.49999716132879,305.4999934658408h276a5,5,0,0,1,5,5v12a5,5,0,0,1,-5,5h-276a5,5,0,0,1,-5,-5v-12a5,5,0,0,1,5,-5z"></path><g id="node_text3" fill="black"><text id="kity_text_207" text-rendering="inherit" font-family="微软雅黑,Microsoft YaHei" font-size="12" dy=".8em" y="308.6999934390187" x="109.49999716132879">纠正色情影片价值观，促成社会性别转向性别平等 </text></g></g><g id="minder_node6"><g id="node_expander3" style="cursor: pointer;" display="none"><path id="kity_path_499" fill="white" stroke="gray" d="M99.49999692291021,368.4999942407012A6,6,0,1,1,87.49999692291021,368.4999942407012A6,6,0,1,1,99.49999692291021,368.4999942407012"></path><path id="kity_path_500" fill="none" stroke="gray"></path></g><path id="node_outline4" fill="none" stroke="none" d="M104.49999716132879,357.4999942407012h300a5,5,0,0,1,5,5v12a5,5,0,0,1,-5,5h-300a5,5,0,0,1,-5,-5v-12a5,5,0,0,1,5,-5z"></path><g id="node_text4" fill="black"><text id="kity_text_209" text-rendering="inherit" font-size="12" dy=".8em" y="360.6999942138791" x="109.49999716132879">正视人体性欲，消除性欲的偏见，建立健康积极的性爱</text></g></g><g id="minder_node7"><g id="node_expander10" style="cursor: pointer;"><path id="kity_path_520" fill="white" stroke="gray" d="M59.499996326863766,420.4999950155616A6,6,0,1,1,47.499996326863766,420.4999950155616A6,6,0,1,1,59.499996326863766,420.4999950155616"></path><path id="kity_path_521" fill="none" stroke="gray" d="M48.999996326863766,420.4999950155616L57.999996326863766,420.4999950155616"></path></g><path id="node_outline11" fill="#548dd4" stroke="none" d="M64.49999656528234,409.4999950155616h35a5,5,0,0,1,5,5v12a5,5,0,0,1,-5,5h-35a5,5,0,0,1,-5,-5v-12a5,5,0,0,1,5,-5z"></path><g id="node_text11" fill="white"><text id="kity_text_223" text-rendering="inherit" font-family="微软雅黑,Microsoft YaHei" font-size="12" dy=".8em" y="412.6999949887395" x="69.49999656528234">上瘾</text></g></g><g id="minder_node8"><g id="node_expander6" style="cursor: pointer;"><path id="kity_path_508" fill="white" stroke="gray" d="M99.49999692291021,472.49999579042196A6,6,0,1,1,87.49999692291021,472.49999579042196A6,6,0,1,1,99.49999692291021,472.49999579042196"></path><path id="kity_path_509" fill="none" stroke="gray" d="M88.99999692291021,472.49999579042196L97.99999692291021,472.49999579042196"></path></g><path id="node_outline7" fill="none" stroke="none" d="M104.49999716132879,461.49999579042196h336a5,5,0,0,1,5,5v12a5,5,0,0,1,-5,5h-336a5,5,0,0,1,-5,-5v-12a5,5,0,0,1,5,-5z"></path><g id="node_text7" fill="black"><text id="kity_text_215" text-rendering="inherit" font-family="微软雅黑,Microsoft YaHei" font-size="12" dy=".8em" y="464.6999957635999" x="109.49999716132879">科技公司为了获取利益打响用户注意力争夺战，促使人们上瘾</text></g></g><g id="minder_node9"><g id="node_expander5" style="cursor: pointer;" display="none"><path id="kity_path_505" fill="white" stroke="gray" d="M139.49999751895666,524.4999965652823A6,6,0,1,1,127.49999751895666,524.4999965652823A6,6,0,1,1,139.49999751895666,524.4999965652823"></path><path id="kity_path_506" fill="none" stroke="gray"></path></g><path id="node_outline6" fill="none" stroke="none" d="M144.49999775737524,513.4999965652823h491a5,5,0,0,1,5,5v12a5,5,0,0,1,-5,5h-491a5,5,0,0,1,-5,-5v-12a5,5,0,0,1,5,-5z"></path><g id="node_text6" fill="black"><text id="kity_text_213" text-rendering="inherit" font-family="微软雅黑,Microsoft YaHei" font-size="12" dy=".8em" y="516.6999965384603" x="149.49999775737524">例子：YouTube、Netflix、Facebook等为了留住用户的注意力设计了自动连播视频的功能</text></g></g><g id="minder_node10"><g id="node_expander7" style="cursor: pointer;" display="none"><path id="kity_path_511" fill="white" stroke="gray" d="M99.49999692291021,576.4999973401427A6,6,0,1,1,87.49999692291021,576.4999973401427A6,6,0,1,1,99.49999692291021,576.4999973401427"></path><path id="kity_path_512" fill="none" stroke="gray"></path></g><path id="node_outline8" fill="none" stroke="none" d="M104.49999716132879,565.4999973401427h310a5,5,0,0,1,5,5v12a5,5,0,0,1,-5,5h-310a5,5,0,0,1,-5,-5v-12a5,5,0,0,1,5,-5z"></path><g id="node_text8" fill="black"><text id="kity_text_217" text-rendering="inherit" font-family="微软雅黑,Microsoft YaHei" font-size="12" dy=".8em" y="568.6999973133206" x="109.49999716132879">网络社交的大环境倒逼我们上瘾，因为人类是社会性动物</text></g></g><g id="minder_node11"><g id="node_expander8" style="cursor: pointer;" display="none"><path id="kity_path_514" fill="white" stroke="gray" d="M99.49999692291021,628.4999981150031A6,6,0,1,1,87.49999692291021,628.4999981150031A6,6,0,1,1,99.49999692291021,628.4999981150031"></path><path id="kity_path_515" fill="none" stroke="gray"></path></g><path id="node_outline9" fill="none" stroke="none" d="M104.49999716132879,617.4999981150031h191a5,5,0,0,1,5,5v12a5,5,0,0,1,-5,5h-191a5,5,0,0,1,-5,-5v-12a5,5,0,0,1,5,-5z"></path><g id="node_text9" fill="black"><text id="kity_text_219" text-rendering="inherit" font-family="微软雅黑,Microsoft YaHei" font-size="12" dy=".8em" y="620.699998088181" x="109.49999716132879">君子役物，小人役于物，学会役物</text></g></g><g id="minder_node12"><g id="node_expander9" style="cursor: pointer;" display="none"><path id="kity_path_517" fill="white" stroke="gray" d="M99.49999692291021,680.4999988898635A6,6,0,1,1,87.49999692291021,680.4999988898635A6,6,0,1,1,99.49999692291021,680.4999988898635"></path><path id="kity_path_518" fill="none" stroke="gray"></path></g><path id="node_outline10" fill="none" stroke="none" d="M104.49999716132879,669.4999988898635h251a5,5,0,0,1,5,5v12a5,5,0,0,1,-5,5h-251a5,5,0,0,1,-5,-5v-12a5,5,0,0,1,5,-5z"></path><g id="node_text10" fill="black"><text id="kity_text_221" text-rendering="inherit" font-size="12" dy=".8em" y="672.6999988630414" x="109.49999716132879">男性对色情片的过度兴奋成瘾，导致男性衰落</text></g></g><g id="minder_node13"><g id="node_expander14" style="cursor: pointer;"><path id="kity_path_532" fill="white" stroke="gray" d="M59.499996326863766,732.4999996647239A6,6,0,1,1,47.499996326863766,732.4999996647239A6,6,0,1,1,59.499996326863766,732.4999996647239"></path><path id="kity_path_533" fill="none" stroke="gray" d="M48.999996326863766,732.4999996647239L57.999996326863766,732.4999996647239"></path></g><path id="node_outline15" fill="#548dd4" stroke="none" d="M64.49999656528234,721.4999996647239h35a5,5,0,0,1,5,5v12a5,5,0,0,1,-5,5h-35a5,5,0,0,1,-5,-5v-12a5,5,0,0,1,5,-5z"></path><g id="node_text15" fill="white"><text id="kity_text_231" text-rendering="inherit" font-family="微软雅黑,Microsoft YaHei" font-size="12" dy=".8em" y="724.6999996379018" x="69.49999656528234">情绪</text></g></g><g id="minder_node14"><g id="node_expander11" style="cursor: pointer;" display="none"><path id="kity_path_523" fill="white" stroke="gray" d="M99.49999692291021,784.5000004395843A6,6,0,1,1,87.49999692291021,784.5000004395843A6,6,0,1,1,99.49999692291021,784.5000004395843"></path><path id="kity_path_524" fill="none" stroke="gray"></path></g><path id="node_outline12" fill="none" stroke="none" d="M104.49999716132879,773.5000004395843h396a5,5,0,0,1,5,5v12a5,5,0,0,1,-5,5h-396a5,5,0,0,1,-5,-5v-12a5,5,0,0,1,5,-5z"></path><g id="node_text12" fill="black"><text id="kity_text_225" text-rendering="inherit" font-family="微软雅黑,Microsoft YaHei" font-size="12" dy=".8em" y="776.7000004127622" x="109.49999716132879">情绪是即时产生的猜测，通过我们的大脑的解读理解而产生对情绪的想法</text></g></g><g id="minder_node15"><g id="node_expander12" style="cursor: pointer;" display="none"><path id="kity_path_526" fill="white" stroke="gray" d="M99.49999692291021,836.5000012144446A6,6,0,1,1,87.49999692291021,836.5000012144446A6,6,0,1,1,99.49999692291021,836.5000012144446"></path><path id="kity_path_527" fill="none" stroke="gray"></path></g><path id="node_outline13" fill="none" stroke="none" d="M104.49999716132879,825.5000012144446h227a5,5,0,0,1,5,5v12a5,5,0,0,1,-5,5h-227a5,5,0,0,1,-5,-5v-12a5,5,0,0,1,5,-5z"></path><g id="node_text13" fill="black"><text id="kity_text_227" text-rendering="inherit" font-family="微软雅黑,Microsoft YaHei" font-size="12" dy=".8em" y="828.7000011876225" x="109.49999716132879">情绪驱动人类行为，我们要学会控制情绪</text></g></g><g id="minder_node16"><g id="node_expander13" style="cursor: pointer;" display="none"><path id="kity_path_529" fill="white" stroke="gray" d="M99.49999692291021,888.500001989305A6,6,0,1,1,87.49999692291021,888.500001989305A6,6,0,1,1,99.49999692291021,888.500001989305"></path><path id="kity_path_530" fill="none" stroke="gray"></path></g><path id="node_outline14" fill="none" stroke="none" d="M104.49999716132879,877.500001989305h216a5,5,0,0,1,5,5v12a5,5,0,0,1,-5,5h-216a5,5,0,0,1,-5,-5v-12a5,5,0,0,1,5,-5z"></path><g id="node_text14" fill="black"><text id="kity_text_229" text-rendering="inherit" font-family="微软雅黑,Microsoft YaHei" font-size="12" dy=".8em" y="880.7000019624829" x="109.49999716132879">情感融入人工智能可能是一件危险的事</text></g></g><g id="minder_node17"><g id="node_expander16" style="cursor: pointer;"><path id="kity_path_538" fill="white" stroke="gray" d="M59.499996326863766,940.5000027641654A6,6,0,1,1,47.499996326863766,940.5000027641654A6,6,0,1,1,59.499996326863766,940.5000027641654"></path><path id="kity_path_539" fill="none" stroke="gray" d="M48.999996326863766,940.5000027641654L57.999996326863766,940.5000027641654"></path></g><path id="node_outline17" fill="#548dd4" stroke="none" d="M64.49999656528234,929.5000027641654h36a5,5,0,0,1,5,5v12a5,5,0,0,1,-5,5h-36a5,5,0,0,1,-5,-5v-12a5,5,0,0,1,5,-5z"></path><g id="node_text17" fill="white"><text id="kity_text_235" text-rendering="inherit" font-family="微软雅黑,Microsoft YaHei" font-size="12" dy=".8em" y="932.7000027373433" x="69.49999656528234">灵感</text></g></g><g id="minder_node18"><g id="node_expander15" style="cursor: pointer;" display="none"><path id="kity_path_535" fill="white" stroke="gray" d="M99.49999692291021,992.5000035390258A6,6,0,1,1,87.49999692291021,992.5000035390258A6,6,0,1,1,99.49999692291021,992.5000035390258"></path><path id="kity_path_536" fill="none" stroke="gray"></path></g><path id="node_outline16" fill="none" stroke="none" d="M104.49999716132879,981.5000035390258h263a5,5,0,0,1,5,5v12a5,5,0,0,1,-5,5h-263a5,5,0,0,1,-5,-5v-12a5,5,0,0,1,5,-5z"></path><g id="node_text16" fill="black"><text id="kity_text_233" text-rendering="inherit" font-size="12" dy=".8em" y="984.7000035122037" x="109.49999716132879">人类活动对注意力的转移能否促进灵感的产生？</text></g></g><g id="minder_node19"><g id="node_expander42" style="cursor: pointer;"><path id="kity_path_616" fill="white" stroke="gray" d="M754.5000066831708,127.49999064952135A6,6,0,1,1,742.5000066831708,127.49999064952135A6,6,0,1,1,754.5000066831708,127.49999064952135"></path><path id="kity_path_617" fill="none" stroke="gray" d="M744.0000066831708,127.49999064952135L753.0000066831708,127.49999064952135"></path></g><path id="node_outline43" fill="#548dd4" stroke="rgb(115, 161, 191)" d="M683.5000063404441,134.49999099224806h130a3,3,0,0,1,3,3v26a3,3,0,0,1,-3,3h-130a3,3,0,0,1,-3,-3v-26a3,3,0,0,1,3,-3z" stroke-width="1"></path><g id="node_text43" fill="white"><text id="kity_text_287" text-rendering="inherit" font-family="微软雅黑,Microsoft YaHei" font-size="14" dy=".8em" y="141.39999096095562" x="725.5000063404441">大数据应用</text></g><g id="node_priority2"><path id="kity_path_386" fill="#01467F" stroke="none" d="M701.0000059753656,153.99999085068703c0,3.866,3.134,7,7,7h6c3.866,0,7,-3.134,7,-7V147.99999085068703H701.0000059753656V153.99999085068703z"></path><path id="kity_path_387" fill="#0074FF" stroke="none" d="M721.0000059753656,150.99999085068703c0,3.866,-3.134,7,-7,7H708.0000059753656c-3.866,0,-7,-3.134,-7,-7V147.99999085068703c0,-3.866,3.134,-7,7,-7h6c3.866,0,7,3.134,7,7V150.99999085068703z" opacity="0.8"></path><text id="kity_text_388" text-rendering="geometricPrecision" x="710.0000059679151" y="150.49999084323645" text-anchor="middle" font-style="italic" font-size="12" fill="white" dy="5">2</text></g></g><g id="minder_node20"><g id="node_expander21" style="cursor: pointer;"><path id="kity_path_553" fill="white" stroke="gray" d="M720.5000061765313,420.4999950155616A6,6,0,1,1,708.5000061765313,420.4999950155616A6,6,0,1,1,720.5000061765313,420.4999950155616"></path><path id="kity_path_554" fill="none" stroke="gray" d="M710.0000061765313,420.4999950155616L719.0000061765313,420.4999950155616"></path></g><path id="node_outline22" fill="#548dd4" stroke="none" d="M725.5000064149499,409.4999950155616h47a5,5,0,0,1,5,5v12a5,5,0,0,1,-5,5h-47a5,5,0,0,1,-5,-5v-12a5,5,0,0,1,5,-5z"></path><g id="node_text22" fill="white"><text id="kity_text_245" text-rendering="inherit" font-family="微软雅黑,Microsoft YaHei" font-size="12" dy=".8em" y="412.6999949887395" x="730.5000064149499">数字屑</text></g></g><g id="minder_node21"><g id="node_expander18" style="cursor: pointer;" display="none"><path id="kity_path_544" fill="white" stroke="gray" d="M760.5000067725778,472.49999579042196A6,6,0,1,1,748.5000067725778,472.49999579042196A6,6,0,1,1,760.5000067725778,472.49999579042196"></path><path id="kity_path_545" fill="none" stroke="gray"></path></g><path id="node_outline19" fill="none" stroke="none" d="M765.5000070109963,461.49999579042196h156a5,5,0,0,1,5,5v12a5,5,0,0,1,-5,5h-156a5,5,0,0,1,-5,-5v-12a5,5,0,0,1,5,-5z"></path><g id="node_text19" fill="black"><text id="kity_text_239" text-rendering="inherit" font-family="微软雅黑,Microsoft YaHei" font-size="12" dy=".8em" y="464.6999957635999" x="770.5000070109963">数字屑是网络中的个人数据</text></g></g><g id="minder_node22"><g id="node_expander19" style="cursor: pointer;" display="none"><path id="kity_path_547" fill="white" stroke="gray" d="M760.5000067725778,524.4999965652823A6,6,0,1,1,748.5000067725778,524.4999965652823A6,6,0,1,1,760.5000067725778,524.4999965652823"></path><path id="kity_path_548" fill="none" stroke="gray"></path></g><path id="node_outline20" fill="none" stroke="none" d="M765.5000070109963,513.4999965652823h300a5,5,0,0,1,5,5v12a5,5,0,0,1,-5,5h-300a5,5,0,0,1,-5,-5v-12a5,5,0,0,1,5,-5z"></path><g id="node_text20" fill="black"><text id="kity_text_241" text-rendering="inherit" font-size="12" dy=".8em" y="516.6999965384603" x="770.5000070109963">数字屑能够成为数字能力，但也可能会让我们成为奴隶</text></g></g><g id="minder_node23"><g id="node_expander20" style="cursor: pointer;" display="none"><path id="kity_path_550" fill="white" stroke="gray" d="M760.5000067725778,576.4999973401427A6,6,0,1,1,748.5000067725778,576.4999973401427A6,6,0,1,1,760.5000067725778,576.4999973401427"></path><path id="kity_path_551" fill="none" stroke="gray"></path></g><path id="node_outline21" fill="none" stroke="none" d="M765.5000070109963,565.4999973401427h395a5,5,0,0,1,5,5v12a5,5,0,0,1,-5,5h-395a5,5,0,0,1,-5,-5v-12a5,5,0,0,1,5,-5z"></path><g id="node_text21" fill="black"><text id="kity_text_243" text-rendering="inherit" font-family="微软雅黑,Microsoft YaHei" font-size="12" dy=".8em" y="568.6999973133206" x="770.5000070109963">个人还是企业掌握数字屑是关键，我们需要认真考量并掌握自己的数字屑</text></g></g><g id="minder_node24"><g id="node_expander23" style="cursor: pointer;"><path id="kity_path_559" fill="white" stroke="gray" d="M720.5000061765313,628.4999981150031A6,6,0,1,1,708.5000061765313,628.4999981150031A6,6,0,1,1,720.5000061765313,628.4999981150031"></path><path id="kity_path_560" fill="none" stroke="gray" d="M710.0000061765313,628.4999981150031L719.0000061765313,628.4999981150031"></path></g><path id="node_outline24" fill="#548dd4" stroke="none" d="M725.5000064149499,617.4999981150031h47a5,5,0,0,1,5,5v12a5,5,0,0,1,-5,5h-47a5,5,0,0,1,-5,-5v-12a5,5,0,0,1,5,-5z" stroke-width="3"></path><g id="node_text24" fill="white"><text id="kity_text_249" text-rendering="inherit" font-family="微软雅黑,Microsoft YaHei" font-size="12" dy=".8em" y="620.699998088181" x="730.5000064149499">区块链</text></g></g><g id="minder_node25"><g id="node_expander22" style="cursor: pointer;" display="none"><path id="kity_path_556" fill="white" stroke="gray" d="M760.5000067725778,680.4999988898635A6,6,0,1,1,748.5000067725778,680.4999988898635A6,6,0,1,1,760.5000067725778,680.4999988898635"></path><path id="kity_path_557" fill="none" stroke="gray"></path></g><path id="node_outline23" fill="none" stroke="none" d="M765.5000070109963,669.4999988898635h275a5,5,0,0,1,5,5v12a5,5,0,0,1,-5,5h-275a5,5,0,0,1,-5,-5v-12a5,5,0,0,1,5,-5z"></path><g id="node_text23" fill="black"><text id="kity_text_247" text-rendering="inherit" font-size="12" dy=".8em" y="672.6999988630414" x="770.5000070109963">保护交易数据的“信任协议”，打破现有交易规则</text></g></g><g id="minder_node31"><g id="node_expander30" style="cursor: pointer;"><path id="kity_path_580" fill="white" stroke="gray" d="M720.5000061765313,836.5000012144446A6,6,0,1,1,708.5000061765313,836.5000012144446A6,6,0,1,1,720.5000061765313,836.5000012144446"></path><path id="kity_path_581" fill="none" stroke="gray" d="M710.0000061765313,836.5000012144446L719.0000061765313,836.5000012144446"></path></g><path id="node_outline31" fill="#548dd4" stroke="none" d="M725.5000064149499,825.5000012144446h60a5,5,0,0,1,5,5v12a5,5,0,0,1,-5,5h-60a5,5,0,0,1,-5,-5v-12a5,5,0,0,1,5,-5z"></path><g id="node_text31" fill="white"><text id="kity_text_263" text-rendering="inherit" font-family="微软雅黑,Microsoft YaHei" font-size="12" dy=".8em" y="828.7000011876225" x="730.5000064149499">过滤气泡</text></g></g><g id="minder_node32"><g id="node_expander29" style="cursor: pointer;" display="none"><path id="kity_path_577" fill="white" stroke="gray" d="M760.5000067725778,888.500001989305A6,6,0,1,1,748.5000067725778,888.500001989305A6,6,0,1,1,760.5000067725778,888.500001989305"></path><path id="kity_path_578" fill="none" stroke="gray"></path></g><path id="node_outline30" fill="none" stroke="none" d="M765.5000070109963,877.500001989305h287a5,5,0,0,1,5,5v12a5,5,0,0,1,-5,5h-287a5,5,0,0,1,-5,-5v-12a5,5,0,0,1,5,-5z"></path><g id="node_text30" fill="black"><text id="kity_text_261" text-rendering="inherit" font-family="微软雅黑,Microsoft YaHei" font-size="12" dy=".8em" y="880.7000019624829" x="770.5000070109963">警惕“过滤气泡（Filter Bubble）”，突破信息封锁</text></g></g><g id="minder_node33" opacity="1"><g id="node_expander32" style="cursor: pointer;"><path id="kity_path_586" fill="white" stroke="gray" d="M720.5000061765313,732.4999996647239A6,6,0,1,1,708.5000061765313,732.4999996647239A6,6,0,1,1,720.5000061765313,732.4999996647239"></path><path id="kity_path_587" fill="none" stroke="gray" d="M710.0000061765313,732.4999996647239L719.0000061765313,732.4999996647239"></path></g><path id="node_outline33" fill="#548dd4" stroke="none" d="M725.5000064149499,721.4999996647239h60a5,5,0,0,1,5,5v12a5,5,0,0,1,-5,5h-60a5,5,0,0,1,-5,-5v-12a5,5,0,0,1,5,-5z" stroke-width="3"></path><g id="node_text33" fill="white"><text id="kity_text_267" text-rendering="inherit" font-family="微软雅黑,Microsoft YaHei" font-size="12" dy=".8em" y="724.6999996379018" x="730.5000064149499">推荐系统</text></g></g><g id="minder_node35"><g id="node_expander34" style="cursor: pointer;"><path id="kity_path_592" fill="white" stroke="gray" d="M720.5000061765313,940.5000027641654A6,6,0,1,1,708.5000061765313,940.5000027641654A6,6,0,1,1,720.5000061765313,940.5000027641654"></path><path id="kity_path_593" fill="none" stroke="gray" d="M710.0000061765313,940.5000027641654L719.0000061765313,940.5000027641654"></path></g><path id="node_outline35" fill="#548dd4" stroke="none" d="M725.5000064149499,929.5000027641654h84a5,5,0,0,1,5,5v12a5,5,0,0,1,-5,5h-84a5,5,0,0,1,-5,-5v-12a5,5,0,0,1,5,-5z"></path><g id="node_text35" fill="white"><text id="kity_text_271" text-rendering="inherit" font-family="微软雅黑,Microsoft YaHei" font-size="12" dy=".8em" y="932.7000027373433" x="730.5000064149499">数据人文主义</text></g></g><g id="minder_node36"><g id="node_expander33" style="cursor: pointer;" display="none"><path id="kity_path_589" fill="white" stroke="gray" d="M760.5000067725778,992.5000035390258A6,6,0,1,1,748.5000067725778,992.5000035390258A6,6,0,1,1,760.5000067725778,992.5000035390258"></path><path id="kity_path_590" fill="none" stroke="gray"></path></g><path id="node_outline34" fill="none" stroke="none" d="M765.5000070109963,981.5000035390258h516a5,5,0,0,1,5,5v12a5,5,0,0,1,-5,5h-516a5,5,0,0,1,-5,-5v-12a5,5,0,0,1,5,-5z"></path><g id="node_text34" fill="black"><text id="kity_text_269" text-rendering="inherit" font-family="微软雅黑,Microsoft YaHei" font-size="12" dy=".8em" y="984.7000035122037" x="770.5000070109963">在收集、处理、分析和展示数据过程中，融入人性所具有道德、情感和人文素养，用数据说故事</text></g></g><g id="minder_node37"><g id="node_expander41" style="cursor: pointer;"><path id="kity_path_613" fill="white" stroke="gray" d="M720.5000061765313,1044.5000043138862A6,6,0,1,1,708.5000061765313,1044.5000043138862A6,6,0,1,1,720.5000061765313,1044.5000043138862"></path><path id="kity_path_614" fill="none" stroke="gray" d="M710.0000061765313,1044.5000043138862L719.0000061765313,1044.5000043138862"></path></g><path id="node_outline42" fill="#548dd4" stroke="none" d="M725.5000064149499,1033.5000043138862h72a5,5,0,0,1,5,5v12a5,5,0,0,1,-5,5h-72a5,5,0,0,1,-5,-5v-12a5,5,0,0,1,5,-5z"></path><g id="node_text42" fill="white"><text id="kity_text_285" text-rendering="inherit" font-family="微软雅黑,Microsoft YaHei" font-size="12" dy=".8em" y="1036.700004287064" x="730.5000064149499">数据可视化</text></g></g><g id="minder_node38"><g id="node_expander36" style="cursor: pointer;"><path id="kity_path_598" fill="white" stroke="gray" d="M760.5000067725778,1096.5000050887465A6,6,0,1,1,748.5000067725778,1096.5000050887465A6,6,0,1,1,760.5000067725778,1096.5000050887465"></path><path id="kity_path_599" fill="none" stroke="gray" d="M750.0000067725778,1096.5000050887465L759.0000067725778,1096.5000050887465"></path></g><path id="node_outline37" fill="none" stroke="none" d="M765.5000070109963,1085.5000050887465h156a5,5,0,0,1,5,5v12a5,5,0,0,1,-5,5h-156a5,5,0,0,1,-5,-5v-12a5,5,0,0,1,5,-5z"></path><g id="node_text37" fill="black"><text id="kity_text_275" text-rendering="inherit" font-family="微软雅黑,Microsoft YaHei" font-size="12" dy=".8em" y="1088.7000050619245" x="770.5000070109963">通过数据可视化看全球发展</text></g></g><g id="minder_node39"><g id="node_expander35" style="cursor: pointer;" display="none"><path id="kity_path_595" fill="white" stroke="gray" d="M800.5000073686242,1148.500005863607A6,6,0,1,1,788.5000073686242,1148.500005863607A6,6,0,1,1,800.5000073686242,1148.500005863607"></path><path id="kity_path_596" fill="none" stroke="gray"></path></g><path id="node_outline36" fill="none" stroke="none" d="M805.5000076070428,1137.500005863607h350a5,5,0,0,1,5,5v12a5,5,0,0,1,-5,5h-350a5,5,0,0,1,-5,-5v-12a5,5,0,0,1,5,-5z"></path><g id="node_text36" fill="black"><text id="kity_text_273" text-rendering="inherit" font-family="微软雅黑,Microsoft YaHei" font-size="12" dy=".8em" y="1140.7000058367848" x="810.5000076070428">例子：汉斯·罗斯林运用信息可视化让人看到了全球发展的故事。</text></g></g><g id="minder_node40"><g id="node_expander38" style="cursor: pointer;"><path id="kity_path_604" fill="white" stroke="gray" d="M760.5000067725778,1200.5000066384673A6,6,0,1,1,748.5000067725778,1200.5000066384673A6,6,0,1,1,760.5000067725778,1200.5000066384673"></path><path id="kity_path_605" fill="none" stroke="gray" d="M750.0000067725778,1200.5000066384673L759.0000067725778,1200.5000066384673"></path></g><path id="node_outline39" fill="none" stroke="none" d="M765.5000070109963,1189.5000066384673h167a5,5,0,0,1,5,5v12a5,5,0,0,1,-5,5h-167a5,5,0,0,1,-5,-5v-12a5,5,0,0,1,5,-5z"></path><g id="node_text39" fill="black"><text id="kity_text_279" text-rendering="inherit" font-family="微软雅黑,Microsoft YaHei" font-size="12" dy=".8em" y="1192.7000066116452" x="770.5000070109963">收入如何影响人们的生活方式</text></g></g><g id="minder_node41"><g id="node_expander37" style="cursor: pointer;" display="none"><path id="kity_path_601" fill="white" stroke="gray" d="M800.5000073686242,1257.5000074878335A6,6,0,1,1,788.5000073686242,1257.5000074878335A6,6,0,1,1,800.5000073686242,1257.5000074878335"></path><path id="kity_path_602" fill="none" stroke="gray"></path></g><path id="node_outline38" fill="none" stroke="none" d="M805.5000076070428,1241.5000074878335h690a5,5,0,0,1,5,5v22a5,5,0,0,1,-5,5h-690a5,5,0,0,1,-5,-5v-22a5,5,0,0,1,5,-5z"></path><g id="node_text38" fill="black"><text id="kity_text_277" text-rendering="inherit" font-family="微软雅黑,Microsoft YaHei" font-size="12" dy=".8em" y="1249.7000074610114" x="810.5000076070428">例子：安娜·罗丝玲·洛恩收集收集各个国家地区人民的生活状况照片，构建DOLLAR STREET，将图片数据进行数据可视化。</text></g><a id="kity_a_399" xlink:href="https://www.gapminder.org/dollar-street/matrix" target="_blank" xlink:title="DOLLAR STREET(https://www.gapminder.org/dollar-street/matrix)" style="cursor: pointer;"><path id="kity_path_401" fill="rgba(255, 255, 255, 0)" stroke="none" d="M1470.5000174120069,1246.5000074133277h16a4,4,0,0,1,4,4v14a4,4,0,0,1,-4,4h-16a4,4,0,0,1,-4,-4v-14a4,4,0,0,1,4,-4z"></path><path id="kity_path_400" fill="#666" stroke="none" d="M1485.114017412007,1262.7240074133276h-1.278c-1.668,0,-3.07,-1.07,-3.599,-2.556h4.877c0.707,0,1.278,-0.571,1.278,-1.278V1256.3340074133278c0,-0.707,-0.571,-1.278,-1.278,-1.278h-4.877C1480.766017412007,1253.5710074133276,1482.1680174120067,1252.5000074133277,1483.8360174120069,1252.5000074133277h1.278c2.116,0,3.834,1.716,3.834,3.834V1258.8900074133278C1488.948017412007,1261.0080074133277,1487.2300174120069,1262.7240074133276,1485.114017412007,1262.7240074133276zM1473.612017412007,1257.6120074133278c0,-0.707,0.573,-1.278,1.278,-1.278h7.668c0.707,0,1.278,0.571,1.278,1.278S1483.265017412007,1258.8900074133278,1482.5580174120068,1258.8900074133278H1474.890017412007C1474.1850174120068,1258.8900074133278,1473.612017412007,1258.3190074133277,1473.612017412007,1257.6120074133278zM1471.056017412007,1256.3340074133278V1258.8900074133278c0,0.707,0.573,1.278,1.278,1.278h4.877c-0.528,1.486,-1.932,2.556,-3.599,2.556H1472.334017412007C1470.2160174120067,1262.7240074133276,1468.5000174120069,1261.0080074133277,1468.5000174120069,1258.8900074133278V1256.3340074133278C1468.5000174120069,1254.2160074133276,1470.2160174120067,1252.5000074133277,1472.334017412007,1252.5000074133277h1.278c1.667,0,3.071,1.071,3.599,2.556H1472.334017412007C1471.6290174120068,1255.0560074133277,1471.056017412007,1255.6270074133276,1471.056017412007,1256.3340074133278z"></path></a></g><g id="minder_node42"><g id="node_expander40" style="cursor: pointer;"><path id="kity_path_610" fill="white" stroke="gray" d="M760.5000067725778,1314.5000083371997A6,6,0,1,1,748.5000067725778,1314.5000083371997A6,6,0,1,1,760.5000067725778,1314.5000083371997"></path><path id="kity_path_611" fill="none" stroke="gray" d="M750.0000067725778,1314.5000083371997L759.0000067725778,1314.5000083371997"></path></g><path id="node_outline41" fill="none" stroke="none" d="M765.5000070109963,1303.5000083371997h143a5,5,0,0,1,5,5v12a5,5,0,0,1,-5,5h-143a5,5,0,0,1,-5,-5v-12a5,5,0,0,1,5,-5z"></path><g id="node_text41" fill="black"><text id="kity_text_283" text-rendering="inherit" font-family="微软雅黑,Microsoft YaHei" font-size="12" dy=".8em" y="1306.7000083103776" x="770.5000070109963">开放性数据改变国际援助</text></g></g><g id="minder_node43"><g id="node_expander39" style="cursor: pointer;" display="none"><path id="kity_path_607" fill="white" stroke="gray" d="M800.5000073686242,1366.50000911206A6,6,0,1,1,788.5000073686242,1366.50000911206A6,6,0,1,1,800.5000073686242,1366.50000911206"></path><path id="kity_path_608" fill="none" stroke="gray"></path></g><path id="node_outline40" fill="none" stroke="none" d="M805.5000076070428,1355.50000911206h822a5,5,0,0,1,5,5v12a5,5,0,0,1,-5,5h-822a5,5,0,0,1,-5,-5v-12a5,5,0,0,1,5,-5z"></path><g id="node_text40" fill="black"><text id="kity_text_281" text-rendering="inherit" font-family="微软雅黑,Microsoft YaHei" font-size="12" dy=".8em" y="1358.700009085238" x="810.5000076070428">例子：Sanjay Pradhan 谈论开放的知识渠道(OPEN Konwledge)、开放的援助(OPEN Aid)、开放透明的政府(OPEN Governance)是如何改变国际援助的</text></g></g><g id="minder_node44"><g id="node_expander57" style="cursor: pointer;"><path id="kity_path_661" fill="white" stroke="gray" d="M1746.5000214651227,127.49999064952135A6,6,0,1,1,1734.5000214651227,127.49999064952135A6,6,0,1,1,1746.5000214651227,127.49999064952135"></path><path id="kity_path_662" fill="none" stroke="gray" d="M1736.0000214651227,127.49999064952135L1745.0000214651227,127.49999064952135"></path></g><path id="node_outline58" fill="#548dd4" stroke="rgb(115, 161, 191)" d="M1675.500021122396,134.49999099224806h130a3,3,0,0,1,3,3v26a3,3,0,0,1,-3,3h-130a3,3,0,0,1,-3,-3v-26a3,3,0,0,1,3,-3z" stroke-width="1"></path><g id="node_text58" fill="white"><text id="kity_text_317" text-rendering="inherit" font-family="微软雅黑,Microsoft YaHei" font-size="14" dy=".8em" y="141.39999096095562" x="1717.500021122396">互联网世界 </text></g><g id="node_priority3"><path id="kity_path_391" fill="#006300" stroke="none" d="M1693.0000207573175,153.99999085068703c0,3.866,3.134,7,7,7h6c3.866,0,7,-3.134,7,-7V147.99999085068703H1693.0000207573175V153.99999085068703z"></path><path id="kity_path_392" fill="#00AF00" stroke="none" d="M1713.0000207573175,150.99999085068703c0,3.866,-3.134,7,-7,7H1700.0000207573175c-3.866,0,-7,-3.134,-7,-7V147.99999085068703c0,-3.866,3.134,-7,7,-7h6c3.866,0,7,3.134,7,7V150.99999085068703z" opacity="0.8"></path><text id="kity_text_393" text-rendering="geometricPrecision" x="1702.000020749867" y="150.49999084323645" text-anchor="middle" font-style="italic" font-size="12" fill="white" dy="5">3</text></g></g><g id="minder_node45"><g id="node_expander47" style="cursor: pointer;"><path id="kity_path_631" fill="white" stroke="gray" d="M1712.5000209584832,212.49999191612005A6,6,0,1,1,1700.5000209584832,212.49999191612005A6,6,0,1,1,1712.5000209584832,212.49999191612005"></path><path id="kity_path_632" fill="none" stroke="gray" d="M1702.0000209584832,212.49999191612005L1711.0000209584832,212.49999191612005"></path></g><path id="node_outline48" fill="#548dd4" stroke="none" d="M1717.5000211969018,201.49999191612005h70a5,5,0,0,1,5,5v12a5,5,0,0,1,-5,5h-70a5,5,0,0,1,-5,-5v-12a5,5,0,0,1,5,-5z"></path><g id="node_text48" fill="white"><text id="kity_text_297" text-rendering="inherit" font-family="微软雅黑,Microsoft YaHei" font-size="12" dy=".8em" y="204.69999188929796" x="1722.5000211969018">互联网性质</text></g></g><g id="minder_node46"><g id="node_expander43" style="cursor: pointer;" display="none"><path id="kity_path_619" fill="white" stroke="gray" d="M1752.5000215545297,264.49999269098043A6,6,0,1,1,1740.5000215545297,264.49999269098043A6,6,0,1,1,1752.5000215545297,264.49999269098043"></path><path id="kity_path_620" fill="none" stroke="gray"></path></g><path id="node_outline44" fill="none" stroke="none" d="M1757.5000217929482,253.49999269098043h166a5,5,0,0,1,5,5v12a5,5,0,0,1,-5,5h-166a5,5,0,0,1,-5,-5v-12a5,5,0,0,1,5,-5z"></path><g id="node_text44" fill="black"><text id="kity_text_289" text-rendering="inherit" font-family="微软雅黑,Microsoft YaHei" font-size="12" dy=".8em" y="256.69999266415834" x="1762.5000217929482">互联网存在随机的善良的行为</text></g></g><g id="minder_node47"><g id="node_expander44" style="cursor: pointer;" display="none"><path id="kity_path_622" fill="white" stroke="gray" d="M1752.5000215545297,316.4999934658408A6,6,0,1,1,1740.5000215545297,316.4999934658408A6,6,0,1,1,1752.5000215545297,316.4999934658408"></path><path id="kity_path_623" fill="none" stroke="gray"></path></g><path id="node_outline45" fill="none" stroke="none" d="M1757.5000217929482,305.4999934658408h179a5,5,0,0,1,5,5v12a5,5,0,0,1,-5,5h-179a5,5,0,0,1,-5,-5v-12a5,5,0,0,1,5,-5z"></path><g id="node_text45" fill="black"><text id="kity_text_291" text-rendering="inherit" font-family="微软雅黑,Microsoft YaHei" font-size="12" dy=".8em" y="308.6999934390187" x="1762.5000217929482">互联网是互联网企业谋利的工具</text></g></g><g id="minder_node48"><g id="node_expander45" style="cursor: pointer;" display="none"><path id="kity_path_625" fill="white" stroke="gray" d="M1752.5000215545297,368.4999942407012A6,6,0,1,1,1740.5000215545297,368.4999942407012A6,6,0,1,1,1752.5000215545297,368.4999942407012"></path><path id="kity_path_626" fill="none" stroke="gray"></path></g><path id="node_outline46" fill="none" stroke="none" d="M1757.5000217929482,357.4999942407012h119a5,5,0,0,1,5,5v12a5,5,0,0,1,-5,5h-119a5,5,0,0,1,-5,-5v-12a5,5,0,0,1,5,-5z"></path><g id="node_text46" fill="black"><text id="kity_text_293" text-rendering="inherit" font-family="微软雅黑,Microsoft YaHei" font-size="12" dy=".8em" y="360.6999942138791" x="1762.5000217929482">互联网是民权的工具</text></g></g><g id="minder_node49"><g id="node_expander46" style="cursor: pointer;" display="none"><path id="kity_path_628" fill="white" stroke="gray" d="M1752.5000215545297,420.4999950155616A6,6,0,1,1,1740.5000215545297,420.4999950155616A6,6,0,1,1,1752.5000215545297,420.4999950155616"></path><path id="kity_path_629" fill="none" stroke="gray"></path></g><path id="node_outline47" fill="none" stroke="none" d="M1757.5000217929482,409.4999950155616h346a5,5,0,0,1,5,5v12a5,5,0,0,1,-5,5h-346a5,5,0,0,1,-5,-5v-12a5,5,0,0,1,5,-5z"></path><g id="node_text47" fill="black"><text id="kity_text_295" text-rendering="inherit" font-family="微软雅黑,Microsoft YaHei" font-size="12" dy=".8em" y="412.6999949887395" x="1762.5000217929482">互联网的本质是什么？自由与开放（需要建立在善良的引导下）</text></g></g><g id="minder_node50"><g id="node_expander54" style="cursor: pointer;"><path id="kity_path_652" fill="white" stroke="gray" d="M1712.5000209584832,472.49999579042196A6,6,0,1,1,1700.5000209584832,472.49999579042196A6,6,0,1,1,1712.5000209584832,472.49999579042196"></path><path id="kity_path_653" fill="none" stroke="gray" d="M1702.0000209584832,472.49999579042196L1711.0000209584832,472.49999579042196"></path></g><path id="node_outline55" fill="#548dd4" stroke="none" d="M1717.5000211969018,461.49999579042196h60a5,5,0,0,1,5,5v12a5,5,0,0,1,-5,5h-60a5,5,0,0,1,-5,-5v-12a5,5,0,0,1,5,-5z"></path><g id="node_text55" fill="white"><text id="kity_text_311" text-rendering="inherit" font-family="微软雅黑,Microsoft YaHei" font-size="12" dy=".8em" y="464.6999957635999" x="1722.5000211969018">编程世界</text></g></g><g id="minder_node51"><g id="node_expander50" style="cursor: pointer;"><path id="kity_path_640" fill="white" stroke="gray" d="M1752.5000215545297,524.4999965652823A6,6,0,1,1,1740.5000215545297,524.4999965652823A6,6,0,1,1,1752.5000215545297,524.4999965652823"></path><path id="kity_path_641" fill="none" stroke="gray" d="M1742.0000215545297,524.4999965652823L1751.0000215545297,524.4999965652823"></path></g><path id="node_outline51" fill="none" stroke="none" d="M1757.5000217929482,513.4999965652823h131a5,5,0,0,1,5,5v12a5,5,0,0,1,-5,5h-131a5,5,0,0,1,-5,-5v-12a5,5,0,0,1,5,-5z"></path><g id="node_text51" fill="black"><text id="kity_text_303" text-rendering="inherit" font-family="微软雅黑,Microsoft YaHei" font-size="12" dy=".8em" y="516.6999965384603" x="1762.5000217929482">代码是下一个通用语言</text></g></g><g id="minder_node52"><g id="node_expander48" style="cursor: pointer;" display="none"><path id="kity_path_634" fill="white" stroke="gray" d="M1792.5000221505761,576.4999973401427A6,6,0,1,1,1780.5000221505761,576.4999973401427A6,6,0,1,1,1792.5000221505761,576.4999973401427"></path><path id="kity_path_635" fill="none" stroke="gray"></path></g><path id="node_outline49" fill="none" stroke="none" d="M1797.5000223889947,565.4999973401427h143a5,5,0,0,1,5,5v12a5,5,0,0,1,-5,5h-143a5,5,0,0,1,-5,-5v-12a5,5,0,0,1,5,-5z"></path><g id="node_text49" fill="black"><text id="kity_text_299" text-rendering="inherit" font-family="微软雅黑,Microsoft YaHei" font-size="12" dy=".8em" y="568.6999973133206" x="1802.5000223889947">让孩子成为下一代创造者</text></g></g><g id="minder_node53"><g id="node_expander49" style="cursor: pointer;" display="none"><path id="kity_path_637" fill="white" stroke="gray" d="M1792.5000221505761,628.4999981150031A6,6,0,1,1,1780.5000221505761,628.4999981150031A6,6,0,1,1,1792.5000221505761,628.4999981150031"></path><path id="kity_path_638" fill="none" stroke="gray"></path></g><path id="node_outline50" fill="none" stroke="none" d="M1797.5000223889947,617.4999981150031h132a5,5,0,0,1,5,5v12a5,5,0,0,1,-5,5h-132a5,5,0,0,1,-5,-5v-12a5,5,0,0,1,5,-5z"></path><g id="node_text50" fill="black"><text id="kity_text_301" text-rendering="inherit" font-family="微软雅黑,Microsoft YaHei" font-size="12" dy=".8em" y="620.699998088181" x="1802.5000223889947">女孩要勇敢而不必完美</text></g></g><g id="minder_node54"><g id="node_expander53" style="cursor: pointer;"><path id="kity_path_649" fill="white" stroke="gray" d="M1752.5000215545297,680.4999988898635A6,6,0,1,1,1740.5000215545297,680.4999988898635A6,6,0,1,1,1752.5000215545297,680.4999988898635"></path><path id="kity_path_650" fill="none" stroke="gray" d="M1742.0000215545297,680.4999988898635L1751.0000215545297,680.4999988898635"></path></g><path id="node_outline54" fill="none" stroke="none" d="M1757.5000217929482,669.4999988898635h227a5,5,0,0,1,5,5v12a5,5,0,0,1,-5,5h-227a5,5,0,0,1,-5,-5v-12a5,5,0,0,1,5,-5z"></path><g id="node_text54" fill="black"><text id="kity_text_309" text-rendering="inherit" font-family="微软雅黑,Microsoft YaHei" font-size="12" dy=".8em" y="672.6999988630414" x="1762.5000217929482">黑客编程一直是健康民主的重要组成部分</text></g></g><g id="minder_node55"><g id="node_expander51" style="cursor: pointer;" display="none"><path id="kity_path_643" fill="white" stroke="gray" d="M1792.5000221505761,732.4999996647239A6,6,0,1,1,1780.5000221505761,732.4999996647239A6,6,0,1,1,1792.5000221505761,732.4999996647239"></path><path id="kity_path_644" fill="none" stroke="gray"></path></g><path id="node_outline52" fill="none" stroke="none" d="M1797.5000223889947,721.4999996647239h281a5,5,0,0,1,5,5v12a5,5,0,0,1,-5,5h-281a5,5,0,0,1,-5,-5v-12a5,5,0,0,1,5,-5z"></path><g id="node_text52" fill="black"><text id="kity_text_305" text-rendering="inherit" font-family="微软雅黑,Microsoft YaHei" font-size="12" dy=".8em" y="724.6999996379018" x="1802.5000223889947">成为公民黑客（Civic Hacking）共同推动社会发展</text></g></g><g id="minder_node56"><g id="node_expander52" style="cursor: pointer;" display="none"><path id="kity_path_646" fill="white" stroke="gray" d="M1792.5000221505761,784.5000004395843A6,6,0,1,1,1780.5000221505761,784.5000004395843A6,6,0,1,1,1792.5000221505761,784.5000004395843"></path><path id="kity_path_647" fill="none" stroke="gray"></path></g><path id="node_outline53" fill="none" stroke="none" d="M1797.5000223889947,773.5000004395843h178a5,5,0,0,1,5,5v12a5,5,0,0,1,-5,5h-178a5,5,0,0,1,-5,-5v-12a5,5,0,0,1,5,-5z"></path><g id="node_text53" fill="black"><text id="kity_text_307" text-rendering="inherit" font-family="微软雅黑,Microsoft YaHei" font-size="12" dy=".8em" y="776.7000004127622" x="1802.5000223889947">用编程“编写”一个更好的政府</text></g></g><g id="minder_node57"><g id="node_expander56" style="cursor: pointer;"><path id="kity_path_658" fill="white" stroke="gray" d="M1712.5000209584832,836.5000012144446A6,6,0,1,1,1700.5000209584832,836.5000012144446A6,6,0,1,1,1712.5000209584832,836.5000012144446"></path><path id="kity_path_659" fill="none" stroke="gray" d="M1702.0000209584832,836.5000012144446L1711.0000209584832,836.5000012144446"></path></g><path id="node_outline57" fill="#548dd4" stroke="none" d="M1717.5000211969018,825.5000012144446h47a5,5,0,0,1,5,5v12a5,5,0,0,1,-5,5h-47a5,5,0,0,1,-5,-5v-12a5,5,0,0,1,5,-5z"></path><g id="node_text57" fill="white"><text id="kity_text_315" text-rendering="inherit" font-family="微软雅黑,Microsoft YaHei" font-size="12" dy=".8em" y="828.7000011876225" x="1722.5000211969018">超链接</text></g></g><g id="minder_node58"><g id="node_expander55" style="cursor: pointer;" display="none"><path id="kity_path_655" fill="white" stroke="gray" d="M1752.5000215545297,888.500001989305A6,6,0,1,1,1740.5000215545297,888.500001989305A6,6,0,1,1,1752.5000215545297,888.500001989305"></path><path id="kity_path_656" fill="none" stroke="gray"></path></g><path id="node_outline56" fill="none" stroke="none" d="M1757.5000217929482,877.500001989305h96a5,5,0,0,1,5,5v12a5,5,0,0,1,-5,5h-96a5,5,0,0,1,-5,-5v-12a5,5,0,0,1,5,-5z"></path><g id="node_text56" fill="black"><text id="kity_text_313" text-rendering="inherit" font-family="微软雅黑,Microsoft YaHei" font-size="12" dy=".8em" y="880.7000019624829" x="1762.5000217929482">超链接改变社会</text></g></g><g id="minder_node59"><g id="node_expander87" style="cursor: pointer;"><path id="kity_path_751" fill="white" stroke="gray" d="M2215.0000284463167,127.49999064952135A6,6,0,1,1,2203.0000284463167,127.49999064952135A6,6,0,1,1,2215.0000284463167,127.49999064952135"></path><path id="kity_path_752" fill="none" stroke="gray" d="M2204.5000284463167,127.49999064952135L2213.5000284463167,127.49999064952135"></path></g><path id="node_outline88" fill="#548dd4" stroke="rgb(115, 161, 191)" d="M2151.5000282153487,134.49999099224806h115a3,3,0,0,1,3,3v26a3,3,0,0,1,-3,3h-115a3,3,0,0,1,-3,-3v-26a3,3,0,0,1,3,-3z" stroke-width="1"></path><g id="node_text88" fill="white"><text id="kity_text_377" text-rendering="inherit" font-family="微软雅黑,Microsoft YaHei" font-size="14" dy=".8em" y="141.39999096095562" x="2193.5000282153487">设计思维</text></g><g id="node_priority4"><path id="kity_path_396" fill="#B25000" stroke="none" d="M2169.0000278502703,153.99999085068703c0,3.866,3.134,7,7,7h6c3.866,0,7,-3.134,7,-7V147.99999085068703H2169.0000278502703V153.99999085068703z"></path><path id="kity_path_397" fill="#FF962E" stroke="none" d="M2189.0000278502703,150.99999085068703c0,3.866,-3.134,7,-7,7H2176.0000278502703c-3.866,0,-7,-3.134,-7,-7V147.99999085068703c0,-3.866,3.134,-7,7,-7h6c3.866,0,7,3.134,7,7V150.99999085068703z" opacity="0.8"></path><text id="kity_text_398" text-rendering="geometricPrecision" x="2178.0000278428197" y="150.49999084323645" text-anchor="middle" font-style="italic" font-size="12" fill="white" dy="5">4</text></g></g><g id="minder_node60"><g id="node_expander64" style="cursor: pointer;"><path id="kity_path_682" fill="white" stroke="gray" d="M2188.500028051436,212.49999191612005A6,6,0,1,1,2176.500028051436,212.49999191612005A6,6,0,1,1,2188.500028051436,212.49999191612005"></path><path id="kity_path_683" fill="none" stroke="gray" d="M2178.000028051436,212.49999191612005L2187.000028051436,212.49999191612005"></path></g><path id="node_outline65" fill="#548dd4" stroke="none" d="M2193.5000282898545,201.49999191612005h59a5,5,0,0,1,5,5v12a5,5,0,0,1,-5,5h-59a5,5,0,0,1,-5,-5v-12a5,5,0,0,1,5,-5z"></path><g id="node_text65" fill="white"><text id="kity_text_331" text-rendering="inherit" font-family="微软雅黑,Microsoft YaHei" font-size="12" dy=".8em" y="204.69999188929796" x="2198.5000282898545">幽默设计</text></g></g><g id="minder_node61"><g id="node_expander59" style="cursor: pointer;"><path id="kity_path_667" fill="white" stroke="gray" d="M2228.5000286474824,264.49999269098043A6,6,0,1,1,2216.5000286474824,264.49999269098043A6,6,0,1,1,2228.5000286474824,264.49999269098043"></path><path id="kity_path_668" fill="none" stroke="gray" d="M2218.0000286474824,264.49999269098043L2227.0000286474824,264.49999269098043"></path></g><path id="node_outline60" fill="none" stroke="none" d="M2233.500028885901,253.49999269098043h94a5,5,0,0,1,5,5v12a5,5,0,0,1,-5,5h-94a5,5,0,0,1,-5,-5v-12a5,5,0,0,1,5,-5z"></path><g id="node_text60" fill="black"><text id="kity_text_321" text-rendering="inherit" font-family="微软雅黑,Microsoft YaHei" font-size="12" dy=".8em" y="256.69999266415834" x="2238.500028885901">以幽默改变规则</text></g></g><g id="minder_node62"><g id="node_expander58" style="cursor: pointer;" display="none"><path id="kity_path_664" fill="white" stroke="gray" d="M2268.500029243529,316.4999934658408A6,6,0,1,1,2256.500029243529,316.4999934658408A6,6,0,1,1,2268.500029243529,316.4999934658408"></path><path id="kity_path_665" fill="none" stroke="gray"></path></g><path id="node_outline59" fill="none" stroke="none" d="M2273.5000294819474,305.4999934658408h496a5,5,0,0,1,5,5v12a5,5,0,0,1,-5,5h-496a5,5,0,0,1,-5,-5v-12a5,5,0,0,1,5,-5z"></path><g id="node_text59" fill="black"><text id="kity_text_319" text-rendering="inherit" font-family="微软雅黑,Microsoft YaHei" font-size="12" dy=".8em" y="308.6999934390187" x="2278.5000294819474">例子：Liza Donnelly的幽默漫画引导着读者们思考当今社会女性的规则，尝试推动规则改变</text></g></g><g id="minder_node63"><g id="node_expander61" style="cursor: pointer;"><path id="kity_path_673" fill="white" stroke="gray" d="M2228.5000286474824,368.4999942407012A6,6,0,1,1,2216.5000286474824,368.4999942407012A6,6,0,1,1,2228.5000286474824,368.4999942407012"></path><path id="kity_path_674" fill="none" stroke="gray" d="M2218.0000286474824,368.4999942407012L2227.0000286474824,368.4999942407012"></path></g><path id="node_outline62" fill="none" stroke="none" d="M2233.500028885901,357.4999942407012h95a5,5,0,0,1,5,5v12a5,5,0,0,1,-5,5h-95a5,5,0,0,1,-5,-5v-12a5,5,0,0,1,5,-5z"></path><g id="node_text62" fill="black"><text id="kity_text_325" text-rendering="inherit" font-family="微软雅黑,Microsoft YaHei" font-size="12" dy=".8em" y="360.6999942138791" x="2238.500028885901">以幽默传播文化</text></g></g><g id="minder_node64"><g id="node_expander60" style="cursor: pointer;" display="none"><path id="kity_path_670" fill="white" stroke="gray" d="M2268.500029243529,420.4999950155616A6,6,0,1,1,2256.500029243529,420.4999950155616A6,6,0,1,1,2268.500029243529,420.4999950155616"></path><path id="kity_path_671" fill="none" stroke="gray"></path></g><path id="node_outline61" fill="none" stroke="none" d="M2273.5000294819474,409.4999950155616h475a5,5,0,0,1,5,5v12a5,5,0,0,1,-5,5h-475a5,5,0,0,1,-5,-5v-12a5,5,0,0,1,5,-5z"></path><g id="node_text61" fill="black"><text id="kity_text_323" text-rendering="inherit" font-family="微软雅黑,Microsoft YaHei" font-size="12" dy=".8em" y="412.6999949887395" x="2278.5000294819474">例子：Randall Munroe以幽默的语言文字，让枯燥无味的知识科普变的有趣而利于传播</text></g></g><g id="minder_node65"><g id="node_expander63" style="cursor: pointer;"><path id="kity_path_679" fill="white" stroke="gray" d="M2228.5000286474824,472.49999579042196A6,6,0,1,1,2216.5000286474824,472.49999579042196A6,6,0,1,1,2228.5000286474824,472.49999579042196"></path><path id="kity_path_680" fill="none" stroke="gray" d="M2218.0000286474824,472.49999579042196L2227.0000286474824,472.49999579042196"></path></g><path id="node_outline64" fill="none" stroke="none" d="M2233.500028885901,461.49999579042196h95a5,5,0,0,1,5,5v12a5,5,0,0,1,-5,5h-95a5,5,0,0,1,-5,-5v-12a5,5,0,0,1,5,-5z"></path><g id="node_text64" fill="black"><text id="kity_text_329" text-rendering="inherit" font-family="微软雅黑,Microsoft YaHei" font-size="12" dy=".8em" y="464.6999957635999" x="2238.500028885901">以幽默消除歧视</text></g></g><g id="minder_node66"><g id="node_expander62" style="cursor: pointer;" display="none"><path id="kity_path_676" fill="white" stroke="gray" d="M2268.500029243529,524.4999965652823A6,6,0,1,1,2256.500029243529,524.4999965652823A6,6,0,1,1,2268.500029243529,524.4999965652823"></path><path id="kity_path_677" fill="none" stroke="gray"></path></g><path id="node_outline63" fill="none" stroke="none" d="M2273.5000294819474,513.4999965652823h537a5,5,0,0,1,5,5v12a5,5,0,0,1,-5,5h-537a5,5,0,0,1,-5,-5v-12a5,5,0,0,1,5,-5z"></path><g id="node_text63" fill="black"><text id="kity_text_327" text-rendering="inherit" font-family="微软雅黑,Microsoft YaHei" font-size="12" dy=".8em" y="516.6999965384603" x="2278.5000294819474">例子：Ruby Wax以幽默的方式让人们了解精神疾病，同时不断削减着人们对精神疾病的误解与歧视</text></g></g><g id="minder_node67"><g id="node_expander73" style="cursor: pointer;"><path id="kity_path_709" fill="white" stroke="gray" d="M2188.500028051436,576.4999973401427A6,6,0,1,1,2176.500028051436,576.4999973401427A6,6,0,1,1,2188.500028051436,576.4999973401427"></path><path id="kity_path_710" fill="none" stroke="gray" d="M2178.000028051436,576.4999973401427L2187.000028051436,576.4999973401427"></path></g><path id="node_outline74" fill="#548dd4" stroke="none" d="M2193.5000282898545,565.4999973401427h72a5,5,0,0,1,5,5v12a5,5,0,0,1,-5,5h-72a5,5,0,0,1,-5,-5v-12a5,5,0,0,1,5,-5z"></path><g id="node_text74" fill="white"><text id="kity_text_349" text-rendering="inherit" font-family="微软雅黑,Microsoft YaHei" font-size="12" dy=".8em" y="568.6999973133206" x="2198.5000282898545">情感化设计</text></g></g><g id="minder_node68"><g id="node_expander68" style="cursor: pointer;"><path id="kity_path_694" fill="white" stroke="gray" d="M2228.5000286474824,628.4999981150031A6,6,0,1,1,2216.5000286474824,628.4999981150031A6,6,0,1,1,2228.5000286474824,628.4999981150031"></path><path id="kity_path_695" fill="none" stroke="gray" d="M2218.0000286474824,628.4999981150031L2227.0000286474824,628.4999981150031"></path></g><path id="node_outline69" fill="none" stroke="none" d="M2233.500028885901,617.4999981150031h127a5,5,0,0,1,5,5v12a5,5,0,0,1,-5,5h-127a5,5,0,0,1,-5,-5v-12a5,5,0,0,1,5,-5z"></path><g id="node_text69" fill="black"><text id="kity_text_339" text-rendering="inherit" font-family="微软雅黑,Microsoft YaHei" font-size="12" dy=".8em" y="620.699998088181" x="2238.500028885901">积极心理学的3个目标</text></g></g><g id="minder_node69"><g id="node_expander65" style="cursor: pointer;" display="none"><path id="kity_path_685" fill="white" stroke="gray" d="M2268.500029243529,680.4999988898635A6,6,0,1,1,2256.500029243529,680.4999988898635A6,6,0,1,1,2268.500029243529,680.4999988898635"></path><path id="kity_path_686" fill="none" stroke="gray"></path></g><path id="node_outline66" fill="none" stroke="none" d="M2273.5000294819474,669.4999988898635h264a5,5,0,0,1,5,5v12a5,5,0,0,1,-5,5h-264a5,5,0,0,1,-5,-5v-12a5,5,0,0,1,5,-5z"></path><g id="node_text66" fill="black"><text id="kity_text_333" text-rendering="inherit" font-family="微软雅黑,Microsoft YaHei" font-size="12" dy=".8em" y="672.6999988630414" x="2278.5000294819474">心理学不仅要关注人的弱点，还要关注人的优势</text></g></g><g id="minder_node70"><g id="node_expander66" style="cursor: pointer;" display="none"><path id="kity_path_688" fill="white" stroke="gray" d="M2268.500029243529,732.4999996647239A6,6,0,1,1,2256.500029243529,732.4999996647239A6,6,0,1,1,2268.500029243529,732.4999996647239"></path><path id="kity_path_689" fill="none" stroke="gray"></path></g><path id="node_outline67" fill="none" stroke="none" d="M2273.5000294819474,721.4999996647239h467a5,5,0,0,1,5,5v12a5,5,0,0,1,-5,5h-467a5,5,0,0,1,-5,-5v-12a5,5,0,0,1,5,-5z"></path><g id="node_text67" fill="black"><text id="kity_text_335" text-rendering="inherit" font-family="微软雅黑,Microsoft YaHei" font-size="12" dy=".8em" y="724.6999996379018" x="2278.5000294819474">不仅要致力于修复心理损伤，还要致力于给人力量，让其对生活中美好的东西感兴趣。</text></g></g><g id="minder_node71"><g id="node_expander67" style="cursor: pointer;" display="none"><path id="kity_path_691" fill="white" stroke="gray" d="M2268.500029243529,784.5000004395843A6,6,0,1,1,2256.500029243529,784.5000004395843A6,6,0,1,1,2268.500029243529,784.5000004395843"></path><path id="kity_path_692" fill="none" stroke="gray"></path></g><path id="node_outline68" fill="none" stroke="none" d="M2273.5000294819474,773.5000004395843h395a5,5,0,0,1,5,5v12a5,5,0,0,1,-5,5h-395a5,5,0,0,1,-5,-5v-12a5,5,0,0,1,5,-5z"></path><g id="node_text68" fill="black"><text id="kity_text_337" text-rendering="inherit" font-family="微软雅黑,Microsoft YaHei" font-size="12" dy=".8em" y="776.7000004127622" x="2278.5000294819474">应该在关注病人的同时，努力让正常人以及“天才”们的生活更加美好。</text></g></g><g id="minder_node72"><g id="node_expander72" style="cursor: pointer;"><path id="kity_path_706" fill="white" stroke="gray" d="M2228.5000286474824,836.5000012144446A6,6,0,1,1,2216.5000286474824,836.5000012144446A6,6,0,1,1,2228.5000286474824,836.5000012144446"></path><path id="kity_path_707" fill="none" stroke="gray" d="M2218.0000286474824,836.5000012144446L2227.0000286474824,836.5000012144446"></path></g><path id="node_outline73" fill="none" stroke="none" d="M2233.500028885901,825.5000012144446h126a5,5,0,0,1,5,5v12a5,5,0,0,1,-5,5h-126a5,5,0,0,1,-5,-5v-12a5,5,0,0,1,5,-5z"></path><g id="node_text73" fill="black"><text id="kity_text_347" text-rendering="inherit" font-family="微软雅黑,Microsoft YaHei" font-size="12" dy=".8em" y="828.7000011876225" x="2238.500028885901">情感化设计的3个层面</text></g></g><g id="minder_node73"><g id="node_expander69" style="cursor: pointer;" display="none"><path id="kity_path_697" fill="white" stroke="gray" d="M2268.500029243529,888.500001989305A6,6,0,1,1,2256.500029243529,888.500001989305A6,6,0,1,1,2268.500029243529,888.500001989305"></path><path id="kity_path_698" fill="none" stroke="gray"></path></g><path id="node_outline70" fill="none" stroke="none" d="M2273.5000294819474,877.500001989305h59a5,5,0,0,1,5,5v12a5,5,0,0,1,-5,5h-59a5,5,0,0,1,-5,-5v-12a5,5,0,0,1,5,-5z"></path><g id="node_text70" fill="black"><text id="kity_text_341" text-rendering="inherit" font-family="微软雅黑,Microsoft YaHei" font-size="12" dy=".8em" y="880.7000019624829" x="2278.5000294819474">本能层面</text></g></g><g id="minder_node74"><g id="node_expander70" style="cursor: pointer;" display="none"><path id="kity_path_700" fill="white" stroke="gray" d="M2268.500029243529,940.5000027641654A6,6,0,1,1,2256.500029243529,940.5000027641654A6,6,0,1,1,2268.500029243529,940.5000027641654"></path><path id="kity_path_701" fill="none" stroke="gray"></path></g><path id="node_outline71" fill="none" stroke="none" d="M2273.5000294819474,929.5000027641654h59a5,5,0,0,1,5,5v12a5,5,0,0,1,-5,5h-59a5,5,0,0,1,-5,-5v-12a5,5,0,0,1,5,-5z"></path><g id="node_text71" fill="black"><text id="kity_text_343" text-rendering="inherit" font-family="微软雅黑,Microsoft YaHei" font-size="12" dy=".8em" y="932.7000027373433" x="2278.5000294819474">行为层面</text></g></g><g id="minder_node75"><g id="node_expander71" style="cursor: pointer;" display="none"><path id="kity_path_703" fill="white" stroke="gray" d="M2268.500029243529,992.5000035390258A6,6,0,1,1,2256.500029243529,992.5000035390258A6,6,0,1,1,2268.500029243529,992.5000035390258"></path><path id="kity_path_704" fill="none" stroke="gray"></path></g><path id="node_outline72" fill="none" stroke="none" d="M2273.5000294819474,981.5000035390258h59a5,5,0,0,1,5,5v12a5,5,0,0,1,-5,5h-59a5,5,0,0,1,-5,-5v-12a5,5,0,0,1,5,-5z"></path><g id="node_text72" fill="black"><text id="kity_text_345" text-rendering="inherit" font-family="微软雅黑,Microsoft YaHei" font-size="12" dy=".8em" y="984.7000035122037" x="2278.5000294819474">反思层面</text></g></g><g id="minder_node76"><g id="node_expander79" style="cursor: pointer;"><path id="kity_path_727" fill="white" stroke="gray" d="M2188.500028051436,1044.5000043138862A6,6,0,1,1,2176.500028051436,1044.5000043138862A6,6,0,1,1,2188.500028051436,1044.5000043138862"></path><path id="kity_path_728" fill="none" stroke="gray" d="M2178.000028051436,1044.5000043138862L2187.000028051436,1044.5000043138862"></path></g><path id="node_outline80" fill="#548dd4" stroke="none" d="M2193.5000282898545,1033.5000043138862h71a5,5,0,0,1,5,5v12a5,5,0,0,1,-5,5h-71a5,5,0,0,1,-5,-5v-12a5,5,0,0,1,5,-5z"></path><g id="node_text80" fill="white"><text id="kity_text_361" text-rendering="inherit" font-family="微软雅黑,Microsoft YaHei" font-size="12" dy=".8em" y="1036.700004287064" x="2198.5000282898545">可持续设计</text></g></g><g id="minder_node77"><g id="node_expander74" style="cursor: pointer;" display="none"><path id="kity_path_712" fill="white" stroke="gray" d="M2228.5000286474824,1096.5000050887465A6,6,0,1,1,2216.5000286474824,1096.5000050887465A6,6,0,1,1,2228.5000286474824,1096.5000050887465"></path><path id="kity_path_713" fill="none" stroke="gray"></path></g><path id="node_outline75" fill="none" stroke="none" d="M2233.500028885901,1085.5000050887465h228a5,5,0,0,1,5,5v12a5,5,0,0,1,-5,5h-228a5,5,0,0,1,-5,-5v-12a5,5,0,0,1,5,-5z"></path><g id="node_text75" fill="black"><text id="kity_text_351" text-rendering="inherit" font-family="微软雅黑,Microsoft YaHei" font-size="12" dy=".8em" y="1088.7000050619245" x="2238.500028885901">地球环境的恶化促使人类思考可持续发展</text></g></g><g id="minder_node78"><g id="node_expander78" style="cursor: pointer;"><path id="kity_path_724" fill="white" stroke="gray" d="M2228.5000286474824,1148.500005863607A6,6,0,1,1,2216.5000286474824,1148.500005863607A6,6,0,1,1,2228.5000286474824,1148.500005863607"></path><path id="kity_path_725" fill="none" stroke="gray" d="M2218.0000286474824,1148.500005863607L2227.0000286474824,1148.500005863607"></path></g><path id="node_outline79" fill="none" stroke="none" d="M2233.500028885901,1137.500005863607h191a5,5,0,0,1,5,5v12a5,5,0,0,1,-5,5h-191a5,5,0,0,1,-5,-5v-12a5,5,0,0,1,5,-5z"></path><g id="node_text79" fill="black"><text id="kity_text_359" text-rendering="inherit" font-family="微软雅黑,Microsoft YaHei" font-size="12" dy=".8em" y="1140.7000058367848" x="2238.500028885901">可持续设计指导世界的可持续发展</text></g></g><g id="minder_node79"><g id="node_expander75" style="cursor: pointer;" display="none"><path id="kity_path_715" fill="white" stroke="gray" d="M2268.500029243529,1200.5000066384673A6,6,0,1,1,2256.500029243529,1200.5000066384673A6,6,0,1,1,2268.500029243529,1200.5000066384673"></path><path id="kity_path_716" fill="none" stroke="gray"></path></g><path id="node_outline76" fill="none" stroke="none" d="M2273.5000294819474,1189.5000066384673h673a5,5,0,0,1,5,5v12a5,5,0,0,1,-5,5h-673a5,5,0,0,1,-5,-5v-12a5,5,0,0,1,5,-5z"></path><g id="node_text76" fill="black"><text id="kity_text_353" text-rendering="inherit" font-family="微软雅黑,Microsoft YaHei" font-size="12" dy=".8em" y="1192.7000066116452" x="2278.5000294819474">例子：雷·安德运用可持续设计思想带领自己创办的界面(interface)公司走向可持续发展的道路，以证明商业可实现可持续发展</text></g></g><g id="minder_node80"><g id="node_expander76" style="cursor: pointer;" display="none"><path id="kity_path_718" fill="white" stroke="gray" d="M2268.500029243529,1252.5000074133277A6,6,0,1,1,2256.500029243529,1252.5000074133277A6,6,0,1,1,2268.500029243529,1252.5000074133277"></path><path id="kity_path_719" fill="none" stroke="gray"></path></g><path id="node_outline77" fill="none" stroke="none" d="M2273.5000294819474,1241.5000074133277h575a5,5,0,0,1,5,5v12a5,5,0,0,1,-5,5h-575a5,5,0,0,1,-5,-5v-12a5,5,0,0,1,5,-5z"></path><g id="node_text77" fill="black"><text id="kity_text_355" text-rendering="inherit" font-family="微软雅黑,Microsoft YaHei" font-size="12" dy=".8em" y="1244.7000073865056" x="2278.5000294819474">例子：Amit Kalra提出解决时尚背后环境污染问题的三个创造性方案，促进时尚服装业的向可持续发展转变</text></g></g><g id="minder_node81"><g id="node_expander77" style="cursor: pointer;" display="none"><path id="kity_path_721" fill="white" stroke="gray" d="M2268.500029243529,1304.500008188188A6,6,0,1,1,2256.500029243529,1304.500008188188A6,6,0,1,1,2268.500029243529,1304.500008188188"></path><path id="kity_path_722" fill="none" stroke="gray"></path></g><path id="node_outline78" fill="none" stroke="none" d="M2273.5000294819474,1293.500008188188h346a5,5,0,0,1,5,5v12a5,5,0,0,1,-5,5h-346a5,5,0,0,1,-5,-5v-12a5,5,0,0,1,5,-5z"></path><g id="node_text78" fill="black"><text id="kity_text_357" text-rendering="inherit" font-family="微软雅黑,Microsoft YaHei" font-size="12" dy=".8em" y="1296.700008161366" x="2278.5000294819474">例子：约翰·罗克斯特伦提出5项变革策略建立可持续发展的世界</text></g></g><g id="minder_node82"><g id="node_expander86" style="cursor: pointer;"><path id="kity_path_748" fill="white" stroke="gray" d="M2188.500028051436,1356.5000089630485A6,6,0,1,1,2176.500028051436,1356.5000089630485A6,6,0,1,1,2188.500028051436,1356.5000089630485"></path><path id="kity_path_749" fill="none" stroke="gray" d="M2178.000028051436,1356.5000089630485L2187.000028051436,1356.5000089630485"></path></g><path id="node_outline87" fill="#548dd4" stroke="none" d="M2193.5000282898545,1345.5000089630485h59a5,5,0,0,1,5,5v12a5,5,0,0,1,-5,5h-59a5,5,0,0,1,-5,-5v-12a5,5,0,0,1,5,-5z"></path><g id="node_text87" fill="white"><text id="kity_text_375" text-rendering="inherit" font-family="微软雅黑,Microsoft YaHei" font-size="12" dy=".8em" y="1348.7000089362264" x="2198.5000282898545">系统思维</text></g></g><g id="minder_node83"><g id="node_expander81" style="cursor: pointer;"><path id="kity_path_733" fill="white" stroke="gray" d="M2228.5000286474824,1408.5000097379088A6,6,0,1,1,2216.5000286474824,1408.5000097379088A6,6,0,1,1,2228.5000286474824,1408.5000097379088"></path><path id="kity_path_734" fill="none" stroke="gray" d="M2218.0000286474824,1408.5000097379088L2227.0000286474824,1408.5000097379088"></path></g><path id="node_outline82" fill="none" stroke="none" d="M2233.500028885901,1397.5000097379088h143a5,5,0,0,1,5,5v12a5,5,0,0,1,-5,5h-143a5,5,0,0,1,-5,-5v-12a5,5,0,0,1,5,-5z"></path><g id="node_text82" fill="black"><text id="kity_text_365" text-rendering="inherit" font-family="微软雅黑,Microsoft YaHei" font-size="12" dy=".8em" y="1400.7000097110868" x="2238.500028885901">使用创新设计和系统思维</text></g></g><g id="minder_node84"><g id="node_expander80" style="cursor: pointer;" display="none"><path id="kity_path_730" fill="white" stroke="gray" d="M2268.500029243529,1460.5000105127692A6,6,0,1,1,2256.500029243529,1460.5000105127692A6,6,0,1,1,2268.500029243529,1460.5000105127692"></path><path id="kity_path_731" fill="none" stroke="gray"></path></g><path id="node_outline81" fill="none" stroke="none" d="M2273.5000294819474,1449.5000105127692h432a5,5,0,0,1,5,5v12a5,5,0,0,1,-5,5h-432a5,5,0,0,1,-5,-5v-12a5,5,0,0,1,5,-5z"></path><g id="node_text81" fill="black"><text id="kity_text_363" text-rendering="inherit" font-family="微软雅黑,Microsoft YaHei" font-size="12" dy=".8em" y="1452.7000104859471" x="2278.5000294819474">例子：引入生命周期系统性思考，将设计融入每一个阶段，打破固有的环境民俗</text></g></g><g id="minder_node85"><g id="node_expander84" style="cursor: pointer;"><path id="kity_path_742" fill="white" stroke="gray" d="M2228.5000286474824,1512.5000112876296A6,6,0,1,1,2216.5000286474824,1512.5000112876296A6,6,0,1,1,2228.5000286474824,1512.5000112876296"></path><path id="kity_path_743" fill="none" stroke="gray" d="M2218.0000286474824,1512.5000112876296L2227.0000286474824,1512.5000112876296"></path></g><path id="node_outline85" fill="none" stroke="none" d="M2233.500028885901,1501.5000112876296h112a5,5,0,0,1,5,5v12a5,5,0,0,1,-5,5h-112a5,5,0,0,1,-5,-5v-12a5,5,0,0,1,5,-5z"></path><g id="node_text85" fill="black"><text id="kity_text_371" text-rendering="inherit" font-family="微软雅黑,Microsoft YaHei" font-size="12" dy=".8em" y="1504.7000112608075" x="2238.500028885901">设计如何系统思维?</text></g></g><g id="minder_node86"><g id="node_expander82" style="cursor: pointer;" display="none"><path id="kity_path_736" fill="white" stroke="gray" d="M2268.500029243529,1564.50001206249A6,6,0,1,1,2256.500029243529,1564.50001206249A6,6,0,1,1,2268.500029243529,1564.50001206249"></path><path id="kity_path_737" fill="none" stroke="gray"></path></g><path id="node_outline83" fill="none" stroke="none" d="M2273.5000294819474,1553.50001206249h251a5,5,0,0,1,5,5v12a5,5,0,0,1,-5,5h-251a5,5,0,0,1,-5,-5v-12a5,5,0,0,1,5,-5z"></path><g id="node_text83" fill="black"><text id="kity_text_367" text-rendering="inherit" font-family="微软雅黑,Microsoft YaHei" font-size="12" dy=".8em" y="1556.700012035668" x="2278.5000294819474">例子：通过设计系统化人们对烤面包步骤思考</text></g></g><g id="minder_node87"><g id="node_expander83" style="cursor: pointer;" display="none"><path id="kity_path_739" fill="white" stroke="gray" d="M2268.500029243529,1616.5000128373504A6,6,0,1,1,2256.500029243529,1616.5000128373504A6,6,0,1,1,2268.500029243529,1616.5000128373504"></path><path id="kity_path_740" fill="none" stroke="gray"></path></g><path id="node_outline84" fill="none" stroke="none" d="M2273.5000294819474,1605.5000128373504h252a5,5,0,0,1,5,5v12a5,5,0,0,1,-5,5h-252a5,5,0,0,1,-5,-5v-12a5,5,0,0,1,5,-5z"></path><g id="node_text84" fill="black"><text id="kity_text_369" text-rendering="inherit" font-family="微软雅黑,Microsoft YaHei" font-size="12" dy=".8em" y="1608.7000128105283" x="2278.5000294819474">例子：资本主义不是意识形态，而是操作系统</text></g></g><g id="minder_node88"><g id="node_expander85" style="cursor: pointer;" display="none"><path id="kity_path_745" fill="white" stroke="gray" d="M2228.5000286474824,1668.5000136122108A6,6,0,1,1,2216.5000286474824,1668.5000136122108A6,6,0,1,1,2228.5000286474824,1668.5000136122108"></path><path id="kity_path_746" fill="none" stroke="gray"></path></g><path id="node_outline86" fill="none" stroke="none" d="M2233.500028885901,1657.5000136122108h60a5,5,0,0,1,5,5v12a5,5,0,0,1,-5,5h-60a5,5,0,0,1,-5,-5v-12a5,5,0,0,1,5,-5z"></path><g id="node_text86" fill="black"><text id="kity_text_373" text-rendering="inherit" font-size="12" dy=".8em" y="1660.7000135853887" x="2238.500028885901">权力系统</text></g></g><g id="minder_node27" opacity="1"><g id="node_expander24" style="cursor: pointer;" display="none"><path id="kity_path_562" fill="white" stroke="gray" d="M720.5000061765313,212.49999191612005A6,6,0,1,1,708.5000061765313,212.49999191612005A6,6,0,1,1,720.5000061765313,212.49999191612005"></path><path id="kity_path_563" fill="none" stroke="gray"></path></g><path id="node_outline25" fill="none" stroke="none" d="M725.5000064149499,201.49999191612005h276a5,5,0,0,1,5,5v12a5,5,0,0,1,-5,5h-276a5,5,0,0,1,-5,-5v-12a5,5,0,0,1,5,-5z" stroke-width="3"></path><g id="node_text25" fill="black"><text id="kity_text_251" text-rendering="inherit" font-family="微软雅黑,Microsoft YaHei" font-size="12" dy=".8em" y="204.69999188929796" x="730.5000064149499">人工智能时代，大数据的应用应坚守人类道德底线</text></g></g><g id="minder_node28" opacity="1"><g id="node_expander25" style="cursor: pointer;" display="none"><path id="kity_path_565" fill="white" stroke="gray" d="M720.5000061765313,264.49999269098043A6,6,0,1,1,708.5000061765313,264.49999269098043A6,6,0,1,1,720.5000061765313,264.49999269098043"></path><path id="kity_path_566" fill="none" stroke="gray"></path></g><path id="node_outline26" fill="none" stroke="none" d="M725.5000064149499,253.49999269098043h204a5,5,0,0,1,5,5v12a5,5,0,0,1,-5,5h-204a5,5,0,0,1,-5,-5v-12a5,5,0,0,1,5,-5z" stroke-width="3"></path><g id="node_text26" fill="black"><text id="kity_text_253" text-rendering="inherit" font-size="12" dy=".8em" y="256.69999266415834" x="730.5000064149499">大数据的意义关键在于运用它的人类</text></g></g><g id="minder_node29" opacity="1"><g id="node_expander27" style="cursor: pointer;"><path id="kity_path_571" fill="white" stroke="gray" d="M720.5000061765313,316.4999934658408A6,6,0,1,1,708.5000061765313,316.4999934658408A6,6,0,1,1,720.5000061765313,316.4999934658408"></path><path id="kity_path_572" fill="none" stroke="gray" d="M710.0000061765313,316.4999934658408L719.0000061765313,316.4999934658408"></path></g><path id="node_outline28" fill="none" stroke="none" d="M725.5000064149499,305.4999934658408h167a5,5,0,0,1,5,5v12a5,5,0,0,1,-5,5h-167a5,5,0,0,1,-5,-5v-12a5,5,0,0,1,5,-5z" stroke-width="3"></path><g id="node_text28" fill="black"><text id="kity_text_257" text-rendering="inherit" font-family="微软雅黑,Microsoft YaHei" font-size="12" dy=".8em" y="308.6999934390187" x="730.5000064149499">大数据，取之于民，用之于民</text></g></g><g id="minder_node30"><g id="node_expander26" style="cursor: pointer;" display="none"><path id="kity_path_568" fill="white" stroke="gray" d="M760.5000067725778,368.4999942407012A6,6,0,1,1,748.5000067725778,368.4999942407012A6,6,0,1,1,760.5000067725778,368.4999942407012"></path><path id="kity_path_569" fill="none" stroke="gray"></path></g><path id="node_outline27" fill="none" stroke="none" d="M765.5000070109963,357.4999942407012h120a5,5,0,0,1,5,5v12a5,5,0,0,1,-5,5h-120a5,5,0,0,1,-5,-5v-12a5,5,0,0,1,5,-5z"></path><g id="node_text27" fill="black"><text id="kity_text_255" text-rendering="inherit" font-family="微软雅黑,Microsoft YaHei" font-size="12" dy=".8em" y="360.6999942138791" x="770.5000070109963">例子：分享医疗数据</text></g></g><g id="kity_g_12" display="none"><path id="kity_path_13" fill="none" stroke="rgb(66, 94, 112)" d="M725.5000094398856,721.4999895319343h60a5,5,0,0,1,5,5v12a5,5,0,0,1,-5,5h-60a5,5,0,0,1,-5,-5v-12a5,5,0,0,1,5,-5z" stroke-width="5"></path></g><g id="minder_node34"><g id="node_expander31" style="cursor: pointer;" display="none"><path id="kity_path_583" fill="white" stroke="gray" d="M760.5000067725778,784.5000004395843A6,6,0,1,1,748.5000067725778,784.5000004395843A6,6,0,1,1,760.5000067725778,784.5000004395843"></path><path id="kity_path_584" fill="none" stroke="gray"></path></g><path id="node_outline32" fill="none" stroke="none" d="M765.5000070109963,773.5000004395843h263a5,5,0,0,1,5,5v12a5,5,0,0,1,-5,5h-263a5,5,0,0,1,-5,-5v-12a5,5,0,0,1,5,-5z"></path><g id="node_text32" fill="black"><text id="kity_text_265" text-rendering="inherit" font-family="微软雅黑,Microsoft YaHei" font-size="12" dy=".8em" y="776.7000004127622" x="770.5000070109963">承担道德责任，科技公司应将推荐算法透明化。</text></g></g></g></g></svg>